<svg xmlns="http://www.w3.org/2000/svg" viewBox="0 0 24 24">
  <path fill-rule="evenodd" d="M13.377 11.461c.376-.272.623-.712.623-1.211 0-.827-.673-1.5-1.5-1.5h-1c-.827 0-1.5.673-1.5 1.5 0 .499.247.939.623 1.211A1.998 1.998 0 0 0 9.5 13.25c0 1.102.897 2 2 2h1c1.103 0 2-.898 2-2 0-.786-.461-1.463-1.123-1.789ZM12.5 9.75a.5.5 0 0 1 0 1h-1a.5.5 0 0 1 0-1h1Zm-1 4.5a1.001 1.001 0 0 1 0-2h1a1.001 1.001 0 0 1 0 2h-1Z" clip-rule="evenodd"/>
  <path fill-rule="evenodd" d="M24 12c0 6.627-5.373 12-12 12S0 18.627 0 12 5.373 0 12 0s12 5.373 12 12Zm-6 0a6 6 0 1 1-12 0 6 6 0 0 1 12 0Z" clip-rule="evenodd"/>
</svg>
