<svg xmlns="http://www.w3.org/2000/svg" viewBox="0 0 24 24">
  <g clip-path="url(#a)">
    <path d="M8.5 1A7.5 7.5 0 0 0 1 8.5a.5.5 0 0 1-1 0A8.5 8.5 0 0 1 8.5 0a.5.5 0 0 1 0 1Z"/>
    <path d="M8.5 4A4.5 4.5 0 0 0 4 8.5a.5.5 0 0 1-1 0A5.5 5.5 0 0 1 8.5 3a.5.5 0 0 1 0 1ZM20 8.5A4.5 4.5 0 0 0 15.5 4a.5.5 0 0 1 0-1A5.5 5.5 0 0 1 21 8.5a.5.5 0 0 1-1 0Z"/>
    <path d="M23 8.5A7.5 7.5 0 0 0 15.5 1a.5.5 0 0 1 0-1A8.5 8.5 0 0 1 24 8.5a.5.5 0 0 1-1 0Z"/>
    <path fill-rule="evenodd" d="M3.997 15.995a8.002 8.002 0 0 1 8.006-8.003c4.412 0 8.005 3.581 8.005 8.003 0 4.412-3.593 8.003-8.005 8.003a8.009 8.009 0 0 1-8.006-8.003ZM12.5 12a.5.5 0 1 0-1 0v3.5H8a.5.5 0 0 0 0 1h3.5V20a.5.5 0 0 0 1 0v-3.5H16a.5.5 0 1 0 0-1h-3.5V12Z" clip-rule="evenodd"/>
  </g>
  <defs>
    <clipPath id="a">
      <path d="M0 0h24v24H0z"/>
    </clipPath>
  </defs>
</svg>
