<svg xmlns="http://www.w3.org/2000/svg" viewBox="0 0 24 24">
  <path fill-rule="evenodd" d="M2 0a2 2 0 0 0-2 2v9h24V2a2 2 0 0 0-2-2H2Zm18 9.5a.5.5 0 1 1-1 0 .5.5 0 0 1 1 0Zm-3.5.5a.5.5 0 1 0 0-1 .5.5 0 0 0 0 1ZM3 3.5a.5.5 0 0 1 .5-.5h17a.5.5 0 0 1 0 1h-17a.5.5 0 0 1-.5-.5ZM3.5 5a.5.5 0 0 0 0 1h17a.5.5 0 0 0 0-1h-17Zm0 2a.5.5 0 0 0 0 1h17a.5.5 0 0 0 0-1h-17Z" clip-rule="evenodd"/>
  <path d="M5.854 17.146a.5.5 0 0 0-.707.707c.611.611.359 1.344-.103 2.49-.437 1.082-.979 2.427.103 3.51a.498.498 0 1 0 .707-.706c-.585-.585-.336-1.304.117-2.429.443-1.097.993-2.462-.117-3.572Zm6 0a.5.5 0 0 0-.707.707c.611.611.359 1.344-.103 2.49-.437 1.082-.979 2.427.103 3.51a.498.498 0 1 0 .707-.706c-.585-.585-.336-1.304.117-2.429.443-1.097.993-2.462-.117-3.572Zm6.5 0a.5.5 0 0 0-.707.707c.611.611.359 1.344-.103 2.49-.437 1.082-.979 2.427.103 3.51a.498.498 0 1 0 .707-.706c-.585-.585-.336-1.304.117-2.429.443-1.097.993-2.462-.117-3.572ZM0 12h24v1a2 2 0 0 1-2 2H2a2 2 0 0 1-2-2v-1Z"/>
</svg>
