<svg xmlns="http://www.w3.org/2000/svg" viewBox="0 0 24 24">
  <path d="M6.497 6.314a.5.5 0 1 1-.928.373c-.571-1.416-.285-2.479-.032-3.417l.001-.004c.23-.853.428-1.59.03-2.58a.501.501 0 0 1 .929-.373c.523 1.3.25 2.317.007 3.214l-.001.002c-.243.901-.452 1.678-.006 2.785Zm5.723.65a.5.5 0 0 0 .277-.65c-.446-1.107-.237-1.884.006-2.785v-.002c.244-.897.517-1.914-.006-3.214a.501.501 0 0 0-.928.374c.397.99.199 1.726-.03 2.579l-.002.004c-.253.938-.539 2 .032 3.417a.5.5 0 0 0 .65.277Zm6.277-.65a.5.5 0 1 1-.928.373c-.571-1.416-.285-2.479-.032-3.417v-.002l.001-.002c.23-.853.428-1.59.03-2.58a.501.501 0 0 1 .929-.373c.523 1.3.25 2.317.007 3.214l-.001.002c-.243.901-.452 1.678-.006 2.785Z"/>
  <path fill-rule="evenodd" d="M0 10.5A2.5 2.5 0 0 1 2.5 8h19a2.5 2.5 0 0 1 2.5 2.5v10a2.5 2.5 0 0 1-2.5 2.5H19v.5a.5.5 0 0 1-1 0V23H6v.5a.5.5 0 0 1-1 0V23H2.5A2.5 2.5 0 0 1 0 20.5v-10Zm8 1.016a.5.5 0 0 0-1 0v8a.5.5 0 1 0 1 0v-8Zm3 0a.5.5 0 0 0-1 0v8a.5.5 0 1 0 1 0v-8Zm3 0a.5.5 0 0 0-1 0v8a.5.5 0 1 0 1 0v-8Zm3 0a.5.5 0 0 0-1 0v8a.5.5 0 1 0 1 0v-8Zm3 0a.5.5 0 0 0-1 0v8a.5.5 0 1 0 1 0v-8ZM4 12a1 1 0 1 1-2 0 1 1 0 0 1 2 0Zm-1 4a1 1 0 1 0 0-2 1 1 0 0 0 0 2Z" clip-rule="evenodd"/>
</svg>
