<svg xmlns="http://www.w3.org/2000/svg" viewBox="0 0 24 24">
  <path d="M2.423 9.19a10.528 10.528 0 0 1 6.576-5.755 4.5 4.5 0 1 0-6.577 5.754Zm3.63 12.964a10.5 10.5 0 0 1-.803-.611l-.604.603a.5.5 0 1 0 .708.707l.699-.699Z"/>
  <path fill-rule="evenodd" d="M13.233 22.92a9.5 9.5 0 1 1 8.225-8.527 1.493 1.493 0 0 0-.914.192l-.147.085v-.17a1.5 1.5 0 0 0-1.5-1.5h-2a1.5 1.5 0 0 0-1.5 1.5v.17l-.147-.085a1.5 1.5 0 0 0-2.048.55l-1 1.732a1.5 1.5 0 0 0 .549 2.049l.147.085-.148.085a1.5 1.5 0 0 0-.549 2.049l1 1.732.032.054ZM12.5 8a.5.5 0 0 1 .5.5v6a.5.5 0 0 1-.5.5h-4a.5.5 0 0 1 0-1H12V8.5a.5.5 0 0 1 .5-.5Z" clip-rule="evenodd"/>
  <path d="M21.577 9.19A4.5 4.5 0 1 0 15 3.435a10.528 10.528 0 0 1 6.577 5.753ZM17.897 18a1 1 0 1 0 0 2 1 1 0 0 0 0-2Z"/>
  <path fill-rule="evenodd" d="M16.897 14a.5.5 0 0 0-.5.5v.808a3.98 3.98 0 0 0-.953.544l-.693-.4a.5.5 0 0 0-.683.183l-1 1.732a.5.5 0 0 0 .183.683l.69.398a3.554 3.554 0 0 0 0 1.105l-.69.399a.5.5 0 0 0-.184.683l1 1.732a.5.5 0 0 0 .683.183l.695-.402c.29.224.61.406.952.543v.809a.5.5 0 0 0 .5.5h2a.5.5 0 0 0 .5-.5v-.808c.342-.137.662-.32.952-.543l.695.401a.5.5 0 0 0 .683-.183l1-1.732a.5.5 0 0 0-.183-.683l-.69-.399a3.554 3.554 0 0 0 0-1.105l.69-.398a.5.5 0 0 0 .182-.683l-1-1.732a.5.5 0 0 0-.683-.183l-.694.4a3.99 3.99 0 0 0-.952-.544V14.5a.5.5 0 0 0-.5-.5h-2Zm1 3a2 2 0 1 0 0 4 2 2 0 0 0 0-4Z" clip-rule="evenodd"/>
</svg>
