<svg xmlns="http://www.w3.org/2000/svg" viewBox="0 0 24 24">
  <path d="M10 2a2 2 0 0 1 3.738-.99 7.5 7.5 0 0 0 6.466 13.487l1.65 1.65A.5.5 0 0 1 22 16.5v3a.5.5 0 0 1-.5.5h-19a.5.5 0 0 1-.5-.5v-3a.5.5 0 0 1 .146-.354L4 14.293V10c0-3.728 2.55-6.86 6-7.748V2Z"/>
  <path fill-rule="evenodd" d="M17.5 1a6.5 6.5 0 1 0 0 13 6.5 6.5 0 0 0 0-13ZM17 4.5a.5.5 0 0 1 .5.5v3h2a.5.5 0 0 1 0 1H17a.5.5 0 0 1-.5-.5V5a.5.5 0 0 1 .5-.5Z" clip-rule="evenodd"/>
  <path d="M10 21a.5.5 0 0 0-.5.5v.03A2.47 2.47 0 0 0 11.97 24h.06a2.47 2.47 0 0 0 2.47-2.47v-.03a.5.5 0 0 0-.5-.5h-4Z"/>
</svg>
