<svg xmlns="http://www.w3.org/2000/svg" viewBox="0 0 24 24">
  <path fill-rule="evenodd" d="M11.5 4h1a7 7 0 0 1 7 7v8h-15v-8a7 7 0 0 1 7-7ZM4 20h16a1.5 1.5 0 0 1 1.5 1.5v1a.5.5 0 0 1-.5.5H3a.5.5 0 0 1-.5-.5v-1A1.5 1.5 0 0 1 4 20Zm8-14.5a6 6 0 0 0-6 6 .5.5 0 0 0 1 0 5 5 0 0 1 5-5 .5.5 0 0 0 0-1Zm9 6.5a.5.5 0 0 1 0-1h2a.5.5 0 0 1 0 1h-2ZM3 11a.5.5 0 0 1 0 1H1a.5.5 0 0 1 0-1h2Zm1.456-4.433a.5.5 0 0 1-.5.866l-1.732-1a.5.5 0 0 1 .5-.866l1.732 1Zm3.477-3.111a.5.5 0 0 1-.866.5l-1-1.732a.5.5 0 0 1 .866-.5l1 1.732ZM12.5 2.5a.5.5 0 0 1-1 0v-2a.5.5 0 0 1 1 0v2Zm4.433 1.456a.5.5 0 0 1-.866-.5l1-1.732a.5.5 0 0 1 .866.5l-1 1.732Zm3.111 3.477a.5.5 0 0 1-.5-.866l1.732-1a.5.5 0 0 1 .5.866l-1.732 1Z" clip-rule="evenodd"/>
</svg>
