<svg xmlns="http://www.w3.org/2000/svg" viewBox="0 0 24 24">
  <path fill-rule="evenodd" d="M11 14.937V19H4v-8a7 7 0 0 1 7-7h1a7 7 0 0 1 7 7v8h-7v-4.063a2 2 0 1 0-1 0ZM3.5 20h16a1.5 1.5 0 0 1 1.5 1.5v1a.5.5 0 0 1-.5.5h-18a.5.5 0 0 1-.5-.5v-1A1.5 1.5 0 0 1 3.5 20Zm8-6a1 1 0 1 1 0-2 1 1 0 0 1 0 2Zm9-2a.5.5 0 0 1 0-1h2a.5.5 0 0 1 0 1h-2Zm-18-1a.5.5 0 0 1 0 1h-2a.5.5 0 0 1 0-1h2Zm1.456-4.433a.5.5 0 0 1-.5.866l-1.732-1a.5.5 0 0 1 .5-.866l1.732 1Zm3.477-3.111a.5.5 0 0 1-.866.5l-1-1.732a.5.5 0 0 1 .866-.5l1 1.732ZM12 2.5a.5.5 0 0 1-1 0v-2a.5.5 0 0 1 1 0v2Zm4.433 1.456a.5.5 0 0 1-.866-.5l1-1.732a.5.5 0 0 1 .866.5l-1 1.732Zm3.111 3.477a.5.5 0 0 1-.5-.866l1.732-1a.5.5 0 0 1 .5.866l-1.732 1Z" clip-rule="evenodd"/>
</svg>
