<svg xmlns="http://www.w3.org/2000/svg" viewBox="0 0 24 24">
  <path d="M8.5 1A7.5 7.5 0 0 0 1 8.5a.5.5 0 0 1-1 0A8.5 8.5 0 0 1 8.5 0a.5.5 0 0 1 0 1Z"/>
  <path d="M8.5 4A4.5 4.5 0 0 0 4 8.5a.5.5 0 0 1-1 0A5.5 5.5 0 0 1 8.5 3a.5.5 0 0 1 0 1ZM20 8.5A4.5 4.5 0 0 0 15.5 4a.5.5 0 0 1 0-1A5.5 5.5 0 0 1 21 8.5a.5.5 0 0 1-1 0Z"/>
  <path d="M23 8.5A7.5 7.5 0 0 0 15.5 1a.5.5 0 0 1 0-1A8.5 8.5 0 0 1 24 8.5a.5.5 0 0 1-1 0Z"/>
  <path fill-rule="evenodd" d="M12.002 7.992a8.002 8.002 0 1 0 0 16.006c4.413 0 8.006-3.59 8.006-8.003 0-4.422-3.593-8.003-8.005-8.003Zm-1.53 2.688c.134-.131.319-.221.494-.16 2.826.944 4.957 3.96 4.957 7.012a3.966 3.966 0 0 1-3.961 3.962A3.966 3.966 0 0 1 8 17.532c0-1.195 1.119-2.803 1.247-2.982a.5.5 0 0 1 .406-.21h.002a.5.5 0 0 1 .406.21c.178.246.425.586.645.883.496-1.456-.02-3.134-.347-4.198l-.002-.008c-.056-.178-.019-.417.115-.547Z" clip-rule="evenodd"/>
</svg>
