<svg xmlns="http://www.w3.org/2000/svg" viewBox="0 0 24 24">
  <path d="M8.5 1A7.5 7.5 0 0 0 1 8.5a.5.5 0 0 1-1 0A8.5 8.5 0 0 1 8.5 0a.5.5 0 0 1 0 1Z"/>
  <path d="M8.5 4A4.5 4.5 0 0 0 4 8.5a.5.5 0 0 1-1 0A5.5 5.5 0 0 1 8.5 3a.5.5 0 0 1 0 1ZM20 8.5A4.5 4.5 0 0 0 15.5 4a.5.5 0 0 1 0-1A5.5 5.5 0 0 1 21 8.5a.5.5 0 0 1-1 0Z"/>
  <path d="M23 8.5A7.5 7.5 0 0 0 15.5 1a.5.5 0 0 1 0-1A8.5 8.5 0 0 1 24 8.5a.5.5 0 0 1-1 0Z"/>
  <path fill-rule="evenodd" d="M12.002 7.992a8.002 8.002 0 1 0 0 16.006c4.413 0 8.006-3.59 8.006-8.003 0-4.422-3.593-8.003-8.005-8.003ZM9.278 13.92l2.218-2.206a.686.686 0 0 1 .527-.214.74.74 0 0 1 .527.22l2.168 2.203a3.829 3.829 0 0 1-.012 5.415 3.84 3.84 0 0 1-5.422-.003 3.83 3.83 0 0 1-.006-5.415Z" clip-rule="evenodd"/>
</svg>
