<svg xmlns="http://www.w3.org/2000/svg" viewBox="0 0 24 24">
  <path d="M10 2a2 2 0 0 1 3.738-.99 7.5 7.5 0 0 0 6.466 13.487l1.65 1.65A.5.5 0 0 1 22 16.5v3a.5.5 0 0 1-.5.5h-19a.5.5 0 0 1-.5-.5v-3a.5.5 0 0 1 .146-.354L4 14.293V10c0-3.728 2.55-6.86 6-7.748V2Z"/>
  <path fill-rule="evenodd" d="M12.904 2.904a6.5 6.5 0 1 1 9.192 9.192 6.5 6.5 0 0 1-9.192-9.192Zm6.95 2.242a.5.5 0 0 1 0 .708L18.207 7.5l1.647 1.646a.5.5 0 0 1-.708.708L17.5 8.207l-1.646 1.647a.5.5 0 0 1-.708-.708L16.793 7.5l-1.647-1.646a.5.5 0 0 1 .708-.708L17.5 6.793l1.646-1.647a.5.5 0 0 1 .708 0Z" clip-rule="evenodd"/>
  <path d="M10 21a.5.5 0 0 0-.5.5v.03A2.47 2.47 0 0 0 11.97 24h.06a2.47 2.47 0 0 0 2.47-2.47v-.03a.5.5 0 0 0-.5-.5h-4Z"/>
</svg>
