<svg viewBox="0 0 24 24" xmlns="http://www.w3.org/2000/svg"><path d="m8.5 1a7.5 7.5 0 0 0 -7.5 7.5.5.5 0 0 1 -1 0 8.5 8.5 0 0 1 8.5-8.5.5.5 0 0 1 0 1z"/><path d="m8.5 4a4.5 4.5 0 0 0 -4.5 4.5.5.5 0 0 1 -1 0 5.5 5.5 0 0 1 5.5-5.5.5.5 0 0 1 0 1zm11.5 4.5a4.5 4.5 0 0 0 -4.5-4.5.5.5 0 0 1 0-1 5.5 5.5 0 0 1 5.5 5.5.5.5 0 0 1 -1 0z"/><path d="m15.5 1a7.5 7.5 0 0 1 7.5 7.5.5.5 0 0 0 1 0 8.5 8.5 0 0 0 -8.5-8.5.5.5 0 0 0 0 1z"/><path clip-rule="evenodd" d="m12.002 7.992a8.002 8.002 0 1 0 0 16.006c4.413 0 8.006-3.59 8.006-8.003 0-4.422-3.593-8.003-8.005-8.003zm1.382 4.328a.5.5 0 0 0 -.768-.64l-2.5 3a.5.5 0 0 0 .384.82h2.066l-1.855 2.782-.226-.903a.5.5 0 0 0 -.97.242l.5 2a.5.5 0 0 0 .583.37l2.5-.5a.5.5 0 0 0 -.196-.981l-1.316.263 2.33-3.496a.5.5 0 0 0 -.416-.777h-1.932z" fill-rule="evenodd"/></svg>