<svg xmlns="http://www.w3.org/2000/svg" viewBox="0 0 24 24">
  <path d="M9 3.435a10.528 10.528 0 0 0-6.577 5.754A4.5 4.5 0 1 1 9 3.435ZM5.25 21.543c.257.216.525.42.803.611l-.7.7a.5.5 0 1 1-.707-.708l.604-.603Zm13.5 0c-.257.216-.525.42-.803.611l.7.7a.5.5 0 0 0 .707-.708l-.604-.603Z"/>
  <path fill-rule="evenodd" d="M12 23a9.5 9.5 0 1 0 0-19 9.5 9.5 0 0 0 0 19Zm1-14.5a.5.5 0 0 0-1 0V14H8.5a.5.5 0 0 0 0 1h4a.5.5 0 0 0 .5-.5v-6Z" clip-rule="evenodd"/>
  <path d="M23.5 5.5c0 1.527-.76 2.876-1.923 3.69a10.528 10.528 0 0 0-6.576-5.755A4.5 4.5 0 0 1 23.5 5.5Z"/>
</svg>
