<svg xmlns="http://www.w3.org/2000/svg" viewBox="0 0 24 24">
  <g clip-path="url(#a)">
    <path d="M8.5 10.5a.5.5 0 1 1-1 0 .5.5 0 0 1 1 0Zm3.5.5a.5.5 0 1 0 0-1 .5.5 0 0 0 0 1Zm4.5-.5a.5.5 0 1 1-1 0 .5.5 0 0 1 1 0Z"/>
    <path fill-rule="evenodd" d="M12.354 1.146a.5.5 0 0 0-.707 0l-11.5 11.5A.5.5 0 0 0 .5 13.5H3v10a.5.5 0 0 0 .5.5h17a.5.5 0 0 0 .5-.5v-10h2.5a.5.5 0 0 0 .354-.854l-11.5-11.5ZM12 2.207 22.293 12.5H1.707L12 2.207Z" clip-rule="evenodd"/>
    <path d="M15.538 2.309A.5.5 0 0 1 16 2h3.5a.5.5 0 0 1 .5.5V6a.5.5 0 0 1-.854.354l-3.5-3.5a.5.5 0 0 1-.108-.545Z"/>
  </g>
  <defs>
    <clipPath id="a">
      <path d="M0 0h24v24H0z"/>
    </clipPath>
  </defs>
</svg>
