<svg xmlns="http://www.w3.org/2000/svg" viewBox="0 0 24 24">
  <g clip-path="url(#a)">
    <path fill-rule="evenodd" d="M0 12C0 5.383 5.383 0 12 0s12 5.383 12 12-5.383 12-12 12S0 18.617 0 12Zm12.454-7.71a.5.5 0 0 0-.908 0l-3.688 7.99-.004.01-.005.01-2.303 4.99a.5.5 0 1 0 .908.42L8.628 13h6.744l2.174 4.71a.5.5 0 1 0 .908-.42l-2.303-4.99a.51.51 0 0 0-.01-.02l-3.687-7.99Z" clip-rule="evenodd"/>
    <path d="M14.91 12 12 5.693 9.09 12h5.82Z"/>
  </g>
  <defs>
    <clipPath id="a">
      <path d="M0 0h24v24H0z"/>
    </clipPath>
  </defs>
</svg>
