<svg xmlns="http://www.w3.org/2000/svg" viewBox="0 0 24 24">
  <g clip-path="url(#a)">
    <path d="m12 2.177 11.163 10.192a.498.498 0 0 0 .706-.033.498.498 0 0 0-.032-.705l-11.5-10.5a.498.498 0 0 0-.674 0l-11.5 10.5a.497.497 0 0 0-.032.705.498.498 0 0 0 .706.033L12 2.177Zm8 .323v4.273L14.773 2H19.5a.5.5 0 0 1 .5.5Zm3.854 15.646-4-4a.5.5 0 0 0-.707.708L22.293 18H13.5a.5.5 0 0 0 0 1h8.793l-3.146 3.146a.5.5 0 0 0 .707.708l4-4a.5.5 0 0 0 0-.708Z"/>
    <path fill-rule="evenodd" d="m3 11.747 9-8.216 9 8.217v2.13l-.44-.439a1.5 1.5 0 0 0-2.12 2.122L19.878 17H13.5a1.5 1.5 0 0 0 0 3h6.379l-1.44 1.44a1.5 1.5 0 0 0 2.122 2.12l.439-.439v.379a.5.5 0 0 1-.5.5h-17a.5.5 0 0 1-.5-.5V11.747ZM11.5 7a.5.5 0 0 0-.5.5v1a.5.5 0 0 0 .5.5h1a.5.5 0 0 0 .5-.5v-1a.5.5 0 0 0-.5-.5h-1Z" clip-rule="evenodd"/>
  </g>
  <defs>
    <clipPath id="a">
      <path d="M0 0h24v24H0z"/>
    </clipPath>
  </defs>
</svg>
