<svg xmlns="http://www.w3.org/2000/svg" viewBox="0 0 24 24">
  <path d="M1.36 0a.5.5 0 0 0-.474.342L0 3h4V.5a.5.5 0 0 0-.5-.5H1.36ZM4 4a2 2 0 1 1-4 0h4Zm5 0a2 2 0 1 1-4 0h4Zm3 2a2 2 0 0 0 2-2h-4a2 2 0 0 0 2 2Zm7-2a2 2 0 1 1-4 0h4ZM5 .5a.5.5 0 0 1 .5-.5h3a.5.5 0 0 1 .5.5V3H5V.5Zm5.5-.5a.5.5 0 0 0-.5.5V3h4V.5a.5.5 0 0 0-.5-.5h-3Zm4.5.5a.5.5 0 0 1 .5-.5h3a.5.5 0 0 1 .5.5V3h-4V.5ZM22 6a2 2 0 0 0 2-2h-4a2 2 0 0 0 2 2ZM20 .5a.5.5 0 0 1 .5-.5h2.14a.5.5 0 0 1 .474.342L24 3h-4V.5Zm-17 7V23h18V7.5a.5.5 0 0 1 1 0V23h1.5a.5.5 0 0 1 .09.992L23.5 24H.5a.5.5 0 0 1-.09-.992L.5 23H2V7.5a.5.5 0 1 1 1 0Z"/>
</svg>
