<svg xmlns="http://www.w3.org/2000/svg" viewBox="0 0 24 24">
  <path d="M.955.45A.5.5 0 0 1 1.452 0H3.5a.5.5 0 0 1 .5.5V9H0L.955.45ZM2 12a2 2 0 0 0 2-2H0a2 2 0 0 0 2 2Zm5 0a2 2 0 0 0 2-2H5a2 2 0 0 0 2 2Zm7-2a2 2 0 1 1-4 0h4Zm3 2a2 2 0 0 0 2-2h-4a2 2 0 0 0 2 2ZM5.5 0a.5.5 0 0 0-.5.5V9h4V.5a.5.5 0 0 0-.5-.5h-3Zm4.5.5a.5.5 0 0 1 .5-.5h3a.5.5 0 0 1 .5.5V9h-4V.5Zm5.5-.5a.5.5 0 0 0-.5.5V9h4V.5a.5.5 0 0 0-.5-.5h-3ZM24 10a2 2 0 1 1-4 0h4ZM20.5 0a.5.5 0 0 0-.5.5V9h4L23.045.45a.5.5 0 0 0-.498-.45H20.5Zm-9 17.54v5.96a.5.5 0 0 0 1 0v-5.96l1.688 1.35a.5.5 0 1 0 .624-.78l-2.495-1.997a.498.498 0 0 0-.632-.001L9.188 18.11a.5.5 0 1 0 .624.78l1.688-1.35Z"/>
</svg>
