<svg xmlns="http://www.w3.org/2000/svg" viewBox="0 0 24 24">
  <path d="M1.452 0a.5.5 0 0 0-.497.45L0 9h4V.5a.5.5 0 0 0-.5-.5H1.452ZM4 10a2 2 0 1 1-4 0h4Zm5 0a2 2 0 1 1-4 0h4Zm3 2a2 2 0 0 0 2-2h-4a2 2 0 0 0 2 2Zm7-2a2 2 0 1 1-4 0h4ZM5 .5a.5.5 0 0 1 .5-.5h3a.5.5 0 0 1 .5.5V9H5V.5Zm5.5-.5a.5.5 0 0 0-.5.5V9h4V.5a.5.5 0 0 0-.5-.5h-3Zm4.5.5a.5.5 0 0 1 .5-.5h3a.5.5 0 0 1 .5.5V9h-4V.5ZM22 12a2 2 0 0 0 2-2h-4a2 2 0 0 0 2 2ZM20 .5a.5.5 0 0 1 .5-.5h2.047a.5.5 0 0 1 .498.45L24 9h-4V.5ZM3 13v10h18V13h1v10h1.5a.5.5 0 0 1 .09.992L23.5 24H.5a.5.5 0 0 1-.09-.992L.5 23H2V13h1Z"/>
</svg>
