<svg xmlns="http://www.w3.org/2000/svg" viewBox="0 0 24 24">
  <path d="M1.448 0A.5.5 0 0 0 .95.445L0 9h4V.5a.5.5 0 0 0-.5-.5H1.448ZM4 10a2 2 0 1 1-4 0h4Zm5 0a2 2 0 1 1-4 0h4Zm3 2a2 2 0 0 0 2-2h-4a2 2 0 0 0 2 2Zm7-2a2 2 0 1 1-4 0h4ZM5 .5a.5.5 0 0 1 .5-.5h3a.5.5 0 0 1 .5.5V9H5V.5Zm5.5-.5a.5.5 0 0 0-.5.5V9h4V.5a.5.5 0 0 0-.5-.5h-3Zm4.5.5a.5.5 0 0 1 .5-.5h3a.5.5 0 0 1 .5.5V9h-4V.5ZM22 12a2 2 0 0 0 2-2h-4a2 2 0 0 0 2 2ZM20 .5a.5.5 0 0 1 .5-.5h2.052a.5.5 0 0 1 .497.445L24 9h-4V.5Zm-17 13V23h18v-9.5a.5.5 0 0 1 1 0V23h1.5a.5.5 0 0 1 .09.992L23.5 24H.5a.5.5 0 0 1-.09-.992L.5 23H2v-9.5a.5.5 0 0 1 1 0Z"/>
  <path d="M11.5 15.54v4.96a.5.5 0 0 0 1 0v-4.96l1.688 1.35a.5.5 0 1 0 .624-.78l-2.495-1.997a.498.498 0 0 0-.632-.001L9.188 16.11a.5.5 0 1 0 .624.78l1.688-1.35Z"/>
</svg>
