<svg xmlns="http://www.w3.org/2000/svg" viewBox="0 0 24 24">
  <path d="M.886.342A.5.5 0 0 1 1.36 0H3.5a.5.5 0 0 1 .5.5V3H0L.886.342ZM2 6a2 2 0 0 0 2-2H0a2 2 0 0 0 2 2Zm5 0a2 2 0 0 0 2-2H5a2 2 0 0 0 2 2Zm7-2a2 2 0 1 1-4 0h4Zm3 2a2 2 0 0 0 2-2h-4a2 2 0 0 0 2 2ZM5.5 0a.5.5 0 0 0-.5.5V3h4V.5a.5.5 0 0 0-.5-.5h-3Zm4.5.5a.5.5 0 0 1 .5-.5h3a.5.5 0 0 1 .5.5V3h-4V.5Zm5.5-.5a.5.5 0 0 0-.5.5V3h4V.5a.5.5 0 0 0-.5-.5h-3ZM24 4a2 2 0 1 1-4 0h4Zm-3.5-4a.5.5 0 0 0-.5.5V3h4L23.114.342A.5.5 0 0 0 22.64 0H20.5ZM9.11 21.188a.5.5 0 0 1 .702-.078l1.688 1.35V10.5a.5.5 0 0 1 1 0v11.96l1.688-1.35a.5.5 0 1 1 .624.78l-2.497 1.998a.498.498 0 0 1-.632-.001L9.188 21.89a.5.5 0 0 1-.078-.702Z"/>
</svg>
