<svg xmlns="http://www.w3.org/2000/svg" viewBox="0 0 24 24">
  <path d="M.886.342A.5.5 0 0 1 1.36 0H3.5a.5.5 0 0 1 .5.5V3H0L.886.342ZM2 6a2 2 0 0 0 2-2H0a2 2 0 0 0 2 2Zm7-2a2 2 0 1 1-4 0h4Zm5 0a2 2 0 1 1-4 0h4Zm5 0a2 2 0 1 1-4 0h4ZM5.5 0a.5.5 0 0 0-.5.5V3h4V.5a.5.5 0 0 0-.5-.5h-3Zm5 0a.5.5 0 0 0-.5.5V3h4V.5a.5.5 0 0 0-.5-.5h-3Zm5 0a.5.5 0 0 0-.5.5V3h4V.5a.5.5 0 0 0-.5-.5h-3ZM22 6a2 2 0 0 0 2-2h-4a2 2 0 0 0 2 2Zm-1.5-6a.5.5 0 0 0-.5.5V3h4L23.114.342A.5.5 0 0 0 22.64 0H20.5Zm-18 7a.5.5 0 0 1 .5.5V23h18V7.5a.5.5 0 0 1 1 0V23h1.5a.5.5 0 0 1 .09.992L23.5 24H.5a.5.5 0 0 1-.09-.992L.5 23H2V7.5a.5.5 0 0 1 .5-.5Z"/>
  <path d="M9.812 18.11a.5.5 0 1 0-.624.78l2.495 1.997a.498.498 0 0 0 .632.001l2.497-1.998a.5.5 0 0 0-.624-.78L12.5 19.46V8.5a.5.5 0 0 0-1 0v10.96l-1.688-1.35Z"/>
</svg>
