<svg xmlns="http://www.w3.org/2000/svg" viewBox="0 0 24 24">
  <path fill-rule="evenodd" d="M23.484 5a.5.5 0 0 0 0-1H13V0h-1v4H1.5a.5.5 0 0 0 0 1H5v4.551c-1.691.245-3 1.69-3 3.449 0 1.93 1.57 3.5 3.5 3.5S9 14.93 9 13c0-1.759-1.309-3.204-3-3.449V5h6.005L12 13.429c-1.69.695-2.979 2.113-2.979 4.561 0 2.033.885 3.558 2.558 4.409 1.317.67 2.782.743 3.352.743l.298-.008a.5.5 0 0 0 .23-.924c-1.135-.705-1.854-2.392-1.833-4.297.021-1.858.734-3.424 1.859-4.088a.502.502 0 0 0-.217-.93l-.363-.01c-.641 0-1.289.072-1.912.221L12.997 5H19v6.831l-3.44 6.434a.497.497 0 0 0 .012.492A.496.496 0 0 0 16 19h7a.503.503 0 0 0 .441-.737L20 11.887V5h3.484Z" clip-rule="evenodd"/>
</svg>
