<svg xmlns="http://www.w3.org/2000/svg" viewBox="0 0 24 24">
  <path d="M12 8.5c-.827 0-1.5-.673-1.5-1.5s.673-1.5 1.5-1.5V4h-1a.5.5 0 0 1 0-1h4V.5a.5.5 0 0 1 1 0V3h4a.5.5 0 0 1 0 1h-1v1.5c.827 0 1.5.673 1.5 1.5s-.673 1.5-1.5 1.5-1.5-.673-1.5-1.5c0-.441.195-.835.5-1.109V4h-2v1.592c.581.207 1 .757 1 1.408 0 .827-.673 1.5-1.5 1.5S14 7.827 14 7c0-.651.419-1.201 1-1.408V4h-2v1.891c.305.274.5.668.5 1.109 0 .827-.673 1.5-1.5 1.5Z"/>
  <path fill-rule="evenodd" d="M22 7.5a1 1 0 1 1 2 0V23a1 1 0 1 1-2 0v-2H2v2a1 1 0 1 1-2 0V7.5a1 1 0 1 1 2 0V10h20V7.5ZM13 19v-7h-2v7h2Zm-7 0h3v-7H6v7Zm12-7h-3v7h3v-7ZM4 12H2v7h2v-7Zm16 0v7h2v-7h-2Z" clip-rule="evenodd"/>
</svg>
