<svg xmlns="http://www.w3.org/2000/svg" viewBox="0 0 24 25">
  <path d="M10.5 6.531a.5.5 0 0 0 1 0c0-.84-.673-1.525-1.5-1.525s-1.5.684-1.5 1.525a.5.5 0 0 0 1 0c0-.29.225-.525.5-.525s.5.235.5.525Zm.495 2.988c0 .553.441.987 1.005.987a.986.986 0 0 0 1.005-.987A1.01 1.01 0 0 0 12 8.506a1.01 1.01 0 0 0-1.005 1.013ZM15 7.031a.5.5 0 0 1-.5-.5.514.514 0 0 0-.5-.525c-.275 0-.5.235-.5.525a.5.5 0 0 1-1 0c0-.841.673-1.525 1.5-1.525s1.5.685 1.5 1.525a.5.5 0 0 1-.5.5Z"/>
  <path fill-rule="evenodd" d="m9.173 15.597-3.981-1.361-.541-6.215a7.395 7.395 0 0 1 1.912-5.623A7.396 7.396 0 0 1 12 .006c2.063 0 4.045.872 5.437 2.391a7.393 7.393 0 0 1 1.911 5.623l-.29 3.332-9.885 4.245Zm8.369-7.964c0-3.103-2.468-5.627-5.5-5.627s-5.5 2.524-5.5 5.627c0 3.063 2.364 5.373 5.5 5.373s5.5-2.31 5.5-5.373Z" clip-rule="evenodd"/>
  <path d="M18.379 18.745c.042-.222.076-.446.096-.676l.486-5.587-8.377 3.598 7.795 2.665Zm-12.854-.676-.238-2.744 12.826 4.386A6.454 6.454 0 0 1 12 24.006a6.463 6.463 0 0 1-6.475-5.937Z"/>
</svg>
