<svg xmlns="http://www.w3.org/2000/svg" viewBox="0 0 24 24">
  <path fill-rule="evenodd" d="M5 .5V10h14V.5a.5.5 0 0 0-.5-.5h-13a.5.5 0 0 0-.5.5Zm3.854 1.646a.5.5 0 0 1 0 .708l-1 1a.5.5 0 1 1-.708-.708l1-1a.5.5 0 0 1 .708 0Zm3 0a.5.5 0 0 1 0 .708l-4 4a.5.5 0 1 1-.708-.708l4-4a.5.5 0 0 1 .708 0Z" clip-rule="evenodd"/>
  <path d="M1 11a1 1 0 1 0 0 2h22a1 1 0 1 0 0-2H1Z"/>
  <path fill-rule="evenodd" d="M0 23.5a.5.5 0 0 0 .5.5h23a.5.5 0 0 0 0-1H23v-9.085H1V23H.5a.5.5 0 0 0-.5.5Zm5.5-7a.5.5 0 0 0-1 0v4a.5.5 0 0 0 1 0v-4ZM7 16a.5.5 0 0 1 .5.5v4a.5.5 0 0 1-1 0v-4A.5.5 0 0 1 7 16Zm4.5.5a.5.5 0 0 0-1 0v4a.5.5 0 0 0 1 0v-4ZM13 16a.5.5 0 0 1 .5.5v4a.5.5 0 0 1-1 0v-4a.5.5 0 0 1 .5-.5Zm4.5.5a.5.5 0 0 0-1 0v4a.5.5 0 0 0 1 0v-4Zm2 0a.5.5 0 0 0-1 0v4a.5.5 0 0 0 1 0v-4Z" clip-rule="evenodd"/>
</svg>
