<svg xmlns="http://www.w3.org/2000/svg" viewBox="0 0 24 24">
  <path fill-rule="evenodd" d="M5 .5V10h14V.5a.5.5 0 0 0-.5-.5h-13a.5.5 0 0 0-.5.5Zm3.854 1.646a.5.5 0 0 1 0 .708l-1 1a.5.5 0 1 1-.708-.708l1-1a.5.5 0 0 1 .708 0Zm3 0a.5.5 0 0 1 0 .708l-4 4a.5.5 0 1 1-.708-.708l4-4a.5.5 0 0 1 .708 0Z" clip-rule="evenodd"/>
  <path d="M0 12a1 1 0 0 1 1-1h22a1 1 0 1 1 0 2H1a1 1 0 0 1-1-1Z"/>
  <path fill-rule="evenodd" d="M.5 24a.5.5 0 0 1 0-1H1v-9.085h22V23h.5a.5.5 0 0 1 0 1H.5ZM6 16a1.5 1.5 0 0 0-1.5 1.5v2a1.5 1.5 0 0 0 3 0v-2A1.5 1.5 0 0 0 6 16Zm4.5 1.5a1.5 1.5 0 0 1 3 0v2a1.5 1.5 0 0 1-3 0v-2ZM18 16a1.5 1.5 0 0 0-1.5 1.5v2a1.5 1.5 0 0 0 3 0v-2A1.5 1.5 0 0 0 18 16Z" clip-rule="evenodd"/>
</svg>
