<svg xmlns="http://www.w3.org/2000/svg" viewBox="0 0 24 24">
  <path fill-rule="evenodd" d="M5 .5V11h14V.5a.5.5 0 0 0-.5-.5h-13a.5.5 0 0 0-.5.5Zm3.854 1.646a.5.5 0 0 1 0 .708l-1 1a.5.5 0 1 1-.708-.708l1-1a.5.5 0 0 1 .708 0Zm3 0a.5.5 0 0 1 0 .708l-4 4a.5.5 0 1 1-.708-.708l4-4a.5.5 0 0 1 .708 0ZM23.5 12a.5.5 0 0 1 0 1h-.845l1.327 4.869a.5.5 0 0 1 0 .263L22.655 23h.845a.5.5 0 0 1 0 1H.5a.5.5 0 0 1 0-1h.845L.018 18.132a.5.5 0 0 1 0-.263L1.345 13H.5a.5.5 0 0 1 0-1h23Zm-.518 6-1.364 5H19.6l.893-4.91c.01-.06.01-.12 0-.18L19.599 13h2.02l1.363 5Zm-3.49 0-.91 5h-2.534l.45-4.955a.507.507 0 0 0 0-.09L16.048 13h2.535l.909 5Zm-3.994 0-.455 5H12.5V13h2.543l.455 5ZM11.5 13v10H8.957l-.455-5 .455-5H11.5Zm-3.998 5.045L7.952 23H5.417l-.909-5 .91-5h2.534l-.45 4.955a.501.501 0 0 0 0 .09Zm-3.994.044L4.401 23H2.38l-1.363-5 1.364-5H4.4l-.893 4.91a.5.5 0 0 0 0 .18Z" clip-rule="evenodd"/>
</svg>
