<svg xmlns="http://www.w3.org/2000/svg" viewBox="0 0 24 24">
  <path fill-rule="evenodd" d="M5 .5V11h14V.5a.5.5 0 0 0-.5-.5h-13a.5.5 0 0 0-.5.5Zm3.854 1.646a.5.5 0 0 1 0 .708l-1 1a.5.5 0 1 1-.708-.708l1-1a.5.5 0 0 1 .708 0Zm3 0a.5.5 0 0 1 0 .708l-4 4a.5.5 0 1 1-.708-.708l4-4a.5.5 0 0 1 .708 0ZM.5 12a.5.5 0 0 0 0 1H1v10H.5a.5.5 0 0 0 0 1h23a.5.5 0 0 0 0-1H23V13h.5a.5.5 0 0 0 0-1H.5ZM4 23H2V13h2v10Zm3-10v10H5V13h2Zm3 10H8V13h2v10Zm3 0h-2V13h2v10Zm3 0h-2V13h2v10Zm3-10v10h-2V13h2Zm3 10h-2V13h2v10Z" clip-rule="evenodd"/>
</svg>
