<svg xmlns="http://www.w3.org/2000/svg" viewBox="0 0 24 25">
  <path d="M12.015 2.715 16.384.847A11.91 11.91 0 0 0 12 .006c-1.529 0-2.986.299-4.332.822l4.347 1.887Zm-8.298.63.498 5.62 2.635 1.288 4.663-3.399V3.587L6.437 1.384a11.985 11.985 0 0 0-2.72 1.961Zm8.796 3.508 4.772 3.478 2.526-1.357.521-5.586a12.062 12.062 0 0 0-2.716-1.98L12.513 3.59v3.263ZM3.866 9.908l2.624 1.283 1.8 5.556-1.567 1.749-5.491-1.226a11.923 11.923 0 0 1-1.034-3.145l3.668-4.217Zm16.936-.79 3.163 3.582.013-.2c.01-.164.022-.328.022-.494 0-2.9-1.035-5.565-2.756-7.642l-.442 4.754Zm-5.064 7.628 1.743-5.386 2.69-1.445 3.643 4.126a11.834 11.834 0 0 1-1.001 3.134L17.3 18.49l-1.562-1.744ZM3.225 9.123l-.426-4.807A11.942 11.942 0 0 0 0 12.006c0 .202.014.4.027.597l.012.18 3.186-3.66Zm11.766 14.49 2.457-4.131 4.714-1.124a12.024 12.024 0 0 1-7.171 5.255Zm1.518-4.508-1.559-1.74H9.078l-1.558 1.74 2.881 4.781c.524.07 1.055.119 1.599.119.568 0 1.124-.054 1.672-.131l2.837-4.769ZM12.013 7.727l4.526 3.298-1.729 5.34H9.219l-1.732-5.34 4.526-3.298ZM1.888 18.44l4.695 1.048 2.497 4.144a12.023 12.023 0 0 1-7.192-5.192Z"/>
</svg>
