<svg xmlns="http://www.w3.org/2000/svg" viewBox="0 0 24 24">
  <path d="M21.301 9.651c.655-2.56.787-4.918.655-6.255a1.502 1.502 0 0 0-1.346-1.347c-1.231-.121-3.62.001-6.242.67l6.933 6.932Z"/>
  <path fill-rule="evenodd" d="M13.264 3.03c-2.376.737-4.838 1.944-6.735 3.841-2.184 2.184-3.468 5.152-4.17 7.881l6.903 6.902c2.709-.695 5.672-1.975 7.874-4.177 1.897-1.897 3.111-4.346 3.854-6.724L13.264 3.03Zm1.735 7.392a.5.5 0 1 1-.707.706l-.707-.706-1.414 1.414.707.707a.5.5 0 0 1-.707.707l-.707-.707-1.414 1.414.707.707a.5.5 0 0 1-.707.707l-.707-.707-.707.707a.498.498 0 0 1-.707 0 .5.5 0 0 1 0-.707l.707-.707-.707-.707a.5.5 0 0 1 .707-.707l.707.707 1.414-1.414-.707-.708a.5.5 0 1 1 .707-.706l.707.707 1.414-1.414-.707-.707a.5.5 0 0 1 .707-.707l.707.707.707-.707a.5.5 0 0 1 .707.707l-.707.707.707.707Z" clip-rule="evenodd"/>
  <path d="M1.677 20.982c-.107-1.089-.017-2.962.418-5.081l6.016 6.016c-1.595.325-3.043.454-4.107.454-1 0-2.195-.046-2.327-1.389Z"/>
</svg>
