<svg xmlns="http://www.w3.org/2000/svg" viewBox="0 0 24 25">
  <path d="M11.031 8.954a24.459 24.459 0 0 0-1.977-1.422C10.581 5.61 11.11 3.49 11.011.996c.33-.028.662-.051 1-.051 3.398 0 6.465 1.428 8.65 3.705-3.304.536-6.728 1.987-9.63 4.304Zm10.401-3.415a11.916 11.916 0 0 1 2.554 6.923c-1.06-.814-3.017-1.517-4.976-1.517-1.7 0-3.284.482-4.641 1.304a21.477 21.477 0 0 0-2.561-2.638c3.006-2.352 6.121-3.506 9.624-4.072Zm-10.413 4.718c-3.722 3.226-5.751 7.148-7.194 11.44a11.94 11.94 0 0 0 7.688 3.224 8.95 8.95 0 0 1-1.503-4.975c0-2.901 1.386-5.479 3.524-7.126a20.51 20.51 0 0 0-2.515-2.563Z"/>
  <path d="M11.01 19.945c0-2.579 1.233-4.871 3.134-6.335 2.337 3.153 3.273 6.145 3.858 9.716a11.885 11.885 0 0 1-5.299 1.584l-.073-.111c-.66-.997-1.62-2.449-1.62-4.854Zm-.779-10.338c-.612-.48-1.23-.924-1.846-1.316-2.027 2.036-4.782 3.033-8.167 2.48-.13.706-.208 1.432-.208 2.175 0 3.048 1.151 5.826 3.031 7.945 1.456-4.338 3.744-8.249 7.19-11.284Zm4.748 3.441a7.927 7.927 0 0 1 4.032-1.103c2.126 0 3.594.714 4.961 1.766a11.987 11.987 0 0 1-5.052 9.029c-.587-3.594-1.744-6.715-3.941-9.692Zm-6.781-6.04c1.566-1.91 1.834-3.742 1.814-5.882a11.958 11.958 0 0 0-6.714 3.593l.251.095c1.02.386 2.605.985 4.649 2.194Z"/>
  <path d="M3.187 5.746a26.77 26.77 0 0 1 4.307 2.008C5.657 9.49 3.279 10.256.444 9.794a11.98 11.98 0 0 1 2.157-4.272l.433.165.153.059Z"/>
</svg>
