<svg xmlns="http://www.w3.org/2000/svg" viewBox="0 0 24 25">
  <path d="M7.99 3.228A10.946 10.946 0 0 0 7 7.797c0 2.232.664 4.357 1.911 6.184a10.969 10.969 0 0 0 2.523-2.103 11.906 11.906 0 0 1-.663-3.872c0-2.778.925-5.43 2.939-7.863A11.906 11.906 0 0 0 12 .006c-.63 0-1.243.063-1.848.157-1.389 1.362-2.113 2.957-2.16 3.06l-.002.005Z"/>
  <path d="M8.029 14.46c-.942.455-1.939.778-2.966.948A10.89 10.89 0 0 1 3 9.006c0-1.589.332-3.123.99-4.568v-.002c.029-.063.625-1.393 1.779-2.666A11.98 11.98 0 0 1 8.479.535c-.91 1.168-1.371 2.213-1.403 2.289A11.91 11.91 0 0 0 6 7.797c0 2.401.704 4.689 2.029 6.663Zm8.143-.375c.939.598 1.78 1.332 2.494 2.181 0 0-3.946 7.564-11.983 6.481a12.01 12.01 0 0 1-2.944-2.06c5.188.78 10.189-1.983 12.433-6.602ZM12.428 4.28a10.982 10.982 0 0 0-.628 3.056c5.052-.42 9.916 2.4 11.94 7.147.168-.8.26-1.627.26-2.476 0-.375-.022-.744-.057-1.111-1.94-4.38-6.654-7.171-11.515-6.616Z"/>
  <path d="M12.384 11.569a10.915 10.915 0 0 1-.599-3.227c5.388-.493 10.155 2.994 11.471 7.784a11.947 11.947 0 0 1-1.708 3.119c-1.712-4.366-5.126-6.961-9.164-7.676Z"/>
  <path d="M9.596 23.763c3.412-.355 7.585-2.625 9.604-6.816a11.744 11.744 0 0 1 1.603 3.186c-2.195 2.374-5.324 3.872-8.803 3.872-.823 0-1.627-.084-2.404-.242ZM3.933 15.53A11.881 11.881 0 0 1 2 9.006a11.91 11.91 0 0 1 1.095-5.014C1.178 6.119 0 8.924 0 12.006c0 1.112.164 2.185.448 3.208 1.263.301 2.391.384 3.485.316Zm19.3-7.706c-2.02-2.588-5.937-4.891-10.355-4.593A11.642 11.642 0 0 1 14.852.362a12.03 12.03 0 0 1 8.381 7.462Z"/>
  <path d="M.814 16.316a12.04 12.04 0 0 0 1.759 3.091c4.947 1.448 10.415-.981 12.73-5.819a10.946 10.946 0 0 0-3.127-1.041C9.467 15.586 5.507 17.154.814 16.316Z"/>
</svg>
