<svg xmlns="http://www.w3.org/2000/svg" viewBox="0 0 24 24">
  <path d="M14.652 3.775 5.906 15.53l-1.598-1.599L8.96 1.726a.5.5 0 0 1 .42-.32l4.198-.398a.491.491 0 0 1 .536.387l.538 2.38ZM8.742 19.78l-4.949-4.95-.708.707 4.95 4.951.707-.708Zm-1.414 1.415-4.949-4.951-.354.354A3.479 3.479 0 0 0 1 19.073c0 .935.364 1.813 1.025 2.475a3.474 3.474 0 0 0 2.474 1.026c.936 0 1.814-.365 2.476-1.025l.353-.354Zm.049-4.194 11.62-8.632-.664-2.759a.499.499 0 0 0-.374-.37l-2.688-.621-8.65 11.626.756.756Zm12.487-8.029 2.357.532a.5.5 0 0 1 .388.536l-.398 4.198a.496.496 0 0 1-.319.42L9.686 19.31l-1.594-1.594 11.772-8.744Z"/>
</svg>
