<svg xmlns="http://www.w3.org/2000/svg" viewBox="0 0 24 24">
  <path fill-rule="evenodd" d="M16 1.025V.5a.5.5 0 0 0-1 0V11H3.5a.5.5 0 0 0-.5.5 6.503 6.503 0 0 0 3.45 5.737l-.944 6.188a.5.5 0 0 0 .988.15L7.039 20h4.591l.009.203A1.996 1.996 0 0 0 10.5 22a2 2 0 0 0 4 0 1.996 1.996 0 0 0-1.868-1.986l-.118-2.76a6.499 6.499 0 0 0 3.462-5.277A5.507 5.507 0 0 0 21 6.5a5.507 5.507 0 0 0-5-5.475ZM8.5 13h2a.5.5 0 0 1 0 1h-2a.5.5 0 0 1 0-1Zm-1.308 6 .206-1.354a6.445 6.445 0 0 0 4.133.025L11.588 19H7.192ZM4.5 10h9a.5.5 0 0 0 0-1h-9a.5.5 0 0 0 0 1Z" clip-rule="evenodd"/>
</svg>
