<svg xmlns="http://www.w3.org/2000/svg" viewBox="0 0 24 24">
  <path d="m12.297.098 11.5 8.5A.5.5 0 0 1 24 9v3.5a.5.5 0 0 1-.798.402L12.029 4.621.797 12.902A.499.499 0 0 1 0 12.5V9c0-.158.075-.308.202-.402l11.5-8.5a.5.5 0 0 1 .595 0Z"/>
  <path fill-rule="evenodd" d="M22 23h1.5a.5.5 0 0 1 0 1h-7.207L12 19.707 7.707 24H.5a.5.5 0 0 1 0-1H2v-9.742l10.027-7.393L22 13.256V23Zm-7.5-12.5C14.5 9.121 13.378 8 12 8a2.503 2.503 0 0 0-2.5 2.5c0 1.379 1.122 2.5 2.5 2.5s2.5-1.121 2.5-2.5ZM11.293 19 7 14.707v8.586L11.293 19Zm.707-.707L16.293 14H7.707L12 18.293Zm.707.707L17 23.293v-8.586L12.707 19Z" clip-rule="evenodd"/>
</svg>
