<svg xmlns="http://www.w3.org/2000/svg" viewBox="0 0 24 24">
  <path d="M10.965 4c0 .737-1.034 1-2.001 1-.968 0-2.002-.263-2.002-1s1.034-1 2.002-1c.967 0 2.001.263 2.001 1Z"/>
  <path fill-rule="evenodd" d="M20.254 5.176c.565 2.632.757 5.052.746 7.153v.026c-.023 4.239-.847 7.137-1.022 7.699-.015.052-.027.087-.032.103-.04.138-1.177 3.843-7.98 3.843-6.804 0-7.941-3.705-7.986-3.862-.057-.183-.946-3.176-.98-7.712v-.012a35.56 35.56 0 0 1 .698-7.246 35.06 35.06 0 0 1 .273-1.269C4.077 1.705 7.545 0 11.966 0c4.422 0 7.892 1.706 7.995 3.9.062.273.087.37.11.456.032.125.059.226.183.82ZM11.966 10C8.417 10 5.25 8.684 4.334 7.381a34.595 34.595 0 0 0-.322 4.49C5.607 13.149 8.65 14 11.966 14c3.406 0 6.47-.844 8.022-2.081a32.404 32.404 0 0 0-.344-4.526C18.798 8.676 15.609 10 11.966 10Zm7.88 5.165C18.059 16.493 14.737 17 11.967 17c-2.742 0-6.023-.5-7.823-1.799.22 2.453.639 4.091.76 4.528C6.901 20.627 9.568 21 12.008 21c2.401 0 5.024-.361 7.01-1.23.116-.387.588-2.067.829-4.605ZM18.97 4c0-1.419-2.877-3-7.004-3C7.838 1 4.96 2.581 4.96 4s2.877 3 7.005 3c4.127 0 7.004-1.581 7.004-3Z" clip-rule="evenodd"/>
</svg>
