<svg xmlns="http://www.w3.org/2000/svg" viewBox="0 0 24 25">
  <path d="M17.836 15.246a3 3 0 1 0 0 6 3 3 0 0 0 0-6Zm4.257-13.42a3.657 3.657 0 0 0-2.83-1.074 3.687 3.687 0 0 0-2.673 1.396L5.744 15.433l-.001.001 2.833 2.832L21.79 7.315a3.698 3.698 0 0 0 1.378-2.679 3.7 3.7 0 0 0-1.075-2.81ZM3.975 17.201l1.06-1.06 2.828 2.827-1.06 1.06-2.828-2.827Zm2.122 3.535-2.828-2.828-1.137 1.137c-.555-.25-1.25-.165-1.693.277-.283.284-.439.66-.439 1.062s.156.778.439 1.06l2.122 2.122c.283.283.66.439 1.062.439a1.498 1.498 0 0 0 1.499-1.5c0-.228-.055-.444-.15-.644l1.125-1.125Z"/>
</svg>
