<svg xmlns="http://www.w3.org/2000/svg" viewBox="0 0 24 24">
  <path fill-rule="evenodd" d="m9.801 4.873 1.816-.839a.499.499 0 1 0-.419-.907l-1.816.837a.501.501 0 0 0 .419.909Zm5.765 5.243.786-1.84a.5.5 0 1 0-.92-.392l-.786 1.84a.5.5 0 1 0 .92.392Zm-4.132-2.061a.5.5 0 0 0 .707.004l1.422-1.407a.5.5 0 1 0-.703-.709l-1.422 1.404a.5.5 0 0 0-.004.708ZM23.5 14H22V2.954c0-.982-.579-1.878-1.477-2.281a2.513 2.513 0 0 0-2.706.433l-.585.587c-1.105-.75-2.703-.648-3.667.316l-.559.557a.503.503 0 0 0 0 .709l3.352 3.352a.5.5 0 0 0 .707 0l.559-.559a2.872 2.872 0 0 0 .317-3.672l.563-.563A1.498 1.498 0 0 1 21 2.954V14h-6v5.5a1.5 1.5 0 0 1-1.5 1.5h-7A1.5 1.5 0 0 1 5 19.5V14H.5a.5.5 0 0 0-.5.5C0 19.738 4.262 24 9.5 24h5c5.238 0 9.5-4.262 9.5-9.5a.5.5 0 0 0-.5-.5Zm-17 6h7a.5.5 0 0 0 .5-.5v-6c0-.827-.673-1.5-1.5-1.5h-5c-.827 0-1.5.673-1.5 1.5v6a.5.5 0 0 0 .5.5Z" clip-rule="evenodd"/>
</svg>
