<svg xmlns="http://www.w3.org/2000/svg" viewBox="0 0 24 24">
  <g clip-path="url(#a)">
    <path d="M5.156 13.092a.492.492 0 0 1-.267-.274l-.368-.929c-1.392-3.511 1.194-7.296 6.441-9.53l-.189-.478a.5.5 0 0 1 .93-.37l.187.475C13.671 1.334 15.43.985 17 .985c3.04 0 5.21 1.256 6.113 3.534l.37.93a.5.5 0 0 1-.282.648l-2.324.922a.503.503 0 0 1-.383-.005l-.839-.363-.363.839a.493.493 0 0 1-.274.266l-4.185 1.658L17.841 17h5.66a.5.5 0 0 1 0 1h-6c-2.218.002-4.334.701-5.658 1.876a.5.5 0 0 1-.707-.045.5.5 0 0 1 .043-.706c1.375-1.218 3.387-1.961 5.596-2.098l-2.872-7.245-4.182 1.658a.494.494 0 0 1-.383-.006l-.839-.362-.362.838a.502.502 0 0 1-.275.268l-2.324.921a.486.486 0 0 1-.382-.007ZM22.001 21.5c0 .847.806 1.5 1.5 1.5a.5.5 0 0 1 0 1c-.797 0-1.536-.418-2-1.039-.465.621-1.203 1.039-2 1.039-.797 0-1.536-.418-2-1.039-.465.621-1.203 1.039-2 1.039-.797 0-1.536-.418-2-1.039-.465.621-1.203 1.039-2 1.039-.797 0-1.536-.418-2-1.039-.465.621-1.203 1.039-2 1.039-.797 0-1.536-.418-2-1.039-.465.621-1.203 1.039-2 1.039-.81 0-1.56-.432-2.022-1.069a3.031 3.031 0 0 1-.7.644.501.501 0 0 1-.556-.832c.376-.251.778-.71.778-1.243a.5.5 0 0 1 1 0c0 .847.806 1.5 1.5 1.5.693 0 1.5-.653 1.5-1.5a.5.5 0 0 1 1 0c0 .847.806 1.5 1.5 1.5.693 0 1.5-.653 1.5-1.5a.5.5 0 0 1 1 0c0 .847.806 1.5 1.5 1.5.693 0 1.5-.653 1.5-1.5a.5.5 0 0 1 1 0c0 .847.806 1.5 1.5 1.5.693 0 1.5-.653 1.5-1.5a.5.5 0 0 1 1 0c0 .847.806 1.5 1.5 1.5.693 0 1.5-.653 1.5-1.5a.5.5 0 0 1 1 0Z"/>
  </g>
  <defs>
    <clipPath id="a">
      <path d="M0 0h24v24H0z"/>
    </clipPath>
  </defs>
</svg>
