<svg xmlns="http://www.w3.org/2000/svg" viewBox="0 0 24 24">
  <path d="m9.708 9 2.146-2.146A.502.502 0 0 0 11.5 6h-3a.5.5 0 0 0 0 1h1.793L8.147 9.146a.502.502 0 0 0 .354.854h3a.5.5 0 0 0 0-1H9.708Zm6-3 3.146-3.146A.502.502 0 0 0 18.5 2h-4a.5.5 0 0 0 0 1h2.793l-3.146 3.146a.502.502 0 0 0 .354.854h4a.5.5 0 0 0 0-1h-2.793ZM.5 10a.5.5 0 0 0-.5.5v13a.5.5 0 0 0 1 0V21h6v-3H1v-7.5a.5.5 0 0 0-.5-.5ZM23 22h1v-5.249a2 2 0 0 0-1.736-1.982L8.566 13.075a.5.5 0 0 0-.566.496V22h14v1.5a.5.5 0 0 0 1 0V22Z"/>
  <path d="M6 15a2 2 0 1 1-4 0 2 2 0 0 1 4 0Z"/>
</svg>
