<svg xmlns="http://www.w3.org/2000/svg" viewBox="0 0 24 24">
  <path d="M8.23 11.695c.92 2.178 1.243 7.243.323 9.082A.508.508 0 0 0 8.5 21s-.5.628-.5 1.5v1a.5.5 0 0 0 .5.5h8a.5.5 0 0 0 .5-.5v-1c0-.872-.5-1.5-.5-1.5a.495.495 0 0 0-.015-.121c-.458-1.83-.65-6.966.286-9.186.506-1.2.906-2.193 1.233-3.145A1.501 1.501 0 0 0 19.5 10c.827 0 1.5-.673 1.5-1.5v-5C21 1.57 19.43 0 17.5 0L6.891.001c-1.253.02-1.9 1.007-1.893 1.971.006.721.367 1.444 1.048 1.798.174 3.105.977 5.04 2.183 7.925ZM7.06 4h7.992a2.46 2.46 0 0 0-.052.5c0 .547.208 1.108.501 1.5H7.323a15.334 15.334 0 0 1-.263-2ZM15 9.5a.5.5 0 1 1-1 0 .5.5 0 0 1 1 0Zm-3 2a.5.5 0 1 1 1 0 .5.5 0 0 1-1 0Zm.5 3.5a.5.5 0 1 1-1 0 .5.5 0 0 1 1 0Zm-2-6.5a.5.5 0 1 1-1 0 .5.5 0 0 1 1 0ZM16 23H9v-.5c0-.827.701-1.5 1.5-1.5h4c.796 0 1.5.67 1.5 1.5v.5Zm4-14.5a.5.5 0 0 1-1 0V6.223a.501.501 0 0 0-.752-.432A1.819 1.819 0 0 1 17.5 6c-.827 0-1.5-.673-1.5-1.5 0-.252.07-.498.215-.753A.5.5 0 0 0 15.78 3H7c-.784 0-.999-.651-1.002-1.037-.004-.437.233-.952.95-.963H17.5C18.88 1 20 2.122 20 3.5v5Z"/>
</svg>
