<svg xmlns="http://www.w3.org/2000/svg" viewBox="0 0 24 24">
  <path d="M19 21H4c-1.122 0-2 .659-2 1.5 0 .843.878 1.5 2 1.5h15c1.121 0 2-.657 2-1.5 0-.841-.879-1.5-2-1.5Zm1.532-9.997A4.495 4.495 0 0 0 23 7c0-2.481-2.019-4.5-4.5-4.5-.645 0-1.279.14-1.864.409A5.954 5.954 0 0 0 11.5 0a5.953 5.953 0 0 0-5.137 2.909A4.452 4.452 0 0 0 4.5 2.5 4.505 4.505 0 0 0 0 7c0 2.482 2.019 4.5 4.5 4.5 0 .573.164 1.108.443 1.564L4.004 19.5a.498.498 0 0 0 .119.396c.095.109.377.104.377.104h14s.277.007.372-.099a.499.499 0 0 0 .125-.389L18.893 19h1.752C21.943 19 23 17.878 23 16.5v-3a2.501 2.501 0 0 0-2.468-2.497ZM8.497 18.556A.499.499 0 0 1 8 19c-.019 0-.037 0-.056-.003a.499.499 0 0 1-.441-.552l.442-3.985c.377-.058.729-.18 1.047-.364l-.495 4.46ZM12 18.5a.5.5 0 0 1-1 0v-5a.5.5 0 0 1 1 0v5Zm3.05.498c-.018.002-.034.002-.051.002a.5.5 0 0 1-.497-.449l-.5-5a.501.501 0 0 1 .995-.1l.5 5a.5.5 0 0 1-.447.547Zm.508-9.795a.498.498 0 0 0-.369.164 5.007 5.007 0 0 1-5.072 1.436.5.5 0 0 0-.638.52c.105 1.31-.92 2.177-1.979 2.177-1.103 0-2-.896-2-2 0-.139.017-.28.052-.432a.503.503 0 0 0-.487-.612c-.006 0-.352.043-.564.043A3.503 3.503 0 0 1 1 7c0-1.93 1.57-3.5 3.5-3.5.635 0 1.26.177 1.807.509a.5.5 0 0 0 .707-.208A4.97 4.97 0 0 1 11.5 1a4.968 4.968 0 0 1 4.484 2.801.503.503 0 0 0 .708.208A3.491 3.491 0 0 1 18.5 3.5C20.43 3.5 22 5.07 22 7s-1.57 3.5-3.5 3.5a3.461 3.461 0 0 1-2.574-1.135.506.506 0 0 0-.368-.162ZM22 16.5c0 .827-.608 1.5-1.355 1.5h-1.863l-.664-6H20.5c.827 0 1.5.673 1.5 1.5v3Z"/>
</svg>
