<svg xmlns="http://www.w3.org/2000/svg" viewBox="0 0 24 24">
  <path fill-rule="evenodd" d="M.5 1h6c.276 0 .5.205.5.458v21.084c0 .253-.224.458-.5.458h-6c-.276 0-.5-.205-.5-.458V1.458C0 1.205.224 1 .5 1Zm8 0h6c.276 0 .5.205.5.458v21.084c0 .253-.224.458-.5.458h-6c-.276 0-.5-.205-.5-.458V1.458C8 1.205 8.224 1 8.5 1Zm8 0h6c.276 0 .5.205.5.458v21.084c0 .253-.224.458-.5.458h-6c-.276 0-.5-.205-.5-.458V1.458c0-.253.224-.458.5-.458Zm-13 19a1.5 1.5 0 1 0-.001-3.001A1.5 1.5 0 0 0 3.5 20Zm7-16a.5.5 0 0 0 0 1h2a.5.5 0 0 0 0-1h-2Zm0 2a.5.5 0 0 0 0 1h2a.5.5 0 0 0 0-1h-2Zm0 2a.5.5 0 0 0 0 1h2a.5.5 0 0 0 0-1h-2Zm-8-4a.5.5 0 0 0 0 1h2a.5.5 0 0 0 0-1h-2Zm0 2a.5.5 0 0 0 0 1h2a.5.5 0 0 0 0-1h-2Zm0 2a.5.5 0 0 0 0 1h2a.5.5 0 0 0 0-1h-2Zm16-4a.5.5 0 0 0 0 1h2a.5.5 0 0 0 0-1h-2Zm0 2a.5.5 0 0 0 0 1h2a.5.5 0 0 0 0-1h-2Zm0 2a.5.5 0 0 0 0 1h2a.5.5 0 0 0 0-1h-2Zm-6.948 11.999A1.5 1.5 0 1 0 11.447 17a1.5 1.5 0 0 0 .105 3ZM19.5 20a1.5 1.5 0 1 0-.001-3.001A1.5 1.5 0 0 0 19.5 20Z" clip-rule="evenodd"/>
</svg>
