<svg xmlns="http://www.w3.org/2000/svg" viewBox="0 0 24 24">
  <path d="M23.5 23H.5a.5.5 0 0 0 0 1h23a.5.5 0 1 0 0-1Zm-20-1h17c1.378 0 2.5-1.121 2.5-2.5v-9a.5.5 0 0 0-.5-.5H20V6.5a.5.5 0 0 0-.5-.5h-2a.5.5 0 0 0-.5.5V10h-4V6.5a.5.5 0 0 0-.5-.5h-2a.5.5 0 0 0-.5.5V10H7V6.5a.5.5 0 0 0-.5-.5h-2a.5.5 0 0 0-.5.5V10H1.5a.5.5 0 0 0-.5.5v9C1 20.879 2.121 22 3.5 22ZM2 11h20v2c0 1.066-1.247 2-2 2-.754 0-2-.934-2-2a.5.5 0 0 0-1 0c0 1.212-1.237 2.25-2.25 2.25S12.5 14.212 12.5 13a.5.5 0 0 0-1 0c0 1.212-1.237 2.25-2.25 2.25S7 14.212 7 13a.5.5 0 0 0-1 0c0 1.066-1.247 2-2 2-.754 0-2-.934-2-2v-2Zm3.5-6c1.102 0 2-.897 2-2C7.5 2.03 6.144.47 5.872.166a.516.516 0 0 0-.744 0C4.856.47 3.5 2.03 3.5 3c0 1.103.897 2 2 2Zm13 0c1.103 0 2-.897 2-2 0-.97-1.356-2.53-1.628-2.834a.516.516 0 0 0-.744 0C17.855.47 16.5 2.03 16.5 3c0 1.103.896 2 2 2Zm-7 0c1.102 0 2-.897 2-2 0-.97-1.356-2.53-1.628-2.834a.516.516 0 0 0-.744 0C10.856.47 9.5 2.03 9.5 3c0 1.103.896 2 2 2Z"/>
</svg>
