<svg xmlns="http://www.w3.org/2000/svg" viewBox="0 0 24 24">
  <path d="M21.5 0a.5.5 0 0 1 .5.5v23a.5.5 0 0 1-.5.5h-19a.5.5 0 0 1-.5-.5V.5a.5.5 0 0 1 .5-.5h19ZM21 1H3v22h18V1Z"/>
  <path d="M20 8.25a.25.25 0 0 0-.25-.25H4.25a.25.25 0 0 0-.25.25v1.5c0 .138.112.25.25.25h15.5a.25.25 0 0 0 .25-.25v-1.5Zm0-3a.25.25 0 0 0-.25-.25H4.25a.25.25 0 0 0-.25.25v1.5c0 .138.112.25.25.25h15.5a.25.25 0 0 0 .25-.25v-1.5Zm0-3a.25.25 0 0 0-.25-.25H4.25a.25.25 0 0 0-.25.25v1.5c0 .138.112.25.25.25h15.5a.25.25 0 0 0 .25-.25v-1.5Zm-8.5 16.21V13.5a.5.5 0 0 1 1 0v4.96l1.688-1.35a.5.5 0 1 1 .624.78l-2.495 1.997a.498.498 0 0 1-.632.001L9.188 17.89a.5.5 0 1 1 .624-.78l1.688 1.35Z"/>
</svg>
