<svg xmlns="http://www.w3.org/2000/svg" viewBox="0 0 24 24">
  <path d="M21.5 0a.5.5 0 0 1 .5.5v23a.5.5 0 0 1-.5.5h-19a.5.5 0 0 1-.5-.5V.5a.5.5 0 0 1 .5-.5h19ZM21 1H3v22h18V1Zm-1.25 19a.25.25 0 0 1 .25.25v1.5a.25.25 0 0 1-.25.25H4.25a.25.25 0 0 1-.25-.25v-1.5a.25.25 0 0 1 .25-.25h15.5Zm0-3a.25.25 0 0 1 .25.25v1.5a.25.25 0 0 1-.25.25H4.25a.25.25 0 0 1-.25-.25v-1.5a.25.25 0 0 1 .25-.25h15.5Zm0-3a.25.25 0 0 1 .25.25v1.5a.25.25 0 0 1-.25.25H4.25a.25.25 0 0 1-.25-.25v-1.5a.25.25 0 0 1 .25-.25h15.5Zm0-3a.25.25 0 0 1 .25.25v1.5a.25.25 0 0 1-.25.25H4.25a.25.25 0 0 1-.25-.25v-1.5a.25.25 0 0 1 .25-.25h15.5Zm0-3a.25.25 0 0 1 .25.25v1.5a.25.25 0 0 1-.25.25H4.25A.25.25 0 0 1 4 9.75v-1.5A.25.25 0 0 1 4.25 8h15.5Zm0-3a.25.25 0 0 1 .25.25v1.5a.25.25 0 0 1-.25.25H4.25A.25.25 0 0 1 4 6.75v-1.5A.25.25 0 0 1 4.25 5h15.5Zm0-3a.25.25 0 0 1 .25.25v1.5a.25.25 0 0 1-.25.25H4.25A.25.25 0 0 1 4 3.75v-1.5A.25.25 0 0 1 4.25 2h15.5Z"/>
</svg>
