<svg xmlns="http://www.w3.org/2000/svg" viewBox="0 0 24 24">
  <path d="M5.515 17c.027 1.066.137 2.106.266 3h12.454a26.09 26.09 0 0 0 .266-3H5.515ZM14 .5a.49.49 0 0 0-.492-.5h-3a.5.5 0 0 0-.5.5V3H14V.5Zm1.788 11.165C14.872 10.657 14.008 9.706 14 9V4h-3.992v5c0 .706-.865 1.657-1.78 2.665C7.069 12.938 5.774 14.367 5.547 16h12.922c-.229-1.633-1.524-3.062-2.681-4.335ZM6.28 22.652c.189.757.947 1.348 1.728 1.348h8c.779 0 1.539-.591 1.727-1.348.015-.058.172-.694.341-1.652H5.939c.169.958.327 1.595.341 1.652Z"/>
</svg>
