<svg xmlns="http://www.w3.org/2000/svg" viewBox="0 0 24 24">
  <path d="M2.752 9H7.61c-.077-.674.105-1.28.229-2H2.52c.173 1.001.305 1.34.232 2Zm5.235-3c.254-2.145.008-3.688-.746-4.594-.497-.598-1.19-.9-2.061-.9-.87 0-1.563.303-2.061.9-.753.906-.999 2.449-.746 4.594h5.614Zm.066 4.006H2.308C-.645 15.232-1.242 19.309 3.375 24h3.611c4.634-4.709 3.999-8.805 1.067-13.994Z"/>
  <path d="M15.181 8.006a7.971 7.971 0 0 0-5.743 2.443c1.51 2.845 3.12 7.025.428 11.519A7.95 7.95 0 0 0 15.181 24c4.411 0 8-3.583 8-7.994s-3.589-8-8-8Zm-2.5 4c0-.827.673-1.5 1.5-1.5s1.5.673 1.5 1.5-.673 1.5-1.5 1.5-1.5-.673-1.5-1.5Zm2.5 5.5c-.827 0-1.5-.673-1.5-1.5s.673-1.5 1.5-1.5 1.5.673 1.5 1.5-.673 1.5-1.5 1.5Zm3-3c-.827 0-1.5-.673-1.5-1.5s.673-1.5 1.5-1.5 1.5.673 1.5 1.5-.673 1.5-1.5 1.5Z"/>
</svg>
