<svg xmlns="http://www.w3.org/2000/svg" viewBox="0 0 24 24">
  <path d="M12 2a.5.5 0 0 1 .5.5v2a.5.5 0 0 1-1 0v-2A.5.5 0 0 1 12 2Zm7.071 2.929a.5.5 0 0 1 0 .707L17.657 7.05a.5.5 0 0 1-.707-.707l1.414-1.414a.5.5 0 0 1 .707 0ZM21.5 12.5a.5.5 0 0 0 0-1h-2a.5.5 0 0 0 0 1h2Zm-2.429 6.571a.5.5 0 0 1-.707 0l-1.414-1.414a.5.5 0 0 1 .707-.707l1.414 1.414a.5.5 0 0 1 0 .707ZM11.5 21.5a.5.5 0 0 0 1 0v-2a.5.5 0 0 0-1 0v2Zm-6.571-2.429a.5.5 0 0 1 0-.707l1.414-1.414a.5.5 0 0 1 .707.707L5.636 19.07a.5.5 0 0 1-.707 0ZM2.5 11.5a.5.5 0 0 0 0 1h2a.5.5 0 0 0 0-1h-2Zm2.429-6.571a.5.5 0 0 1 .707 0L7.05 6.343a.5.5 0 0 1-.707.707L4.93 5.636a.5.5 0 0 1 0-.707ZM12 16.5a4.5 4.5 0 1 0 0-9 4.5 4.5 0 0 0 0 9Z"/>
</svg>
