<svg xmlns="http://www.w3.org/2000/svg" viewBox="0 0 24 24">
  <g clip-path="url(#a)">
    <path fill-rule="evenodd" d="M21.983 11.106c.69.201 2.02.737 2.02 1.894 0 .473-.133.873-.383 1.188.239.383.383.831.383 1.313 0 1.379-1.122 2.5-2.5 2.5h-19a2.502 2.502 0 0 1-2.5-2.5c0-.483.144-.93.382-1.313-.25-.315-.382-.715-.382-1.188 0-1.158 1.329-1.694 2.02-1.894C2.228 5.89 6.442 3 12.003 3c5.56 0 9.774 2.89 9.98 8.106ZM17.503 6.5c0-.274-.225-.5-.5-.5a.5.5 0 1 0 .5.5Zm-2.5-1c0-.274-.225-.5-.5-.5a.5.5 0 1 0 .5.5Zm-2.5 1c0-.274-.225-.5-.5-.5a.5.5 0 1 0 .5.5Zm-2.5-1c0-.274-.225-.5-.5-.5a.5.5 0 1 0 .5.5Zm-2.5 1c0-.274-.225-.5-.5-.5a.5.5 0 1 0 .5.5Zm12.844 7.138c.228.216.693.362 1.156.362 1.5 0 1.5-.752 1.5-1 0-.5-1.035-.885-1.552-1H2.555c-.52.115-1.552.5-1.552 1 0 .248 0 1 1.5 1 .462 0 .927-.146 1.155-.362a.499.499 0 0 1 .782.121c.314.566.925 1.241 2.063 1.241 1.063 0 1.675-.358 2.04-1.199a.5.5 0 0 1 .917 0c.387.885 1.566 1.199 2.543 1.199.976 0 2.155-.314 2.54-1.199a.5.5 0 0 1 .917 0c.367.841.978 1.199 2.043 1.199 1.136 0 1.748-.675 2.063-1.241a.499.499 0 0 1 .78-.121Z" clip-rule="evenodd"/>
    <path d="M2.003 19.506a.5.5 0 0 1 .5-.5h19c.275 0 .5.225.5.5v.5c0 1.253-.934 2-2.5 1.994h-15c-1.565.006-2.5-.74-2.5-1.994v-.5Z"/>
  </g>
  <defs>
    <clipPath id="a">
      <path d="M0 0h24v24H0z"/>
    </clipPath>
  </defs>
</svg>
