<svg xmlns="http://www.w3.org/2000/svg" viewBox="0 0 24 24">
  <path d="M23.5 7H20V4c0-2.206-1.795-4-4-4H8C5.794 0 4 1.794 4 4v3H.5a.5.5 0 0 0-.5.5v7a.5.5 0 0 0 .5.5h2a.5.5 0 0 0 .5-.5V8h1v13.5c0 .65.419 1.201 1 1.407v.593a.5.5 0 0 0 .5.5h2a.5.5 0 0 0 .5-.5V23h8v.5a.5.5 0 0 0 .5.5h2a.5.5 0 0 0 .5-.5v-.593c.58-.206 1-.757 1-1.407V8h1v6.5a.5.5 0 0 0 .5.5h2a.5.5 0 0 0 .5-.5v-7a.5.5 0 0 0-.5-.5Zm-15-4.5A.5.5 0 0 1 9 2h6a.5.5 0 0 1 .5.5v2a.5.5 0 0 1-.5.5H9a.5.5 0 0 1-.5-.5v-2Zm1 17.5h-3a.5.5 0 0 1 0-1h3a.5.5 0 0 1 0 1Zm8 0h-3a.5.5 0 0 1 0-1h3a.5.5 0 0 1 0 1Zm1.5-5H5V7h14v8Z"/>
</svg>
