<svg xmlns="http://www.w3.org/2000/svg" viewBox="0 0 24 24">
  <path d="M17.5 18h-11a.5.5 0 0 0-.49.598l1 5A.5.5 0 0 0 7.5 24h9a.5.5 0 0 0 .49-.402l1-5A.5.5 0 0 0 17.5 18Zm4.5-6.5h-1.029c-.01-.08-.025-.15-.04-.225l.923-.922a.5.5 0 0 0-.707-.707l-.687.688a1.221 1.221 0 0 0-.46-.256V9a.5.5 0 0 0-1 0v1.076a1.254 1.254 0 0 0-.465.252l-.682-.682a.5.5 0 0 0-.707.707l.9.9c-.109.44-.128.747-.546.747H16V6.5c0-.117-.019-.294-.057-.5H17.5a.5.5 0 0 0 0-1h-1.854a4.747 4.747 0 0 0-.542-.975L16.399 2.3a.5.5 0 1 0-.8-.599l-1.191 1.588c-.486-.387-1.112-.672-1.908-.759H12V.5a.5.5 0 0 0-1 0v2.119a3.546 3.546 0 0 0-1.409.67L8.399 1.701a.5.5 0 1 0-.799.6l1.295 1.725C8.207 4.969 8 6.076 8 6.5V9h-.5c-.225 0-.5-.276-.5-.5V7a2.16 2.16 0 0 0-.434-1.276l.804-.888a.5.5 0 1 0-.741-.672l-.879.973c-.082-.031-.159-.065-.25-.084V4a.5.5 0 0 0-1 0v1.053c-.072.015-.131.043-.197.066L3.218 4.13a.5.5 0 1 0-.673.739l.907.826A2.162 2.162 0 0 0 3 7v3c0 1.467 1.196 2 2 2h3v2H6.5a.5.5 0 0 0 0 1H8v1.5a.5.5 0 0 0 .5.5h7a.5.5 0 0 0 .5-.5V15h3c1.331 0 2-1.281 2-2v-.5h1a.5.5 0 0 0 0-1Z"/>
</svg>
