<svg xmlns="http://www.w3.org/2000/svg" viewBox="0 0 24 24">
  <path d="M16 11.08V1.5c0-.827-.673-1.5-1.5-1.5h-13C.673 0 0 .673 0 1.5v11c0 .827.673 1.5 1.5 1.5h9.764A6.996 6.996 0 0 1 16 11.08Zm7.276-10.027-6 3A.5.5 0 0 0 17 4.5v5a.5.5 0 0 0 .276.447l6 3A.5.5 0 0 0 24 12.5v-11a.5.5 0 0 0-.724-.447ZM17 12c-3.309 0-6 2.691-6 6s2.691 6 6 6 6-2.691 6-6-2.691-6-6-6Zm-.147 8.87a.5.5 0 0 1-.707 0l-2.5-2.508a.5.5 0 0 1 0-.706l2.5-2.508a.5.5 0 0 1 .708.706l-2.148 2.155 2.148 2.155a.5.5 0 0 1-.001.706ZM20 20.516a.5.5 0 0 1-.821.383l-3-2.516a.502.502 0 0 1 .001-.768l3-2.5c.33-.27.82-.034.82.385v5.016Z"/>
</svg>
