<svg xmlns="http://www.w3.org/2000/svg" viewBox="0 0 24 24">
  <g clip-path="url(#a)">
    <path d="M13.5 4a1.5 1.5 0 1 0 0 3 1.5 1.5 0 0 0 0-3Z"/>
    <path fill-rule="evenodd" d="M16.309 1H17.5c.827 0 1.5.673 1.5 1.5v6c0 .827-.673 1.5-1.5 1.5h-10C6.673 10 6 9.327 6 8.5v-6C6 1.673 6.673 1 7.5 1H8V0h1v1h2.191c.304-.607.721-1 1.427-1h2.264c.707 0 1.124.394 1.427 1ZM11 5.5C11 6.879 12.122 8 13.5 8S16 6.879 16 5.5C16 4.122 14.878 3 13.5 3A2.503 2.503 0 0 0 11 5.5Z" clip-rule="evenodd"/>
    <path d="M13.188 17.482c.462-.089.812-.495.812-.982v-4.507h1.5a.5.5 0 0 0 .5-.5.49.49 0 0 0-.5-.493h-6a.49.49 0 0 0-.5.493.5.5 0 0 0 .5.5H11V16.5c0 .487.35.893.812.982l-5.666 5.665a.5.5 0 0 0 .707.707L12 18.707V23.5a.5.5 0 0 0 1 0v-4.793l5.146 5.146a.5.5 0 0 0 .707-.707l-5.665-5.664Z"/>
  </g>
  <defs>
    <clipPath id="a">
      <path d="M0 0h24v24H0z"/>
    </clipPath>
  </defs>
</svg>
