<svg xmlns="http://www.w3.org/2000/svg" viewBox="0 0 24 24">
  <path d="M16 11.08V1.5c0-.827-.673-1.5-1.5-1.5h-13C.673 0 0 .673 0 1.5v11c0 .827.673 1.5 1.5 1.5h9.764A6.996 6.996 0 0 1 16 11.08Zm7.276-10.027-6 3A.5.5 0 0 0 17 4.5v5a.5.5 0 0 0 .276.447l6 3A.5.5 0 0 0 24 12.5v-11a.5.5 0 0 0-.724-.447ZM17 12c-3.309 0-6 2.691-6 6s2.691 6 6 6 6-2.691 6-6-2.691-6-6-6Zm-2 8.516a.5.5 0 0 1-1 0V15.5a.5.5 0 0 1 1 0v5.016Zm5 0a.5.5 0 0 1-.821.383l-3-2.516a.502.502 0 0 1 .001-.768l3-2.5a.501.501 0 0 1 .82.385v5.016Z"/>
</svg>
