<svg xmlns="http://www.w3.org/2000/svg" viewBox="0 0 24 24">
  <path fill-rule="evenodd" d="M8.888 5.5A4.502 4.502 0 0 1 0 4.5a4.5 4.5 0 0 1 8.888-1H23a1 1 0 1 1 0 2h-2V7a1 1 0 1 1-2 0V5.5h-2V7a1 1 0 1 1-2 0V5.5H8.888ZM7 4.5a2.5 2.5 0 1 1-5 0 2.5 2.5 0 0 1 5 0Z" clip-rule="evenodd"/>
  <path d="M17.5 10h-11a.5.5 0 0 0-.465.315L4.161 15h15.678l-1.875-4.685A.5.5 0 0 0 17.5 10Zm3.207 6H3.293l-1.146 1.146A.502.502 0 0 0 2 17.5V19h5a.5.5 0 0 1 0 1H2v1.5a.5.5 0 0 0 .5.5H3v1.5a.5.5 0 0 0 .5.5h3a.5.5 0 0 0 .5-.5V22h10v1.5a.5.5 0 0 0 .5.5h3a.5.5 0 0 0 .5-.5V22h.5a.5.5 0 0 0 .5-.5V20h-5a.5.5 0 0 1 0-1h5v-1.5a.505.505 0 0 0-.146-.354L20.707 16Z"/>
</svg>
