<svg xmlns="http://www.w3.org/2000/svg" viewBox="0 0 24 24">
  <g clip-path="url(#a)">
    <path d="M17.5 4H16v3h1.5c.827 0 1.5-.673 1.5-1.5S18.327 4 17.5 4Z"/>
    <path fill-rule="evenodd" d="M10 7c0-3.859 3.14-7 7-7s7 3.141 7 7-3.14 7-7 7-7-3.141-7-7Zm6 1h1.5C18.878 8 20 6.879 20 5.5S18.878 3 17.5 3h-2a.5.5 0 0 0-.5.5v7a.5.5 0 0 0 1 0V8Z" clip-rule="evenodd"/>
    <path d="M17.926 15.219c-.568-.291-1.164-.219-1.164-.219H3.238l1.6-4h5.244a7.932 7.932 0 0 1-.493-1H4.5a.5.5 0 0 0-.465.314l-1.962 4.904-1.927 1.928A.504.504 0 0 0 0 17.5V19h5a.5.5 0 0 1 0 1H0v1.5a.5.5 0 0 0 .5.5H1v1.5a.5.5 0 0 0 .5.5h3a.5.5 0 0 0 .5-.5V22h10v1.5a.5.5 0 0 0 .5.5h3a.5.5 0 0 0 .5-.5V22h.5a.5.5 0 0 0 .5-.5V20h-5a.5.5 0 0 1 0-1h5v-1.5a.504.504 0 0 0-.146-.354l-1.928-1.927Z"/>
  </g>
  <defs>
    <clipPath id="a">
      <path d="M0 0h24v24H0z"/>
    </clipPath>
  </defs>
</svg>
