<svg xmlns="http://www.w3.org/2000/svg" viewBox="0 0 24 24">
  <g clip-path="url(#a)">
    <path d="M22.776 11 19 14.79v-3.059L7.8 2.13a.5.5 0 1 1 .65-.76L19.685 11h3.091Z"/>
    <path fill-rule="evenodd" d="M12 19a.5.5 0 0 1 0-1h5v-.5a.504.504 0 0 0-.146-.354l-1.927-1.928-1.962-4.904A.502.502 0 0 0 12.5 10h-8a.5.5 0 0 0-.465.314l-1.962 4.904-1.927 1.928A.504.504 0 0 0 0 17.5v.5h5a.5.5 0 0 1 0 1H0v1.5a.5.5 0 0 0 .5.5H1v1.5a.5.5 0 0 0 .5.5h3a.5.5 0 0 0 .5-.5V21h7v1.5a.5.5 0 0 0 .5.5h3a.5.5 0 0 0 .5-.5V21h.5a.5.5 0 0 0 .5-.5V19h-5Zm-8.762-4 1.6-4h7.323l1.601 4H3.238Z" clip-rule="evenodd"/>
    <path d="M23.929 11.259 19 16.206v2.338l5-4.997V11.5c0-.09-.03-.169-.071-.241ZM24 17.293l-5 5v-2.336l5-4.996v2.332ZM23.5 23a.5.5 0 0 0 .5-.5v-3.793L19.707 23H23.5Z"/>
  </g>
  <defs>
    <clipPath id="a">
      <path d="M0 0h24v24H0z"/>
    </clipPath>
  </defs>
</svg>
