<svg xmlns="http://www.w3.org/2000/svg" viewBox="0 0 24 24">
  <path fill-rule="evenodd" d="M17 10.5a.5.5 0 0 1-.5.5H5.513c.457.604 1.174 1 1.987 1h12a.5.5 0 0 0 .5-.5V7.774l-3 .856v1.87Zm4.5-3a.5.5 0 0 0-.5.5v2a.5.5 0 0 0 1 0V8a.5.5 0 0 0-.5-.5Zm-9 5.5h-4a.5.5 0 1 0 0 1H10v4.09l-9 1.801V18.5a.5.5 0 0 0-1 0v4a.5.5 0 0 0 1 0v-1.589l9.598-1.92A.501.501 0 0 0 11 18.5V14h1.5a.5.5 0 0 0 0-1ZM23.905 2.207A.499.499 0 0 0 23.5 2H7C5.346 2 4 3.347 4 5v4.5a.5.5 0 0 0 .5.5H16V8.254c0-.224.147-.42.362-.48l6.274-1.794a.495.495 0 0 0 .337-.321l1-3.002a.499.499 0 0 0-.068-.45Z" clip-rule="evenodd"/>
</svg>
