<svg xmlns="http://www.w3.org/2000/svg" viewBox="0 0 24 24">
  <path fill-rule="evenodd" d="M15.5 13a.5.5 0 0 1 .5.5v10a.5.5 0 0 1-.5.5h-2a.5.5 0 0 1-.5-.5v-10a.5.5 0 0 1 .5-.5h2Zm-10-2a.5.5 0 0 1 .5.5v10a.5.5 0 0 1-.5.5h-2a.5.5 0 0 1-.5-.5v-10a.5.5 0 0 1 .5-.5h2Zm5-2a.5.5 0 0 1 .5.5v10a.5.5 0 0 1-.5.5h-2a.5.5 0 0 1-.5-.5v-10a.5.5 0 0 1 .5-.5h2Zm10 0a.5.5 0 0 1 .5.5v10a.5.5 0 0 1-.5.5h-2a.5.5 0 0 1-.5-.5v-10a.5.5 0 0 1 .5-.5h2Zm3-9a.5.5 0 0 1 0 1H20v7h-1V1h-4v11h-1V1h-4v7H9V1H5v9H4V1H.5a.5.5 0 0 1 0-1h23Z" clip-rule="evenodd"/>
</svg>
