<svg xmlns="http://www.w3.org/2000/svg" viewBox="0 0 24 24">
  <path fill-rule="evenodd" d="M22.9 11.646c.3.316.088.854-.34.854h-2.4v10a.49.49 0 0 1-.48.5H3.36a.49.49 0 0 1-.48-.5v-10H.48c-.427 0-.64-.538-.338-.854l11.04-11.5a.467.467 0 0 1 .678 0l11.04 11.5ZM4.32 18a.49.49 0 0 0-.48.5v3c0 .276.216.5.48.5h14.4a.49.49 0 0 0 .48-.5v-3a.49.49 0 0 0-.48-.5H4.32ZM19.68 2.5V7l-3.36-3.5v-1c0-.5.48-.5.48-.5h2.4s.48 0 .48.5ZM7.68 21c-.53 0-.96-.448-.96-1s.43-1 .96-1 .96.448.96 1-.43 1-.96 1Zm3.84 0c-.53 0-.96-.448-.96-1s.43-1 .96-1 .96.448.96 1-.43 1-.96 1Zm3.84 0c-.53 0-.96-.448-.96-1s.43-1 .96-1 .96.448.96 1-.43 1-.96 1Z" clip-rule="evenodd"/>
</svg>
