<svg xmlns="http://www.w3.org/2000/svg" viewBox="0 0 24 24">
  <path fill-rule="evenodd" d="M12 4.955a2 2 0 1 1 0-4 2 2 0 0 1 0 4Zm7.608 5.528a2 2 0 1 1 3.805-1.236 2 2 0 0 1-3.805 1.236Zm-2.906 8.944a2 2 0 1 1 2.352 3.236 2 2 0 0 1-2.352-3.236Zm-9.404 0a2 2 0 1 1-2.351 3.236 2 2 0 0 1 2.35-3.236Zm-2.906-8.944A2 2 0 1 1 .587 9.247a2 2 0 0 1 3.805 1.236ZM12 16.955a4 4 0 1 1 0-8 4 4 0 0 1 0 8Zm0-9a1 1 0 1 1 0-2 1 1 0 0 1 0 2Zm4.755 3.455a1 1 0 1 1 1.902-.618 1 1 0 0 1-1.902.618ZM14.94 17a1 1 0 1 1 1.176 1.618A1 1 0 0 1 14.939 17Zm-5.88 0a1 1 0 1 1-1.176 1.618A1 1 0 0 1 9.061 17Zm-1.816-5.59a1 1 0 1 1-1.902-.618 1 1 0 0 1 1.902.618Z" clip-rule="evenodd"/>
</svg>
