<svg xmlns="http://www.w3.org/2000/svg" viewBox="0 0 24 24">
  <path d="M22.5 9H19V.5a.5.5 0 0 0-1 0V1H6V.5a.5.5 0 0 0-1 0V9H1.5a.5.5 0 0 0 0 1H3v4.5c0 .009.004.016.004.023A.495.495 0 0 0 3.5 15h1.356l6.195 3.847-6.815 4.229a.5.5 0 1 0 .528.849L12 19.434l7.236 4.492a.504.504 0 0 0 .689-.16.502.502 0 0 0-.161-.689l-6.816-4.229L19.143 15H20.5a.496.496 0 0 0 .495-.477c0-.008.005-.015.005-.023V10h1.5a.5.5 0 0 0 0-1ZM5 11.35l-1 1.5V10h1v1.35Zm7 6.906L6.752 15h10.495L12 18.256ZM18 11H6V7h12v4Zm2 1.85-1-1.5V10h1v2.85Z"/>
</svg>
