<svg xmlns="http://www.w3.org/2000/svg" viewBox="0 0 24 24">
  <path fill-rule="evenodd" d="M12 13.815a3.88 3.88 0 0 1-.958.532v8.73h1.916v-8.73a3.88 3.88 0 0 1-.958-.532Zm.48-9.661.478 8.837c.51.44.7.711 1.438.711a2.92 2.92 0 0 0 1.812-.639l-3.729-8.91Zm8.554 5.597L12.35.924l4.813 11.956a2.907 2.907 0 0 0 2.026.824c.295 0 .584-.042.863-.127.793-.241 1.41-.874 1.607-1.653a2.264 2.264 0 0 0-.624-2.173ZM6.84 12.88 11.654.922 2.833 9.803a2.262 2.262 0 0 0-.574 2.001 2.333 2.333 0 0 0 1.326 1.635c.384.175.798.264 1.227.264.795 0 1.506-.32 2.027-.824Zm4.682-8.725-3.73 8.91a2.914 2.914 0 0 0 1.813.638c.737 0 .929-.271 1.438-.711l.479-8.837Zm-2.396 15.23H5.102l-.792-3.873c-.115-.497-.626-.806-1.143-.7-.517.111-.842.604-.726 1.103l.934 4.493v1.766c0 .51.428.923.958.923s.959-.412.959-.923v-.942h2.875v.928c0 .51.428.924.958.924s.958-.413.958-.924v-1.851c0-.51-.428-.923-.958-.923Zm11.709-4.572c-.514-.106-1.028.202-1.143.7l-.793 3.873h-4.023c-.53 0-.958.413-.958.923v1.851c0 .51.428.923.958.923s.958-.412.958-.923v-.928h2.875v.928c0 .51.429.924.959.924s.958-.413.958-.924v-1.75l.935-4.494c.116-.5-.21-.992-.726-1.103Z" clip-rule="evenodd"/>
</svg>
