<svg xmlns="http://www.w3.org/2000/svg" viewBox="0 0 24 24">
  <path d="M21.5 7A2.503 2.503 0 0 0 19 9.5a.5.5 0 0 0 .5.5h1.41l-.834 5H19v1h1.5a.5.5 0 0 0 .493-.418L21.924 10H23.5a.5.5 0 0 0 .5-.5C24 8.122 22.879 7 21.5 7Zm-3.752 14.025c-.44-.485-1.94-1.835-4.748-1.99V18h-1v1.035c-2.808.155-4.308 1.504-4.748 1.99A1.5 1.5 0 0 0 6 22.5c0 .827.673 1.5 1.5 1.5S9 23.327 9 22.5c0-.485-.235-.912-.593-1.186.597-.489 1.762-1.166 3.593-1.279 0 0-.005 1.022 0 1.052-.59.203-1 .756-1 1.413 0 .827.673 1.5 1.5 1.5s1.5-.673 1.5-1.5c0-.657-.41-1.21-1-1.413.005-.029 0-1.053 0-1.053 1.84.114 3 .789 3.595 1.278-.36.274-.595.703-.595 1.188 0 .827.673 1.5 1.5 1.5s1.5-.673 1.5-1.5a1.5 1.5 0 0 0-1.252-1.475Zm-.35-6.535a23.713 23.713 0 0 0-4.815-.487c-1.64 0-3.306.163-4.988.488C7.225 14.5 7 14.724 7 15v1.5a.5.5 0 0 0 .5.5h10a.5.5 0 0 0 .5-.5V15a.5.5 0 0 0-.5-.5.441.441 0 0 1-.102-.01Zm-.807-1.161C17.192 11.635 19 6.458 19 5.5 19 2.812 16.523.315 13.592.049a12.642 12.642 0 0 0-2.184 0C8.487.315 6.011 2.81 6 5.498c-.004.962 1.816 6.164 2.413 7.846 2.751-.443 5.51-.45 8.178-.015ZM6 15H4.924l-.834-5H5.5a.5.5 0 0 0 .5-.5C6 8.122 4.879 7 3.5 7A2.503 2.503 0 0 0 1 9.5a.5.5 0 0 0 .5.5h1.576l.931 5.582A.5.5 0 0 0 4.5 16H6v-1Z"/>
</svg>
