<svg xmlns="http://www.w3.org/2000/svg" viewBox="0 0 24 25">
  <path d="M22 16h-1.994c-.492-2.792-3.091-4.801-5.947-4.524l-6.828.769c.161-.412.195-.875.051-1.327L4.547 2.343A2 2 0 0 0 .735 3.558l2.735 8.574c.162.509.513.925.987 1.169.05.026.103.037.154.059l1.814 4.082-4.832 6.768a.5.5 0 0 0 .814.581l4.27-5.977A2 2 0 0 0 8.5 20h10.977l.526 4.557a.5.5 0 0 0 .496.443l.059-.002a.503.503 0 0 0 .44-.555L20.484 20H22c1.103 0 2-.897 2-2s-.897-2-2-2ZM5.755 13.466c.847-.167 8.407-.996 8.407-.996 2.271-.214 4.329 1.339 4.809 3.529H8.5c-.532 0-1.015.212-1.373.553l-1.372-3.086Z"/>
</svg>
