<svg xmlns="http://www.w3.org/2000/svg" viewBox="0 0 24 24">
  <path d="M11.583 0C6.292 0 .261 6.268.261 11.766c0 2.119.905 3.894 2.617 5.133 1.839 1.332 4.575 2.028 8.122 2.09V23H5a.5.5 0 1 0 0 1h13a.5.5 0 0 0 0-1h-6v-4.011c3.49-.062 6.177-.741 7.972-2.035 1.674-1.206 2.558-2.945 2.558-5.027C22.529 6.465 16.596 0 11.583 0Zm4.344 15H6.986c-3.59-1.085-3.824-3.312-3.644-4.529.508-3.43 5.464-7.556 8.194-7.556 2.329 0 7.488 4.126 8.016 7.644.361 2.405-1.316 3.711-3.625 4.441Z"/>
  <path d="M18.546 11.593c-1.861-.664-6.327-.704-7.32-.704-2.079 0-5.372.102-6.866.682.22 1.089 1.166 1.906 2.846 2.429h8.569c1.653-.521 2.573-1.332 2.771-2.407Zm.88.659.03-.07-.007-.006-.023.076Z"/>
</svg>
