<svg xmlns="http://www.w3.org/2000/svg" viewBox="0 0 24 24">
  <path d="M3 8c0-.639-.762-1.81-1.089-2.284-.186-.271-.637-.271-.822 0C.762 6.19 0 7.361 0 8c0 .827.673 1.5 1.5 1.5S3 8.827 3 8Zm2.5-1C6.327 7 7 6.327 7 5.5c0-.639-.762-1.81-1.089-2.284-.186-.271-.637-.271-.822 0C4.762 3.69 4 4.861 4 5.5 4 6.327 4.673 7 5.5 7Z"/>
  <path d="M21.5 10a.5.5 0 0 0-.5.5v1c0 2.482-2.019 4.5-4.5 4.5-2.313 0-4.201-1.76-4.45-4.007A3.482 3.482 0 0 0 14.5 13c1.93 0 3.5-1.57 3.5-3.5V8a.5.5 0 0 0-1 0v1.5c0 1.378-1.121 2.5-2.5 2.5A2.503 2.503 0 0 1 12 9.5V2.966A4.517 4.517 0 0 0 15.377.752.5.5 0 0 0 14.945 0h-6.89a.5.5 0 0 0-.432.752A4.514 4.514 0 0 0 11 2.966V9.5c0 1.378-1.121 2.5-2.5 2.5A2.503 2.503 0 0 1 6 9.5V8a.5.5 0 0 0-1 0v1.5C5 11.43 6.57 13 8.5 13c.954 0 1.818-.385 2.45-1.007C10.701 14.24 8.813 16 6.5 16A4.505 4.505 0 0 1 2 11.5v-1a.5.5 0 0 0-1 0v1C1 14.533 3.468 17 6.5 17a5.497 5.497 0 0 0 4.5-2.348V16a.5.5 0 0 0 1 0v-1.348A5.497 5.497 0 0 0 16.5 17c3.032 0 5.5-2.467 5.5-5.5v-1a.5.5 0 0 0-.5-.5Z"/>
  <path d="M21.911 5.716c-.186-.271-.637-.271-.822 0C20.762 6.19 20 7.361 20 8c0 .827.673 1.5 1.5 1.5S23 8.827 23 8c0-.639-.762-1.81-1.089-2.284ZM17.5 7c.827 0 1.5-.673 1.5-1.5 0-.639-.762-1.81-1.089-2.284-.186-.271-.637-.271-.822 0C16.762 3.69 16 4.861 16 5.5c0 .827.673 1.5 1.5 1.5Zm-6 10c-.827 0-1.5.673-1.5 1.5 0 .639.762 1.81 1.089 2.284a.499.499 0 0 0 .822 0C12.238 20.31 13 19.139 13 18.5c0-.827-.673-1.5-1.5-1.5Zm5 3c-.827 0-1.5.673-1.5 1.5 0 .639.762 1.81 1.089 2.284a.499.499 0 0 0 .822 0C17.238 23.31 18 22.139 18 21.5c0-.827-.673-1.5-1.5-1.5Zm.5-1v-1a.5.5 0 0 0-1 0v1a.5.5 0 0 0 1 0ZM6.5 20c-.827 0-1.5.673-1.5 1.5 0 .639.762 1.81 1.089 2.284a.499.499 0 0 0 .822 0C7.238 23.31 8 22.139 8 21.5c0-.827-.673-1.5-1.5-1.5Zm.5-1v-1a.5.5 0 0 0-1 0v1a.5.5 0 0 0 1 0Z"/>
</svg>
