<svg xmlns="http://www.w3.org/2000/svg" viewBox="0 0 24 24">
  <path d="M5.584 12.216a.5.5 0 0 0 .416.779h2l-.638.85 10.287-2.78-2.177-3.268-8.53 2.38-1.358 2.039ZM14 9.992a.5.5 0 1 1 0 1 .5.5 0 0 1 0-1Zm-2 1a.5.5 0 1 1 0 1 .5.5 0 0 1 0-1Zm-2-1a.5.5 0 1 1 0 1 .5.5 0 0 1 0-1ZM8 6.99h1.065L7.792 8.9l8.706-2.428c-.003-.091-4.082-6.265-4.082-6.265-.186-.277-.647-.277-.832 0l-4 6.003A.499.499 0 0 0 8 6.99Zm4-3.002a.5.5 0 1 1 0 1 .5.5 0 0 1 0-1Zm0 2.001a.5.5 0 1 1 0 1 .5.5 0 0 1 0-1Zm4 7.004h2a.5.5 0 0 0 .416-.778l-.182-.273-11.847 3.202L4.1 18.197a.5.5 0 0 0-.047.523.485.485 0 0 0 .447.271H11v4.008a1 1 0 1 0 2 0v-4.008h6.5a.484.484 0 0 0 .447-.271.5.5 0 0 0-.047-.523L16 12.993Zm-8 4.003a.5.5 0 1 1 0-1 .5.5 0 0 1 0 1Zm3 0a.5.5 0 1 1 0-1 .5.5 0 0 1 0 1Zm3-2.001a.5.5 0 1 1 0-1 .5.5 0 0 1 0 1Zm1 2a.5.5 0 1 1 0-.999.5.5 0 0 1 0 1Z"/>
</svg>
