<svg xmlns="http://www.w3.org/2000/svg" viewBox="0 0 24 24">
  <path fill-rule="evenodd" d="M19 13.5a7 7 0 1 1-14 0 7 7 0 0 1 14 0Zm-8.808-1.748a.5.5 0 1 1-.91-.417l.227-.494c-1.056.953-1.504 2.467-1.005 3.878a.5.5 0 0 1-.942.333c-.68-1.923.01-3.974 1.527-5.163l-.643-.094a.5.5 0 0 1 .145-.99l2.105.308a.5.5 0 0 1 .383.703l-.887 1.936Zm-.054 7.367a.5.5 0 0 0 .277-.65l-.245-.608c1.792.702 3.916.273 5.231-1.28a.5.5 0 0 0-.763-.647c-.959 1.133-2.49 1.507-3.845 1.087l.53-.053a.5.5 0 0 0-.099-.995l-2.117.211a.5.5 0 0 0-.415.684l.795 1.974a.5.5 0 0 0 .65.277Zm6.19-4.233a.5.5 0 0 1-.797-.071l-1.12-1.81a.5.5 0 0 1 .851-.527l.273.442c-.216-1.399-1.22-2.602-2.658-2.966a.5.5 0 0 1 .246-.97c1.98.502 3.294 2.222 3.441 4.145l.445-.494a.5.5 0 0 1 .743.67l-1.425 1.581Z" clip-rule="evenodd"/>
  <path fill-rule="evenodd" d="M5.272 1.5a.5.5 0 0 1 .354.146L6.97 2.992a.5.5 0 0 1 0 .707l-.319.32 1.305 1.304a9.085 9.085 0 0 1 8.086 0l1.305-1.305-.32-.319a.5.5 0 0 1 0-.707l1.346-1.346a.5.5 0 0 1 .707 0l4.71 4.71a.5.5 0 0 1 0 .707l-1.346 1.345a.5.5 0 0 1-.707 0l-.32-.319-1.304 1.305a9.063 9.063 0 1 1-16.228 0L2.581 8.09l-.319.32a.5.5 0 0 1-.707 0L.209 7.062a.5.5 0 0 1 0-.707l4.71-4.71a.5.5 0 0 1 .353-.146ZM20 13.5a8 8 0 1 1-16 0 8 8 0 0 1 16 0Z" clip-rule="evenodd"/>
</svg>
