<svg xmlns="http://www.w3.org/2000/svg" viewBox="0 0 26 24">
  <path fill-rule="evenodd" d="M9.5 4.5a3.5 3.5 0 0 1 5.6-2.8 1 1 0 1 1-1.2 1.6 1.5 1.5 0 0 0-2.4 1.2 1 1 0 1 1-2 0ZM1 5.5a1 1 0 0 1 1-1h6a1 1 0 1 1 0 2H2a1 1 0 0 1-1-1Zm11 0a1 1 0 0 1 1-1h10.5a1 1 0 1 1 0 2H13a1 1 0 0 1-1-1Zm1.9 2.2a1 1 0 1 1 1.2 1.6 3.493 3.493 0 0 1-1.1.555V11.5a1 1 0 0 1-.416.812L3.6 19.5h18.74l-7.241-5.09a1 1 0 1 1 1.15-1.636l8.43 5.926c1.231.865.619 2.8-.885 2.8H2.174c-1.495 0-2.113-1.916-.9-2.79L12 10.988V9a1 1 0 0 1 1-1c.339 0 .649-.111.9-.3Z" clip-rule="evenodd"/>
</svg>
