<svg xmlns="http://www.w3.org/2000/svg" viewBox="0 0 24 24">
  <path fill-rule="evenodd" d="M12.528 4.533 12.5 3.486A.5.5 0 0 0 12 3a1 1 0 1 1 1-1 .5.5 0 0 0 1 0c0-1.104-.898-2-2-2a2.001 2.001 0 0 0-.488 3.94l.017.593C6.654 4.865.024 9.771.024 11.9c0 .36.164.666.461.859.25.163.581.241 1.015.241H4v-1H1.5c-.364 0-.468-.077-.473-.077-.016-.054.023-.317.392-.817C3.052 8.901 8.35 5.5 12.041 5.5c3.481 0 8.761 3.382 10.486 5.575.472.6.453.838.46.841-.01.008-.118.084-.487.084H20v1h2.5c.432 0 .763-.075 1.011-.232a.973.973 0 0 0 .468-.852c0-2.022-6.826-7.042-11.451-7.383ZM5 21v2.5a.5.5 0 0 0 .5.5h13a.5.5 0 0 0 .5-.5V21H5Zm14-1V9.5a.5.5 0 0 0-.5-.5h-13a.5.5 0 0 0-.5.5V20h14Z" clip-rule="evenodd"/>
</svg>
