<svg xmlns="http://www.w3.org/2000/svg" viewBox="0 0 24 24">
  <path fill-rule="evenodd" d="M20.5 1C18.57 1 17 2.57 17 4.5c0 .17.018.336.041.5H7.727l-3.5-4H0v1h3.773l2.625 3H4.5a.5.5 0 0 0-.353.853L12 13.708V23H8.5a.5.5 0 0 0 0 1h8a.5.5 0 0 0 0-1H13v-9.292l6.032-6.033c.458.212.958.325 1.468.325C22.43 8 24 6.431 24 4.5 24 2.57 22.43 1 20.5 1Zm0 6c-.237 0-.471-.033-.695-.098l1.049-1.049A.5.5 0 0 0 20.5 5h-2.445A2.431 2.431 0 0 1 18 4.5C18 3.122 19.121 2 20.5 2 21.878 2 23 3.122 23 4.5 23 5.879 21.878 7 20.5 7Z" clip-rule="evenodd"/>
</svg>
