<svg xmlns="http://www.w3.org/2000/svg" viewBox="0 0 24 24">
  <path d="M20.802 7.036c1.115-.684 1.526-2.056.917-3.054-.51-.848-1.582-1.197-2.607-.856-.14-1.153-1.038-2.046-2.121-2.046-1.086 0-1.985.887-2.13 2.036-1.02-.325-2.076.031-2.577.864-.602.984-.211 2.323.866 3.02h-2.863L8.002 3.082a2.496 2.496 0 0 0-3.546-.82L1.723 4.084a.5.5 0 1 0 .554.832L5.01 3.095a1.5 1.5 0 0 1 2.128.492L9.13 7H7a.5.5 0 0 0-.424.235l-1.94 3.11c-.001.003-.001.006-.003.008A8.942 8.942 0 0 0 3 15.5c0 5.216 5.877 8.5 7 8.5h4c1 0 7-3.162 7-8.5a8.929 8.929 0 0 0-1.593-5.078c.342-.089.654-.256.906-.508.724-.723.757-1.859.205-2.73.096-.043.189-.091.279-.145l.005-.003ZM17 4.532a1.489 1.489 0 1 1-.001 2.977 1.489 1.489 0 0 1 0-2.977Zm-4.648 5.673a.5.5 0 0 0-.703 0 4.452 4.452 0 0 1-3.15 1.295 4.435 4.435 0 0 1-2.78-1.003L7.278 8h5.875c-.14.675.036 1.417.534 1.914.867.869 2.257.712 3.094-.072l1.297.816c-1.784 1.275-4.262.995-5.725-.453Z"/>
</svg>
