<svg xmlns="http://www.w3.org/2000/svg" viewBox="0 0 25 24">
  <path fill-rule="evenodd" d="M18.354 2.146a.5.5 0 0 1 0 .708L17.207 4h2.285a.505.505 0 0 1 .432.234l3.485 5.363c1.489 2.29.166 5.3-2.418 5.835a10.453 10.453 0 0 1-2.244 6.068H23.5a.5.5 0 0 1 0 1H.5a.5.5 0 0 1 0-1h1.753A10.457 10.457 0 0 1 0 15a10.458 10.458 0 0 1 2.316-6.579L1.1 6.8a.5.5 0 0 1 .4-.8h14.27a.5.5 0 0 1 .264.075 10.546 10.546 0 0 1 3.845 4.2 10.443 10.443 0 0 1 1.104 4.13c1.776-.504 2.649-2.631 1.588-4.263L19.229 5H3.5a.5.5 0 0 1 0-1h12.293l1.853-1.854a.5.5 0 0 1 .708 0ZM18.579 10H2.421c.27-.436.575-.848.91-1.233a.5.5 0 0 0 .023-.629L2.5 7h13.126a9.554 9.554 0 0 1 2.953 3Z" clip-rule="evenodd"/>
</svg>
