<svg xmlns="http://www.w3.org/2000/svg" viewBox="0 0 24 24">
  <path d="M5.205 2h13.77l.94-1.223a.496.496 0 0 0 .024-.513A.495.495 0 0 0 19.5 0h-15a.5.5 0 0 0-.384.82L5.205 2Zm13.002 1H6.129C4.32 3.584 3 5.5 3 7.5v14C3 22.878 4.121 24 5.5 24h13c1.379 0 2.5-1.122 2.5-2.5v-14c0-1.877-1.156-3.826-2.793-4.5ZM8.941 18.721c-1.666-1.456-2.008-4.399-.681-7.058 1.131-2.265 3.239-3.787 5.245-3.787.553 0 1.073.124 1.559.347-2.65 1.465-3.121 2.888-3.255 5.819-.082 1.766-.152 3.29-2.108 4.299l-.76.38Zm7.678-2.885c-1.131 2.266-3.238 3.787-5.245 3.787-.499 0-.968-.112-1.413-.294 2.395-1.185 2.733-2.787 2.848-5.24.083-1.801.161-3.502 2.289-4.741l.911-.505c.683.622 1.152 1.504 1.341 2.575.249 1.408-.011 2.976-.731 4.418Z"/>
</svg>
