<svg xmlns="http://www.w3.org/2000/svg" viewBox="0 0 24 24">
  <path fill-rule="evenodd" d="m16.679 17.335-1.269-.733a6.951 6.951 0 0 0-.003-2.202l1.273-.735a.502.502 0 0 0 .183-.683l-2-3.464a.5.5 0 0 0-.683-.183l-1.265.731A6.922 6.922 0 0 0 11 8.969V7.5a.5.5 0 0 0-.5-.5h-4a.5.5 0 0 0-.5.5v1.469a6.934 6.934 0 0 0-1.909 1.1l-1.27-.733a.497.497 0 0 0-.682.183l-2 3.464a.5.5 0 0 0 .183.683l1.263.729a6.948 6.948 0 0 0 .009 2.206l-1.272.734a.502.502 0 0 0-.183.683l2 3.464a.5.5 0 0 0 .683.183l1.266-.731c.57.466 1.216.834 1.912 1.099V23.5a.5.5 0 0 0 .5.5h4a.5.5 0 0 0 .5-.5v-1.469a6.918 6.918 0 0 0 1.904-1.101l1.275.736a.5.5 0 0 0 .683-.183l2-3.464a.503.503 0 0 0-.183-.684ZM8.5 19C6.57 19 5 17.43 5 15.5S6.57 12 8.5 12s3.5 1.57 3.5 3.5S10.43 19 8.5 19ZM23.646 5.951l-.702-.405a3.97 3.97 0 0 0 .014-1.099l.689-.398a.5.5 0 0 0 .183-.683l-1-1.732a.5.5 0 0 0-.683-.183l-.687.396a3.906 3.906 0 0 0-.961-.535V.5A.499.499 0 0 0 20 0h-2a.5.5 0 0 0-.5.5v.805c-.343.14-.668.318-.958.544l-.689-.398a.5.5 0 0 0-.683.183l-1 1.732a.499.499 0 0 0 .183.683l.701.405a3.984 3.984 0 0 0-.014 1.101l-.686.397a.5.5 0 0 0-.184.683l1 1.732a.501.501 0 0 0 .684.183l.685-.395c.288.225.616.395.961.535v.81a.5.5 0 0 0 .5.5h2a.5.5 0 0 0 .5-.5v-.804c.343-.141.667-.318.957-.545l.689.398a.5.5 0 0 0 .684-.183l1-1.732a.498.498 0 0 0-.184-.683ZM19 7c-1.103 0-2-.898-2-2 0-1.103.897-2 2-2s2 .897 2 2c0 1.102-.897 2-2 2Z" clip-rule="evenodd"/>
</svg>
