<svg xmlns="http://www.w3.org/2000/svg" viewBox="0 0 24 24">
  <path fill-rule="evenodd" d="M14 20h-1v-2h2v-2H2.5a.5.5 0 0 1-.5-.5v-10a.5.5 0 0 1 .5-.5h16a.5.5 0 0 1 .5.5V6h2V4.5c0-.827-.673-1.5-1.5-1.5h-18C.673 3 0 3.673 0 4.5v12c0 .827.673 1.5 1.5 1.5H8v2H7a.5.5 0 0 0 0 1h7a.5.5 0 0 0 0-1Zm2-6h8v2h-8v-2Zm0-2h8v1h-8v-1Zm8-1V7.5a.5.5 0 0 0-.5-.5h-7a.5.5 0 0 0-.5.5V11h8Zm-4.5-2H22a.5.5 0 0 1 0 1h-2.5a.5.5 0 0 1 0-1ZM16 17v3.5a.5.5 0 0 0 .5.5h7a.5.5 0 0 0 .5-.5V17h-8Zm6.5 3h-2v-2h2v2Z" clip-rule="evenodd"/>
</svg>
