<svg xmlns="http://www.w3.org/2000/svg" viewBox="0 0 24 25">
  <path d="M19.5 16a.5.5 0 0 0 0-1H17v-1.607A5.506 5.506 0 0 1 14.025 9H11V6.5a.5.5 0 0 0-1 0V9H7V6.5a.5.5 0 0 0-1 0V9h-.5C4.673 9 4 9.673 4 10.5v.5H1.5a.5.5 0 0 0 0 1H4v3H1.5a.5.5 0 0 0 0 1H4v3H1.5a.5.5 0 0 0 0 1H4v.5c0 .827.673 1.5 1.5 1.5H6v2.5a.5.5 0 0 0 1 0V22h3v2.5a.5.5 0 0 0 1 0V22h3v2.5a.5.5 0 0 0 1 0V22h.5c.827 0 1.5-.673 1.5-1.5V20h2.5a.5.5 0 0 0 0-1H17v-3h2.5ZM15 17.5c0 1.379-1.122 2.5-2.5 2.5h-4A2.503 2.503 0 0 1 6 17.5v-4C6 12.121 7.122 11 8.5 11h4c1.378 0 2.5 1.121 2.5 2.5v4Z"/>
  <path d="M18.112 1.013c-.515-.128-.849.567-.408.89 1.339.985 1.445 2.71 1.131 3.757-.189-.219-.307-.445-.338-.716a.5.5 0 0 0-.681-.408C16.026 5.244 15 6.689 15 8.5c0 2.481 2.019 4.5 4.5 4.5S24 10.981 24 8.5c0-3.497-2.531-6.716-5.888-7.487Z"/>
</svg>
