<svg xmlns="http://www.w3.org/2000/svg" viewBox="0 0 24 24">
  <path d="M19.5 18H17v-3h2.5a.5.5 0 0 0 0-1H17v-3.54l-.349.299a1.001 1.001 0 0 1-1.57-1.154L15.773 8H11V5.5a.5.5 0 0 0-1 0V8H7V5.5a.5.5 0 0 0-1 0V8h-.5C4.673 8 4 8.673 4 9.5v.5H1.5a.5.5 0 0 0 0 1H4v3H1.5a.5.5 0 0 0 0 1H4v3H1.5a.5.5 0 0 0 0 1H4v.5c0 .827.673 1.5 1.5 1.5H6v2.5a.5.5 0 0 0 1 0V21h3v2.5a.5.5 0 0 0 1 0V21h3v2.5a.5.5 0 0 0 1 0V21h.5c.827 0 1.5-.673 1.5-1.5V19h2.5a.5.5 0 0 0 0-1ZM15 16.5c0 1.379-1.122 2.5-2.5 2.5h-4A2.503 2.503 0 0 1 6 16.5v-4C6 11.121 7.122 10 8.5 10h4c1.378 0 2.5 1.121 2.5 2.5v4Z"/>
  <path d="m22.5 0-3.663 4H23l-7 6 1.725-4H15l2.5-6h5Z"/>
</svg>
