<svg xmlns="http://www.w3.org/2000/svg" viewBox="0 0 24 24">
  <path d="M16.479 24a.498.498 0 0 0 .353-.853c-.541-.541-.376-.759.065-1.343.428-.566 1.143-1.516-.04-2.699a.5.5 0 0 0-.707.707c.568.568.387.81-.051 1.39-.423.559-1.13 1.496.026 2.652a.506.506 0 0 0 .354.146Zm-4.499 0a.498.498 0 0 0 .353-.853c-.541-.541-.376-.759.064-1.343.428-.566 1.144-1.516-.04-2.699a.5.5 0 0 0-.707.707c.568.568.387.81-.051 1.39-.423.559-1.13 1.496.026 2.652a.506.506 0 0 0 .355.146Zm-4.5 0a.5.5 0 0 0 .354-.853c-.541-.541-.376-.759.064-1.343.428-.566 1.144-1.516-.04-2.699a.5.5 0 0 0-.707.707c.568.568.387.81-.051 1.39-.423.559-1.13 1.496.026 2.652A.502.502 0 0 0 7.48 24Zm16.205-12-5.833-5H6.148L.315 12h23.37ZM17 6V.5a.5.5 0 0 0-.5-.5h-9a.5.5 0 0 0-.5.5V6h10ZM0 13.001V16.5a.5.5 0 0 0 .5.5h23a.5.5 0 0 0 .5-.5v-3.499H0ZM7.5 15H3.547a.5.5 0 0 1 0-1H7.5a.5.5 0 0 1 0 1Zm6 0H9.547a.5.5 0 0 1 0-1H13.5a.5.5 0 0 1 0 1Zm4 0a.5.5 0 1 1 0-1 .5.5 0 0 1 0 1Zm3 0a.5.5 0 1 1 0-1 .5.5 0 0 1 0 1Z"/>
</svg>
