<svg xmlns="http://www.w3.org/2000/svg" viewBox="0 0 24 24">
  <path d="m20.932 23.14-2.086-2A.497.497 0 0 0 18.5 21H8.949c.068-.458.068-.542 0-1H18.5a.5.5 0 0 0 .5-.5v-9a.5.5 0 0 0-.5-.5h-10a.5.5 0 0 0-.5.5v7.558a3.515 3.515 0 0 0-1-.707V.501a.5.5 0 0 0-.5-.5h-3A.5.5 0 0 0 3.5 1H6v16.051c-2.209-.32-4 1.402-4 3.449C2 22.43 3.57 24 5.5 24a3.491 3.491 0 0 0 3.148-2h9.65l1.941 1.861a.5.5 0 0 0 .693-.721ZM14.5 17h2a.5.5 0 0 1 0 1h-2a.5.5 0 0 1 0-1Z"/>
  <path d="M8.5 9h7a.5.5 0 0 0 .5-.5v-5a.5.5 0 0 0-.5-.5h-7a.5.5 0 0 0-.5.5v5a.5.5 0 0 0 .5.5Zm2-2.999h1a.5.5 0 0 1 0 1h-1a.5.5 0 0 1 0-1Z"/>
</svg>
