<svg xmlns="http://www.w3.org/2000/svg" viewBox="0 0 24 24">
  <path d="M0 .5A.5.5 0 0 1 .5 0h23a.5.5 0 0 1 0 1H.5A.5.5 0 0 1 0 .5Zm4 3a.5.5 0 0 1 .5-.5H16v1H5v18h11v1H4.5a.5.5 0 0 1-.5-.5v-19Zm13-1a.5.5 0 0 1 .5-.5h1a.5.5 0 0 1 .5.5v21a.5.5 0 0 1-.5.5h-1a.5.5 0 0 1-.5-.5v-21Zm3 0a.5.5 0 0 1 .5-.5h1a.5.5 0 0 1 .5.5v21a.5.5 0 0 1-.5.5h-1a.5.5 0 0 1-.5-.5v-21Z"/>
  <path d="M10.89 15.188a.5.5 0 1 1-.78.624l-1.998-2.497a.498.498 0 0 1-.01-.617l.008-.01 2-2.5a.5.5 0 1 1 .78.624L9.54 12.5h3.96a.5.5 0 0 1 0 1H9.54l1.35 1.688Z"/>
</svg>
