<svg xmlns="http://www.w3.org/2000/svg" viewBox="0 0 24 24">
  <path d="M.5 0a.5.5 0 0 0 0 1h23a.5.5 0 0 0 0-1H.5ZM19 3H5v1h14V3ZM5 22h14v1H5v-1ZM2.5 2a.5.5 0 0 0-.5.5v21a.5.5 0 0 0 .5.5h1a.5.5 0 0 0 .5-.5v-21a.5.5 0 0 0-.5-.5h-1Zm18 0a.5.5 0 0 0-.5.5v21a.5.5 0 0 0 .5.5h1a.5.5 0 0 0 .5-.5v-21a.5.5 0 0 0-.5-.5h-1ZM8.11 10.812a.5.5 0 0 1 .78-.624l1.998 2.497a.497.497 0 0 1 .01.617l-.008.01-2 2.5a.5.5 0 0 1-.78-.624L9.46 13.5H5.5a.5.5 0 0 1 0-1h3.96l-1.35-1.688Zm7.702-.702a.5.5 0 0 1 .078.702L14.54 12.5h3.96a.5.5 0 0 1 0 1h-3.96l1.35 1.688a.5.5 0 1 1-.78.624l-2-2.5-.009-.01a.497.497 0 0 1 .01-.617l1.998-2.497a.5.5 0 0 1 .703-.078Z"/>
</svg>
