<svg xmlns="http://www.w3.org/2000/svg" viewBox="0 0 24 24">
  <path d="M0 .5A.5.5 0 0 1 .5 0h23a.5.5 0 0 1 0 1H.5A.5.5 0 0 1 0 .5ZM2.5 2a.5.5 0 0 0-.5.5v21a.5.5 0 0 0 .5.5h1a.5.5 0 0 0 .5-.5v-21a.5.5 0 0 0-.5-.5h-1Zm2.5.5a.5.5 0 0 1 .5-.5h1a.5.5 0 0 1 .5.5v21a.5.5 0 0 1-.5.5h-1a.5.5 0 0 1-.5-.5v-21ZM8.5 2a.5.5 0 0 0-.5.5v21a.5.5 0 0 0 .5.5h1a.5.5 0 0 0 .5-.5v-21a.5.5 0 0 0-.5-.5h-1Zm2.5.5a.5.5 0 0 1 .5-.5h1a.5.5 0 0 1 .5.5v21a.5.5 0 0 1-.5.5h-1a.5.5 0 0 1-.5-.5v-21Zm3.5-.5a.5.5 0 0 0-.5.5v21a.5.5 0 0 0 .5.5h1a.5.5 0 0 0 .5-.5v-21a.5.5 0 0 0-.5-.5h-1Zm2.5.5a.5.5 0 0 1 .5-.5h1a.5.5 0 0 1 .5.5v21a.5.5 0 0 1-.5.5h-1a.5.5 0 0 1-.5-.5v-21Zm3.5-.5a.5.5 0 0 0-.5.5v21a.5.5 0 0 0 .5.5h1a.5.5 0 0 0 .5-.5v-21a.5.5 0 0 0-.5-.5h-1Z"/>
</svg>
