<svg xmlns="http://www.w3.org/2000/svg" viewBox="0 0 24 24">
  <path d="M.5 0a.5.5 0 0 0 0 1h23a.5.5 0 0 0 0-1H.5Zm19 3H8v1h11v18H8v1h11.5a.5.5 0 0 0 .5-.5v-19a.5.5 0 0 0-.5-.5ZM5 2.5a.5.5 0 0 1 .5-.5h1a.5.5 0 0 1 .5.5v21a.5.5 0 0 1-.5.5h-1a.5.5 0 0 1-.5-.5v-21Zm-3 0a.5.5 0 0 1 .5-.5h1a.5.5 0 0 1 .5.5v21a.5.5 0 0 1-.5.5h-1a.5.5 0 0 1-.5-.5v-21Z"/>
  <path d="M13.11 15.188a.5.5 0 1 0 .78.624l1.998-2.497a.498.498 0 0 0 .01-.617l-.008-.01-2-2.5a.5.5 0 1 0-.78.624l1.35 1.688H10.5a.5.5 0 0 0 0 1h3.96l-1.35 1.688Z"/>
</svg>
