<svg xmlns="http://www.w3.org/2000/svg" viewBox="0 0 24 24">
  <path d="M23.5 0a.5.5 0 0 1 0 1H.5a.5.5 0 0 1 0-1h23Zm-19 3H16v1H5v18h11v1H4.5a.5.5 0 0 1-.5-.5v-19a.5.5 0 0 1 .5-.5ZM17 2.5a.5.5 0 0 1 .5-.5h1a.5.5 0 0 1 .5.5v21a.5.5 0 0 1-.5.5h-1a.5.5 0 0 1-.5-.5v-21Zm3 0a.5.5 0 0 1 .5-.5h1a.5.5 0 0 1 .5.5v21a.5.5 0 0 1-.5.5h-1a.5.5 0 0 1-.5-.5v-21Z"/>
  <path d="M11.11 15.188a.5.5 0 1 0 .78.624l1.998-2.497a.498.498 0 0 0 .01-.617l-.008-.01-2-2.5a.5.5 0 1 0-.78.624l1.35 1.688H8.5a.5.5 0 0 0 0 1h3.96l-1.35 1.688Z"/>
</svg>
