<svg xmlns="http://www.w3.org/2000/svg" viewBox="0 0 24 24">
  <path d="M.5 0a.5.5 0 0 0 0 1h23a.5.5 0 0 0 0-1H.5ZM19 3H5v1h14V3Zm0 19H5v1h14v-1ZM2.5 2a.5.5 0 0 0-.5.5v21a.5.5 0 0 0 .5.5h1a.5.5 0 0 0 .5-.5v-21a.5.5 0 0 0-.5-.5h-1Zm17.5.5a.5.5 0 0 1 .5-.5h1a.5.5 0 0 1 .5.5v21a.5.5 0 0 1-.5.5h-1a.5.5 0 0 1-.5-.5v-21ZM8.89 10.812a.5.5 0 1 0-.78-.624l-1.998 2.497a.498.498 0 0 0-.01.617l.008.01 2 2.5a.5.5 0 0 0 .78-.624L7.54 13.5h8.92l-1.35 1.688a.5.5 0 1 0 .78.624l2-2.5.009-.01a.498.498 0 0 0-.01-.617l-1.999-2.497a.5.5 0 1 0-.78.624l1.35 1.688H7.54l1.35-1.688Z"/>
</svg>
