<svg xmlns="http://www.w3.org/2000/svg" viewBox="0 0 24 24">
  <path d="m10 5-6 6.5.977-4.5H.5L6 .5 5 5h5Zm9.5 13.5a1 1 0 1 0 0 2 1 1 0 0 0 0-2Z"/>
  <path d="M19.5 15c-.371 0-.73.051-1.076.135l-1.763-4.785 1.46-.365a.498.498 0 0 0 .363-.606.497.497 0 0 0-.605-.365l-2 .5a.503.503 0 0 0-.348.658l.507 1.377-6.78 2.332L8.492 12H9.5a.5.5 0 0 0 0-1h-3a.5.5 0 1 0 0 1h.913l.984 2.422-1.281 1.424A4.47 4.47 0 0 0 4.5 15C2.019 15 0 17.02 0 19.5S2.019 24 4.5 24a4.505 4.505 0 0 0 4.47-4h1.998l.031.002a.503.503 0 0 0 .402-.203l5.132-6.904.953 2.586A4.5 4.5 0 0 0 15 19.5c0 2.48 2.019 4.5 4.5 4.5s4.5-2.02 4.5-4.5-2.019-4.5-4.5-4.5Zm-15 7.5c-1.654 0-3-1.346-3-3s1.346-3 3-3 3 1.346 3 3-1.346 3-3 3ZM8.97 19a4.463 4.463 0 0 0-1.111-2.484l.957-1.064L10.257 19H8.97Zm2.159-.512-1.495-3.68 5.685-1.955-4.19 5.635ZM19.5 22.5c-1.654 0-3-1.346-3-3s1.346-3 3-3 3 1.346 3 3-1.346 3-3 3Z"/>
  <path d="M4.5 18.5a1 1 0 1 0 0 2 1 1 0 0 0 0-2Z"/>
</svg>
