<svg xmlns="http://www.w3.org/2000/svg" viewBox="0 0 24 24">
  <path fill-rule="evenodd" d="M9.5 2a.5.5 0 0 0 .5-.5v-1a.5.5 0 0 0-1 0v1a.5.5 0 0 0 .5.5ZM3.853 3.826a.5.5 0 0 0 0-.707l-1-1a.5.5 0 0 0-.707.707l1 1a.499.499 0 0 0 .707 0Zm12.001 0 1-1a.5.5 0 0 0-.707-.707l-1 1a.5.5 0 0 0 .707.707ZM1.5 9h-1a.5.5 0 0 0 0 1h1a.5.5 0 1 0 0-1Zm5.227 3.215c.983-3.767 4.987-6.165 8.884-4.904C14.71 4.802 12.314 3 9.5 3A6.508 6.508 0 0 0 3 9.5c0 1.488.508 2.857 1.352 3.955a6.47 6.47 0 0 1 2.375-1.24Zm15.622 3.766c.684-2.244-1.021-4.566-3.399-4.516-2.494-5.429-10.472-4.232-11.376 1.576A5.47 5.47 0 0 0 3 18.462c0 3.032 2.467 5.5 5.5 5.5h11c2.481 0 4.5-2.019 4.5-4.5 0-1.355-.611-2.63-1.651-3.481Z" clip-rule="evenodd"/>
</svg>
