<svg xmlns="http://www.w3.org/2000/svg" viewBox="0 0 24 24">
  <path d="M12 2.177 23.163 12.37a.498.498 0 0 0 .706-.033.498.498 0 0 0-.032-.705l-11.5-10.5a.498.498 0 0 0-.674 0l-11.5 10.5a.498.498 0 0 0-.032.705.498.498 0 0 0 .706.033L12 2.177Zm8 .323v4.273L14.773 2H19.5a.5.5 0 0 1 .5.5Z"/>
  <path fill-rule="evenodd" d="M12 18.5c0-3.584 2.916-6.5 6.5-6.5.886 0 1.73.18 2.5.502v-.754l-9-8.216-9 8.216V23.5a.5.5 0 0 0 .5.5h11.552A6.494 6.494 0 0 1 12 18.5Zm-1-10v-1a.5.5 0 0 1 .5-.5h1a.5.5 0 0 1 .5.5v1a.5.5 0 0 1-.5.5h-1a.5.5 0 0 1-.5-.5Z" clip-rule="evenodd"/>
  <path fill-rule="evenodd" d="M13 18.5a5.5 5.5 0 1 1 11.002.002A5.5 5.5 0 0 1 13 18.5Zm4-2.5a.5.5 0 0 0 0 1h2l-2.4 3.2a.5.5 0 0 0 .4.8h3a.5.5 0 0 0 0-1h-2l2.4-3.2a.5.5 0 0 0-.4-.8h-3Z" clip-rule="evenodd"/>
</svg>
