<svg xmlns="http://www.w3.org/2000/svg" viewBox="0 0 24 25">
  <path d="M22.448 20.19a.998.998 0 0 0-1.265-.632c-.375.125-.778.244-1.102.328a38.75 38.75 0 0 1-.263-1.143c-.519-2.366-.93-4.236-2.319-4.236-.869 0-5.415.873-7.659 1.313l-.448-3.131 4.85-1.212a1 1 0 1 0-.486-1.94l-4.648 1.162-.501-3.506a3.731 3.731 0 0 0 2.348-3.46A3.732 3.732 0 0 0 7.227.005 3.733 3.733 0 0 0 3.5 3.733a3.73 3.73 0 0 0 3.119 3.674l.538 3.771c-2.622.781-4.657 3.473-4.657 6.328 0 3.585 2.871 6.5 6.4 6.5 3.577 0 6.6-2.976 6.6-6.5v-.708a40.839 40.839 0 0 1 1.659-.262c.252.564.541 1.88.707 2.636.414 1.887.622 2.834 1.634 2.834.598 0 1.818-.385 2.316-.551a1 1 0 0 0 .632-1.265ZM5.5 3.733a1.73 1.73 0 0 1 1.727-1.728 1.73 1.73 0 0 1 1.728 1.728 1.73 1.73 0 0 1-1.728 1.729A1.73 1.73 0 0 1 5.5 3.733Zm8 13.773c0 2.398-2.149 4.5-4.6 4.5-2.386 0-4.4-2.06-4.4-4.5 0-2.028 1.418-3.71 2.945-4.312l.564 3.954a1 1 0 0 0 1.186.839 344.18 344.18 0 0 1 4.304-.83v.349h.001Z"/>
</svg>
