<svg xmlns="http://www.w3.org/2000/svg" viewBox="0 0 24 24">
  <path d="M23.5 10h-1v-.5C22.5 7.57 20.93 6 19 6s-3.5 1.57-3.5 3.5v.5h-1a.5.5 0 0 0-.5.5v7a.5.5 0 0 0 .5.5h9a.5.5 0 0 0 .5-.5v-7a.5.5 0 0 0-.5-.5Zm-4 3.847V15.5a.5.5 0 0 1-1 0v-1.653A.987.987 0 0 1 18 13c0-.551.449-1 1-1 .551 0 1 .449 1 1a.987.987 0 0 1-.5.847Zm2-3.847h-5v-.5C16.5 8.122 17.622 7 19 7s2.5 1.122 2.5 2.5v.5ZM9.813.11a.5.5 0 0 0-.421-.098l-9 2A.5.5 0 0 0 0 2.5v19a.5.5 0 0 0 .392.488l9 2A.5.5 0 0 0 10 23.5V.5a.5.5 0 0 0-.187-.39ZM6 14.5c-1.103 0-2-.897-2-2s.897-2 2-2 2 .897 2 2-.897 2-2 2Z"/>
  <path d="M14.5 19c-.827 0-1.5-.673-1.5-1.5v-7c0-.827.673-1.5 1.5-1.5h.028c.25-2.247 2.16-4 4.472-4 .722 0 1.395.187 2 .49V2.5a.5.5 0 0 0-.5-.5H11v20h9.5a.5.5 0 0 0 .5-.5V19h-6.5Z"/>
</svg>
