<svg xmlns="http://www.w3.org/2000/svg" viewBox="0 0 24 24">
  <path d="M9.813.11a.5.5 0 0 0-.421-.098l-9 2A.5.5 0 0 0 0 2.5v19a.5.5 0 0 0 .392.488l9 2A.5.5 0 0 0 10 23.5V.5a.5.5 0 0 0-.187-.39ZM6 14.5c-1.103 0-2-.897-2-2s.897-2 2-2 2 .897 2 2-.897 2-2 2Zm7.5-.5a1.5 1.5 0 1 1 0-3l4.5.004V2.5a.5.5 0 0 0-.5-.5H11v20h6.5a.5.5 0 0 0 .5-.5v-7.496L13.5 14Z"/>
  <path d="M13.5 13h8.793l-3.146 3.146a.5.5 0 0 0 .707.707l4-4a.5.5 0 0 0 0-.707l-4-4a.5.5 0 0 0-.708.708L22.293 12H13.5a.5.5 0 0 0 0 1Z"/>
</svg>
