<svg xmlns="http://www.w3.org/2000/svg" viewBox="0 0 24 24">
  <path d="M23.5 12h-8.793l3.147-3.146a.5.5 0 0 0-.707-.707l-4 4a.5.5 0 0 0 0 .707l4 4a.5.5 0 0 0 .708-.708L14.708 13H23.5a.5.5 0 0 0 0-1ZM9.813.11a.5.5 0 0 0-.421-.098l-9 2A.5.5 0 0 0 0 2.5v19a.5.5 0 0 0 .392.488l9 2A.5.5 0 0 0 10 23.5V.5a.5.5 0 0 0-.187-.39ZM6 14.5c-1.103 0-2-.897-2-2s.897-2 2-2 2 .897 2 2-.897 2-2 2Z"/>
  <path d="m16.446 17.565-4.008-4.007a1.501 1.501 0 0 1 0-2.121l4.004-4.004c.407-.407 1.029-.517 1.558-.345V2.5a.5.5 0 0 0-.5-.5H11v20h6.5a.5.5 0 0 0 .5-.5v-3.602c-.528.175-1.148.073-1.554-.333Z"/>
</svg>
