<svg xmlns="http://www.w3.org/2000/svg" viewBox="0 0 24 24">
  <path d="M6 14h12v-4H6v4Zm4.5-3h3a.5.5 0 0 1 0 1h-3a.5.5 0 0 1 0-1ZM6 21h12v-4H6v4Zm4.5-3h3a.5.5 0 0 1 0 1h-3a.5.5 0 0 1 0-1ZM6 7h12V3H6v4Zm4.5-3h3a.5.5 0 0 1 0 1h-3a.5.5 0 0 1 0-1Z"/>
  <path d="M20.5 0h-17a.5.5 0 0 0-.5.5v23a.5.5 0 0 0 .5.5h17a.5.5 0 0 0 .5-.5V.5a.5.5 0 0 0-.5-.5ZM19 21.5a.5.5 0 0 1-.5.5h-13a.5.5 0 0 1-.5-.5v-5a.5.5 0 0 1 .5-.5h13a.5.5 0 0 1 .5.5v5Zm0-7a.5.5 0 0 1-.5.5h-13a.5.5 0 0 1-.5-.5v-5a.5.5 0 0 1 .5-.5h13a.5.5 0 0 1 .5.5v5Zm0-7a.5.5 0 0 1-.5.5h-13a.5.5 0 0 1-.5-.5v-5a.5.5 0 0 1 .5-.5h13a.5.5 0 0 1 .5.5v5Z"/>
</svg>
