<svg xmlns="http://www.w3.org/2000/svg" viewBox="0 0 24 24">
  <path d="M5 10h14V5H5v5Zm5.5-3h3a.5.5 0 0 1 0 1h-3a.5.5 0 0 1 0-1ZM5 19h14v-5H5v5Zm5.5-3h3a.5.5 0 0 1 0 1h-3a.5.5 0 0 1 0-1Z"/>
  <path d="M23.5 1H.5a.5.5 0 0 0 0 1H1v18.5C1 21.878 2.121 23 3.5 23H5v.5a.5.5 0 0 0 1 0V23h12v.5a.5.5 0 0 0 1 0V23h1.5c1.378 0 2.5-1.122 2.5-2.5V2h.5a.5.5 0 0 0 0-1ZM20 19.5a.5.5 0 0 1-.5.5h-15a.5.5 0 0 1-.5-.5v-6a.5.5 0 0 1 .5-.5h15a.5.5 0 0 1 .5.5v6Zm0-9a.5.5 0 0 1-.5.5h-15a.5.5 0 0 1-.5-.5v-6a.5.5 0 0 1 .5-.5h15a.5.5 0 0 1 .5.5v6Z"/>
</svg>
