<svg xmlns="http://www.w3.org/2000/svg" viewBox="0 0 24 24">
  <path d="M7.252 12h8.521c1.067-.816 1.823-2.021 2.102-3.201.46-1.947-.242-3.63-1.862-4.58V.5a.5.5 0 0 0-1 0v4c0 1.469-1.87 2.258-3.5 2.495-1.63-.237-3.5-1.026-3.5-2.495V.516a.5.5 0 0 0-1 0v3.703c-1.62.95-2.322 2.633-1.862 4.58.278 1.18 1.034 2.385 2.101 3.201Zm8.798 1H6.971c-2.422 1.821-3.117 6.139-2.96 9.026.01.19.127.358.302.434C6.698 23.481 9.12 24 11.511 24s4.812-.519 7.196-1.54a.5.5 0 0 0 .302-.434c.156-2.866-.525-7.195-2.959-9.026Z"/>
</svg>
