<svg xmlns="http://www.w3.org/2000/svg" viewBox="0 0 24 24">
  <path fill-rule="evenodd" d="M12 16.5c3.032 0 5.5-2.467 5.5-5.5 0-2.883-4.881-9.982-5.089-10.283-.188-.271-.635-.271-.823 0C11.381 1.018 6.5 8.117 6.5 11c0 3.033 2.467 5.5 5.5 5.5Zm-3-6a.5.5 0 0 1 .5.5c0 1.011.822 1.834 1.833 1.834a.5.5 0 1 1 0 1A2.838 2.838 0 0 1 8.5 11a.5.5 0 0 1 .5-.5Zm3 9.5c2.748 0 5.401-.77 7.278-2.109a.499.499 0 1 0-.581-.813C16.985 18.299 14.545 19 12 19c-2.561 0-5.013-.708-6.726-1.942a.5.5 0 0 0-.585.811C6.569 19.224 9.234 20 12 20Zm11.328-1.255a.5.5 0 0 0-.703-.073C20.027 20.787 16.154 22 12 22c-4.186 0-8.076-1.229-10.675-3.367a.496.496 0 0 0-.703.068.499.499 0 0 0 .067.703C3.464 21.69 7.586 23 12 23c4.38 0 8.482-1.295 11.256-3.551a.501.501 0 0 0 .072-.704Z" clip-rule="evenodd"/>
</svg>
