<svg xmlns="http://www.w3.org/2000/svg" viewBox="0 0 24 25">
  <path d="M23.213 7.158c.78-.78.78-2.05 0-2.829L19.676.793c-.756-.755-2.071-.754-2.826 0l6.363 6.365Zm-22.627 9.9v-.001A1.981 1.981 0 0 0 0 18.473c0 .534.208 1.035.586 1.412l3.536 3.537c.377.377.879.584 1.413.584s1.037-.208 1.416-.586L.586 17.058Zm.707-3.537a2.003 2.003 0 0 0 0 2.828l6.364 6.363c.378.38.881.588 1.415.588s1.035-.208 1.413-.586l-9.192-9.193Zm21.212-2.828c.378-.378.586-.88.586-1.414 0-.534-.208-1.037-.586-1.415L16.143 1.5c-.757-.755-2.071-.756-2.829 0l9.191 9.193ZM8.718 12.46l3.535-3.535 2.828 2.829-3.535 3.535-2.828-2.829Zm5.303 6.718L4.829 9.985c-.755-.754-2.072-.754-2.829.001a2.003 2.003 0 0 0 0 2.828l9.193 9.193c.378.377.88.584 1.415.584.534 0 1.037-.208 1.415-.586a1.998 1.998 0 0 0-.002-2.827Zm7.778-7.778-9.191-9.192c-.755-.757-2.072-.758-2.83 0-.778.78-.778 2.05.001 2.828l9.192 9.192c.378.379.88.586 1.415.586a1.98 1.98 0 0 0 1.412-.585c.379-.378.587-.881.587-1.415s-.208-1.036-.586-1.414Z"/>
</svg>
