<svg xmlns="http://www.w3.org/2000/svg" viewBox="0 0 24 24">
  <path d="M8.5 5c.82 0 1.5.673 1.5 1.5V12h4V6.5c0-.827.673-1.5 1.5-1.5h2c.82 0 1.5.673 1.5 1.5v11c0 .82-.68 1.5-1.5 1.5h-2c-.827 0-1.5-.68-1.5-1.5V13h-4v4.5c0 .82-.68 1.5-1.5 1.5h-2c-.827 0-1.5-.68-1.5-1.5v-11C5 5.673 5.673 5 6.5 5h2Zm-5 3c.27 0 .5.22.5.5v7c0 .27-.23.5-.5.5h-1c-.827 0-1.5-.68-1.5-1.5v-2H.5c-.276 0-.5-.23-.5-.5 0-.28.224-.5.5-.5H1v-2C1 8.673 1.673 8 2.5 8h1Zm18 0c.82 0 1.5.673 1.5 1.5v2h.5c.27 0 .5.22.5.5 0 .27-.23.5-.5.5H23v2c0 .82-.68 1.5-1.5 1.5h-1c-.28 0-.5-.23-.5-.5v-7c0-.28.22-.5.5-.5h1Z"/>
</svg>
