<svg xmlns="http://www.w3.org/2000/svg" viewBox="0 0 24 24">
  <path d="m23.777 19.084-5.564-3.699A3.948 3.948 0 0 0 16.5 15H14c-2.111 0-3.712 2.02-3.951 4h2.501a2.491 2.491 0 0 1 .8-1.376.5.5 0 0 1 .658.754 1.484 1.484 0 0 0-.416.622h1.465c.087-.426.281-.826.573-1.156a.5.5 0 1 1 .747.664c-.127.144-.22.312-.283.492H17.5a.5.5 0 0 1 0 1h-1.407c.064.181.156.351.285.496a.5.5 0 1 1-.749.662A2.492 2.492 0 0 1 15.056 20h-1.469c.084.238.22.457.412.628a.5.5 0 0 1-.663.748A2.502 2.502 0 0 1 12.549 20H10.05c.239 1.98 1.84 4 3.951 4h2.5c.611 0 1.199-.135 1.805-.435l5.473-3.649a.5.5 0 0 0-.002-.832ZM3 7.5a.5.5 0 0 0 .5.5H5V1H3.5a.5.5 0 0 0-.5.5V3H1.5a.5.5 0 0 0 0 1H3v1H1.5a.5.5 0 0 0 0 1H3v1.5Z"/>
  <path d="M20 4h-9.549c-.24-1.81-1.758-3-3.951-3H6v7h.5c2.193 0 3.711-1.189 3.951-3H20c1.378 0 2.5 1.121 2.5 2.5S21.378 10 20 10H7c-2.757 0-5 2.243-5 5s2.243 5 5 5h3v-1H7c-2.206 0-4-1.794-4-4s1.794-4 4-4h13c1.93 0 3.5-1.57 3.5-3.5S21.93 4 20 4Z"/>
</svg>
