<svg xmlns="http://www.w3.org/2000/svg" viewBox="0 0 24 24">
  <path d="M11.448 12.236c1.939 1.561 2.908 1.152 3.393-.869.419-1.75-.779-5.381-2.572-7.066-1.34 2.459-3.742 3.369-4.236 5.435-.487 2.03.389 2.703 2.422 2.348.064-1.902.365-3.777 1.147-5.018a.502.502 0 0 1 .691-.158.502.502 0 0 1 .156.691c-.696 1.104-.955 2.848-1.001 4.637Z"/>
  <path d="M11.5 0C6.262 0 2 4.037 2 9c0 3.863 2.653 7.32 6.5 8.535v.965a.5.5 0 0 0 .5.5h1.991c-.094-.529-.53-3.127-.549-5.9-2.816.432-3.975-1.127-3.382-3.596.631-2.636 3.433-3.493 4.573-6.187a.499.499 0 0 1 .749-.215c2.407 1.703 3.974 6.23 3.431 8.498-.607 2.535-2.203 3.311-4.366 1.877.062 2.671.543 5.523.543 5.523H14c.275 0 .5-.225.5-.5v-.965C18.346 16.32 21 12.863 21 9c0-4.963-4.262-9-9.5-9ZM14 20H9a.5.5 0 1 0 0 1h5a.5.5 0 0 0 0-1Zm0 2H9a.5.5 0 1 0 0 1h2v.5a.5.5 0 0 0 1 0V23h2a.5.5 0 0 0 0-1Z"/>
</svg>
