<svg xmlns="http://www.w3.org/2000/svg" viewBox="0 0 24 24">
  <path d="M19.294 6.16a.5.5 0 0 0-.729.684A8.965 8.965 0 0 1 21 13c0 4.962-4.037 9-9 9s-9-4.038-9-9a8.988 8.988 0 0 1 8-8.936V5.5a.5.5 0 0 0 .5.5h4a.5.5 0 0 0 .5-.5V5h1.5a.5.5 0 0 0 0-1H16V3h1.5a.5.5 0 0 0 0-1H16v-.5a.5.5 0 0 0-.5-.5h-4a.5.5 0 0 0-.5.5v1.56A9.987 9.987 0 0 0 2 13c0 5.514 4.486 10 10 10s10-4.486 10-10a9.96 9.96 0 0 0-2.706-6.84Z"/>
  <path d="m15.86 12-.886-2.658A.499.499 0 0 0 14.5 9h-5a.5.5 0 0 0-.475.342L8.14 12h7.72ZM15 15a.5.5 0 0 1 0-1h3v-.5a.5.5 0 0 0-.276-.447L17.618 13H6.382l-.105.053A.499.499 0 0 0 6 13.5v.5h3a.5.5 0 1 1 0 1H6v1.5a.5.5 0 0 0 .5.5H7v1a.5.5 0 0 0 .5.5h2a.5.5 0 0 0 .5-.5v-1h4v1a.5.5 0 0 0 .5.5h2a.5.5 0 0 0 .5-.5v-1h.5a.5.5 0 0 0 .5-.5V15h-3Z"/>
</svg>
