<svg xmlns="http://www.w3.org/2000/svg" viewBox="0 0 24 24">
  <path d="M5.017 16.441c.027-2.581.47-4.568 1.313-5.909a1.5 1.5 0 1 1 2.539 1.598c-.374.594-.825 1.829-.852 4.342-.006.563.094 1.1.26 1.604.242.067.479.113.704.113.814 0 1.893-.45 2.406-2.592.543-2.267-1.022-6.794-3.43-8.497a.504.504 0 0 0-.75.215c-.534 1.265-1.434 2.123-2.305 2.952-.995.947-1.934 1.843-2.268 3.236-.284 1.188-.162 2.161.352 2.812.44.56 1.136.846 2.058.861a7.787 7.787 0 0 1-.027-.735Z"/>
  <path d="M21.5 4H20V1.5a.5.5 0 1 0-1 0V4h-4V1.5a.5.5 0 1 0-1 0V4h-1.5a.5.5 0 0 0-.5.5v2c0 2.756 2.243 5 5 5v6c0 2.817-1.869 4.5-5 4.5-1.253 0-2.455-.518-3.386-1.459C7.567 19.483 7 18.035 7.017 16.462c.023-2.205.362-3.841 1.006-4.864a.5.5 0 0 0-.845-.533c-.744 1.182-1.135 2.994-1.16 5.387-.02 1.842.651 3.545 1.888 4.794C9.023 22.377 10.479 23 12 23c3.701 0 6-2.107 6-5.5v-6.102A5.008 5.008 0 0 0 22 6.5v-2a.5.5 0 0 0-.5-.5Z"/>
</svg>
