<svg xmlns="http://www.w3.org/2000/svg" viewBox="0 0 24 24">
  <path d="M21.5 1h-14A2.503 2.503 0 0 0 5 3.5V19h-.5c-.827 0-1.5-.673-1.5-1.5v-8C3 8.052 2.027 7 .688 7a.5.5 0 0 0 0 1C1.589 8 2 8.777 2 9.5v8C2 18.879 3.122 20 4.5 20H5v.5C5 21.879 6.122 23 7.5 23h14c1.378 0 2.5-1.121 2.5-2.5v-17C24 2.121 22.878 1 21.5 1Zm-11 18.5A2.503 2.503 0 0 1 8 17c0-1.379 1.122-2.5 2.5-2.5S13 15.621 13 17s-1.122 2.5-2.5 2.5Zm0-10A2.503 2.503 0 0 1 8 7c0-1.379 1.122-2.5 2.5-2.5S13 5.621 13 7s-1.122 2.5-2.5 2.5Zm8 10A2.503 2.503 0 0 1 16 17c0-1.379 1.122-2.5 2.5-2.5S21 15.621 21 17s-1.122 2.5-2.5 2.5Zm0-10A2.503 2.503 0 0 1 16 7c0-1.379 1.122-2.5 2.5-2.5S21 5.621 21 7s-1.122 2.5-2.5 2.5Z"/>
  <path d="M17.5 6.047a.5.5 0 0 0-.5.5V7.5a.5.5 0 0 0 1 0v-.953a.5.5 0 0 0-.5-.5Zm2 0a.5.5 0 0 0-.5.5V7.5a.5.5 0 0 0 1 0v-.953a.5.5 0 0 0-.5-.5Zm-10 0a.5.5 0 0 0-.5.5V7.5a.5.5 0 0 0 1 0v-.953a.5.5 0 0 0-.5-.5Zm2 0a.5.5 0 0 0-.5.5V7.5a.5.5 0 0 0 1 0v-.953a.5.5 0 0 0-.5-.5Zm6 10a.5.5 0 0 0-.5.5v.953a.5.5 0 0 0 1 0v-.953a.5.5 0 0 0-.5-.5Zm2 0a.5.5 0 0 0-.5.5v.953a.5.5 0 0 0 1 0v-.953a.5.5 0 0 0-.5-.5Zm-10 0a.5.5 0 0 0-.5.5v.953a.5.5 0 0 0 1 0v-.953a.5.5 0 0 0-.5-.5Zm2 0a.5.5 0 0 0-.5.5v.953a.5.5 0 0 0 1 0v-.953a.5.5 0 0 0-.5-.5Z"/>
</svg>
