<svg xmlns="http://www.w3.org/2000/svg" viewBox="0 0 24 24">
  <path d="M3.291 11.652a8.502 8.502 0 0 0 2.975 4.527l3.565-4.832a2.49 2.49 0 0 1-.685-1.041l-5.855 1.346Zm10.69-2.345 5.936 1.355c.053-.381.089-.767.089-1.161 0-3.347-1.949-6.238-4.767-7.624L13.02 7.53c.543.419.904 1.054.961 1.777Zm5.74 2.335-5.865-1.338c-.137.401-.37.756-.677 1.037l3.598 4.815a8.518 8.518 0 0 0 2.944-4.514ZM11.5 7c.215 0 .42.036.619.087l2.197-5.599A8.475 8.475 0 0 0 11.505 1a8.45 8.45 0 0 0-2.89.517l2.258 5.574c.201-.054.409-.091.627-.091Zm4.456 9.728-3.642-4.875A2.472 2.472 0 0 1 11.5 12c-.282 0-.549-.058-.802-.144l-3.61 4.894A8.448 8.448 0 0 0 11.505 18a8.439 8.439 0 0 0 4.451-1.272ZM9.019 9.31a2.482 2.482 0 0 1 .954-1.775L7.696 1.913C4.919 3.312 3.005 6.184 3.005 9.5c0 .398.037.787.09 1.171L9.019 9.31ZM18 20v1.994h-1V20h-1v1.994h-1V20h-1v-1.35a9.466 9.466 0 0 1-2.5.344A9.466 9.466 0 0 1 9 18.65V20H5a1.996 1.996 0 1 0 0 3.994h13A1.997 1.997 0 1 0 18 20Z"/>
</svg>
