<svg xmlns="http://www.w3.org/2000/svg" viewBox="0 0 24 24">
  <path fill-rule="evenodd" d="M1.937 0a1 1 0 0 0-1 1v1.002A1 1 0 0 0 1 4h2.494l3.443 4.348V23a1 1 0 0 0 2 0V8.35L12.398 4h2.539a1 1 0 0 0 0-2V1a1 1 0 1 0-2 0v1h-1V1a1 1 0 1 0-2 0v1h-4V1a1 1 0 1 0-2 0v1h-1V1a1 1 0 0 0-1-1Zm6.002 6.392L6.045 4H9.84l-1.9 2.392Z" clip-rule="evenodd"/>
  <path fill-rule="evenodd" d="M12 7a1 1 0 0 0-1 1v.502a1 1 0 0 0 .062 1.998h2.475L16 13.83V23a1 1 0 0 0 2 0v-9.17l2.48-3.33H23a1 1 0 0 0 0-2V8a1 1 0 1 0-2 0v.5h-1V8a1 1 0 1 0-2 0v.5h-2V8a1 1 0 1 0-2 0v.5h-1V8a1 1 0 0 0-1-1Zm5.002 4.822-.978-1.322h1.962l-.984 1.322Z" clip-rule="evenodd"/>
</svg>
