<svg xmlns="http://www.w3.org/2000/svg" viewBox="0 0 24 24">
  <path fill-rule="evenodd" d="m19.84 15-1.876-4.686A.499.499 0 0 0 17.5 10H13v1.5a1.5 1.5 0 1 1 0 3c-1.654 0-3-1.346-3-3V10H6.5a.499.499 0 0 0-.464.314L4.161 15H19.84ZM17 20a.5.5 0 0 1 0-1h5v-1.5a.504.504 0 0 0-.146-.354l-1.145-1.144H3.291l-1.144 1.144A.5.5 0 0 0 2 17.5V19h5a.5.5 0 1 1 0 1H2v1.5a.5.5 0 0 0 .5.5H3v1.5a.5.5 0 0 0 .5.5h3a.5.5 0 0 0 .5-.5V22h10v1.5a.5.5 0 0 0 .5.5h3a.5.5 0 0 0 .5-.5V22h.5a.5.5 0 0 0 .5-.5V20h-5ZM15 3h-1V1a.5.5 0 1 0-1 0v2h-3V1a.5.5 0 1 0-1 0v2H8a.5.5 0 0 0-.5.5V4c0 2.033 1.532 3.699 3.5 3.949V11.5c0 1.102.898 2 2 2a.5.5 0 0 0 0-1c-.552 0-1-.449-1-1V7.949c1.968-.25 3.5-1.916 3.5-3.949v-.5A.5.5 0 0 0 15 3Z" clip-rule="evenodd"/>
</svg>
