<svg xmlns="http://www.w3.org/2000/svg" viewBox="0 0 24 24">
  <path d="M21.5 6h-18a.5.5 0 0 0-.5.5v17a.5.5 0 0 0 .5.5h18a.5.5 0 0 0 .5-.5v-17a.5.5 0 0 0-.5-.5ZM16 7c1.103 0 2 .897 2 2 0 1.102-.897 2-2 2s-2-.898-2-2c0-1.103.897-2 2-2ZM9 7c1.103 0 2 .897 2 2 0 1.102-.897 2-2 2s-2-.898-2-2c0-1.103.897-2 2-2Zm3 8c-.002 1.083-.337 1.729-1 1.932V21.5a.5.5 0 0 1-.5.5h-3a.5.5 0 0 1-.5-.5v-4.568c-.664-.202-1-.849-1-1.932v-2.5a.5.5 0 0 1 .5-.5h5a.5.5 0 0 1 .5.5V15Zm7 0c-.001 1.083-.337 1.729-1 1.932V21.5a.5.5 0 0 1-.5.5h-3a.5.5 0 0 1-.5-.5v-4.568c-.664-.202-1-.849-1-1.932v-2.5a.5.5 0 0 1 .5-.5h5a.5.5 0 0 1 .5.5V15ZM7.853.147a.5.5 0 0 0-.707 0l-2 2a.5.5 0 0 0 .707.707L7 1.707V4.5a.5.5 0 0 0 1 0V1.707l1.146 1.146a.5.5 0 0 0 .707-.707l-2-1.999Zm12.001 2a.5.5 0 0 0-.707 0L18 3.293V.5a.5.5 0 0 0-1 0v2.793l-1.146-1.146a.5.5 0 0 0-.707.707l2 2a.5.5 0 0 0 .707 0l2-2a.5.5 0 0 0 0-.707Z"/>
</svg>
