<svg xmlns="http://www.w3.org/2000/svg" viewBox="0 0 24 24">
  <path d="M11.002 10.156c-.3.45-.502 1.1-.502 1.844 0 .743.202 1.394.502 1.844.302.454.665.656.998.656.333 0 .696-.203.998-.656.3-.45.502-1.1.502-1.844 0-.743-.202-1.394-.502-1.844-.302-.453-.665-.656-.998-.656-.333 0-.696.203-.998.656Z"/>
  <path fill-rule="evenodd" d="M24 12c0-6.617-5.384-12-12-12C5.383 0 0 5.383 0 12c0 6.616 5.383 12 12 12 6.616 0 12-5.384 12-12ZM5.5 10.5a1 1 0 1 1 2 0 .5.5 0 0 0 1 0 2 2 0 1 0-4 0c0 .257.039.496.137.717.1.223.246.397.417.54.26.216.623.395 1.003.582l.22.108c.092.047.178.09.257.128.383.19.612.303.77.436a.49.49 0 0 1 .145.179c.027.06.051.153.051.31a1 1 0 1 1-2 0 .5.5 0 0 0-1 0 2 2 0 1 0 4 0c0-.257-.039-.496-.137-.717a1.486 1.486 0 0 0-.417-.54c-.26-.216-.622-.395-1.003-.582a32.623 32.623 0 0 1-.476-.236c-.383-.19-.613-.303-.771-.436a.49.49 0 0 1-.145-.179.755.755 0 0 1-.051-.31Zm12-1a1 1 0 0 0-1 1c0 .157.024.25.05.31a.49.49 0 0 0 .146.18c.158.132.387.245.77.435l.258.128c.073.036.146.073.22.108.38.187.743.366 1.002.582.17.143.318.317.417.54.098.22.137.46.137.717a2 2 0 1 1-4 0 .5.5 0 0 1 1 0 1 1 0 1 0 2 0 .756.756 0 0 0-.05-.31.49.49 0 0 0-.146-.18c-.158-.132-.387-.245-.77-.435l-.258-.128a31.706 31.706 0 0 0-.22-.108c-.38-.187-.743-.366-1.002-.582a1.485 1.485 0 0 1-.417-.54 1.737 1.737 0 0 1-.137-.717 2 2 0 1 1 4 0 .5.5 0 0 1-1 0 1 1 0 0 0-1-1Zm-7.33.101C10.59 8.97 11.229 8.5 12 8.5c.771 0 1.409.469 1.83 1.101.424.636.67 1.486.67 2.399s-.246 1.763-.67 2.399c-.42.631-1.059 1.101-1.83 1.101-.771 0-1.409-.469-1.83-1.101-.424-.636-.67-1.486-.67-2.399s.246-1.763.67-2.399Z" clip-rule="evenodd"/>
</svg>
