<svg xmlns="http://www.w3.org/2000/svg" viewBox="0 0 24 24">
  <path d="M19.5 9a.5.5 0 0 0 .5-.5V7h.5c.827 0 1.5-.673 1.5-1.5v-4c0-.827-.673-1.5-1.5-1.5h-18C1.673 0 1 .673 1 1.5v4C1 6.327 1.673 7 2.5 7H3v12h-.5c-.827 0-1.5.673-1.5 1.5v2c0 .827.673 1.5 1.5 1.5h18c.827 0 1.5-.673 1.5-1.5v-2c0-.827-.673-1.5-1.5-1.5H20v-4.5a.5.5 0 0 0-1 0V19h-4.882a3.975 3.975 0 0 0 1.382-3h.75a.75.75 0 0 1 0 1.5H16v1h.25c.965 0 1.75-.785 1.75-1.75S17.215 15 16.25 15H8a.5.5 0 0 0-.5.5v.5c0 1.2.542 2.266 1.382 3H4V7h1.559c.647 0 1.219.412 1.423 1.024l.088.267A2.493 2.493 0 0 0 9 9.958V12.5a.5.5 0 0 0 .5.5H11v.5a.5.5 0 0 0 1 0V13h1.5a.5.5 0 0 0 .5-.5V12h4.5v.5a.5.5 0 0 0 .5.5h3.5a.5.5 0 0 0 .5-.5v-2a.5.5 0 0 0-.5-.5H19a.5.5 0 0 0-.5.5v.5H14V9.958a2.497 2.497 0 0 0 1.931-1.668l.088-.264A1.497 1.497 0 0 1 17.441 7H19v1.5a.5.5 0 0 0 .5.5Zm-8-5a1.5 1.5 0 1 1-.001 3.001A1.5 1.5 0 0 1 11.5 4Zm1.5 8h-3v-2h3v2Z"/>
</svg>
