<svg xmlns="http://www.w3.org/2000/svg" viewBox="0 0 24 24">
  <path d="M12.078 5.714c1.107 0 2.008.86 2.008 1.919v6.414l4.118 1.33c1.289.397 1.583 1.815 1.308 2.963l-1.017 5.26a.496.496 0 0 1-.491.394H10.02a.51.51 0 0 1-.416-.214l-4.016-5.76c-.734-1.078-.426-2.666.949-2.666 1.059 0 2.065.419 3.549 2.307V7.617c0-1.05.894-1.903 1.992-1.903Zm5.143-3.517a7.501 7.501 0 0 1 0 10.608.5.5 0 1 1-.708-.707 6.501 6.501 0 0 0-9.19-9.195 6.501 6.501 0 0 0 0 9.195.5.5 0 0 1-.708.707A7.501 7.501 0 0 1 17.221 2.197Z"/>
</svg>
