<svg xmlns="http://www.w3.org/2000/svg" viewBox="0 0 24 24">
  <path d="M23.894 1.192A.502.502 0 0 0 23.5 1H.5a.5.5 0 0 0-.485.621l1 4A.499.499 0 0 0 1.5 6H2v2h4V6h12v2h4V6h.5a.5.5 0 0 0 .485-.379l1-4a.5.5 0 0 0-.091-.429ZM10.509 11.549c-1.66.658-2.486 1.957-2.486 3.481 0 2.196 1.78 4.977 3.977 4.977 2.196 0 3.977-2.78 3.977-4.977 0-3.21-2.311-6.233-5.469-6.961 1.803 1.327 1.702 3.9.994 4.973-.486-.4-.919-.835-.993-1.493ZM2 15h4v2H2v-2Zm4-3H2v2h4v-2Z"/>
  <path d="M6 20v-2H2v2H.5a.5.5 0 0 0-.5.5v2a.5.5 0 0 0 .5.5h23a.5.5 0 0 0 .5-.5v-2a.5.5 0 0 0-.5-.5H22v-2h-4v2H6ZM6 9H2v2h4V9Zm12 3h4v2h-4v-2Zm4-3h-4v2h4V9Zm0 6h-4v2h4v-2Z"/>
</svg>
