<svg xmlns="http://www.w3.org/2000/svg" viewBox="0 0 24 24">
  <path d="M22 21H2c-1.327 0-2 .505-2 1.5S.673 24 2 24h20c1.327 0 2-.505 2-1.5s-.673-1.5-2-1.5ZM5.692 20H18.5c.957 0 3.5 0 3.5-2.308a3.304 3.304 0 0 0-2.506-3.21l-1.224-.305L20 2.5C20 1.122 18.878 0 17.5 0h-3a.5.5 0 0 0 0 1h3c.827 0 1.5.673 1.505 1.427l-1.709 11.507L9 11.86V9h2.377C12.272 9 13 8.271 13 7.378c0-.748-.506-1.396-1.229-1.575L6.8 4.56a2.281 2.281 0 0 0-1.934.411A2.235 2.235 0 0 0 4 6.746 2.256 2.256 0 0 0 6.254 9H8v2.61l-.931-.233a4.94 4.94 0 0 0-4.191.888A4.858 4.858 0 0 0 1 16.115C1 18.584 2.71 20 5.692 20Zm.533-5.864a.5.5 0 0 1 .702.09L9.851 18H11.5a.5.5 0 0 1 0 1H7.521a.5.5 0 0 1 0-1h1.065l-2.45-3.162a.501.501 0 0 1 .089-.702Z"/>
</svg>
