<svg xmlns="http://www.w3.org/2000/svg" viewBox="0 0 24 24">
  <path fill-rule="evenodd" d="M21.579 11.135a.5.5 0 0 0-.801-.237 8.648 8.648 0 0 1-2.286 1.396C18.283 6.188 13.768 1.117 7.759.156a.5.5 0 0 0-.51.748 9.051 9.051 0 0 1 .44 8.343 8.762 8.762 0 0 1-1.31-2.668.501.501 0 0 0-.801-.242A9.97 9.97 0 0 0 2 14c0 5.584 4.525 10 10 10 5.514 0 10-4.485 10-10 0-.976-.142-1.94-.421-2.865ZM12 23.5c-2.271 0-4-1.841-4-4.113 0-3.32 2.39-6.448 5.656-7.199-1.864 1.372-1.762 4.034-1.027 5.142.503-.413.95-.863 1.027-1.54C15.373 16.466 16 17.924 16 19.5c0 2.272-1.727 4-4 4Z" clip-rule="evenodd"/>
</svg>
