<svg xmlns="http://www.w3.org/2000/svg" viewBox="0 0 24 24">
  <path fill-rule="evenodd" d="M15.095 1.008a.5.5 0 0 1 .531.723 8.239 8.239 0 0 0-.915 3.802c0 1.006.175 1.968.494 2.843a7.72 7.72 0 0 0 .806-1.955.5.5 0 0 1 .827-.237C18.474 7.728 19.5 10.032 19.5 12.6v.005c0 .138 0 .29-.008.444C19.284 17.454 16.031 21 12 21c-4.2 0-7.5-3.816-7.5-8.4 0-.833.109-1.633.313-2.39a.5.5 0 0 1 .828-.232c.44.421.927.77 1.45 1.04.103-2.311.858-4.424 2.062-6.116 1.438-2.032 3.538-3.461 5.941-3.894Z" clip-rule="evenodd"/>
  <path d="M2.5 22a.5.5 0 0 0 0 1h19a.5.5 0 1 0 0-1h-19Z"/>
</svg>
