<svg xmlns="http://www.w3.org/2000/svg" viewBox="0 0 25 24">
  <path d="M20.012 5.773V1.5a.5.5 0 0 0-.5-.5h-4.671l5.171 4.773Zm3.837 5.358-11.5-11a.5.5 0 0 0-.674 0l-11.5 11A.5.5 0 0 0 .512 12h2.5v2.316c.466-.369.777-.736.784-.744.605-.77 1.938-.695 2.456.135.028.043.894 1.35 2.342 1.35 1.526 0 2.313-1.293 2.32-1.306.57-.986 1.982-.998 2.577-.044.029.043.896 1.35 2.342 1.35 1.526 0 2.314-1.293 2.322-1.306.568-.986 1.983-.997 2.577-.042.011.016.115.166.281.356V12h2.5a.5.5 0 0 0 .336-.869ZM14.012 8.5a.5.5 0 0 1-.5.5h-3a.5.5 0 0 1-.5-.5v-3a.5.5 0 0 1 .5-.5h3a.5.5 0 0 1 .5.5v3Z"/>
  <path d="M.831 19.053c1.227.262 2.591-1.017 2.97-1.487.609-.757 1.936-.684 2.451.142 1.256 1.906 3.736 1.648 4.662.044.57-.986 1.982-.998 2.577-.044 1.274 1.9 3.666 1.666 4.664.044.568-.986 1.983-.997 2.577-.042.003.004 1.088 1.59 2.48 1.302.272-.058.547-.028.803.062l.003-2.594a.5.5 0 0 0-.602-.49c-2.131.439-3.478-1.662-3.534-1.754-.185-.295-.685-.287-.861.016-1.3 2.229-4.66 2.565-6.38-.016-.187-.295-.685-.287-.86.016-1.299 2.244-4.739 2.55-6.378-.016-.174-.273-.62-.299-.82-.043-.018.022-1.838 2.292-3.958 1.84a.5.5 0 0 0-.604.488l-.004 2.598c.257-.094.538-.125.814-.066Z"/>
  <path d="M23.415 19.99c-1.54.316-2.902-.756-3.534-1.756-.185-.295-.685-.287-.861.016-1.3 2.229-4.66 2.565-6.38-.016-.187-.297-.685-.287-.86.016-1.299 2.244-4.739 2.55-6.378-.016-.173-.274-.618-.299-.82-.043-.845 1.035-2.418 2.164-3.959 1.84a.501.501 0 0 0-.604.488l-.007 2.979a.494.494 0 0 0 .146.354.497.497 0 0 0 .354.148h23a.5.5 0 0 0 .5-.499l.005-3.021a.5.5 0 0 0-.602-.49Z"/>
</svg>
