<svg xmlns="http://www.w3.org/2000/svg" viewBox="0 0 24 24">
  <path d="m23.837 10.631-11.5-10.5a.498.498 0 0 0-.674 0l-11.5 10.5a.499.499 0 1 0 .674.738L12 1.177l11.163 10.192a.495.495 0 0 0 .706-.032.499.499 0 0 0-.032-.706Z"/>
  <path fill-rule="evenodd" d="M15.565 20.25c-.941 0-1.734-.537-2.365-1.597A21.58 21.58 0 0 0 11.35 23H21.5a.5.5 0 1 1 0 1h-19a.5.5 0 0 1 0-1h7.488c-.242-.513-.65-1.29-1.218-2.087-.628.977-1.401 1.219-1.992 1.219-.793 0-1.662-.436-2.383-1.195-1.201-1.266-1.891-4.683-.954-6.72a.494.494 0 0 1 .332-.275.505.505 0 0 1 .423.085c.874.66 1.682.869 2.536 1.09l.006.002c.739.191 1.503.389 2.258.892.868.579 1.368 1.376 1.37 2.186.001.487-.186 1.177-.99 1.854a14.1 14.1 0 0 1 1.233 1.945c.333-.999.916-2.472 1.858-4.102-.99-.559-1.61-1.242-1.798-2.056-.231-.997.155-2.096 1.148-3.265.927-1.094 2.169-1.467 3.483-1.861l.002-.001.015-.005c1.147-.346 2.331-.704 3.375-1.588a.501.501 0 0 1 .765.149c1.378 2.605.73 7.352-.778 9.129-.718.846-1.841 1.854-3.114 1.854Zm-9.57-1.877c.817.408 1.515 1.023 2.1 1.688l.643-.777c-.639-.703-1.398-1.358-2.296-1.806a.5.5 0 0 0-.447.895Zm6.997-1.323a20.965 20.965 0 0 1 3.657-4.358.503.503 0 0 1 .706.037.503.503 0 0 1-.037.708 20.029 20.029 0 0 0-3.516 4.202l-.81-.589Z" clip-rule="evenodd"/>
</svg>
