<svg xmlns="http://www.w3.org/2000/svg" viewBox="0 0 24 24">
  <path fill-rule="evenodd" d="M18.894 15.192A.503.503 0 0 0 18.5 15h-6.563c-.004-.69.087-2.129.701-3.858a2.777 2.777 0 0 0 1.951.817 2.779 2.779 0 0 0 2.388-4.188 2.781 2.781 0 0 0 1.537-3.405c-.436-1.341-1.868-2.159-3.245-1.852A2.78 2.78 0 0 0 12.504 0 2.78 2.78 0 0 0 9.74 2.513c-1.375-.307-2.81.512-3.244 1.852a2.768 2.768 0 0 0 .166 2.119 2.751 2.751 0 0 0 1.37 1.286 2.78 2.78 0 0 0 .758 3.658 2.75 2.75 0 0 0 1.63.53c.338 0 .665-.074.974-.189-.39 1.426-.462 2.588-.457 3.231H5.5a.499.499 0 0 0-.484.621L5.36 17h13.28l.345-1.379a.504.504 0 0 0-.09-.429Zm-8.66-8.874a2.274 2.274 0 0 1 2.27-2.272 2.275 2.275 0 0 1 2.271 2.272 2.274 2.274 0 0 1-2.27 2.27 2.273 2.273 0 0 1-2.27-2.27ZM7.015 23.621A.498.498 0 0 0 7.5 24h9a.5.5 0 0 0 .485-.379L18.39 18H5.61l1.405 5.621Z" clip-rule="evenodd"/>
</svg>
