<svg xmlns="http://www.w3.org/2000/svg" viewBox="0 0 24 24">
  <path fill-rule="evenodd" d="M14.5 9.5c0-1.654-1.346-3-3-3s-3 1.346-3 3 1.346 3 3 3 3-1.346 3-3Zm-5 0a2 2 0 1 1 4.001.001A2 2 0 0 1 9.5 9.5ZM14 20l-2 3.2v-6.987a2.992 2.992 0 0 0 2.517 1.376 3 3 0 0 0 3-3c0-1.14-.581-2.081-1.517-2.589.435.244 1.148.196 1.683.196a3 3 0 0 0 0-6c-.497 0-1.27.09-1.683.304.885-.523 1.5-1.398 1.5-2.5a3 3 0 0 0-6 0 3 3 0 0 0-6 0c0 1.078.647 1.971 1.5 2.5a3 3 0 1 0-1.317 5.696c.539 0 .88.053 1.317-.196a3 3 0 1 0 4 4.272V23.2L9 20a2.5 2.5 0 0 0-2-1H3l2 4a2.5 2.5 0 0 0 2 1h9a2.5 2.5 0 0 0 2-1l2-4h-4a2.5 2.5 0 0 0-2 1ZM7.5 9.5c0-2.206 1.794-4 4-4s4 1.794 4 4-1.794 4-4 4-4-1.794-4-4Z" clip-rule="evenodd"/>
</svg>
