<svg xmlns="http://www.w3.org/2000/svg" viewBox="0 0 24 24">
  <path d="M19 21V10.25a.25.25 0 0 0-.25-.25H15v5h1.5a.5.5 0 0 1 0 1H15v5h4Zm-8.89-7.688a.5.5 0 1 1 .78-.624l1.998 2.497a.497.497 0 0 1 .01.617l-.008.01-2 2.5a.5.5 0 0 1-.78-.624L11.46 16H7.5a.5.5 0 0 1 0-1h3.96l-1.35-1.688Z"/>
  <path fill-rule="evenodd" d="M11.836 1.028a.5.5 0 0 1 .328 0l11.5 4A.5.5 0 0 1 24 5.5v2a.5.5 0 0 1-.5.5H23v14h.5a.5.5 0 0 1 0 1H.5a.5.5 0 0 1 0-1H1V8H.5a.5.5 0 0 1-.5-.5v-2a.5.5 0 0 1 .336-.472l11.5-4ZM20 9.5a.5.5 0 0 0-.5-.5h-15a.5.5 0 0 0-.5.5V22h16V9.5Z" clip-rule="evenodd"/>
</svg>
