<svg xmlns="http://www.w3.org/2000/svg" viewBox="0 0 24 24">
  <path d="M14.188 20.39a.5.5 0 0 1-.078-.702L15.46 18H11.5a.5.5 0 1 1 0-1h3.96l-1.35-1.688a.5.5 0 1 1 .78-.624l2 2.5.009.01a.497.497 0 0 1-.01.617l-1.998 2.497a.5.5 0 0 1-.703.078Z"/>
  <path fill-rule="evenodd" d="M11.836 1.028a.5.5 0 0 1 .328 0l11.5 4A.5.5 0 0 1 24 5.5v2a.5.5 0 0 1-.5.5H23v15h.5a.5.5 0 0 1 0 1H.5a.5.5 0 0 1 0-1H1V8H.5a.5.5 0 0 1-.5-.5v-2a.5.5 0 0 1 .336-.472l11.5-4ZM4 11.5V23h1V12.25a.25.25 0 0 1 .25-.25H9v5H7.5a.5.5 0 0 0 0 1H9v5h11V11.5a.5.5 0 0 0-.5-.5h-15a.5.5 0 0 0-.5.5Z" clip-rule="evenodd"/>
</svg>
