<svg xmlns="http://www.w3.org/2000/svg" viewBox="0 0 24 24">
  <path d="M15.188 14.61a.5.5 0 0 0-.078.702l1.75 2.188-1.75 2.188a.5.5 0 1 0 .78.624l2-2.5a.5.5 0 0 0 0-.624l-2-2.5a.5.5 0 0 0-.702-.078Zm-1.298.702a.5.5 0 1 0-.78-.624l-2 2.5a.5.5 0 0 0 0 .624l2 2.5a.5.5 0 0 0 .78-.624L12.14 17.5l1.75-2.188Z"/>
  <path fill-rule="evenodd" d="M12.164 1.028a.5.5 0 0 0-.328 0l-11.5 4A.5.5 0 0 0 0 5.5v2a.5.5 0 0 0 .5.5H1v15H.5a.5.5 0 0 0 0 1h23a.5.5 0 0 0 0-1H23V8h.5a.5.5 0 0 0 .5-.5v-2a.5.5 0 0 0-.336-.472l-11.5-4ZM4 23V11.5a.5.5 0 0 1 .5-.5h15a.5.5 0 0 1 .5.5V23H9v-5H7.5a.5.5 0 0 1 0-1H9v-5H5.25a.25.25 0 0 0-.25.25V23H4Z" clip-rule="evenodd"/>
</svg>
