<svg xmlns="http://www.w3.org/2000/svg" viewBox="0 0 24 24">
  <path d="M3.5 17h-3a.5.5 0 0 0-.5.5v6a.5.5 0 0 0 .5.5h3a.5.5 0 0 0 .5-.5v-6a.5.5 0 0 0-.5-.5Zm-1 5a.5.5 0 1 1 0-1 .5.5 0 0 1 0 1Zm11-2h-.808s-1.861-2-4.192-2h-3a.5.5 0 0 0-.5.5v4a.5.5 0 0 0 .5.5H21a.5.5 0 0 0 .5-.5c0-1.682-2.617-2.5-8-2.5Zm10-7H.5a.5.5 0 0 0 0 1h.793l1.854 1.854c.093.095.22.146.353.14h17a.464.464 0 0 0 .354-.141L22.707 14h.793a.5.5 0 1 0 0-1ZM3 11.994h18a.5.5 0 0 0 .51-.5c0-4.252-3.389-7.571-7.877-8.346C13.862 2.823 14 2.429 14 2c0-1.102-.898-2-2-2a1.996 1.996 0 0 0-1.633 3.15C5.965 3.909 2.5 7.143 2.5 11.494a.5.5 0 0 0 .5.5ZM12 1a1.001 1.001 0 1 1-1 1c0-.551.448-1 1-1ZM6.101 8.732A6.971 6.971 0 0 1 12 5.5a.5.5 0 0 1 0 1 5.98 5.98 0 0 0-5.057 2.771.499.499 0 0 1-.691.151.499.499 0 0 1-.151-.69Z"/>
</svg>
