<svg xmlns="http://www.w3.org/2000/svg" viewBox="0 0 24 24">
  <path d="M22 11V9.5a.5.5 0 0 0-.5-.5h-15a.5.5 0 0 0-.5.5V11h16ZM7.371 8h13.173c-.576-2.626-2.655-4.712-5.254-5.266.105-.208.171-.441.171-.691a1.545 1.545 0 0 0-3.087 0c0 .251.066.484.173.694-2.56.56-4.608 2.642-5.176 5.263Z"/>
  <path d="M23.5 12h-19a.5.5 0 0 0-.5.5V16H3V9.969A2.472 2.472 0 0 0 .531 7.5a.5.5 0 0 0 0 1C1.341 8.5 2 9.159 2 9.969V16.5a.5.5 0 0 0 .5.5H4v4.5a.5.5 0 0 0 .5.5H8v-4.999a.5.5 0 0 1 1 0V22h4v-4.999a.5.5 0 0 1 1 0V22h5v-4.999a.5.5 0 0 1 1 0V22h3.5a.5.5 0 0 0 .5-.5v-9a.5.5 0 0 0-.5-.5Zm-5.988 11c.456.604 1.174 1 1.988 1 .814 0 1.532-.396 1.988-1h-3.976Zm-11 0c.456.604 1.174 1 1.988 1 .814 0 1.532-.396 1.988-1H6.512Z"/>
</svg>
