<svg xmlns="http://www.w3.org/2000/svg" viewBox="0 0 24 24">
  <path d="M16.5 4a6.496 6.496 0 0 0-.5 12.975V13c0-1.102-.897-2-2-2a.5.5 0 0 1 0-1 2.98 2.98 0 0 1 2 .78V8.5a.5.5 0 0 1 1 0v4.301c.489-.59 1.121-1.051 1.852-1.278a.5.5 0 1 1 .297.955C17.924 12.858 17 14.158 17 15.5v1.475A6.497 6.497 0 0 0 16.5 4ZM16 23.5a.5.5 0 0 0 1 0V17h-1v6.5Zm-10-11v1.883c.808-.925 1.966-1.458 3.293-1.364l-.764-2.522s-.32.003-.529.003c-1.103 0-2 .898-2 2Zm3.593 1.507S9.183 14 9 14c-1.654 0-3 1.346-3 3v1h3c.828 0 1.349-.672 1.349-1.5l-.756-2.493ZM5 14.383V12.5c0-1.102-.897-2-2-2-.207 0-.532.006-.532.006l-.762 2.513A3.926 3.926 0 0 1 5 14.383Zm0-4.103V7.5a.5.5 0 0 1 1 0v2.78a2.916 2.916 0 0 1 2.232-.763L5.5.5 2.767 9.518A2.913 2.913 0 0 1 5 10.28ZM5 17c0-1.654-1.346-3-3-3-.186 0-.5 0-.593.007L.651 16.5c0 .828.521 1.5 1.349 1.5h3v-1Zm0 6.5a.5.5 0 0 0 1 0V18H5v5.5Z"/>
</svg>
