<svg xmlns="http://www.w3.org/2000/svg" viewBox="0 0 24 24">
  <path d="M15.135 16.825c.874.884 2.203-.466 1.312-1.34l-2.557-3.199c.933.921 2.232-.6 1.237-1.408L12 7.39l-3.122 3.5c-1.005.816.332 2.323 1.25 1.397l-2.633 3.207c-.882.892.473 2.22 1.335 1.315l-2 2.581c-.587.589-.177 1.609.657 1.609l4.018.001v2.5c0 .276.222.5.495.5a.498.498 0 0 0 .495-.5V21h4.019c.846 0 1.236-1.037.656-1.61l-2.035-2.565Zm-6.68-8.903L7.166 6.231c.573.584 1.455-.306.866-.885L6.344 3.234c.61.6 1.478-.389.817-.932L5.07 0 2.959 2.306c-.664.545.222 1.531.825.922L2.12 5.352c-.585.581.312 1.466.88.868L1.68 7.925c-.385.387-.117 1.062.436 1.062h2.457V10.5c0 .276.222.5.495.5a.498.498 0 0 0 .495-.5V8.986h2.459c.55 0 .821-.675.432-1.064Zm13.862 0-1.29-1.691c.573.584 1.454-.306.866-.885l-1.688-2.111c.607.595 1.482-.385.818-.932L18.93 0l-2.11 2.306c-.665.545.223 1.531.825.923l-1.663 2.123c-.58.576.307 1.473.88.868l-1.32 1.705c-.386.387-.117 1.062.436 1.062h2.458V10.5c0 .276.221.5.495.5a.498.498 0 0 0 .495-.5V8.986h2.458c.55 0 .822-.675.433-1.064Z"/>
</svg>
