<svg xmlns="http://www.w3.org/2000/svg" viewBox="0 0 24 24">
  <path d="M5.5 0C4.673 0 4 .673 4 1.501V18H1.5a.5.5 0 0 0 0 1H4v4H.5a.5.5 0 0 0 0 1h6a.5.5 0 0 0 .5-.5v-22C7 .673 6.327 0 5.5 0Zm15.166 19.916a1.917 1.917 0 1 0 0 3.834 1.917 1.917 0 0 0 0-3.834ZM13.5 18.25a2.75 2.75 0 1 0 0 5.5 2.75 2.75 0 0 0 0-5.5Z"/>
  <path d="M23.8 16.1 22 14.75V9.5C22 8.121 20.878 7 19.5 7h-2C12.262 7 8 11.261 8 16.5v5a.5.5 0 0 0 .5.5h1.924a3.191 3.191 0 0 1-.174-1H9v-2.793l4-4 .146.146a.5.5 0 0 0 .707-.708l-1-1a.5.5 0 0 0-.707.708l.147.146L9 16.793c0-5.371 4.102-8.792 8.5-8.792h2c.827 0 1.5.672 1.5 1.5v5h-2.36l.845-3.379a.5.5 0 1 0-.969-.243l-.907 3.621H16a.504.504 0 0 0-.354.146l-2.5 2.5a.506.506 0 0 0-.144.298l-.04.354.01.005c2.404-.394 4.365 1.864 3.604 4.197h1.773a2.317 2.317 0 0 1 2.316-2.501A2.317 2.317 0 0 1 22.982 22h.518a.5.5 0 0 0 .5-.5v-5a.501.501 0 0 0-.2-.4Z"/>
</svg>
