<svg xmlns="http://www.w3.org/2000/svg" viewBox="0 0 24 24">
  <path d="M13 1.5c0-.827-.673-1.5-1.5-1.5S10 .673 10 1.5 10.673 3 11.5 3 13 2.327 13 1.5Zm-1.5.5a.5.5 0 1 1 .002-1.002A.5.5 0 0 1 11.5 2Zm6 6H17V6.5C17 4.57 15.43 3 13.5 3h-4C7.741 3 6.296 4.309 6.051 6H4a.5.5 0 0 0-.353.853L6 9.207V21.5a.5.5 0 0 0 .5.5h1l-.9 1.2a.5.5 0 0 0 .801.599L8.75 22h5.5l1.35 1.8a.5.5 0 1 0 .801-.599L15.5 22h1a.5.5 0 0 0 .5-.5V19h.5c3.032 0 5.5-2.467 5.5-5.5S20.532 8 17.5 8ZM5.207 7H16v12H7V9a.5.5 0 0 0-.147-.354L5.207 7ZM17.5 18H17V9h.5c2.481 0 4.5 2.019 4.5 4.5S19.981 18 17.5 18Z"/>
  <path d="M8 18h7a.5.5 0 0 0 0-1h-3v-7h2.5a.5.5 0 0 0 .5-.5v-1a.5.5 0 0 0-.5-.5h-6a.5.5 0 0 0-.5.5v1a.5.5 0 0 0 .5.5H11v7H8a.5.5 0 0 0 0 1Z"/>
</svg>
