<svg xmlns="http://www.w3.org/2000/svg" viewBox="0 0 24 24">
  <path d="M20.5 12h-16a.5.5 0 0 0-.5.5v8c0 1.208.859 2.219 2 2.451v.549a.5.5 0 0 0 1 0V23h11v.5a.5.5 0 0 0 1 0v-.549c1.14-.233 2-1.243 2-2.451v-8c0-.275-.225-.5-.5-.5ZM16 16.5a.5.5 0 0 1-1 0V16h-5v.5a.5.5 0 0 1-1 0v-1a.5.5 0 0 1 .5-.5h6c.275 0 .5.225.5.5v1ZM10 4h2v7h-2V4Zm9 4.5v-4c0-.275-.225-.5-.5-.5H16v7h.5c1.378 0 2.5-1.121 2.5-2.5ZM13 4h2v7h-2V4ZM6 2.5v6C6 9.879 7.121 11 8.5 11H9V4H7V2.5C7 1.122 5.878 0 4.5 0h-4a.5.5 0 0 0 0 1h4C5.326 1 6 1.674 6 2.5Z"/>
</svg>
