<svg xmlns="http://www.w3.org/2000/svg" viewBox="0 0 24 24">
  <g clip-path="url(#a)">
    <path d="M19.5 7H14V5.5a.5.5 0 0 0-.5-.5H12V3c0-1.654-1.346-3-3-3H4.5a.5.5 0 0 0 0 1H9c1.102 0 2 .898 2 2v2H9.5a.5.5 0 0 0-.5.5V7H4.5A4.505 4.505 0 0 0 0 11.5v10C0 22.878 1.121 24 2.5 24c1.313 0 1.446-.24 2.727-2.549.537-.968 1.337-2.412 2.556-4.451h8.434a132.362 132.362 0 0 1 2.552 4.469C19.974 23.663 20.158 24 21.5 24c1.378 0 2.5-1.122 2.5-2.5v-10C24 9.019 21.981 7 19.5 7Zm-1.707 2.793a1.021 1.021 0 0 1 1.414 0 .996.996 0 0 1 0 1.414.993.993 0 0 1-.707.293.99.99 0 0 1-.707-.293.99.99 0 0 1-.293-.707c0-.267.104-.519.293-.707ZM10 6h3v1h-3V6Zm-2.5 7H6v1.5a.5.5 0 0 1-1 0V13H3.5a.5.5 0 0 1 0-1H5v-1.5a.5.5 0 0 1 1 0V12h1.5a.5.5 0 0 1 0 1Zm3.5 2h-1a.5.5 0 0 1 0-1h1a.5.5 0 0 1 0 1Zm3 0h-1a.5.5 0 0 1 0-1h1a.5.5 0 0 1 0 1Zm3.207-1.793a.993.993 0 0 1-.707.293.99.99 0 0 1-.707-.293.997.997 0 0 1 0-1.414 1.023 1.023 0 0 1 1.413-.001c.391.391.391 1.025.001 1.415Zm2 2a.993.993 0 0 1-.707.293.99.99 0 0 1-.707-.293.99.99 0 0 1-.293-.707c0-.267.104-.519.293-.707a1.021 1.021 0 0 1 1.414 0 .996.996 0 0 1 0 1.414Zm2-2a.993.993 0 0 1-.707.293.99.99 0 0 1-.707-.293.99.99 0 0 1-.293-.707c0-.267.104-.519.293-.707a1.021 1.021 0 0 1 1.414 0 .996.996 0 0 1 0 1.414Z"/>
  </g>
  <defs>
    <clipPath id="a">
      <path d="M0 0h24v24H0z"/>
    </clipPath>
  </defs>
</svg>
