<svg xmlns="http://www.w3.org/2000/svg" viewBox="0 0 24 24">
  <path d="M18.5 0h-13A2.502 2.502 0 0 0 3 2.5v19C3 22.878 4.121 24 5.5 24h10c1.237 0 2.893-.685 3.767-1.56l.173-.172c.875-.875 1.56-2.53 1.56-3.768v-16C21 1.121 19.878 0 18.5 0ZM8 18.5a.5.5 0 0 1-1 0V17H5.5a.5.5 0 0 1 0-1H7v-1.5a.5.5 0 0 1 1 0V16h1.5a.5.5 0 0 1 0 1H8v1.5Zm2.724 2.447-1 .5a.5.5 0 1 1-.447-.894l1-.5a.5.5 0 0 1 .447.894Zm3 0-1 .5a.5.5 0 1 1-.447-.894l1-.5a.5.5 0 0 1 .447.894ZM15 17.5a1 1 0 1 1 0-2 1 1 0 0 1 0 2ZM7.5 12c-.827 0-1.5-.673-1.5-1.5v-6C6 3.673 6.673 3 7.5 3h9c.827 0 1.5.673 1.5 1.5v6c0 .827-.673 1.5-1.5 1.5h-9ZM18 16a1 1 0 1 1 0-2 1 1 0 0 1 0 2Z"/>
</svg>
