<svg xmlns="http://www.w3.org/2000/svg" viewBox="0 0 24 24">
  <path d="M19 10.25a.25.25 0 0 0-.25-.25H5.25a.25.25 0 0 0-.25.25V12h6.5v-.5a.5.5 0 0 1 1 0v.5H19v-1.75Zm-7.5 4.25v4.96l-1.688-1.35a.5.5 0 1 0-.624.78l2.497 1.998a.498.498 0 0 0 .632-.001l2.495-1.997a.5.5 0 0 0-.624-.78L12.5 19.46V14.5a.5.5 0 1 0-1 0Z"/>
  <path fill-rule="evenodd" d="M12.164 1.028a.5.5 0 0 0-.328 0l-11.5 4A.5.5 0 0 0 0 5.5v2a.5.5 0 0 0 .5.5H1v14H.5a.5.5 0 0 0 0 1h23a.5.5 0 0 0 0-1H23V8h.5a.5.5 0 0 0 .5-.5v-2a.5.5 0 0 0-.336-.472l-11.5-4ZM4.5 9h15a.5.5 0 0 1 .5.5V22H4V9.5a.5.5 0 0 1 .5-.5Z" clip-rule="evenodd"/>
</svg>
