<svg xmlns="http://www.w3.org/2000/svg" viewBox="0 0 24 24">
  <path fill-rule="evenodd" d="M11.836 1.028a.5.5 0 0 1 .328 0l11.5 4A.5.5 0 0 1 24 5.5v2a.5.5 0 0 1-.5.5H23v14h.5a.5.5 0 0 1 0 1H.5a.5.5 0 0 1 0-1H1V8H.5a.5.5 0 0 1-.5-.5v-2a.5.5 0 0 1 .336-.472l11.5-4ZM19.5 9h-15a.5.5 0 0 0-.5.5V22h16V9.5a.5.5 0 0 0-.5-.5Z" clip-rule="evenodd"/>
  <path d="M9.11 16.812a.5.5 0 0 0 .702.078L12 15.14l2.188 1.75a.5.5 0 1 0 .624-.78l-2.5-2a.5.5 0 0 0-.624 0l-2.5 2a.5.5 0 0 0-.078.702Zm.702 1.298a.5.5 0 1 0-.624.78l2.5 2a.5.5 0 0 0 .624 0l2.5-2a.5.5 0 1 0-.624-.78L12 19.86l-2.188-1.75ZM18.75 10a.25.25 0 0 1 .25.25V12h-6.5v-.5a.5.5 0 0 0-1 0v.5H5v-1.75a.25.25 0 0 1 .25-.25h13.5Z"/>
</svg>
