<svg xmlns="http://www.w3.org/2000/svg" viewBox="0 0 24 24">
  <path d="M19 21v-2H5v2h6.5v-.5a.5.5 0 0 1 1 0v.5H19ZM5 10.25a.25.25 0 0 1 .25-.25h13.5a.25.25 0 0 1 .25.25V12H5v-1.75ZM19 13H5v2h14v-2ZM5 16h14v2H5v-2Z"/>
  <path fill-rule="evenodd" d="M11.836 1.028a.5.5 0 0 1 .328 0l11.5 4A.5.5 0 0 1 24 5.5v2a.5.5 0 0 1-.5.5H23v14h.5a.5.5 0 0 1 0 1H.5a.5.5 0 0 1 0-1H1V8H.5a.5.5 0 0 1-.5-.5v-2a.5.5 0 0 1 .336-.472l11.5-4ZM19.5 9h-15a.5.5 0 0 0-.5.5V22h16V9.5a.5.5 0 0 0-.5-.5Z" clip-rule="evenodd"/>
</svg>
