<svg xmlns="http://www.w3.org/2000/svg" viewBox="0 0 25 24">
  <path d="M23.999 12a.997.997 0 0 1-.672-.26L13 2.352 2.672 11.74a.999.999 0 1 1-1.346-1.479l11-10a1 1 0 0 1 1.346 0l10.999 10A1 1 0 0 1 23.999 12Z"/>
  <path d="m20.839 15-1.875-4.685A.5.5 0 0 0 18.5 10h-11a.5.5 0 0 0-.465.315L5.161 15h15.678ZM18 20a.5.5 0 0 1 0-1h5v-1.5a.505.505 0 0 0-.146-.354L21.707 16H4.293l-1.146 1.146A.502.502 0 0 0 3 17.5V19h5a.5.5 0 0 1 0 1H3v1.5a.5.5 0 0 0 .5.5H4v1.5a.5.5 0 0 0 .5.5h3a.5.5 0 0 0 .5-.5V22h10v1.5a.5.5 0 0 0 .5.5h3a.5.5 0 0 0 .5-.5V22h.5a.5.5 0 0 0 .5-.5V20h-5Z"/>
</svg>
