<svg xmlns="http://www.w3.org/2000/svg" viewBox="0 0 24 24">
  <path d="M15.92.584c1.306.96 1.232 2.822.721 3.598-.353-.288-.666-.604-.721-1.079-1.201.476-1.799 1.417-1.799 2.519a2.879 2.879 0 0 0 5.758-.001c0-2.322-1.673-4.512-3.959-5.037Zm-10 0c1.306.96 1.232 2.822.721 3.598-.353-.288-.666-.604-.721-1.08-1.201.476-1.799 1.417-1.799 2.519a2.879 2.879 0 0 0 5.758 0c0-2.322-1.673-4.512-3.959-5.037ZM11 10v-.5a.5.5 0 0 0-.5-.5h-7a.5.5 0 0 0-.5.5v.5h8Zm12.5 1H.5a.5.5 0 0 0-.5.5v12a.5.5 0 0 0 .5.5H5v-7.5a.5.5 0 0 1 .5-.5h13a.5.5 0 0 1 .5.5V24h4.5a.5.5 0 0 0 .5-.5v-12a.5.5 0 0 0-.5-.5ZM7 15c-.827 0-1.5-.673-1.5-1.5S6.173 12 7 12s1.5.673 1.5 1.5S7.827 15 7 15Zm10 0c-.827 0-1.5-.673-1.5-1.5S16.173 12 17 12s1.5.673 1.5 1.5S17.827 15 17 15Z"/>
  <path d="M6 24h12v-7H6v7Zm3-6h6a.5.5 0 0 1 0 1H9a.5.5 0 0 1 0-1Zm12-8v-.5a.5.5 0 0 0-.5-.5h-7a.5.5 0 0 0-.5.5v.5h8Z"/>
</svg>
