<svg xmlns="http://www.w3.org/2000/svg" viewBox="0 0 24 24">
  <path d="M12 4C5.383 4 0 9.383 0 16v4.5a.5.5 0 0 0 .5.5h23a.5.5 0 0 0 .5-.5V16c0-6.617-5.383-12-12-12Zm2.408 4.879.766-1.848a.5.5 0 1 1 .924.382l-.766 1.848a.497.497 0 0 1-.653.269.497.497 0 0 1-.271-.651ZM11.5 6.5a.5.5 0 0 1 1 0v2a.5.5 0 0 1-1 0v-2ZM4.5 17h-2a.5.5 0 0 1 0-1h2a.5.5 0 0 1 0 1Zm1.032-3.678a.5.5 0 0 1-.653.271l-1.847-.765a.5.5 0 0 1 .382-.925l1.847.766a.497.497 0 0 1 .271.653Zm1.517-2.272a.5.5 0 0 1-.707 0L4.93 9.635a.5.5 0 0 1 0-.707h.001a.5.5 0 0 1 .707.002l1.411 1.414a.5.5 0 0 1 0 .706Zm2.272-1.517a.498.498 0 0 1-.653-.271l-.765-1.848a.5.5 0 1 1 .924-.383l.765 1.849a.5.5 0 0 1-.271.653Zm4.094 7.881a2 2 0 0 1-2.828-2.828 1.996 1.996 0 0 1 2.425-.303l4.636-4.636a.5.5 0 0 1 .707.707l-4.636 4.636c.45.766.353 1.766-.304 2.424Zm5.051-4.093a.5.5 0 0 1 .272-.653l1.848-.765a.5.5 0 0 1 .382.923l-1.848.765a.5.5 0 0 1-.654-.27ZM21.5 17h-2a.5.5 0 0 1 0-1h2a.5.5 0 0 1 0 1Z"/>
</svg>
