<svg xmlns="http://www.w3.org/2000/svg" viewBox="0 0 24 24">
  <path fill-rule="evenodd" d="M23.998 11.792 24 12c0 6.627-5.373 12-12 12S0 18.627 0 12 5.373 0 12 0c6.558 0 11.887 5.26 11.998 11.792Zm-3.277-6.497c-.537 1.21-1.362 2.584-2.497 3.152a.503.503 0 0 1-.345.037c-1.057-.263-2.127.127-2.674.439.23.309.487.846.733 1.774.213.075.628-.038.837-.144a.499.499 0 0 1 .578.094c1.212 1.212-.357 2.845-1.297 3.823l-.002.002c-.166.172-.378.392-.496.536.04.037.087.079.124.11l.002.002c.228.199.539.47.555.9.01.287-.12.567-.386.834a5.155 5.155 0 0 1-1.367.981C14.343 19.535 13.09 20.5 11 20.5c-.976 0-2-2.493-2-3 0-.368.16-.69.303-.974l.004-.009c.095-.19.193-.387.193-.517-.023-.171-.43-.721-.854-1.146A.502.502 0 0 1 8.5 14.5c0-.429-.077-.72-.229-.863-.252-.237-.849-.203-1.478-.167l-.07.004c-.237.013-.48.026-.723.026-1.582 0-2-1.635-2-2.5 0-.16.033-3.917 2.901-4.49 1.308-.262 2.19-.185 2.703.236.181.148.29.322.346.484.523.387 1.46.17 2.296-.023l.013-.003c.277-.065.546-.127.795-.165.093-.845.096-1.663.009-2.018-.613.257-1.222.255-1.698-.009-.493-.274-.8-.795-.862-1.467-.094-1.007 1.238-1.856 2.699-2.48a10.987 10.987 0 0 1 7.519 4.23Z" clip-rule="evenodd"/>
</svg>
