<svg xmlns="http://www.w3.org/2000/svg" viewBox="0 0 24 24">
  <g clip-path="url(#a)">
    <path d="M11.138.172A17.902 17.902 0 0 0 7.927 5H2.112C4.12 2.144 7.4.252 11.268.03l-.13.142ZM8.547 6h6.916c.65 1.61.99 3.286 1.042 5h-9c.05-1.714.39-3.39 1.042-5ZM.013 12h6.544a17.81 17.81 0 0 0 .92 5H1.172a12.387 12.387 0 0 1-1.158-5Zm11.991 11.323.1-.134c1.293-1.723 2.285-3.459 3.01-5.189h-6.22c.726 1.73 1.718 3.468 3.01 5.192l.1.131ZM7.51 12h8.99c-.062 1.643-.39 3.314-.991 5h-7.01c-.601-1.686-.927-3.357-.99-5Zm8.982-6c.596 1.613.919 3.288.966 5h6.493a11.824 11.824 0 0 0-1.561-5h-5.898ZM.036 11a11.66 11.66 0 0 1 1.446-5h6.036a15.576 15.576 0 0 0-.967 5H.036Zm16.494 6h6.349a11.968 11.968 0 0 0 1.119-5h-6.546a17.777 17.777 0 0 1-.922 5Zm-8.694 1c.76 1.944 1.84 3.886 3.269 5.792l.128.17c-4.058-.253-7.568-2.58-9.54-5.962h6.143Zm8.336 0c-.76 1.942-1.84 3.884-3.267 5.788l-.128.172c4.092-.275 7.624-2.598 9.583-5.959L16.172 18ZM12.872.172A17.902 17.902 0 0 1 16.082 5h5.659A11.985 11.985 0 0 0 12.748.04l.124.132Zm-1 .678.133-.144.133.145A17.406 17.406 0 0 1 15.004 5H9.006A17.46 17.46 0 0 1 11.872.85Z"/>
  </g>
  <defs>
    <clipPath id="a">
      <path d="M0 0h24v24H0z"/>
    </clipPath>
  </defs>
</svg>
