<svg xmlns="http://www.w3.org/2000/svg" viewBox="0 0 24 24">
  <path d="M7 14h4v-2.29L7 9.794V14Zm0 1h4v3H7v-3Zm-1-1v-3.701L2.655 14H6Zm10-4V8.439L14.047 10H16Zm-4 1.636V14h4v-3h-3.205l-.795.636ZM12 15h4v3h-4v-3Z"/>
  <path d="M19.5 1h-16A2.503 2.503 0 0 0 1 3.5v17C1 21.878 2.121 23 3.5 23h16c1.379 0 2.5-1.122 2.5-2.5v-17C22 2.122 20.879 1 19.5 1ZM21 11h-4v3h4v1h-4v3h4v1h-4v3h-1v-3h-4v3h-1v-3H7v3H6v-3H2v-1h4v-3H2V3.5C2 2.673 2.673 2 3.5 2h16c.827 0 1.5.673 1.5 1.5v3.159l-4 1.119V10h4v1Z"/>
</svg>
