<svg xmlns="http://www.w3.org/2000/svg" viewBox="0 0 24 24">
  <path d="m6 3.885-4.402-.88a.513.513 0 0 0-.415.102.503.503 0 0 0-.183.388v8.003a.5.5 0 0 0 .598.491L6 11.108V3.885Zm11.5 10.114c-.09 0-.18-.008-.269-.024l-1.597-.29-.171.814h-.873l.327-1.963 2.493.454a.529.529 0 0 0 .09.008c3.032 0 5.5-2.468 5.5-5.502 0-3.028-2.459-5.493-5.574-5.493h-.016L7 3.896v7.2l6.934 1.261-.427 2.56A.499.499 0 0 0 14 15.5h1.252l-.105.5H18.5a.5.5 0 0 1 0 1.001h-3.564l-.21 1H18a.5.5 0 0 1 0 1h-3.484l-.093.442c-.142.671 0 1.31.397 1.8.398.49.994.761 1.68.761h2.274a2.515 2.515 0 0 0 2.473-2.134l1.21-8.177A6.479 6.479 0 0 1 17.5 14Zm.5-9.504c1.654 0 3 1.348 3 3.001a3.004 3.004 0 0 1-3 3.001c-1.654 0-3-1.346-3-3a3.005 3.005 0 0 1 3-3.002Z"/>
</svg>
