<svg xmlns="http://www.w3.org/2000/svg" viewBox="0 0 24 24">
  <path fill-rule="evenodd" d="M14 15.999h-1v1h1v2h-4v-5.5a.5.5 0 0 1 .5-.5h3a.5.5 0 0 1 .5.5v2.5Zm-7 3.21V8.643L2.076.765a.5.5 0 0 1 .848-.53L7.777 8h8.446L21.076.235a.5.5 0 0 1 .848.53L17 8.643v10.566l2.5 1.429v-7.063a.6.6 0 0 1 .435-.577l3.3-.943a.6.6 0 0 1 .742.412l.023.165v10.695l-.007.09a.5.5 0 0 1-.741.516l-6.885-3.934H7.633L.748 23.933a.5.5 0 0 1-.682-.186c-.059-.104-.077-.221-.059-.33L0 23.327V12.15a.6.6 0 0 1 .836-.551l3.3 1.414a.6.6 0 0 1 .364.55v7.073l2.5-1.43v.002Zm1-10.21v10h8v-10H8Zm12 8v1h1v-1h-1Zm-17 0v1h1v-1H3Z" clip-rule="evenodd"/>
</svg>
