<svg xmlns="http://www.w3.org/2000/svg" viewBox="0 0 24 24">
  <path d="M5.54 7.017a.5.5 0 0 0 .5-.5C6.04 2.727 9.148 1 12.036 1c2.892 0 6.004 1.727 6.004 5.517a.5.5 0 0 0 1 0C19.04 2.325 15.683 0 12.036 0 8.56 0 5.04 2.239 5.04 6.517a.5.5 0 0 0 .5.5Z"/>
  <path d="M22.997 17.56 21.032 6.43c-.106-.603-.992-.516-.992.087 0 .827-.673 1.5-1.5 1.5h-13c-.827 0-1.5-.673-1.5-1.5 0-.605-.887-.688-.992-.087L1.083 17.56C.485 20.946 3.109 24.036 6.5 24h11.08c3.398.036 6.014-3.06 5.417-6.44Zm-3.957-6.543h-12v1.5a.5.5 0 0 1-1 0v-1.5h-.5a.5.5 0 0 1-.5-.5c0-.277.224-.5.5-.517h13.5c.276.017.5.24.5.517a.5.5 0 0 1-.5.5Z"/>
</svg>
