<svg xmlns="http://www.w3.org/2000/svg" viewBox="0 0 24 24">
  <path d="M16.5 3C17.879 3 19 1.878 19 .5a.5.5 0 0 0-.5-.5h-13a.5.5 0 0 0-.5.5C5 1.878 6.121 3 7.5 3h4v2h-2a.5.5 0 0 0-.5.5V6h6v-.5a.5.5 0 0 0-.5-.5h-2V3h4Z"/>
  <path fill-rule="evenodd" d="M7.5 7a.5.5 0 0 0-.5.5v11a.5.5 0 0 0 .5.5h1.035A3.998 3.998 0 0 0 12 21a3.999 3.999 0 0 0 3.465-2H16.5a.501.501 0 0 0 .5-.5v-11a.5.5 0 0 0-.5-.5h-9Zm2.264 12c.55.614 1.348 1 2.236 1 .888 0 1.687-.386 2.236-1H9.764Z" clip-rule="evenodd"/>
  <path d="M7.5 22.794a.5.5 0 0 1-.183-.683l.5-.866a.5.5 0 0 1 .866.5l-.5.866a.5.5 0 0 1-.683.183Zm9 0a.5.5 0 0 1-.683-.183l-.5-.866a.5.5 0 1 1 .866-.5l.5.866a.5.5 0 0 1-.183.683Zm-5 .706a.5.5 0 1 0 1 0v-1a.5.5 0 0 0-1 0v1Z"/>
</svg>
