<svg xmlns="http://www.w3.org/2000/svg" viewBox="0 0 24 24">
  <path fill-rule="evenodd" d="M12 0a.5.5 0 0 1 .5.5V6h2a.5.5 0 0 1 .5.5v2.773l7.83 6.85a.5.5 0 0 1-.33.877h-7.035A3.998 3.998 0 0 1 12 19a3.998 3.998 0 0 1-3.465-2H1.5a.5.5 0 0 1-.33-.876L9 9.274V6.5a.5.5 0 0 1 .5-.5h2V.5A.5.5 0 0 1 12 0Zm0 18a2.993 2.993 0 0 1-2.236-1h4.472c-.55.614-1.348 1-2.236 1Z" clip-rule="evenodd"/>
  <path d="M12.004 21.5a.5.5 0 0 1 .5.5v1.5a.5.5 0 0 1-1 0V22a.5.5 0 0 1 .5-.5Zm3.933-.688.75 1.299a.5.5 0 0 1-.866.5l-.75-1.299a.5.5 0 0 1 .866-.5Zm3.678-1.995a.5.5 0 1 1-.5.866l-1.299-.75a.498.498 0 0 1-.183-.683.502.502 0 0 1 .683-.183l1.299.75ZM8.754 20.629a.5.5 0 0 1 .183.683l-.75 1.299a.5.5 0 0 1-.866-.5l.75-1.299a.502.502 0 0 1 .683-.183Zm-3.062-2.562a.5.5 0 0 1 .5.866l-1.299.75a.5.5 0 1 1-.5-.866l1.299-.75Z"/>
</svg>
