<svg xmlns="http://www.w3.org/2000/svg" viewBox="0 0 24 24">
  <path d="M15.5 8.757V8c0-1.762-1.314-3.21-3.01-3.45.002-.018.01-.032.01-.05v-4a.5.5 0 0 0-1 0v4c0 .018.008.032.01.05C9.814 4.79 8.5 6.238 8.5 8v.757a8.463 8.463 0 0 0-5 7.743.5.5 0 0 0 .5.5h4.56c.717 1.237 2.002 2 3.44 2a3.952 3.952 0 0 0 3.44-2H20a.5.5 0 0 0 .5-.5 8.463 8.463 0 0 0-5-7.743ZM12 18a2.959 2.959 0 0 1-2.227-1h4.453c-.558.631-1.357 1-2.226 1Zm0 3.5a.5.5 0 0 0-.5.5v1.5a.5.5 0 0 0 1 0V22a.5.5 0 0 0-.5-.5Zm3.933-.688a.5.5 0 0 0-.866.5l.75 1.299a.5.5 0 1 0 .866-.5l-.75-1.299Zm3.678-1.995-1.299-.75a.502.502 0 0 0-.683.183.498.498 0 0 0 .183.683l1.299.75a.5.5 0 1 0 .5-.866ZM8.75 20.629a.502.502 0 0 0-.683.183l-.75 1.299a.5.5 0 1 0 .866.5l.75-1.299a.5.5 0 0 0-.183-.683Zm-3.062-2.562-1.299.75a.5.5 0 0 0 .5.866l1.299-.75a.5.5 0 0 0-.5-.866Z"/>
</svg>
