<svg xmlns="http://www.w3.org/2000/svg" viewBox="0 0 24 24">
  <path fill-rule="evenodd" d="M5.272 1.5a.5.5 0 0 1 .354.146L6.97 2.992a.5.5 0 0 1 0 .707l-.319.32 1.305 1.304a9.085 9.085 0 0 1 8.086 0l1.305-1.305-.32-.319a.5.5 0 0 1 0-.707l1.346-1.346a.5.5 0 0 1 .707 0l4.71 4.71a.5.5 0 0 1 0 .707l-1.346 1.345a.5.5 0 0 1-.707 0l-.32-.319-1.304 1.305a9.063 9.063 0 1 1-16.228 0L2.581 8.09l-.319.32a.5.5 0 0 1-.707 0L.209 7.062a.5.5 0 0 1 0-.707l4.71-4.71a.5.5 0 0 1 .353-.146ZM20 13.5a8 8 0 1 1-16 0 8 8 0 0 1 16 0Z" clip-rule="evenodd"/>
  <path fill-rule="evenodd" d="M19 13.5a7 7 0 1 1-14 0 7 7 0 0 1 14 0Zm-9.707 1.184a2.91 2.91 0 0 0 5.818 0c0-2.347-1.69-4.56-4-5.09 1.32.97 1.245 2.851.727 3.635-.356-.29-.672-.61-.727-1.09-1.213.48-1.818 1.43-1.818 2.545Z" clip-rule="evenodd"/>
</svg>
