<svg xmlns="http://www.w3.org/2000/svg" viewBox="0 0 24 24">
  <path d="M7.5 2H3.516a.5.5 0 0 0 0 1H4v1.5a.5.5 0 0 0 .5.5h2a.5.5 0 0 0 .5-.5V3h.5a.5.5 0 0 0 0-1Zm13 0h-3.984a.5.5 0 0 0 0 1H17v1.5a.5.5 0 0 0 .5.5h2a.5.5 0 0 0 .5-.5V3h.5a.5.5 0 0 0 0-1Zm-2.677 8.102-5.431-6.891a.518.518 0 0 0-.785 0l-5.5 6.979A.499.499 0 0 0 6.5 11h11.02a.5.5 0 0 0 .303-.898ZM8 12v11.5a.5.5 0 0 0 .5.5H10v-5.5a.5.5 0 0 1 .5-.5h3a.5.5 0 0 1 .5.5V24h1.5a.5.5 0 0 0 .5-.5V12H8ZM7 24v-9H2v8.5a.5.5 0 0 0 .5.5H7Zm-1-3.5a.5.5 0 0 1-.5.5h-2a.5.5 0 0 1-.5-.5v-2a.5.5 0 0 1 .5-.5h2a.5.5 0 0 1 .5.5v2ZM17 15v9h4.5a.5.5 0 0 0 .5-.5V15h-5Zm4 5.5a.5.5 0 0 1-.5.5h-2a.5.5 0 0 1-.5-.5v-2a.5.5 0 0 1 .5-.5h2a.5.5 0 0 1 .5.5v2Z"/>
  <path d="M7 12h-.5a1.5 1.5 0 0 1-1.179-2.428L8.137 6H3.5a.5.5 0 0 0-.46.303l-3 7A.501.501 0 0 0 .5 14H7v-2Zm16.959 1.303-3-7A.498.498 0 0 0 20.5 6h-4.636l2.688 3.411A1.501 1.501 0 0 1 17.52 12H17v2h6.5a.501.501 0 0 0 .459-.697Z"/>
</svg>
