<svg xmlns="http://www.w3.org/2000/svg" viewBox="0 0 24 25">
  <path d="m9 11.713-6 6.706v6.044a.5.5 0 0 0 .5.5h11a.5.5 0 0 0 .5-.5v-6.044l-6-6.706Zm1.5 6.25a.5.5 0 0 1-.5.5H8a.5.5 0 0 1-.5-.5v-2a.5.5 0 0 1 .5-.5h2a.5.5 0 0 1 .5.5v2Z"/>
  <path d="M17.5 19.463a.5.5 0 0 1-.373-.166L9 10.213.873 19.297a.5.5 0 0 1-.746-.667l8.5-9.5a.517.517 0 0 1 .746 0l8.5 9.5a.5.5 0 0 1-.373.833Z"/>
  <path d="M22.995 7.334a.5.5 0 0 0-.807-.326c-.016.011-1.557 1.22-3.303 1.22-.289 0-.569-.034-.839-.101.061-1.028.359-4.009 1.816-6.372a.5.5 0 0 0-.426-.763c-2.173 0-5.391 1.241-7.017 3.318-.748.956-1.097 2.012-1.026 3.09-1.233-.542-2.51-2.484-2.955-3.304a.498.498 0 0 0-.804-.099c-.108.116-2.64 2.887-1.588 5.676 0 0 .065.14.183.37a.48.48 0 0 0 .118.136l1.535-1.716c.559-.625 1.677-.627 2.236 0l7.745 8.656c.313-.072.59-.148.818-.237 5.243-2.047 4.355-9.243 4.314-9.548Z"/>
</svg>
