<svg xmlns="http://www.w3.org/2000/svg" viewBox="0 0 24 24">
  <path d="M23.5 23H22V11.157l1.236.768a.503.503 0 0 0 .689-.162.5.5 0 0 0-.161-.688L21 9.35V4.5a.5.5 0 0 0-.5-.5h-2a.5.5 0 0 0-.5.5v2.989L9.264 2.075a.5.5 0 0 0-.528.85L10 3.709v5.452L.314 13.035a.5.5 0 0 0 .372.929L2 13.439V23H.5a.5.5 0 1 0 0 1h23a.5.5 0 0 0 0-1ZM9 22.5a.5.5 0 0 1-.5.5h-4a.5.5 0 0 1-.5-.5v-5a.5.5 0 0 1 .5-.5h4a.5.5 0 0 1 .5.5v5ZM8.5 15h-4a.5.5 0 0 1 0-1h4a.5.5 0 0 1 0 1Zm7.5 8h-4v-5.5a.5.5 0 0 1 .5-.5H16v6Zm-2-10.5c-1.104 0-2-.898-2-2 0-1.102.896-2 2-2 1.102 0 2 .898 2 2 0 1.102-.898 2-2 2ZM20 23h-3v-6h2.5a.5.5 0 0 1 .5.5V23Z"/>
</svg>
