<svg xmlns="http://www.w3.org/2000/svg" viewBox="0 0 24 24">
  <path d="M23.5 23.006H21v-10.5a.5.5 0 0 0-.5-.5h-17a.5.5 0 0 0-.5.5v10.5H.5a.5.5 0 0 0-.5.5c0 .277.224.494.5.494h23c.275 0 .5-.217.5-.494a.5.5 0 0 0-.5-.5ZM6 15.506c0-.277.224-.5.5-.506h3a.51.51 0 0 1 .5.506v5a.5.5 0 0 1-.5.5h-3a.5.5 0 0 1-.5-.5v-5Zm5 6.994a.5.5 0 0 1-.5.5h-5a.5.5 0 0 1-.5-.5v.006c0-.277.224-.5.5-.506h5a.51.51 0 0 1 .5.506V22.5Zm7-2.994a.5.5 0 0 1-.5.5h-5a.5.5 0 0 1-.5-.5v-4c0-.277.224-.5.5-.506h5a.51.51 0 0 1 .5.506v4ZM.5 11h23a.488.488 0 0 0 .475-.337.5.5 0 0 0-.178-.559L21 8.037V3.5a.5.5 0 0 0-.5-.5h-3a.5.5 0 0 0-.5.5v1.58l-4.703-3.476a.503.503 0 0 0-.595 0l-11.5 8.5a.502.502 0 0 0-.178.559A.49.49 0 0 0 .5 11Z"/>
</svg>
