<svg xmlns="http://www.w3.org/2000/svg" viewBox="0 0 24 24">
  <path d="m9 10.75-6 6.706V23.5a.5.5 0 0 0 .5.5h11a.5.5 0 0 0 .5-.5v-6.044L9 10.75Zm1 4.75a.5.5 0 0 1-.5.5h-1a.5.5 0 0 1-.5-.5v-1a.5.5 0 0 1 .5-.5h1a.5.5 0 0 1 .5.5v1Z"/>
  <path d="M17.127 18.334 9 9.25.873 18.334a.501.501 0 0 1-.746-.667l8.5-9.5a.517.517 0 0 1 .746 0l8.5 9.5a.501.501 0 0 1-.746.667ZM21.5 1h-11a.5.5 0 0 1 0-1h11a.5.5 0 0 1 0 1Zm1 2h-10a.5.5 0 0 1 0-1h10a.5.5 0 0 1 0 1Zm1 2h-9a.5.5 0 0 1 0-1h9a.5.5 0 0 1 0 1Zm-2 2h-10a.5.5 0 0 1 0-1h10a.5.5 0 0 1 0 1Zm-2 2h-7a.5.5 0 0 1 0-1h7a.5.5 0 0 1 0 1Zm2 2h-6a.5.5 0 0 1 0-1h6a.5.5 0 0 1 0 1Zm1 2h-5a.5.5 0 0 1 0-1h5a.5.5 0 0 1 0 1Zm-1 2h-2a.5.5 0 0 1 0-1h2a.5.5 0 0 1 0 1Zm-1 2h-1a.5.5 0 0 1 0-1h1a.5.5 0 0 1 0 1Z"/>
</svg>
