<svg xmlns="http://www.w3.org/2000/svg" viewBox="0 0 24 24">
  <path d="M17 9.586V3.529a.5.5 0 0 0-.25-.434L11.5.066a.502.502 0 0 0-.5 0l-4.75 3.03a.499.499 0 0 0-.25.433v6.057c0 .178.095.343.25.432L11 13.047a.505.505 0 0 0 .5 0l5.25-3.029a.498.498 0 0 0 .25-.432ZM5.5 10.945a.506.506 0 0 0-.5 0l-4.75 3.03a.501.501 0 0 0-.25.434v6.057a.5.5 0 0 0 .25.433L5 23.927a.506.506 0 0 0 .5 0l5.25-3.028a.5.5 0 0 0 .25-.433v-6.057a.5.5 0 0 0-.25-.434l-5.25-3.03Zm17.25 3.031-5.25-3.03a.506.506 0 0 0-.5 0l-4.75 3.03a.499.499 0 0 0-.25.433v6.057a.5.5 0 0 0 .25.433L17 23.927a.506.506 0 0 0 .5 0l5.25-3.028a.5.5 0 0 0 .25-.433v-6.057a.499.499 0 0 0-.25-.433Z"/>
</svg>
