<svg xmlns="http://www.w3.org/2000/svg" viewBox="0 0 24 24">
  <path d="M20 6.773V2.5a.5.5 0 0 0-.5-.5h-4.727L20 6.773Zm3.163 5.596L12 2.177.837 12.369a.498.498 0 0 1-.706-.033.497.497 0 0 1 .032-.705l11.5-10.5a.498.498 0 0 1 .674 0l11.5 10.5a.498.498 0 0 1 .032.705.498.498 0 0 1-.706.033Z"/>
  <path d="M12 18.507c0-3.584 2.916-6.5 6.5-6.5.886 0 1.73.179 2.5.502v-.761l-9-8.216-9 8.216V23.5a.5.5 0 0 0 .5.5h11.55A6.487 6.487 0 0 1 12 18.507ZM11 8.5v-1a.5.5 0 0 1 .5-.5h1a.5.5 0 0 1 .5.5v1a.5.5 0 0 1-.5.5h-1a.5.5 0 0 1-.5-.5Z"/>
  <path d="M18.5 13.007a5.506 5.506 0 0 0-5.5 5.5 5.5 5.5 0 0 0 11 0c0-3.033-2.468-5.5-5.5-5.5Zm2.5 6h-5a.5.5 0 0 1-.5-.5c0-.276.224-.5.5-.507h5c.275.007.5.23.5.507a.5.5 0 0 1-.5.5Z"/>
</svg>
