<svg xmlns="http://www.w3.org/2000/svg" viewBox="0 0 24 24">
  <path d="M20 6.773V2.5a.5.5 0 0 0-.5-.5h-4.727L20 6.773Zm3.163 5.596L12 2.177.837 12.369a.498.498 0 0 1-.706-.033.497.497 0 0 1 .032-.705l11.5-10.5a.498.498 0 0 1 .674 0l11.5 10.5a.498.498 0 0 1 .032.705.498.498 0 0 1-.706.033Z"/>
  <path d="m12.157 22.833 5.001-10.003a1.484 1.484 0 0 1 1.342-.806c.578 0 1.091.309 1.341.804L21 15.146v-3.398l-9-8.216-9 8.216V23.5a.5.5 0 0 0 .5.5h8.593a1.483 1.483 0 0 1 .064-1.167ZM11 8.5v-1a.5.5 0 0 1 .5-.5h1a.5.5 0 0 1 .5.5v1a.5.5 0 0 1-.5.5h-1a.5.5 0 0 1-.5-.5Z"/>
  <path d="m23.947 23.276-5-10c-.17-.338-.725-.338-.895 0l-5 10A.501.501 0 0 0 13.5 24h10a.5.5 0 0 0 .447-.724ZM18.5 22a.5.5 0 1 1 0-1 .5.5 0 0 1 0 1Zm.5-2a.5.5 0 0 1-1 0v-3a.5.5 0 0 1 1 0v3Z"/>
</svg>
