<svg xmlns="http://www.w3.org/2000/svg" viewBox="0 0 24 24">
  <path d="M20 6.773V2.5a.5.5 0 0 0-.5-.5h-4.727L20 6.773Zm3.163 5.596L12 2.177.837 12.369a.498.498 0 0 1-.706-.033.497.497 0 0 1 .032-.705l11.5-10.5a.498.498 0 0 1 .674 0l11.5 10.5a.498.498 0 0 1 .032.705.498.498 0 0 1-.706.033Z"/>
  <path d="M12 18.5c0-3.584 2.916-6.5 6.5-6.5.886 0 1.73.179 2.5.502v-.754l-9-8.216-9 8.216V23.5a.5.5 0 0 0 .5.5h11.552A6.494 6.494 0 0 1 12 18.5Zm-1-10v-1a.5.5 0 0 1 .5-.5h1a.5.5 0 0 1 .5.5v1a.5.5 0 0 1-.5.5h-1a.5.5 0 0 1-.5-.5Z"/>
  <path d="M18.5 13a5.5 5.5 0 1 0 .001 11.001A5.5 5.5 0 0 0 18.5 13Zm2.854 4.354-3 3a.5.5 0 0 1-.707 0l-2-2a.5.5 0 0 1 .707-.707L18 19.293l2.646-2.646a.5.5 0 0 1 .708.707Z"/>
</svg>
