<svg xmlns="http://www.w3.org/2000/svg" viewBox="0 0 24 24">
  <path d="M20 6.773V2.5a.5.5 0 0 0-.5-.5h-4.727L20 6.773Zm3.163 5.596L12 2.177.837 12.369a.497.497 0 0 1-.706-.033.497.497 0 0 1 .032-.705l11.5-10.5a.498.498 0 0 1 .674 0l11.5 10.5a.498.498 0 0 1 .032.705.498.498 0 0 1-.706.033Z"/>
  <path d="M19.004 21.498h-.006a4 4 0 0 1-3.7-2.5H15v1.382a1.5 1.5 0 0 1-2.058 1.39A1.496 1.496 0 0 1 10 21.38v-2.382a1.5 1.5 0 1 1 0-3h5.298a3.997 3.997 0 0 1 3.697-2.498c.734 0 1.413.211 2.005.558v-2.31l-9-8.216-9 8.216V23.5a.5.5 0 0 0 .5.5h17a.5.5 0 0 0 .5-.5v-2.555a3.963 3.963 0 0 1-1.996.553ZM11 7.5a.5.5 0 0 1 .5-.5h1a.5.5 0 0 1 .5.5v1a.5.5 0 0 1-.5.5h-1a.5.5 0 0 1-.5-.5v-1Z"/>
  <path d="M18.995 14.5A2.994 2.994 0 0 0 16.05 17H10a.5.5 0 1 0 0 .998h1v3.382a.5.5 0 1 0 1 0v-3.382h1v2.382a.5.5 0 1 0 1 0v-2.382h2.05a2.996 2.996 0 0 0 2.949 2.5h.005c.8 0 1.553-.312 2.119-.878A2.98 2.98 0 0 0 22 17.5c0-1.654-1.344-3-3.005-3Zm1.42 4.411a1.979 1.979 0 0 1-1.411.587H19c-1.103 0-2-.896-2-2a2 2 0 1 1 3.416 1.413Z"/>
</svg>
