<svg xmlns="http://www.w3.org/2000/svg" viewBox="0 0 24 24">
  <path d="M20 6.773V2.5a.5.5 0 0 0-.5-.5h-4.727L20 6.773Zm3.163 5.596L12 2.177.837 12.369a.497.497 0 0 1-.706-.033.497.497 0 0 1 .032-.705l11.5-10.5a.498.498 0 0 1 .674 0l11.5 10.5a.498.498 0 0 1 .032.705.498.498 0 0 1-.706.033Z"/>
  <path d="M12.5 16.5c0-3.033 2.467-5.5 5.5-5.5 1.106 0 2.136.332 3 .896v-.148l-9-8.216-9 8.216V23.5a.5.5 0 0 0 .5.5h12.97c-1.284-1.593-3.97-5.203-3.97-7.5Zm-1.5-8v-1a.5.5 0 0 1 .5-.5h1a.5.5 0 0 1 .5.5v1a.5.5 0 0 1-.5.5h-1a.5.5 0 0 1-.5-.5Z"/>
  <path d="M18 12a4.505 4.505 0 0 0-4.5 4.5c0 2.323 3.694 6.815 4.116 7.321a.503.503 0 0 0 .768 0c.42-.505 4.116-4.998 4.116-7.321 0-2.481-2.02-4.5-4.5-4.5Zm0 6.5c-1.103 0-2-.896-2-2s.897-2 2-2 2 .896 2 2-.897 2-2 2Z"/>
</svg>
