<svg xmlns="http://www.w3.org/2000/svg" viewBox="0 0 24 24">
  <path d="M23.163 12.369 12 2.177.837 12.369a.497.497 0 0 1-.706-.033.497.497 0 0 1 .032-.705l11.5-10.5a.498.498 0 0 1 .674 0l11.5 10.5a.498.498 0 0 1 .032.705.498.498 0 0 1-.706.033ZM20 6.773V2.5a.5.5 0 0 0-.5-.5h-4.727L20 6.773Z"/>
  <path fill-rule="evenodd" d="M21 11.748v.787a4 4 0 0 0-5.422 5.536A5.992 5.992 0 0 0 13 23v.5c0 .175.03.344.085.5H3.493A.5.5 0 0 1 3 23.5V11.748l9-8.216 9 8.216ZM11 7.5v1a.5.5 0 0 0 .5.5h1a.5.5 0 0 0 .5-.5v-1a.5.5 0 0 0-.5-.5h-1a.5.5 0 0 0-.5.5Z" clip-rule="evenodd"/>
  <path d="M20.857 18.356a3 3 0 1 0-3.714 0A5.002 5.002 0 0 0 14 23v.5a.5.5 0 0 0 .5.5h9a.5.5 0 0 0 .5-.5V23a5.002 5.002 0 0 0-3.143-4.644Z"/>
</svg>
