<svg xmlns="http://www.w3.org/2000/svg" viewBox="0 0 24 24">
  <path d="M20 6.773V2.5a.5.5 0 0 0-.5-.5h-4.727L20 6.773Zm3.163 5.596L12 2.177.837 12.369a.498.498 0 0 1-.706-.033.497.497 0 0 1 .032-.705l11.5-10.5a.498.498 0 0 1 .674 0l11.5 10.5a.498.498 0 0 1 .032.705.498.498 0 0 1-.706.033Z"/>
  <path d="M12 18.5c0-3.584 2.916-6.5 6.5-6.5.886 0 1.73.179 2.5.502v-.754l-9-8.216-9 8.216V23.5a.5.5 0 0 0 .5.5h11.552A6.494 6.494 0 0 1 12 18.5Zm-1-10v-1a.5.5 0 0 1 .5-.5h1a.5.5 0 0 1 .5.5v1a.5.5 0 0 1-.5.5h-1a.5.5 0 0 1-.5-.5Z"/>
  <path d="m21.293 16.414-4.88 4.879A3.471 3.471 0 0 0 18.5 22c1.93 0 3.5-1.57 3.5-3.5 0-.785-.27-1.502-.707-2.086Z"/>
  <path d="M18.5 13a5.5 5.5 0 1 0 .001 11.001A5.5 5.5 0 0 0 18.5 13Zm0 10a4.505 4.505 0 0 1-4.5-4.5c0-2.481 2.019-4.5 4.5-4.5 2.48 0 4.5 2.019 4.5 4.5 0 2.482-2.02 4.5-4.5 4.5Z"/>
  <path d="M18.5 15c-1.93 0-3.5 1.57-3.5 3.5 0 .785.269 1.502.707 2.086l4.879-4.879A3.465 3.465 0 0 0 18.5 15Z"/>
</svg>
