<svg xmlns="http://www.w3.org/2000/svg" viewBox="0 0 24 24">
  <path d="M20 6.773V2.5a.5.5 0 0 0-.5-.5h-4.727L20 6.773Zm3.163 5.596L12 2.177.837 12.369a.498.498 0 0 1-.706-.033.497.497 0 0 1 .032-.705l11.5-10.5a.498.498 0 0 1 .674 0l11.5 10.5a.498.498 0 0 1 .032.705.498.498 0 0 1-.706.033Z"/>
  <path d="M16 23.33c-.935.543-1.818.199-2.198-.469l-.999-1.728c-.398-.696-.25-1.589.695-2.134-.967-.562-1.087-1.457-.694-2.134l.999-1.732c.384-.66 1.258-1.004 2.196-.463 0-1.078.696-1.67 1.5-1.67h2c.827 0 1.5.673 1.5 1.5v-2.752l-9-8.216-9 8.216V23.5c.001.276.225.5.501.5h12.592c-.098-.275-.092-.407-.092-.67ZM11.5 9a.5.5 0 0 1-.5-.5v-1a.5.5 0 0 1 .5-.5h1a.5.5 0 0 1 .5.5v1a.5.5 0 0 1-.5.5h-1Z"/>
  <path d="m23.147 19.951-.702-.406c.073-.541.073-.547 0-1.092l.702-.404a.503.503 0 0 0 .183-.684l-1.001-1.732a.5.5 0 0 0-.683-.184l-.702.406a3.952 3.952 0 0 0-.944-.559V14.5a.5.5 0 0 0-.5-.5h-2a.5.5 0 0 0-.5.5v.797c-.344.14-.656.334-.945.559l-.701-.404a.5.5 0 0 0-.684.182l-1 1.732a.5.5 0 0 0 .184.684l.701.405c-.073.54-.074.548 0 1.09l-.702.405a.503.503 0 0 0-.184.684l1.001 1.732a.502.502 0 0 0 .684.184l.7-.405c.289.226.602.42.946.559v.796a.5.5 0 0 0 .5.5h2a.5.5 0 0 0 .5-.5v-.797c.345-.14.657-.334.946-.559l.701.404a.5.5 0 0 0 .683-.184l1-1.732a.496.496 0 0 0-.183-.681ZM18.5 21a2 2 0 1 1 .001-4.001A2 2 0 0 1 18.5 21Z"/>
</svg>
