<svg xmlns="http://www.w3.org/2000/svg" viewBox="0 0 24 24">
  <path fill-rule="evenodd" d="M12.405.207 12.4.198a.5.5 0 0 0-.798 0l-.006.009-.018.023-.068.091-.256.346a90.122 90.122 0 0 0-3.677 5.41c-1.005 1.608-2.017 3.365-2.78 5.004C4.044 12.703 3.5 14.279 3.5 15.5a8.5 8.5 0 0 0 17 0c0-1.222-.543-2.798-1.297-4.418-.762-1.64-1.774-3.397-2.78-5.004A90.057 90.057 0 0 0 12.492.321l-.068-.09-.018-.024Zm2.28 11.538a.5.5 0 1 0-.87-.49l-4.5 8a.5.5 0 1 0 .87.49l4.5-8Zm-1.146 4.04C13.882 15.33 14.393 15 15 15c.607 0 1.118.33 1.46.786.343.456.54 1.064.54 1.714 0 .65-.197 1.258-.54 1.714-.342.457-.853.786-1.46.786s-1.118-.33-1.46-.786c-.343-.456-.54-1.064-.54-1.714 0-.65.197-1.258.54-1.714Zm-6-4C7.882 11.33 8.393 11 9 11c.607 0 1.118.33 1.46.786.343.456.54 1.064.54 1.714 0 .65-.197 1.258-.54 1.714-.342.457-.853.786-1.46.786s-1.118-.33-1.46-.786C7.196 14.758 7 14.15 7 13.5c0-.65.197-1.258.54-1.714Z" clip-rule="evenodd"/>
  <path d="M8 13.5c0-.455.139-.847.34-1.114.2-.267.438-.386.66-.386.222 0 .46.119.66.386.201.267.34.66.34 1.114 0 .455-.139.847-.34 1.114-.2.267-.438.386-.66.386-.222 0-.46-.119-.66-.386-.201-.267-.34-.66-.34-1.114Zm6 4c0-.455.139-.847.34-1.114.2-.267.438-.386.66-.386.222 0 .46.119.66.386.201.267.34.66.34 1.114 0 .455-.139.847-.34 1.114-.2.267-.438.386-.66.386-.222 0-.46-.119-.66-.386-.201-.267-.34-.66-.34-1.114Z"/>
</svg>
