<svg xmlns="http://www.w3.org/2000/svg" viewBox="0 0 24 24">
  <path d="M20.5.5A.5.5 0 0 0 20 0H.5a.5.5 0 0 0 0 1H20a.5.5 0 0 0 .5-.5Zm-17 3A.5.5 0 0 0 4 4h18a.5.5 0 1 0 0-1H4a.5.5 0 0 0-.5.5Zm3 2.5a.5.5 0 0 0 0 1h13a.5.5 0 1 0 0-1h-13Zm11 3.5A.5.5 0 0 0 17 9H3a.5.5 0 0 0 0 1h14a.5.5 0 0 0 .5-.5Zm1.5 3a.5.5 0 0 0-.5-.5h-11a.5.5 0 0 0 0 1h11a.5.5 0 0 0 .5-.5Zm2 3a.5.5 0 0 0-.5-.5h-9a.5.5 0 0 0 0 1h9a.5.5 0 0 0 .5-.5Zm1 2.5h-7a.5.5 0 0 0 0 1h7a.5.5 0 1 0 0-1Zm-2 3h-3.5a.5.5 0 0 0 0 1H20a.5.5 0 1 0 0-1Zm-3.5 2h-2a.5.5 0 0 0 0 1h2a.5.5 0 1 0 0-1Z"/>
</svg>
