<svg xmlns="http://www.w3.org/2000/svg" viewBox="0 0 24 24">
  <path d="M0 14.5a.5.5 0 0 1 .5-.5h22a.5.5 0 0 1 0 1H.5a.5.5 0 0 1-.5-.5Zm5.387 2.646a.5.5 0 0 1 .707 0c1.11 1.11.56 2.475.117 3.572-.453 1.125-.702 1.844-.117 2.429a.5.5 0 0 1-.707.706c-1.082-1.083-.54-2.428-.103-3.51.462-1.146.714-1.879.103-2.49a.5.5 0 0 1 0-.707Zm6 0a.5.5 0 0 1 .707 0c1.11 1.11.56 2.475.117 3.572-.453 1.125-.702 1.844-.117 2.429a.5.5 0 0 1-.707.706c-1.082-1.083-.54-2.428-.103-3.51.462-1.146.714-1.879.103-2.49a.5.5 0 0 1 0-.707Zm7.207 0a.5.5 0 0 0-.707.707c.61.611.359 1.344-.103 2.49-.437 1.082-.98 2.427.103 3.51a.498.498 0 1 0 .707-.706c-.585-.585-.336-1.304.117-2.429.443-1.097.993-2.462-.117-3.572Z"/>
  <path fill-rule="evenodd" d="M18.243 0A19.5 19.5 0 0 0 .8 10.78l-.748 1.496A.5.5 0 0 0 .5 13h22a.5.5 0 0 0 .474-.342l1-3a.5.5 0 0 0-.017-.361L21.603 4h.897a.5.5 0 0 0 0-1h-1.342L19.957.297A.5.5 0 0 0 19.5 0h-1.257ZM5.5 10a.5.5 0 0 0 0 1h15a.5.5 0 0 0 0-1h-15Zm11.924-7.5a7.5 7.5 0 0 0-5.92 2.895l-1.399 1.798A.5.5 0 0 0 10.5 8h9a.5.5 0 0 0 .457-.703l-2-4.5A.5.5 0 0 0 17.5 2.5h-.076Z" clip-rule="evenodd"/>
</svg>
