<svg xmlns="http://www.w3.org/2000/svg" viewBox="0 0 24 24">
  <path d="m23.373 7.655-2.146-2.147 1.146-1.146a1.92 1.92 0 0 0 0-2.708 1.919 1.919 0 0 0-2.707.001l-11 11c-2.246-1.116-5.04-.767-6.909 1.102a6.008 6.008 0 0 0 0 8.486 6.009 6.009 0 0 0 8.485 0c1.86-1.858 2.215-4.633 1.122-6.873l4.655-4.654 1.646 1.646a.5.5 0 0 0 .707 0l1.5-1.5a.5.5 0 0 0 0-.707l-1.646-1.647.793-.793 2.146 2.147a.5.5 0 0 0 .707 0l1.5-1.5a.5.5 0 0 0 .001-.707ZM8.123 20.122a3.001 3.001 0 0 1-4.244-4.243 3 3 0 1 1 4.243 4.243Z"/>
</svg>
