<svg xmlns="http://www.w3.org/2000/svg" viewBox="0 0 24 24">
  <path d="M16.692 13.278a.5.5 0 0 1-.083-.597 5.015 5.015 0 0 0-.827-5.97 4.998 4.998 0 0 0-1.658-1.094A6.953 6.953 0 0 1 15 9c0 2.599-1.467 4.942-3.692 6.145a5.025 5.025 0 0 0 3.374-.535.502.502 0 0 1 .576.061l1.075.954A.506.506 0 0 1 16.5 16v1h1a.5.5 0 0 1 .362.155l.5.524a.5.5 0 0 1 .138.345V19h.817c.127 0 .25.049.343.136l.917.864H22v-1.414l-5.308-5.308ZM8 7.5a.5.5 0 0 0 .5-.5V2.5c0-.827.673-1.5 1.5-1.5s1.5.673 1.5 1.5v.462c.354.206.689.44 1 .703V2.5C12.5 1.122 11.378 0 10 0a2.503 2.503 0 0 0-2.5 2.5V7a.5.5 0 0 0 .5.5Z"/>
  <path d="M9.5 3.197V7a1.5 1.5 0 1 1-3 0V3.197C3.916 3.867 2 6.21 2 9a6.022 6.022 0 0 0 4 5.652v.641l-.853.853a.5.5 0 0 0 0 .707l.853.854v.586l-.853.854a.5.5 0 0 0 0 .707l.853.853V22c0 .133.053.261.147.354l1.5 1.5a.5.5 0 0 0 .707 0l1.5-1.5A.502.502 0 0 0 10 22v-7.348c2.373-.84 4-3.112 4-5.652 0-2.79-1.916-5.133-4.5-5.803Z"/>
</svg>
