<svg xmlns="http://www.w3.org/2000/svg" viewBox="0 0 24 24">
  <path fill-rule="evenodd" d="M19 14.874c-.012-6.047-.583-13.008-2.241-14.532A1.015 1.015 0 0 0 16 0c-.553 0-1 .431-1 .96v21.122c0 .529.447.96 1 .96.552 0 1-.431 1-.96v-6.728h1.51c.276 0 .5-.119.5-.382l-.01-.098ZM11 0c-.553 0-1 .431-1 .96v4.32c0 .708-.405 1.32-1 1.654V.96C9 .431 8.552 0 8 0c-.553 0-1 .431-1 .96v5.974C6.404 6.6 6 5.988 6 5.28V.96C6 .431 5.552 0 5 0c-.553 0-1 .431-1 .96v4.32c0 1.786 1.277 3.286 3 3.714v13.088c0 .529.447.96 1 .96.552 0 1-.431 1-.96V8.994c1.722-.428 3-1.928 3-3.714V.96c0-.529-.448-.96-1-.96Z" clip-rule="evenodd"/>
</svg>
