<svg xmlns="http://www.w3.org/2000/svg" viewBox="0 0 24 24">
  <path d="M17.891 16 13.985.379A.5.5 0 0 0 13.5 0h-4a.5.5 0 0 0-.485.379L5.109 16h12.782ZM15 13a1 1 0 1 1-2 0 1 1 0 0 1 2 0Zm-2-7a1.001 1.001 0 0 1 0 2 1 1 0 0 1 0-2Zm-2-3a1.001 1.001 0 0 1 0 2 1 1 0 0 1 0-2Zm0 5c1.102 0 2 .898 2 2 0 1.102-.898 2-2 2-1.102 0-2-.898-2-2 0-1.102.898-2 2-2Zm-2 5a1.001 1.001 0 0 1 0 2 1 1 0 0 1 0-2Zm7.001 6.856c.022-.947.603-1.907 1.698-2.856H5.308c1.16 1.021 1.755 2.03 1.755 3 0 1.008-.635 2.058-1.886 3.119A.499.499 0 0 0 5.5 24h12a.499.499 0 0 0 .338-.868c-1.243-1.14-1.861-2.242-1.837-3.276Z"/>
</svg>
