<svg xmlns="http://www.w3.org/2000/svg" viewBox="0 0 24 24">
  <path d="M23.5 23H12V2.994h1.58l2.717 2.787-1.137 1.137a.499.499 0 0 0-.106.551l2.121 4.949a.497.497 0 0 0 .46.303.5.5 0 0 0 .354-.146l5.656-5.657a.502.502 0 0 0-.156-.813L18.54 3.983a.498.498 0 0 0-.55.107l-.985.983-2.859-2.923A.5.5 0 0 0 13.79 2H12V1a.5.5 0 1 0-1 0v4H8.852c-.154 0-.3.071-.395.194L6.532 7.67 5.47 6.836a.497.497 0 0 0-.559-.04L.251 9.493a.499.499 0 0 0-.06.826l6.291 4.942a.499.499 0 0 0 .788-.253L8.786 9.84a.497.497 0 0 0-.17-.533l-1.298-1.02 1.778-2.294H11V23H.5a.5.5 0 0 0-.5.5c0 .276.224.5.5.494h23c.276.006.5-.218.5-.494a.5.5 0 0 0-.5-.5Z"/>
</svg>
