<svg xmlns="http://www.w3.org/2000/svg" viewBox="0 0 24 24">
  <path d="M13.5 17c4.687 0 8.5-3.813 8.5-8.5C22 3.813 18.187 0 13.5 0h-4A2.503 2.503 0 0 0 7 2.5v.526c-2.799.253-5 2.61-5 5.474a.5.5 0 0 0 .5.5h10a.5.5 0 0 0 .5-.5 5.504 5.504 0 0 0-5-5.474V2.5C8 1.673 8.673 1 9.5 1h4C17.636 1 21 4.365 21 8.5c0 4.136-3.364 7.5-7.5 7.5h-2a.5.5 0 0 0-.5.5V19H9.5C7.57 19 6 20.57 6 22.5v1a.5.5 0 0 0 .5.5h10a.5.5 0 0 0 .5-.5v-1c0-1.93-1.57-3.5-3.5-3.5H12v-2h1.5Z"/>
  <path d="M7.5 12a.5.5 0 0 0 .5-.5v-1a.5.5 0 0 0-1 0v1a.5.5 0 0 0 .5.5Zm3.724-.553a.5.5 0 0 0 .224-.671l-.5-1a.5.5 0 1 0-.895.447l.5 1a.5.5 0 0 0 .671.224Zm-6.5-1.894a.502.502 0 0 0-.671.223l-.5 1a.5.5 0 0 0 .895.447l.5-1a.5.5 0 0 0-.224-.67Z"/>
</svg>
