<svg xmlns="http://www.w3.org/2000/svg" viewBox="0 0 24 24">
  <path fill-rule="evenodd" d="M7 17a1 1 0 0 0-1-1H4v2h2a1 1 0 0 0 1-1Zm-3 4h2a1 1 0 0 0 0-2H4v2Zm4.5-8h-6A2.502 2.502 0 0 0 0 15.5v6C0 22.879 1.121 24 2.5 24h6c1.379 0 2.5-1.121 2.5-2.5v-6c0-1.379-1.121-2.5-2.5-2.5ZM8 20c0 1.103-.898 2-2 2H3.5a.5.5 0 0 1-.5-.5v-6a.5.5 0 0 1 .5-.5H6c1.102 0 2 .898 2 2 0 .6-.272 1.133-.691 1.5.419.367.691.9.691 1.5Zm6.5-19h-6A2.502 2.502 0 0 0 6 3.5v6C6 10.879 7.121 12 8.5 12h6c1.379 0 2.5-1.121 2.5-2.5v-6C17 2.121 15.879 1 14.5 1Zm-.311 8.947L14 9.984a.5.5 0 0 1-.463-.311L12.852 8h-2.659l-.734 1.683a.501.501 0 0 1-.918-.397l2.578-5.969a.52.52 0 0 1 .465-.302.498.498 0 0 1 .457.312l1.607 3.961.001.003.814 2.005a.499.499 0 0 1-.274.651Zm-3.565-2.963h1.822l-.882-2.174-.94 2.174ZM21.5 13h-6a2.502 2.502 0 0 0-2.5 2.5v6c0 1.379 1.121 2.5 2.5 2.5h6c1.379 0 2.5-1.121 2.5-2.5v-6c0-1.379-1.121-2.5-2.5-2.5Zm-.086 7.975A3.477 3.477 0 0 1 18.94 22c-1.93 0-3.5-1.57-3.5-3.5s1.57-3.5 3.5-3.5c.888 0 1.733.333 2.384.938a.5.5 0 0 1-.682.732A2.491 2.491 0 0 0 18.94 16a2.502 2.502 0 0 0-2.5 2.5c0 1.379 1.121 2.5 2.5 2.5.668 0 1.295-.26 1.767-.732a.5.5 0 0 1 .707.707Z" clip-rule="evenodd"/>
</svg>
