<svg xmlns="http://www.w3.org/2000/svg" viewBox="0 0 24 24">
  <path d="M11.5 0C6.084 0 2 4.298 2 10c0 7.173 8.831 13.634 9.207 13.905a.495.495 0 0 0 .586 0C12.168 23.634 21 17.173 21 10c0-5.702-4.084-10-9.5-10Zm.864 3.051a6 6 0 0 1 4.916 3.951h-2.969c-.31-1.363-.99-2.652-2.052-3.805.035-.049.07-.095.105-.146Zm1.044 6.951H9.852A6.999 6.999 0 0 1 9.779 8h3.702a7 7 0 0 1-.073 2.002Zm-1.781-6.004c.823.93 1.377 1.941 1.663 3.004H9.971c.285-1.06.838-2.071 1.656-3.004Zm-.747-.95c.037.053.074.102.111.153-1.055 1.155-1.733 2.443-2.043 3.801h-3.02c.704-2.129 2.581-3.678 4.952-3.954ZM5.625 8.882c0-.3.028-.592.07-.882H8.78a8.125 8.125 0 0 0 .073 2.002H5.73a6.254 6.254 0 0 1-.105-1.12Zm5.256 6.069C8.631 14.67 6.767 13.108 6.003 11h3.061c.351 1.271.994 2.551 1.928 3.8l-.111.151Zm.747-.982c-.709-.988-1.218-1.982-1.527-2.969h3.058c-.311.987-.821 1.982-1.531 2.969Zm.734.98a3.767 3.767 0 0 0-.104-.144l.008-.011c.935-1.246 1.577-2.524 1.928-3.794h3.074a6.018 6.018 0 0 1-4.906 3.949Zm5.169-4.947h-3.126A8.126 8.126 0 0 0 14.479 8h3.059c.054.321.088.646.088.98a6.05 6.05 0 0 1-.095 1.022Z"/>
</svg>
