<svg xmlns="http://www.w3.org/2000/svg" viewBox="0 0 24 25">
  <path d="M11.5.006c-5.416 0-9.5 4.298-9.5 10 0 7.173 8.831 13.634 9.207 13.905a.495.495 0 0 0 .586 0C12.168 23.64 21 17.179 21 10.006c0-5.701-4.084-10-9.5-10Zm0 15.5a1.001 1.001 0 0 1 0-2 1.001 1.001 0 0 1 0 2Zm.5-4v.784a.5.5 0 0 1-1 0v-1.249a.5.5 0 0 1 .5-.5c1.378 0 2.5-1.108 2.5-2.469 0-1.361-1.122-2.469-2.5-2.469-1.356 0-2.5 1.173-2.5 2.561a.5.5 0 0 1-1 .001c0-1.964 1.57-3.561 3.5-3.561S15 6.159 15 8.073c0 1.744-1.307 3.192-3 3.433Z"/>
</svg>
