<svg xmlns="http://www.w3.org/2000/svg" viewBox="0 0 24 24">
  <path d="M20.5 14h-17a.5.5 0 0 0-.5.5v9a.5.5 0 0 0 .5.5h4.247L12 20.173 16.253 24H20.5a.5.5 0 0 0 .5-.5v-9a.5.5 0 0 0-.5-.5ZM7 23.327v-7.654l4.253 3.827L7 23.327ZM7.747 15h8.506L12 18.827 7.747 15ZM17 23.327 12.747 19.5 17 15.673v7.654Zm6.931-11.08-5-8.5a.502.502 0 0 0-.222-.201l-6.5-3a.503.503 0 0 0-.419 0l-6.5 3a.502.502 0 0 0-.222.201l-5 8.5A.5.5 0 0 0 .5 13h23a.5.5 0 0 0 .431-.753ZM15.001 9.5a.5.5 0 0 1-.5.5h-5a.5.5 0 0 1-.5-.5v-3a.5.5 0 0 1 .313-.464l2.5-1a.506.506 0 0 1 .371 0l2.5 1A.5.5 0 0 1 15 6.5v3Z"/>
</svg>
