<svg xmlns="http://www.w3.org/2000/svg" viewBox="0 0 24 24">
  <path d="M1.5 0a.5.5 0 0 0-.5.5v23a.5.5 0 0 0 .5.5H8V0H1.5Zm1 11a.5.5 0 1 1 0-1 .5.5 0 0 1 0 1Zm3 10h-2a.5.5 0 0 1 0-1h2a.5.5 0 0 1 0 1Zm0-2h-2a.5.5 0 0 1 0-1h2a.5.5 0 0 1 0 1Zm0-12h-2a.5.5 0 0 1 0-1h2a.5.5 0 0 1 0 1Zm0-2h-2a.5.5 0 0 1 0-1h2a.5.5 0 0 1 0 1Zm0-2h-2a.5.5 0 0 1 0-1h2a.5.5 0 0 1 0 1ZM9 0v24h6V0H9Zm1 10.5a.5.5 0 1 1 1 0 .5.5 0 0 1-1 0ZM13 21h-2a.5.5 0 0 1 0-1h2a.5.5 0 0 1 0 1Zm0-2h-2a.5.5 0 0 1 0-1h2a.5.5 0 0 1 0 1Zm0-12h-2a.5.5 0 0 1 0-1h2a.5.5 0 0 1 0 1Zm0-2h-2a.5.5 0 0 1 0-1h2a.5.5 0 0 1 0 1Zm0-2h-2a.5.5 0 0 1 0-1h2a.5.5 0 0 1 0 1Zm9.5-3H16v24h6.5a.5.5 0 0 0 .5-.5V.5a.5.5 0 0 0-.5-.5Zm-5 11a.5.5 0 1 1 0-1 .5.5 0 0 1 0 1Zm3 10h-2a.5.5 0 0 1 0-1h2a.5.5 0 0 1 0 1Zm0-2h-2a.5.5 0 0 1 0-1h2a.5.5 0 0 1 0 1Zm0-12h-2a.5.5 0 0 1 0-1h2a.5.5 0 0 1 0 1Zm0-2h-2a.5.5 0 0 1 0-1h2a.5.5 0 0 1 0 1Zm0-2h-2a.5.5 0 0 1 0-1h2a.5.5 0 0 1 0 1Z"/>
</svg>
