<svg xmlns="http://www.w3.org/2000/svg" viewBox="0 0 24 24">
  <path fill-rule="evenodd" d="M19 19.521a.5.5 0 0 1 1 0V21.5a.5.5 0 0 1-.5.5H12v1.5a.5.5 0 0 1-.608.488l-9-2A.5.5 0 0 1 2 21.5v-19c0-.234.163-.438.392-.49l9-1.999A.5.5 0 0 1 12 .5V2h7.5a.5.5 0 0 1 .5.5V5a.5.5 0 0 1-1 0V3h-7v18h7v-1.479ZM7 12.5c0 .551.449 1 1 1 .551 0 1-.449 1-1 0-.551-.449-1-1-1-.551 0-1 .449-1 1Z" clip-rule="evenodd"/>
  <path fill-rule="evenodd" d="M22.5 10h-1v-.5C21.5 7.57 19.93 6 18 6s-3.5 1.57-3.5 3.5v.5h-1a.5.5 0 0 0-.5.5v7a.5.5 0 0 0 .5.5h9a.5.5 0 0 0 .5-.5v-7a.5.5 0 0 0-.5-.5Zm-7-.5C15.5 8.122 16.622 7 18 7s2.5 1.122 2.5 2.5v.5h-5v-.5ZM17 13c0-.551.449-1 1-1 .551 0 1 .449 1 1a.99.99 0 0 1-.5.847V15.5a.5.5 0 0 1-1 0v-1.653A.99.99 0 0 1 17 13Z" clip-rule="evenodd"/>
</svg>
