<svg xmlns="http://www.w3.org/2000/svg" viewBox="0 0 24 24">
  <path d="M23.5 1h-13a.5.5 0 0 0-.5.5v4.783A6.997 6.997 0 0 1 12.319 9H19a1.5 1.5 0 0 1 1.06.44l1.5 1.5a1.5 1.5 0 0 1 0 2.121l-1.5 1.5A1.499 1.499 0 0 1 19 15h-.879l-.561.561a1.5 1.5 0 0 1-2.121 0l-.439-.44-.439.439a1.5 1.5 0 0 1-2.121 0l-.268-.267a7.027 7.027 0 0 1-2.171 2.423V22.5a.5.5 0 0 0 .5.5h13a.5.5 0 0 0 .5-.5v-21A.502.502 0 0 0 23.5 1Z"/>
  <path d="m20.854 11.646-1.5-1.5A.504.504 0 0 0 19 10h-7.348A6.02 6.02 0 0 0 6 6c-3.309 0-6 2.691-6 6s2.691 6 6 6a6.022 6.022 0 0 0 5.652-4h.641l.853.854a.5.5 0 0 0 .707 0l.854-.854h.586l.853.854a.5.5 0 0 0 .707 0l.854-.854H19c.133 0 .26-.053.354-.146l1.5-1.5a.502.502 0 0 0 0-.708ZM4 13.5a1.5 1.5 0 1 1 .001-3.001A1.5 1.5 0 0 1 4 13.5Z"/>
</svg>
