<svg xmlns="http://www.w3.org/2000/svg" viewBox="0 0 24 24">
  <g clip-path="url(#a)">
    <path d="M23.469 20H22V6.5C22 4.019 19.981 2 17.5 2H12L11.998.5A.498.498 0 0 0 11.5 0h-.001A.5.5 0 0 0 11 .502L11.002 2H6.5A4.505 4.505 0 0 0 2 6.5V20H.5a.5.5 0 0 0 0 1h.778A1.984 1.984 0 0 0 1 22c0 1.103.897 2 2 2 1.102 0 2-.897 2-2 0-.365-.106-.704-.278-1h14.557A1.975 1.975 0 0 0 19 22c0 1.103.897 2 2 2s2-.897 2-2c0-.365-.106-.704-.278-1h.747a.5.5 0 0 0 0-1ZM10 11v-.5c0-.827.673-1.5 1.5-1.5h1c.827 0 1.5.673 1.5 1.5v.5h-4Zm11 9h-4.5c1.378 0 2.5-1.121 2.5-2.5v-4c0-1.378-1.122-2.5-2.5-2.5H15v-.5C15 9.122 13.878 8 12.5 8h-1A2.503 2.503 0 0 0 9 10.5v.5H7.5A2.503 2.503 0 0 0 5 13.5v4C5 18.879 6.122 20 7.5 20H3V6.5C3 4.57 4.57 3 6.5 3h4.504l.003 2H8.516a.5.5 0 0 0 0 1H14.5a.5.5 0 0 0 0-1H12l-.003-2H17.5C19.43 3 21 4.57 21 6.5V20Z"/>
  </g>
  <defs>
    <clipPath id="a">
      <path d="M0 0h24v24H0z"/>
    </clipPath>
  </defs>
</svg>
