<svg xmlns="http://www.w3.org/2000/svg" viewBox="0 0 24 24">
  <path d="M6.916 14h2.525l2.037-5.464L8.373.254 5.777 1.553a.486.486 0 0 0-.13.094l-5.5 5.5a.5.5 0 0 0 0 .707l2.999 3a.5.5 0 0 0 .674.031l2.32-1.934L6.916 14Zm2.43-14 2.665 7.108L14.661 0H9.346ZM6.903 15l-1.47 8.357L9.028 15H6.903Zm16.951-7.853-5.499-5.5a.526.526 0 0 0-.13-.094L15.632.258 10.508 14h6.574l.776-5.049 2.322 1.934a.5.5 0 0 0 .673-.031l3-3a.5.5 0 0 0 .001-.707ZM17.089 15h-4.396l1.28 3.843a.499.499 0 0 1-.474.658.502.502 0 0 1-.475-.342l-1.025-3.077-1.026 3.077a.5.5 0 0 1-.948-.317L11.306 15h-1.189l-3.871 9H18.02a.5.5 0 0 0 .5-.5c-.001-.077-1.431-8.5-1.431-8.5Z"/>
</svg>
