<svg xmlns="http://www.w3.org/2000/svg" viewBox="0 0 24 24">
  <path fill-rule="evenodd" d="M8.763 19.071a4.528 4.528 0 0 0-2.462-2.679 2.986 2.986 0 0 0 1.2-2.384c0-1.655-1.346-3-3-3s-3 1.345-3 3a2.99 2.99 0 0 0 1.197 2.383A4.5 4.5 0 0 0 0 20.507c0 .276.224.5.5.493h6.607a5.577 5.577 0 0 1 1.656-1.929Zm6.474 0a4.528 4.528 0 0 1 2.462-2.679 2.986 2.986 0 0 1-1.2-2.384c0-1.655 1.346-3 3-3s3 1.345 3 3a2.99 2.99 0 0 1-1.197 2.383A4.5 4.5 0 0 1 24 20.507a.49.49 0 0 1-.5.493h-6.607a5.567 5.567 0 0 0-1.656-1.929ZM16 24c.276 0 .5-.216.5-.493a4.503 4.503 0 0 0-2.697-4.117A2.989 2.989 0 0 0 15 17.007c0-1.655-1.346-3-3-3s-3 1.345-3 3c0 .975.475 1.835 1.197 2.383A4.503 4.503 0 0 0 7.5 23.507c0 .277.224.493.5.493h8Zm1.5-24h-11C5.673 0 5 .666 5 1.493v7c0 .827.673 1.5 1.5 1.5h.793l2.853 2.853a.5.5 0 0 0 .854-.353v-2.5h6.5c.827 0 1.5-.673 1.5-1.5v-7C19 .666 18.327 0 17.5 0Zm-2.031 7H8.5a.506.506 0 0 1-.5-.507.5.5 0 0 1 .5-.5h6.969a.5.5 0 0 1 .5.5.506.506 0 0 1-.5.507Zm0-2H8.5a.506.506 0 0 1-.5-.507.5.5 0 0 1 .5-.5h6.969a.5.5 0 0 1 .5.5.506.506 0 0 1-.5.507Zm0-2H8.5c-.276 0-.5-.23-.5-.507a.5.5 0 0 1 .5-.5h6.969a.5.5 0 0 1 .5.5.506.506 0 0 1-.5.507Z" clip-rule="evenodd"/>
</svg>
