<svg xmlns="http://www.w3.org/2000/svg" viewBox="0 0 24 24">
  <path fill-rule="evenodd" d="M21.12 8V2.5a.47.47 0 0 0-.667-.455c-3.486 1.662-6.416 3.207-11.813 3.75v9.411c5.397.543 8.327 2.087 11.813 3.749a.47.47 0 0 0 .667-.455V13c1.07 0 1.931-.898 1.931-2v-1c0-1.102-.862-2-1.931-2Zm.971 3c0 .552-.43 1-.96 1V9c.53 0 .96.449.96 1v1ZM3.372 6C1.518 6 .011 7.57.011 9.5v2c0 1.931 1.507 3.5 3.36 3.5H5.76V6H3.371Zm3.349 9.027V5.5c0-.276.215-.5.48-.5a.49.49 0 0 1 .48.5v9.527c0 2.567 1.37 4.876 3.575 6.025a.513.513 0 0 1 .215.671.472.472 0 0 1-.644.224c-2.533-1.32-4.106-3.971-4.106-6.92Z" clip-rule="evenodd"/>
</svg>
