<svg xmlns="http://www.w3.org/2000/svg" viewBox="0 0 24 24">
  <path fill-rule="evenodd" d="M13 14H1V2a1 1 0 0 1 1-1h10c.551 0 1 .448 1 1v12Zm-9 5c0-1.654 1.346-3 3-3s3 1.346 3 3-1.346 3-3 3-3-1.346-3-3Zm19-3v3c0 1.654-1.346 3-3 3s-3-1.346-3-3V5c0-.552-.449-1-1-1h-2v18c0 1.102-.897 2-2 2H2c-1.104 0-2-.898-2-2V2C0 .898.896 0 2 0h10c1.103 0 2 .898 2 2v1h2c1.103 0 2 .898 2 2v14c0 1.102.896 2 2 2 1.103 0 2-.898 2-2v-3a.5.5 0 0 1-.5-.5v-5a.5.5 0 0 1 .5-.5h1a.5.5 0 0 1 .5.5v5a.5.5 0 0 1-.5.5ZM9.707 4.293a.999.999 0 1 1-1.414 1.414.999.999 0 1 1 1.414-1.414ZM22.5 2a.5.5 0 0 1 .5.5v7h-1v-7a.5.5 0 0 1 .5-.5ZM4 8h2v1H4V8Zm3 0h2v1H7V8Z" clip-rule="evenodd"/>
</svg>
