<svg xmlns="http://www.w3.org/2000/svg" viewBox="0 0 24 24">
  <path d="M3.51 12.654c.041.207.989 4.793 3.49 5.346v-7.944H5.793l-2.147 2.146a.5.5 0 0 0-.136.452Z"/>
  <path d="M22 0h-2v4.5a.5.5 0 0 1-1 0V0h-2v4.5a.5.5 0 0 1-1 0V0h-2v4.5a.5.5 0 0 1-1 0V0H7.5C5.019 0 3 2.02 3 4.5v3a.5.5 0 0 0 .5.5H6v1h3V8h5v8.5c0 1.93-1.57 3.5-3.5 3.5H2c-1.102 0-2 .897-2 2s.897 2 2 2h21.5a.5.5 0 0 0 .5-.5V2c0-1.103-.897-2-2-2Zm-3 21c-1.654 0-3-1.346-3-3s1.346-3 3-3 3 1.346 3 3-1.346 3-3 3Z"/>
  <path d="M11.49 12.654a.501.501 0 0 0-.137-.452l-2.147-2.146H8V18c2.501-.553 3.449-5.139 3.49-5.346Z"/>
</svg>
