<svg xmlns="http://www.w3.org/2000/svg" viewBox="0 0 24 24">
  <path d="M20.512 11.008c-5.358 0-9.218-5.221-7.649-10.348a.5.5 0 0 0-.485-.646C4.916.127.701 8.894 5.652 14.779a1.49 1.49 0 0 1 .316-.404l4.547-4a1.5 1.5 0 0 1 1.988.004l4.495 4A1.501 1.501 0 0 1 16 17h-1v.658c3.093-.881 5.283-3.293 6.116-6.012.077-.252-.176-.638-.604-.638Z"/>
  <path d="m16.333 15.127-4.495-4a.501.501 0 0 0-.663-.002l-4.547 4a.5.5 0 0 0 .33.875h2.054v4.5c-.012.277.212.5.488.5h4a.5.5 0 0 0 .5-.5V16h2a.5.5 0 0 0 .333-.873ZM23 24H1.012a1 1 0 1 1 0-2H23a1 1 0 1 1 0 2Z"/>
</svg>
