<svg xmlns="http://www.w3.org/2000/svg" viewBox="0 0 24 24">
  <path d="M16.004 16.021 14 16.004V11.5a.5.5 0 0 0-.5-.5h-4a.5.5 0 0 0-.5.5V16H6.958a.502.502 0 0 0-.33.877l4.547 4a.505.505 0 0 0 .662-.002l4.495-3.98a.5.5 0 0 0-.328-.874ZM23 24H1.012a1 1 0 1 1 0-2H23a1 1 0 1 1 0 2Z"/>
  <path d="M20.5 11c-5.4 0-9.201-5.269-7.649-10.347a.5.5 0 0 0-.485-.646C4.53.125.526 9.598 6.088 15.282c.249-.176.55-.282.87-.282H8v-3.5A1.5 1.5 0 0 1 9.5 10h4a1.5 1.5 0 0 1 1.5 1.5v3.512l1.012.009a1.506 1.506 0 0 1 1.393.974c.062.166.085.336.087.506a9.17 9.17 0 0 0 3.612-4.859c.078-.255-.177-.642-.604-.642Z"/>
</svg>
