<svg xmlns="http://www.w3.org/2000/svg" viewBox="0 0 24 24">
  <path d="M11.969 0c-2.757 0-5 2.243-5 5h10c0-2.757-2.243-5-5-5Zm-.515 9.74.515 2.05.515-2.05a.5.5 0 0 1 .203-.291l4.542-3.095c-.087-.048-.168-.315-.26-.354h-10c-.092.039-.173.306-.26.354l4.542 3.095c.101.07.173.173.203.291Z"/>
  <path d="M10.53 10.169 5.932 7.035A2.521 2.521 0 0 0 5.5 8h-3a.5.5 0 0 0 0 1h2.996c.002.008.001.016.003.023l.043.198 5.642 3.546-.654-2.598ZM21.438 8h-3a2.517 2.517 0 0 0-.432-.964l-4.598 3.133-.649 2.581 5.639-3.529.042-.196c.002-.008 0-.017.003-.024h2.996A.5.5 0 1 0 21.438 8Z"/>
  <path d="m5.846 10.642 1.82 8.496c.157.731.657 1.32 1.303 1.628V18c0-1.654 1.346-3 3-3s3 1.346 3 3v2.766a2.362 2.362 0 0 0 1.303-1.628l1.841-8.592-6.144 3.81-6.123-3.714Z"/>
  <path d="M11.969 16c-1.103 0-2 .897-2 2v4c0 1.103.897 2 2 2s2-.897 2-2v-4c0-1.103-.897-2-2-2Z"/>
</svg>
