<svg xmlns="http://www.w3.org/2000/svg" viewBox="0 0 24 24">
  <path d="M12.5 2.5a.5.5 0 0 1-1 0v-2a.5.5 0 0 1 1 0v2ZM7.75 4.139a.5.5 0 0 0 .183-.683l-1-1.732a.5.5 0 0 0-.866.5l1 1.732a.5.5 0 0 0 .683.183Zm-.323 1.167L19.5 17.38V11a7 7 0 0 0-7-7h-1a6.97 6.97 0 0 0-4.073 1.306ZM4.651 6.773l-.22-.22-1.707-.986a.5.5 0 0 0-.5.866l1.732 1a.5.5 0 0 0 .695-.66Zm6.849 8.164V19h-7v-8c0-1.26.333-2.442.915-3.463l4.725 4.725a2 2 0 0 0 1.36 2.675ZM20.879 23l-3-3H4a1.5 1.5 0 0 0-1.5 1.5v1a.5.5 0 0 0 .5.5h17.879Zm-4-4-4.14-4.14c-.078.03-.158.056-.239.077V19h4.379Zm-5.871-5.87.862.862a1.001 1.001 0 0 1-.862-.862ZM20.5 11.5a.5.5 0 0 0 .5.5h2a.5.5 0 0 0 0-1h-2a.5.5 0 0 0-.5.5ZM3 11a.5.5 0 0 1 0 1H1a.5.5 0 0 1 0-1h2Zm13.25-6.861a.5.5 0 0 0 .683-.183l1-1.732a.5.5 0 0 0-.866-.5l-1 1.732a.5.5 0 0 0 .183.683Zm3.794 3.294a.5.5 0 0 1-.5-.866l1.732-1a.5.5 0 0 1 .5.866l-1.732 1ZM1.393 1.393a.5.5 0 0 1 .708 0L22.607 21.9a.5.5 0 0 1-.707.708L1.393 2.1a.5.5 0 0 1 0-.708Z"/>
</svg>
