<svg xmlns="http://www.w3.org/2000/svg" viewBox="0 0 24 24">
  <path d="M12.5 2.5a.5.5 0 0 1-1 0v-2a.5.5 0 0 1 1 0v2ZM7.75 4.139a.5.5 0 0 0 .183-.683l-1-1.732a.5.5 0 0 0-.866.5l1 1.732a.5.5 0 0 0 .683.183ZM12.5 4a7 7 0 0 1 7 7v6.379L9.369 7.248A4.976 4.976 0 0 1 12 6.5a.5.5 0 0 0 0-1 5.972 5.972 0 0 0-3.354 1.024L7.427 5.306A6.968 6.968 0 0 1 11.5 4h1Zm8.379 19-3-3H4a1.5 1.5 0 0 0-1.5 1.5v1a.5.5 0 0 0 .5.5h17.879Zm-4-4L7.405 9.526A4.982 4.982 0 0 0 7 11.5a.5.5 0 0 1-1 0c0-.981.236-1.908.653-2.725L5.415 7.537A6.968 6.968 0 0 0 4.5 11v8h12.379ZM4.651 6.773l-.22-.22-1.707-.986a.5.5 0 0 0-.5.866l1.732 1a.5.5 0 0 0 .695-.66ZM20.5 11.5a.5.5 0 0 0 .5.5h2a.5.5 0 0 0 0-1h-2a.5.5 0 0 0-.5.5ZM3 11a.5.5 0 0 1 0 1H1a.5.5 0 0 1 0-1h2Zm13.25-6.861a.5.5 0 0 0 .683-.183l1-1.732a.5.5 0 0 0-.866-.5l-1 1.732a.5.5 0 0 0 .183.683Zm3.794 3.294a.5.5 0 0 1-.5-.866l1.732-1a.5.5 0 0 1 .5.866l-1.732 1ZM1.393 1.393a.5.5 0 0 1 .708 0L22.607 21.9a.5.5 0 0 1-.707.708L1.393 2.1a.5.5 0 0 1 0-.708Z"/>
</svg>
