<svg xmlns="http://www.w3.org/2000/svg" viewBox="0 0 24 24">
  <path d="M10 2a2 2 0 1 1 4 0v.252c3.45.888 6 4.02 6 7.748v4.293l1.854 1.854A.5.5 0 0 1 22 16.5v3a.498.498 0 0 1-.091.288L6.404 4.283A7.989 7.989 0 0 1 10 2.253V2Zm11.9 20.607a.5.5 0 1 0 .707-.707L2.1 1.392a.5.5 0 0 0-.708.707L21.9 22.608ZM4.67 6.79 17.879 20H2.5a.5.5 0 0 1-.5-.5v-3a.5.5 0 0 1 .146-.354L4 14.293V10c0-1.141.239-2.227.67-3.21ZM10 21a.5.5 0 0 0-.5.5v.03A2.47 2.47 0 0 0 11.97 24h.06a2.47 2.47 0 0 0 2.47-2.47v-.03a.5.5 0 0 0-.5-.5h-4Z"/>
</svg>
