<svg xmlns="http://www.w3.org/2000/svg" viewBox="0 0 24 24">
  <g clip-path="url(#a)">
    <path d="M9.687 7.566A4.98 4.98 0 0 1 12 7c.864 0 1.677.22 2.387.606.192-.439.514-1.044.86-1.692.574-1.075 1.212-2.27 1.425-3.027C17.084 1.422 15.954 0 14.375 0H8.977C7.303 0 6.165 1.582 6.742 3.087c.304.797 1.084 2.07 1.758 3.169l.194.316.993.994Zm-2.29 1.952.169.17A4.98 4.98 0 0 0 7 12c0 .959.27 1.856.739 2.617-.386.211-.911.533-1.483.883-1.1.674-2.372 1.453-3.169 1.758C1.582 17.835 0 16.697 0 15.023V9.625c0-1.58 1.422-2.709 2.887-2.297.757.213 1.952.85 3.027 1.424.55.294 1.07.572 1.483.766Zm2.128 2.128-1.209-1.208A3.986 3.986 0 0 0 8 12a3.983 3.983 0 0 0 1.685 3.262A3.979 3.979 0 0 0 12 16c.555 0 1.082-.113 1.562-.316l-1.208-1.209a2.5 2.5 0 0 1-2.829-2.829Zm6.159 1.916c.203-.48.316-1.007.316-1.562a3.98 3.98 0 0 0-.855-2.472 4.028 4.028 0 0 0-.83-.79A3.98 3.98 0 0 0 12 8c-.555 0-1.082.113-1.562.316l1.208 1.209a2.5 2.5 0 0 1 2.829 2.829l1.209 1.208Zm.75.751.17.169c.412.194.931.472 1.482.766 1.075.573 2.27 1.21 3.027 1.424 1.465.412 2.887-.718 2.887-2.297V8.977c0-1.674-1.582-2.812-3.087-2.235-.797.304-2.07 1.084-3.169 1.758-.572.35-1.097.672-1.483.883.469.761.739 1.658.739 2.617a4.98 4.98 0 0 1-.566 2.313Zm-2.121 2.121.993.993.194.317c.674 1.1 1.453 2.372 1.758 3.169.577 1.505-.561 3.087-2.235 3.087H9.625c-1.58 0-2.709-1.422-2.297-2.887.213-.757.85-1.952 1.424-3.026.346-.65.67-1.254.861-1.692A4.98 4.98 0 0 0 12 17a4.98 4.98 0 0 0 2.313-.566ZM1.393 1.393a.5.5 0 0 1 .708 0L22.607 21.9a.5.5 0 0 1-.707.708L1.393 2.1a.5.5 0 0 1 0-.708Z"/>
  </g>
  <defs>
    <clipPath id="a">
      <path d="M0 0h24v24H0z"/>
    </clipPath>
  </defs>
</svg>
