<svg xmlns="http://www.w3.org/2000/svg" viewBox="0 0 24 24">
  <g clip-path="url(#a)">
    <path d="M11.5 14h-1.46l3.35 4.188A.498.498 0 0 1 13 19H7v4.5a.5.5 0 0 1-1 0V19H.5a.5.5 0 0 1-.39-.812L3.46 14H2a.5.5 0 0 1-.41-.786L4.54 9H4a.501.501 0 0 1-.447-.724l2.5-5a.499.499 0 0 1 .876-.033l3 5A.501.501 0 0 1 9.5 9h-.54l2.949 4.214a.499.499 0 0 1-.41.786Z"/>
    <path fill-rule="evenodd" d="M15.5 15h8a.5.5 0 0 1 .5.5v6a.5.5 0 0 1-.5.5H23v2h-1v-2h-5v2h-1v-2h-.5a.5.5 0 0 1-.5-.5v-6a.5.5 0 0 1 .5-.5Zm.5 4h1v-3h-1v3Zm2 0h1v-3h-1v3Zm2 0h1v-3h-1v3Zm2 0h1v-3h-1v3Z" clip-rule="evenodd"/>
  </g>
  <defs>
    <clipPath id="a">
      <path d="M0 0h24v24H0z"/>
    </clipPath>
  </defs>
</svg>
