<svg xmlns="http://www.w3.org/2000/svg" viewBox="0 0 24 24">
  <path d="M12 2.177 23.163 12.37a.498.498 0 0 0 .706-.033.498.498 0 0 0-.032-.705l-11.5-10.5a.498.498 0 0 0-.674 0l-11.5 10.5a.498.498 0 0 0-.032.705.498.498 0 0 0 .706.033L12 2.177Zm8 .323v4.273L14.773 2H19.5a.5.5 0 0 1 .5.5Z"/>
  <path fill-rule="evenodd" d="M15 23.5c0 .175.03.344.085.5H3.5a.5.5 0 0 1-.5-.5V11.748l9-8.216 9 8.216V13h-.5a1.5 1.5 0 0 0-1.423 1.026l-.158.974H15.5a1.5 1.5 0 0 0-1.06 2.56L17 20.122V22h-.5a1.5 1.5 0 0 0-1.5 1.5Zm-4-15v-1a.5.5 0 0 1 .5-.5h1a.5.5 0 0 1 .5.5v1a.5.5 0 0 1-.5.5h-1a.5.5 0 0 1-.5-.5Z" clip-rule="evenodd"/>
  <path fill-rule="evenodd" d="M20.026 14.342A.5.5 0 0 1 20.5 14h1a.5.5 0 0 1 0 1h-.64l-.166 1h.806a.5.5 0 0 1 .354.854L19 19.707V23h1.5a.5.5 0 1 1 0 1h-4a.5.5 0 0 1 0-1H18v-3.293l-2.854-2.854A.5.5 0 0 1 15.5 16h4.14l.386-1.658ZM16.707 17h3.586l-1 1h-1.586l-1-1Z" clip-rule="evenodd"/>
</svg>
