<svg xmlns="http://www.w3.org/2000/svg" viewBox="0 0 24 24">
  <path d="M15.163.337C15.009.183 14.729 0 14.266 0c-.613 0-1.408.323-2.266.916C11.143.323 10.347 0 9.734 0c-.463 0-.743.183-.898.337-.604.604-.385 1.772.58 3.163-.965 1.391-1.185 2.559-.58 3.163.155.154.435.337.898.337.613 0 1.409-.323 2.266-.916.857.593 1.653.916 2.266.916.463 0 .743-.183.897-.337.606-.603.386-1.772-.58-3.163.966-1.391 1.186-2.56.58-3.163Zm-.985 7.654c-.75-.023-1.516-.337-2.178-.723-.63.367-1.354.662-2.067.712l-1.601 4.161 6.544-2.448-.698-1.702Zm2.857 6.962-11.43 4.278-1.571 4.089a.492.492 0 0 0 .038.418l14.36-5.377-1.397-3.408Zm-1.779-4.334L7.853 13.39l-1.767 4.592 10.568-3.956-1.398-3.407Zm3.556 8.667L6.222 24H20a.498.498 0 0 0 .463-.69l-1.651-4.024Z"/>
</svg>
