<svg xmlns="http://www.w3.org/2000/svg" viewBox="0 0 24 24">
  <g clip-path="url(#a)">
    <path d="M12 0C5.383 0 0 5.383 0 12c0 6.218 5.033 12 12 12 3.234 0 6.268-1.269 8.542-3.573A11.932 11.932 0 0 0 24 12c0-6.617-5.383-12-12-12Zm8.108 19.432c-1.047-.625-2.583-1.181-4.33-1.812-.42-.152-.848-.308-1.278-.466v-1.848c.501-.309 1.384-1.108 1.49-2.936.386-.226.63-.727.63-1.37 0-.578-.198-1.043-.52-1.294.243-.756.681-2.144.385-3.327C16.138 4.992 14.256 4.5 12.75 4.5c-1.342 0-2.982.391-3.569 1.456-.52-.029-.917.119-1.207.431-.753.813-.311 2.424-.063 3.31-.328.249-.531.718-.531 1.303 0 .643.244 1.144.63 1.37.106 1.828.989 2.626 1.49 2.936v1.848c-.388.145-.786.289-1.184.433-1.625.589-3.299 1.196-4.413 1.858A10.928 10.928 0 0 1 1 12C1 5.935 5.935 1 12 1s11 4.935 11 11a10.93 10.93 0 0 1-2.892 7.432Z"/>
  </g>
  <defs>
    <clipPath id="a">
      <path d="M0 0h24v24H0z"/>
    </clipPath>
  </defs>
</svg>
