<svg xmlns="http://www.w3.org/2000/svg" viewBox="0 0 24 24">
  <path d="M12.197 4.339C11.736 5.224 10.183 6 8.875 6c-.636 0-1.279-.125-2.182-.681C7.322 2.549 9.46.5 12 .5c2.666 0 4.894 2.254 5.394 5.234l-.505.125-.608.15c-1.451.28-2.353-.193-3.206-1.687a.501.501 0 0 0-.878.017Z"/>
  <path d="M9 12.441c-1.503-1.162-2.656-3.285-2.473-6.069.914.487 1.565.628 2.348.628 1.374 0 2.881-.653 3.735-1.549.797 1.11 1.737 1.635 2.931 1.635.293 0 1.109-.054 1.948-.348.105 2.356-.986 4.542-2.489 5.704v2.206l4.677 1.67A3.508 3.508 0 0 1 22 19.614V22.5a.5.5 0 0 1-.5.5h-19a.5.5 0 0 1-.5-.5v-2.886a3.51 3.51 0 0 1 2.322-3.296L9 14.647v-2.206Z"/>
</svg>
