<svg xmlns="http://www.w3.org/2000/svg" viewBox="0 0 24 24">
  <path d="M23.045 4.304a.501.501 0 0 0-.46-.304H1.415c-.2 0-.381.12-.46.304C.31 5.817 0 7.569 0 9c0 6.617 5.383 12 12 12s12-5.383 12-12a12.46 12.46 0 0 0-.955-4.696Zm-7.619 10.872C15.398 15.25 14.71 17 11.958 17c-1.264 0-2.075-.453-2.986-1.296-.396.408-.713.744-1.118 1.149A.5.5 0 0 1 7 16.5v-3a.5.5 0 0 1 .853-.354c.405.405.723.741 1.118 1.149.912-.842 1.723-1.295 2.987-1.295 2.678 0 3.431 1.733 3.461 1.808a.498.498 0 0 1 .007.368ZM1.059 8c.092-1.049.324-2.055.692-3h20.498c.368.946.6 1.951.692 3H1.059Z"/>
</svg>
