<svg xmlns="http://www.w3.org/2000/svg" viewBox="0 0 24 24">
  <path d="M21.955 8a1.04 1.04 0 0 1-.934-.578A2.563 2.563 0 0 0 18.719 6c-1.697 0-2.934.941-3.677 2.799a3.5 3.5 0 0 1-.782 1.176L6.39.186a.5.5 0 1 0-.78.627l7.846 9.76a3.48 3.48 0 0 1-1.664.427H6.5c-1.513 0-2.525-.434-2.851-1.22-.401-.97.252-2.474 1.705-3.927A.5.5 0 0 0 5 5 4.505 4.505 0 0 0 .5 9.5c0 1.567.794 2.988 2.101 3.809C2.017 14.943 1 19.576 1 22c0 1.103.897 2 2 2s2-.897 2-2v-.63C5 19.735 6.176 18 8.354 18H10c2.505 0 4 1.279 4 3.423V22c0 1.103.897 2 2 2s2-.897 2-2c0-.604-.003-1.071-.006-1.447-.014-1.945-.013-1.402.613-5.461A2.454 2.454 0 0 1 21.045 13 2.958 2.958 0 0 0 24 10.045 2.047 2.047 0 0 0 21.955 8Zm-4.396 7.328-3.793-3.793c.33-.162.642-.364.925-.599l3.168 3.168c-.197.459-.226.746-.3 1.224ZM18.5 10a.5.5 0 1 1 0-1 .5.5 0 0 1 0 1Z"/>
</svg>
