<svg xmlns="http://www.w3.org/2000/svg" viewBox="0 0 24 24">
  <path d="m19.393 16.544-1.014 4.055-.003.008.145.217c.912 1.373 2.807.415 2.249-.86a407.01 407.01 0 0 1-1.377-3.42Zm-12.564 1.55 1.255 2.767c.502 1.109 2.159.639 2.047-.543l-.264-2.81c-1.419.053-2.354.246-3.038.586Z"/>
  <path d="M20.559 7.658c-.271-.163-.577-.347-.922-.563l-.939-2.293a.501.501 0 0 0-.925-.002l-1.474 3.538a3.493 3.493 0 0 1-3.231 2.154h-7.19c-1.395-.92-1.164-2.411-.996-3.021.265-.954.835-1.537 1.058-1.537.022 0 .106.072.183.304.458 1.378 2.696.73 2.435-.846C8.308 3.895 7.371 3 6.051 3 3.967 3 1.735 5.207 1.735 8.49c0 2.04.694 3.459 2.118 4.323-.864 2.373-2.092 5.444-2.769 7.119-.545 1.345 1.471 2.28 2.338.828 1.574-2.637 1.962-4.268 7.312-4.268 1.971 0 2.966.192 3.434.664.467.47.544 1.366.531 3.074a1.256 1.256 0 0 0 1.255 1.262c.69 0 1.288-.468 1.455-1.137l1.297-5.188 1.338-2.675h.879c.999 0 1.812-.814 1.812-1.813-.001-1.712-.638-2.095-2.176-3.021ZM19.5 10.492a.5.5 0 1 1 0-1 .5.5 0 0 1 0 1Z"/>
</svg>
