<svg xmlns="http://www.w3.org/2000/svg" viewBox="0 0 24 25">
  <path d="M0 7.502v13c0 .827.673 1.5 1.5 1.5H2v-16h-.5c-.827 0-1.5.673-1.5 1.5Zm7.5-4.5H6v-2.5a.5.5 0 0 0-1 0v2.551c-1.14.232-2 1.241-2 2.449v16c0 1.379 1.122 2.5 2.5 2.5h2c1.378 0 2.5-1.121 2.5-2.5v-16c0-1.379-1.122-2.5-2.5-2.5Zm14 3H11v16h10.5c.827 0 1.5-.673 1.5-1.5v-13c0-.827-.673-1.5-1.5-1.5Zm-7.5 12h-1v-1h1v1Zm0-2h-1v-1h1v1Zm0-2h-1v-1h1v1Zm3 4h-1v-1h1v1Zm0-2h-1v-1h1v1Zm0-2h-1v-1h1v1Zm3 4h-1v-1h1v1Zm0-2h-1v-1h1v1Zm0-2h-1v-1h1v1Zm0-3.5a.5.5 0 0 1-.5.5h-6a.5.5 0 0 1-.5-.5v-2a.5.5 0 0 1 .5-.5h6a.5.5 0 0 1 .5.5v2Z"/>
</svg>
