<svg xmlns="http://www.w3.org/2000/svg" viewBox="0 0 24 24">
  <path fill-rule="evenodd" d="M20 3.5a.5.5 0 0 1 .5-.5h3a.5.5 0 0 1 .5.5v18a.5.5 0 0 1-.5.5h-3a.5.5 0 0 1-.5-.5v-18ZM23 21h-2V4h2v17ZM15.5 6a.5.5 0 0 0-.5.5v15a.5.5 0 0 0 .5.5h3a.5.5 0 0 0 .5-.5v-15a.5.5 0 0 0-.5-.5h-3Zm.5 1v14h2V7h-2Zm-6 2.5a.5.5 0 0 1 .5-.5h3a.5.5 0 0 1 .5.5v12a.5.5 0 0 1-.5.5h-3a.5.5 0 0 1-.5-.5v-12ZM13 21h-2V10h2v11Z" clip-rule="evenodd"/>
  <path d="M5.5 12h3a.5.5 0 0 1 .5.5v9a.5.5 0 0 1-.5.5h-3a.5.5 0 0 1-.5-.5v-9a.5.5 0 0 1 .5-.5Zm-5 3h3a.5.5 0 0 1 .5.5v6a.5.5 0 0 1-.5.5h-3a.5.5 0 0 1-.5-.5v-6a.5.5 0 0 1 .5-.5Z"/>
</svg>
