<svg xmlns="http://www.w3.org/2000/svg" viewBox="0 0 24 24">
  <path d="M17 5.5a.5.5 0 0 0-.5-.5H3.451l7.289-3.999a.5.5 0 0 0-.481-.877l-9 4.938A.552.552 0 0 0 1 5.5V9h16V5.5ZM3.5 8a.5.5 0 1 1 .002-1.002A.5.5 0 0 1 3.5 8Z"/>
  <path d="M22.888 15.162 17 19.565V13.75l6.487-4.85a.5.5 0 1 0-.599-.801L17 12.502V10H1v12.5a.5.5 0 0 0 .5.5H2v.5a.5.5 0 0 0 1 0V23h12v.5a.5.5 0 0 0 1 0V23h.5a.5.5 0 0 0 .5-.5v-1.687l6.487-4.85a.5.5 0 1 0-.599-.801ZM15 20.5a.5.5 0 0 1-.5.5h-11a.5.5 0 0 1-.5-.5v-3a.5.5 0 0 1 .5-.5h11a.5.5 0 0 1 .5.5v3Zm0-6a.5.5 0 0 1-.5.5h-11a.5.5 0 0 1-.5-.5v-3a.5.5 0 0 1 .5-.5h11a.5.5 0 0 1 .5.5v3Z"/>
</svg>
