<svg xmlns="http://www.w3.org/2000/svg" viewBox="0 0 24 24">
  <g clip-path="url(#a)">
    <path d="M11.721 8.379a.495.495 0 0 0 .703 0c1.776-1.781.757-3.138.013-4.127-.763-1.013-1.266-1.683-.055-2.9a.501.501 0 0 0 0-.706.496.496 0 0 0-.703 0c-1.822 1.83-.79 3.205-.035 4.207.748.996 1.24 1.652.077 2.82a.5.5 0 0 0 0 .706Zm-5.629.191a.501.501 0 0 1-.35-.852c.537-.54.373-.759-.065-1.34-.426-.567-1.136-1.514.04-2.695a.496.496 0 0 1 .702 0 .501.501 0 0 1 0 .706c-.564.567-.384.807.051 1.387.42.56 1.124 1.495-.026 2.648a.498.498 0 0 1-.352.145Zm11.878 0a.498.498 0 0 1-.353-.146c-1.149-1.153-.446-2.09-.026-2.648.436-.58.616-.82.051-1.387a.501.501 0 0 1 0-.706.496.496 0 0 1 .703 0c1.177 1.182.466 2.128.04 2.694-.437.582-.602.8-.064 1.34a.5.5 0 0 1-.352.852Zm2.387 12.467c-1.611 0-2.461-.437-3.082-.76l-.014-.007c-.37-.19-.51-.263-.819-.263-.41 0-.787.15-1.309.36-.768.305-1.726.685-3.102.685-1.373 0-2.336-.38-3.11-.686l-.013-.005c-.522-.205-.902-.354-1.31-.354-.304 0-.448.066-.86.275l-.004.002c-.628.318-1.488.752-3.09.752h-.007l1.273 1.957A1.497 1.497 0 0 0 6.32 24h11.424c.634 0 1.2-.41 1.407-1.005l1.287-1.964a.425.425 0 0 0-.037.003.294.294 0 0 1-.044.003Z"/>
    <path fill-rule="evenodd" d="M.516 18.384c1.335-5.069 5.86-8.343 11.53-8.343 5.612 0 10.1 3.274 11.438 8.342a.5.5 0 0 1-.015.3c-.05.138-.57 1.356-3.112 1.356-1.37 0-2.067-.36-2.626-.65l-.01-.005c-.423-.216-.73-.375-1.279-.375-.6 0-1.098.2-1.677.43l-.005.002c-.725.288-1.546.614-2.73.614-1.186 0-2.015-.327-2.745-.616-.584-.23-1.087-.43-1.688-.43-.553 0-.885.169-1.306.382H6.29c-.568.29-1.277.649-2.646.649-2.541 0-3.061-1.217-3.112-1.356a.5.5 0 0 1-.015-.3Zm7.603-3.4c.266.121.58.003.7-.264.122-.267.182-1.684.182-1.684s-1.024.977-1.145 1.245a.532.532 0 0 0 .263.702Zm3.435-.467a.498.498 0 1 0 .994 0c0-.276-.497-1.513-.497-1.513s-.497 1.238-.497 1.513Zm3.746.159a.498.498 0 1 0 .91-.401c-.11-.254-1.06-1.186-1.06-1.186s.04 1.333.15 1.587Z" clip-rule="evenodd"/>
  </g>
  <defs>
    <clipPath id="a">
      <path d="M0 0h24v24H0z"/>
    </clipPath>
  </defs>
</svg>
