<svg xmlns="http://www.w3.org/2000/svg" viewBox="0 0 24 24">
  <path d="M5.494.506a3 3 0 1 0 0 6 3 3 0 0 0 0-6Zm-.445 8.658a9.42 9.42 0 0 0 .964 5.213l-4.594 4.596a2.484 2.484 0 0 0-.733 1.767c0 .668.261 1.295.733 1.768l.707.706a2.483 2.483 0 0 0 1.768.732c.667 0 1.296-.26 1.767-.732l4.596-4.594a9.42 9.42 0 0 0 5.232.961L5.049 9.164Z"/>
  <path d="M14.5.633a9.443 9.443 0 0 0-5.238 1.582c.141.408.232.837.232 1.291 0 2.206-1.794 4-4 4-.039 0-.075-.011-.113-.012a9.169 9.169 0 0 0-.121.468l11.43 11.406c4.184-.993 7.31-4.752 7.31-9.235 0-5.239-4.262-9.5-9.5-9.5Z"/>
</svg>
