<svg xmlns="http://www.w3.org/2000/svg" viewBox="0 0 24 24">
  <path d="M17.266 15.943c.888 0 1.86-.49 2.672-1.345 1.345-1.417 2.11-5.36 1.079-7.606a.504.504 0 0 0-.756-.191c-1.014.766-1.99 1.018-2.934 1.262-.84.217-1.707.441-2.56 1.01-.972.648-1.532 1.539-1.534 2.441-.001.375.098.863.459 1.379a15.62 15.62 0 0 0-.62.854 27.634 27.634 0 0 0-1.57-3.135c.666-.525 1.085-1.131 1.242-1.811.259-1.117-.178-2.353-1.298-3.672C10.4 3.895 8.989 3.471 7.495 3.022c-1.323-.398-2.691-.809-3.902-1.834a.492.492 0 0 0-.418-.108.492.492 0 0 0-.347.256c-1.564 2.959-.83 8.344.882 10.361 1.146 1.35 2.392 2.095 3.507 2.095.78 0 1.468-.337 2.062-.995A23.916 23.916 0 0 1 11.059 17H8.5a.5.5 0 0 0-.473.658l2 6A.5.5 0 0 0 10.5 24h5a.5.5 0 0 0 .474-.342l2-6A.5.5 0 0 0 17.5 17h-2.865c.244-.48.577-1.083 1.004-1.7.557.5 1.146.643 1.627.643ZM13.52 17h-1.414c-.502-1.732-2.3-6.891-6.847-10.983a.5.5 0 0 1 .669-.744c4.29 3.861 6.21 8.518 6.94 10.772.785-1.541 2.374-4.068 4.813-5.288a.499.499 0 1 1 .447.894c-2.447 1.223-4 4.053-4.608 5.349Z"/>
</svg>
