<svg xmlns="http://www.w3.org/2000/svg" viewBox="0 0 24 24">
  <path d="M12.5 14.5c0 1.24.816 1.5 1.5 1.5.699 0 2 0 2-.5V13h-2c-.684 0-1.5.261-1.5 1.5Zm-5.5 2c0 1.24.816 1.5 1.5 1.5 1.293 0 1.5-.118 1.5-.5V15H8.5c-.684 0-1.5.261-1.5 1.5Z"/>
  <path fill-rule="evenodd" d="M3.5 2h17a.5.5 0 0 1 .5.5v19a.5.5 0 0 1-.5.5h-17a.5.5 0 0 1-.5-.5v-19a.5.5 0 0 1 .5-.5ZM14 17c1.048 0 3 0 3-1.5v-10a.5.5 0 0 0-.777-.416l-6 4A.499.499 0 0 0 10 9.5V14H8.5c-1.208 0-2.5.657-2.5 2.5C6 18.344 7.292 19 8.5 19c.996 0 2.5 0 2.5-1.5V9.769l5-3.334V12h-2c-1.208 0-2.5.657-2.5 2.5 0 1.844 1.292 2.5 2.5 2.5Z" clip-rule="evenodd"/>
  <path d="M1.5 4h-1a.5.5 0 0 0-.5.5v15a.5.5 0 0 0 .5.5h1a.5.5 0 0 0 .5-.5v-15a.5.5 0 0 0-.5-.5Zm21 0h1a.5.5 0 0 1 .5.5v15a.5.5 0 0 1-.5.5h-1a.5.5 0 0 1-.5-.5v-15a.5.5 0 0 1 .5-.5Z"/>
</svg>
