<svg xmlns="http://www.w3.org/2000/svg" viewBox="0 0 24 24">
  <path d="M24 3.5a.5.5 0 0 0-.5-.5H22v18.5a.5.5 0 0 1-.5.5H3v1.5a.5.5 0 0 0 .5.5h20a.5.5 0 0 0 .5-.5v-20Zm-19 11c0 1.24.816 1.5 1.5 1.5 1.293 0 1.5-.118 1.5-.5V13H6.5c-.684 0-1.5.261-1.5 1.5Z"/>
  <path d="M11 12.5c0 1.24.816 1.5 1.5 1.5 1.293 0 1.5-.118 1.5-.5V11h-1.5c-.684 0-1.5.261-1.5 1.5Z"/>
  <path d="M20.5 21a.5.5 0 0 0 .5-.5V.5a.5.5 0 0 0-.5-.5H.5a.5.5 0 0 0-.5.5v20a.5.5 0 0 0 .5.5h20ZM15 13.5c0 1.5-1.504 1.5-2.5 1.5-1.208 0-2.5-.656-2.5-2.5 0-1.843 1.292-2.5 2.5-2.5H14V4.435L9 7.769V15.5C9 17 7.496 17 6.5 17 5.292 17 4 16.344 4 14.5 4 12.657 5.292 12 6.5 12H8V7.5c0-.167.083-.323.223-.416l6-4A.5.5 0 0 1 15 3.5v10Z"/>
</svg>
