<svg xmlns="http://www.w3.org/2000/svg" viewBox="0 0 24 24">
  <path d="M23.596 4.389a.5.5 0 0 0-.707 0l-2.475 2.476-3.536-3.536L19.354.854a.5.5 0 0 0-.707-.707L16.17 2.622 14.403.854a.5.5 0 0 0-.707 0L9.808 4.742c-1.884 1.884-2.146 4.822-.854 7.218l-1.976 1.976a.5.5 0 0 0 0 .706l.707.707-4.242 4.243a2.5 2.5 0 0 0 3.535 3.535l3.183-3.182a1.023 1.023 0 0 1 1.414 0 1 1 0 0 1 0 1.414l-1.683 1.683a.5.5 0 0 0 .707.707l1.683-1.684a2.002 2.002 0 0 0 0-2.827 1.997 1.997 0 0 0-2.828 0L6.272 22.42a1.501 1.501 0 0 1-2.121 0 1.501 1.501 0 0 1 0-2.121l4.242-4.243.708.708a.5.5 0 0 0 .707 0l1.977-1.977c2.376 1.279 5.314 1.052 7.216-.852l3.889-3.889a.5.5 0 0 0 0-.707l-1.768-1.768 2.475-2.476a.5.5 0 0 0-.001-.706ZM15.11 11.46a1.997 1.997 0 0 1-2.828 0 1.997 1.997 0 0 1 0-2.828c.755-.756 2.073-.756 2.828 0 .78.778.786 2.043 0 2.828Zm4.95-1.414a.5.5 0 0 1-.707 0l-5.657-5.657a.5.5 0 0 1 .707-.707l5.657 5.657a.499.499 0 0 1 0 .707Z"/>
</svg>
