<svg xmlns="http://www.w3.org/2000/svg" viewBox="0 0 24 24">
  <path d="M6 6H4v12h2V6Zm1 12h2V6H7v12Z"/>
  <path fill-rule="evenodd" d="M0 2.5A.5.5 0 0 1 .5 2h23a.5.5 0 0 1 .5.5v19a.5.5 0 0 1-.5.5H.5a.5.5 0 0 1-.5-.5v-19ZM21 5H3v14h18V5ZM7 18h2V6H7v12ZM6 6H4v12h2V6Z" clip-rule="evenodd"/>
  <path d="M15.812 14.89a.5.5 0 0 0 .078-.702L14.54 12.5h3.96a.5.5 0 1 0 0-1h-3.96l1.35-1.688a.5.5 0 1 0-.78-.624l-2 2.5-.009.01a.497.497 0 0 0 .01.617l1.998 2.497a.5.5 0 0 0 .703.079ZM10 18h2V6h-2v12Z"/>
</svg>
