<svg xmlns="http://www.w3.org/2000/svg" viewBox="0 0 24 24">
  <path d="M9 4.582a7.993 7.993 0 0 0-2 1.173v12.49c.602.483 1.274.88 2 1.174V4.582ZM4 12a7.97 7.97 0 0 1 2-5.292v10.584A7.97 7.97 0 0 1 4 12Z"/>
  <path fill-rule="evenodd" d="M12 24c6.627 0 12-5.373 12-12S18.627 0 12 0 0 5.373 0 12s5.373 12 12 12Zm0-3a9 9 0 1 0 0-18 9 9 0 0 0 0 18Z" clip-rule="evenodd"/>
  <path d="M15.812 14.89a.5.5 0 0 0 .078-.702L14.54 12.5h3.96a.5.5 0 1 0 0-1h-3.96l1.35-1.688a.5.5 0 1 0-.78-.624l-2 2.5-.009.01a.497.497 0 0 0 .01.617l1.999 2.497a.5.5 0 0 0 .702.079Z"/>
  <path fill-rule="evenodd" d="M10 19.748V4.252A8.014 8.014 0 0 1 12 4v16a8 8 0 0 1-2-.252Z" clip-rule="evenodd"/>
</svg>
