<svg xmlns="http://www.w3.org/2000/svg" viewBox="0 0 24 24">
  <path d="M9 4.582a7.993 7.993 0 0 0-2 1.173v12.49c.602.483 1.274.88 2 1.174V4.582ZM4 12a7.97 7.97 0 0 1 2-5.292v10.584A7.97 7.97 0 0 1 4 12Z"/>
  <path fill-rule="evenodd" d="M12 24c6.627 0 12-5.373 12-12S18.627 0 12 0 0 5.373 0 12s5.373 12 12 12Zm0-3a9 9 0 1 0 0-18 9 9 0 0 0 0 18Z" clip-rule="evenodd"/>
  <path d="M15.188 9.11a.5.5 0 0 0-.078.702L16.86 12l-1.75 2.188a.5.5 0 1 0 .78.624l2-2.5a.5.5 0 0 0 0-.624l-2-2.5a.5.5 0 0 0-.702-.078Zm-1.298.702a.5.5 0 1 0-.78-.624l-2 2.5a.5.5 0 0 0 0 .624l2 2.5a.5.5 0 0 0 .78-.624L12.14 12l1.75-2.188Z"/>
</svg>
