<svg xmlns="http://www.w3.org/2000/svg" viewBox="0 0 24 24">
  <path d="M6.58 13.66c.26.28.447.34.563.34.116 0 .302-.06.562-.34.36-.387.792-.66 1.295-.66.503 0 .936.273 1.295.66.26.28.446.34.562.34.116 0 .303-.06.562-.34.36-.387.792-.66 1.295-.66.503 0 .936.273 1.295.66.26.28.446.34.562.34.117 0 .303-.06.563-.34a.5.5 0 1 1 .732.68c-.359.387-.792.66-1.295.66-.503 0-.935-.273-1.295-.66-.26-.28-.446-.34-.562-.34-.116 0-.302.06-.562.34-.36.387-.792.66-1.295.66-.503 0-.936-.273-1.295-.66-.26-.28-.446-.34-.562-.34-.116 0-.303.06-.562.34-.36.387-.792.66-1.295.66-.503 0-.936-.273-1.295-.66a.5.5 0 1 1 .733-.68ZM9.429 10c-.117 0-.303-.06-.563-.34a.5.5 0 0 0-.732.68c.359.387.792.66 1.295.66.503 0 .935-.273 1.294-.66.26-.28.447-.34.563-.34.116 0 .302.06.562.34.36.387.792.66 1.295.66.503 0 .935-.273 1.295-.66.26-.28.446-.34.562-.34.116 0 .303.06.562.34.36.387.792.66 1.295.66.503 0 .936-.273 1.295-.66a.5.5 0 1 0-.733-.68c-.26.28-.446.34-.562.34-.116 0-.302-.06-.562-.34C15.935 9.273 15.503 9 15 9c-.503 0-.936.273-1.295.66-.26.28-.446.34-.562.34-.116 0-.303-.06-.562-.34-.36-.387-.792-.66-1.295-.66-.503 0-.936.273-1.295.66-.26.28-.446.34-.562.34Z"/>
  <path fill-rule="evenodd" d="M.5 2a.5.5 0 0 0-.5.5v19a.5.5 0 0 0 .5.5h23a.5.5 0 0 0 .5-.5v-19a.5.5 0 0 0-.5-.5H.5ZM3 5v14h18V5h-2v1.5a.5.5 0 0 1-1 0V5h-2v1.5a.5.5 0 0 1-1 0V5H3Z" clip-rule="evenodd"/>
</svg>
