<svg xmlns="http://www.w3.org/2000/svg" viewBox="0 0 24 24">
  <path fill-rule="evenodd" d="M19.77 21.5c0 1.404-1.5 1.404-1.5 0 0-2.626-3.5-2.626-3.5.001 0 .44-.148.768-.417.925a.66.66 0 0 1-.659.001c-.27-.156-.42-.484-.42-.924-.002-1.316-.883-2.003-1.753-2.003h-.001c-.87.001-1.75.688-1.75 2 0 1.404-1.5 1.404-1.5 0 0-2.626-3.5-2.626-3.5 0 0 1.425-1.5 1.425-1.5 0 0-2.626-3.27-2.626-3.27 0a.499.499 0 1 0 .999 0c0-1.02.7-1.192 1.035-.801.108.126.235.368.235.801 0 .602.181 1.115.523 1.487.317.347.765.544 1.228.544.869 0 1.75-.697 1.75-2.031 0-1.038.852-1.199 1.244-.783.167.178.256.449.256.783 0 .754.285 1.219.523 1.478.922.992 2.976.559 2.977-1.478 0-.69.377-1 .75-1h.001c.374 0 .752.31.753 1.003.001.802.337 1.454.921 1.791a1.665 1.665 0 0 0 1.66-.003c.583-.338.917-.99.916-1.791-.001-1.038.852-1.199 1.244-.783.167.178.256.449.256.783 0 .754.285 1.219.523 1.478.922.992 2.976.559 2.977-1.478 0-1.015.669-1.195.998-.804.106.126.232.368.232.804a.5.5 0 0 0 1 0c-.002-2.626-3.231-2.626-3.231 0ZM20.499 0c-1.654 0-3 1.347-3 3v3h-6V3c0-1.104.897-2 2-2 1.102 0 2 .896 2 2v1a.5.5 0 0 0 1 0V3c0-1.653-1.346-3-3-3s-3 1.347-3 3v11.858c-.425.327-.729.874-.729 1.642 0 1.404-1.5 1.404-1.5 0 0-2.626-3.5-2.626-3.5 0 0 1.425-1.5 1.425-1.5 0 0-2.626-3.27-2.626-3.27 0a.499.499 0 1 0 .999 0c0-1.019.7-1.193 1.035-.801.108.126.235.368.235.801 0 .602.181 1.115.523 1.487.317.347.765.544 1.228.544.869 0 1.75-.697 1.75-2.031 0-1.038.852-1.2 1.244-.783.167.178.256.449.256.783 0 .754.285 1.219.523 1.478.922.992 2.976.559 2.977-1.478 0-.69.377-1 .75-1h.001c.374 0 .752.311.753 1.003.001.802.337 1.454.921 1.791a1.667 1.667 0 0 0 1.66-.003c.583-.338.917-.99.916-1.791-.001-1.038.852-1.2 1.244-.783.167.178.256.449.256.783 0 .48.119.832.266 1.1l.029.057c.074.127.153.238.229.321.922.992 2.976.559 2.977-1.478 0-1.016.669-1.196.998-.804.106.126.232.368.232.804a.5.5 0 0 0 1 0c0-2.626-3.229-2.626-3.229 0 0 1.058-.851 1.316-1.271.78V3c0-1.104.897-2 2-2s2 .896 2 2v1a.498.498 0 1 0 .997 0V3c0-1.653-1.346-3-3-3Zm-9 10h6v2h-6v-2Zm6-3v2h-6V7h6Zm-2.729 9.501c0 .44-.148.768-.417.925a.66.66 0 0 1-.659.001c-.27-.156-.42-.484-.42-.924-.002-1.316-.883-2.003-1.753-2.003h-.001l-.021.002V13h6v1.841c-1.03-.722-2.729-.172-2.729 1.66Z" clip-rule="evenodd"/>
</svg>
