<svg xmlns="http://www.w3.org/2000/svg" viewBox="0 0 24 24">
  <path d="M12.143 10c-.116 0-.303-.06-.562-.34-.36-.387-.792-.66-1.295-.66-.503 0-.936.273-1.295.66a.5.5 0 1 0 .733.68c.26-.28.446-.34.562-.34.116 0 .302.06.562.34.36.387.792.66 1.295.66.503 0 .935-.273 1.295-.66.26-.28.446-.34.562-.34.116 0 .303.06.562.34.36.387.792.66 1.295.66.503 0 .936-.273 1.295-.66a.5.5 0 0 0-.733-.68c-.26.28-.446.34-.562.34-.116 0-.302-.06-.562-.34C14.935 9.273 14.503 9 14 9c-.503 0-.936.273-1.295.66-.26.28-.446.34-.562.34ZM7.58 13.66c.26.28.447.34.563.34.116 0 .302-.06.562-.34.36-.387.792-.66 1.295-.66.503 0 .936.273 1.295.66.26.28.446.34.562.34.116 0 .303-.06.562-.34.36-.387.792-.66 1.295-.66.503 0 .936.273 1.295.66a.5.5 0 1 1-.733.68c-.26-.28-.446-.34-.562-.34-.116 0-.302.06-.562.34-.36.387-.792.66-1.295.66-.503 0-.935-.273-1.295-.66-.26-.28-.446-.34-.562-.34-.116 0-.303.06-.562.34-.36.387-.792.66-1.295.66-.503 0-.936-.273-1.295-.66a.5.5 0 1 1 .733-.68Z"/>
  <path fill-rule="evenodd" d="M12 24c6.627 0 12-5.373 12-12S18.627 0 12 0 0 5.373 0 12s5.373 12 12 12Zm0-3a9 9 0 0 0 2-17.777V5a.5.5 0 0 1-1 0V3.055a9.097 9.097 0 0 0-2 0V5a.5.5 0 0 1-1 0V3.223A9 9 0 0 0 12 21Z" clip-rule="evenodd"/>
</svg>
