<svg xmlns="http://www.w3.org/2000/svg" viewBox="0 0 24 24">
  <path d="M6 6H4v12h2V6Zm1 12h2V6H7v12Z"/>
  <path fill-rule="evenodd" d="M.5 2a.5.5 0 0 0-.5.5v19a.5.5 0 0 0 .5.5h23a.5.5 0 0 0 .5-.5v-19a.5.5 0 0 0-.5-.5H.5ZM3 5h18v14H3V5Z" clip-rule="evenodd"/>
  <path d="M15.188 9.11a.5.5 0 0 0-.078.702L16.86 12l-1.75 2.188a.5.5 0 1 0 .78.624l2-2.5a.5.5 0 0 0 0-.624l-2-2.5a.5.5 0 0 0-.702-.078Zm-1.298.702a.5.5 0 1 0-.78-.624l-2 2.5a.5.5 0 0 0 0 .624l2 2.5a.5.5 0 0 0 .78-.624L12.14 12l1.75-2.188Z"/>
</svg>
