<svg xmlns="http://www.w3.org/2000/svg" viewBox="0 0 24 24">
  <path fill-rule="evenodd" d="M4.5 0a.5.5 0 0 0-.39.188l-4 5A.5.5 0 0 0 .5 6H4v13H2.5a.5.5 0 0 0-.5.5v1a.5.5 0 0 0 .5.5h19a.5.5 0 0 0 .5-.5v-1a.5.5 0 0 0-.5-.5H20V6h3.5a.5.5 0 0 0 .39-.812l-4-5A.5.5 0 0 0 19.5 0h-15ZM19 19V6H5v13h3V9.5a.5.5 0 0 1 .5-.5h7a.5.5 0 0 1 .5.5V19h3Zm-4-5h-.5a.5.5 0 0 0 0 1h.5v-1Z" clip-rule="evenodd"/>
  <path d="M24 21.498V22.5a.5.5 0 0 0-.5-.5H.5a.5.5 0 0 0-.5.5v1a.5.5 0 0 0 .5.5h23a.5.5 0 0 0 .5-.498v-2.004Z"/>
</svg>
