<svg xmlns="http://www.w3.org/2000/svg" viewBox="0 0 24 24">
  <path fill-rule="evenodd" d="M12.952.693a1 1 0 0 0-1.904 0L9.658 5H3.5a.5.5 0 0 0 0 1h5.836l-.645 2H4.5a.5.5 0 0 0 0 1h3.869l-2.302 7.136-2.975 6.445a1 1 0 0 0 1.816.838l.51-1.105L12 19.543l6.582 2.77.51 1.106a1 1 0 0 0 1.816-.838l-2.975-6.445L15.631 9H19.5a.5.5 0 0 0 0-1h-4.191l-.645-2H20.5a.5.5 0 0 0 0-1h-6.159L12.951.693Zm3.488 16.98 1.52 3.294L13.29 19l3.151-1.327Zm-.414-.935.007.021L12 18.457 7.967 16.76l.007-.021L12 15.043l4.026 1.695Zm-.963-2.985.558 1.73-2.332-.983 1.774-.747Zm-.344-1.066.036.11L12 13.957l-2.755-1.16.036-.11L12 11.543l2.72 1.145Zm-.65-2.016.245.761L13.29 11l.78-.329ZM13.529 9l.232.716-1.761.742-1.76-.742.23-.716h3.06Zm-.967-3 .645 2h-2.414l.645-2h1.124Zm-.802-1 .24-.743.24.743h-.48Zm-2.074 6.432.245-.76.78.328-1.025.432Zm-1.307 4.05.558-1.73 1.774.748-2.332.982Zm-2.34 5.485 1.521-3.294L10.711 19 6.04 20.967Z" clip-rule="evenodd"/>
</svg>
