<svg xmlns="http://www.w3.org/2000/svg" viewBox="0 0 24 24">
  <path fill-rule="evenodd" d="M14.475 1.025a3.5 3.5 0 1 1-4.95 4.95 3.5 3.5 0 0 1 4.95-4.95ZM10 14.533V18.5a.5.5 0 0 0 .5.5h3c.275 0 .5-.225.5-.5v-3.967c1.951-.934 3-3.734 3-6.033a.5.5 0 0 0-.5-.5h-9a.5.5 0 0 0-.5.5c0 2.298 1.048 5.099 3 6.033Zm2 5.973c-4.015 0-6.366-.821-6.502-1.239.035-.111.574-.603 2.581-.954a.5.5 0 1 0-.172-.985c-2.26.396-3.407 1.045-3.407 1.928 0 1.776 4.714 2.25 7.5 2.25 2.785 0 7.5-.474 7.5-2.25 0-.882-1.142-1.531-3.394-1.926a.501.501 0 0 0-.173.986c1.997.351 2.533.84 2.567.929-.134.44-2.486 1.261-6.5 1.261Zm4.066-5.247a.5.5 0 0 0-.128.992c4.636.599 7.062 2.09 7.062 3.253 0 1.654-4.518 3.498-11 3.498S1 21.158 1 19.504c0-1.164 2.426-2.655 7.064-3.254a.5.5 0 0 0-.128-.992C4.099 15.754 0 17.129 0 19.503 0 21.682 4.205 24 12 24c7.794 0 12-2.317 12-4.497 0-2.374-4.099-3.749-7.934-4.244Z" clip-rule="evenodd"/>
</svg>
