<svg xmlns="http://www.w3.org/2000/svg" viewBox="0 0 24 24">
  <g clip-path="url(#a)">
    <path d="M23.5.5V3H.5V.5A.5.5 0 0 1 1 0h22a.5.5 0 0 1 .5.5Z"/>
    <path fill-rule="evenodd" d="M21.5 17h1.479a.5.5 0 1 1 0 1H12.5v2.071c.86.223 1.5 1 1.5 1.929 0 1.103-.898 2-2 2-1.102 0-2-.897-2-2 0-.929.64-1.706 1.5-1.929V18H1.02a.5.5 0 0 1 0-1H2.5V4h19v13ZM12 23a1.001 1.001 0 0 0 0-2 1.001 1.001 0 0 0 0 2Zm-4.625-7.881 2.873-1.336C13.487 14.766 17 12.828 17 9.96c0-2.253-2.238-4.079-5-4.079S7 7.706 7 9.96c0 1.141.574 2.173 1.5 2.913l-1.125 2.246Z" clip-rule="evenodd"/>
  </g>
  <defs>
    <clipPath id="a">
      <path d="M0 0h24v24H0z"/>
    </clipPath>
  </defs>
</svg>
