<svg xmlns="http://www.w3.org/2000/svg" viewBox="0 0 24 24">
  <path d="M3.5 10a.5.5 0 1 0 0 1 .5.5 0 0 0 0-1Z"/>
  <path d="M21.5 7h-19A2.503 2.503 0 0 0 0 9.5v6C0 16.878 1.121 18 2.5 18H5v4.5a.5.5 0 0 0 .5.5h13a.5.5 0 0 0 .5-.5V18h2.5c1.378 0 2.5-1.122 2.5-2.5v-6C24 8.122 22.878 7 21.5 7Zm-18 5c-.827 0-1.5-.673-1.5-1.5S2.673 9 3.5 9c.826 0 1.5.673 1.5 1.5S4.326 12 3.5 12ZM18 22H6v-7h12v7ZM5.5 6h13a.5.5 0 0 0 .5-.5v-1a.5.5 0 0 0-.146-.353l-3-3A.5.5 0 0 0 15.5 1h-10a.5.5 0 0 0-.5.5v4a.5.5 0 0 0 .5.5Zm10-4.5 3 3h-3v-3Z"/>
  <path d="M7.5 17h9a.5.5 0 0 0 0-1h-9a.5.5 0 0 0 0 1Zm0 2h9a.5.5 0 0 0 0-1h-9a.5.5 0 0 0 0 1Zm0 2h9a.5.5 0 0 0 0-1h-9a.5.5 0 0 0 0 1Z"/>
</svg>
