<svg xmlns="http://www.w3.org/2000/svg" viewBox="0 0 24 24">
  <path d="M15 4V.5a.5.5 0 0 0-.5-.5h-6a.5.5 0 0 0-.5.5V4h7Zm-3.5-3a1 1 0 1 1 0 2 1 1 0 0 1 0-2Zm-4 4a.5.5 0 0 0-.5.5v2a.5.5 0 0 0 .5.5h8a.5.5 0 0 0 .5-.5V6h3v7H3.5a.5.5 0 0 0-.5.5V16h18v-2.5a.5.5 0 0 0-.5-.5H20V5.5a.5.5 0 0 0-.5-.5h-12ZM4 22.5a.5.5 0 0 0 .5.5H5v.5a.5.5 0 0 0 1 0V23h12v.5a.5.5 0 0 0 1 0V23h.5a.5.5 0 0 0 .5-.5V17H4v5.5Zm13-4a.5.5 0 0 1 1 0v2a.5.5 0 0 1-1 0v-2Zm-2 0a.5.5 0 0 1 1 0v2a.5.5 0 0 1-1 0v-2Zm-2 0a.5.5 0 0 1 1 0v2a.5.5 0 0 1-1 0v-2Z"/>
</svg>
