<svg xmlns="http://www.w3.org/2000/svg" viewBox="0 0 24 24">
  <path d="M9.731 2.557c.673.354 2.357.051 2.761-.722.156-.299.646-.42.877-.017.574 1 .968.987 1.93.813C14.984 1.122 13.856 0 12.5 0c-1.346 0-2.467 1.106-2.791 2.599l.022-.042Zm4.236 5.547 3.391 1.036c.691.248 1.142.627 1.142 1.36v.5h-12v-.5c0-.733.451-1.112 1.143-1.359l3.391-1.036a13.76 13.76 0 0 1 2.933-.001ZM9.614 3.578c1.053.292 2.393.084 3.282-.686.704.841 1.485.95 2.485.744-.072 1.842-1.328 3.312-2.881 3.312-1.57 0-2.839-1.501-2.886-3.37ZM19.5 20h-15a.5.5 0 0 0-.5.5v3a.5.5 0 0 0 .5.5h15a.5.5 0 0 0 .5-.5v-3a.5.5 0 0 0-.5-.5Zm-19-8h23a.5.5 0 0 1 .5.5v6a.5.5 0 0 1-.5.5H.5a.5.5 0 0 1-.5-.5v-6a.5.5 0 0 1 .5-.5Z"/>
</svg>
