<svg xmlns="http://www.w3.org/2000/svg" viewBox="0 0 24 24">
  <path d="M6.5 21A2.503 2.503 0 0 1 4 18.5v-13C4 4.122 5.122 3 6.5 3h6.793l-1.147 1.147a.5.5 0 1 0 .708.706l1.999-2a.501.501 0 0 0 0-.708L12.854.146a.5.5 0 0 0-.707.707L13.293 2H6.5C4.57 2 3 3.57 3 5.5v13C3 20.43 4.57 22 6.5 22a.5.5 0 0 0 0-1Zm11-19a.5.5 0 0 0 0 1C18.878 3 20 4.122 20 5.5v13c0 1.379-1.122 2.5-2.5 2.5h-6.793l1.147-1.146a.5.5 0 0 0-.707-.707l-1.999 1.999a.501.501 0 0 0 0 .708l1.999 2a.498.498 0 0 0 .707 0 .5.5 0 0 0 0-.707L10.707 22H17.5c1.93 0 3.5-1.57 3.5-3.5v-13C21 3.57 19.43 2 17.5 2Z"/>
  <path d="M16 17.5v-9a.5.5 0 0 0-.5-.5H14V6.5a.5.5 0 0 0-.5-.5h-3a.5.5 0 0 0-.5.5V8H8.5a.5.5 0 0 0-.5.5v9a.5.5 0 0 0 .5.5h7a.5.5 0 0 0 .5-.5Zm-2.144-4.648-2.5 2.532a.499.499 0 0 1-.708.004.501.501 0 0 1-.005-.707L12.304 13H10.5a.5.5 0 0 1-.352-.857l2.5-2.468a.5.5 0 1 1 .703.712L11.718 12H13.5a.5.5 0 0 1 .356.852Z"/>
</svg>
