<svg xmlns="http://www.w3.org/2000/svg" viewBox="0 0 24 24">
  <path fill-rule="evenodd" d="M20.543 8.537c-1.354 1.237-3.533 2.029-6.043 2.029-2.511 0-4.689-.792-6.043-2.029C6.894 9.372 6 10.512 6 11.766c0 2.557 3.733 4.56 8.5 4.56 4.767 0 8.5-2.003 8.5-4.56 0-1.254-.894-2.393-2.457-3.229ZM9.295 10.592c-.835.587-1.266 1.269-1.097 1.736.121.335-.163.67-.523.636a.499.499 0 0 1-.421-.32c-.326-.901.216-1.956 1.449-2.826a.515.515 0 0 1 .699.103.467.467 0 0 1-.107.67Zm11.749 5.238c-1.68.909-3.956 1.456-6.544 1.456-3.998 0-7.265-1.296-8.704-3.238C3.426 14.983 2 16.418 2 18.006c0 2.826 4.393 5.04 10 5.04s10-2.214 10-5.04c0-.766-.334-1.506-.956-2.176Zm-14.909.684c-1.381.66-2.204 1.568-2.049 2.255a.485.485 0 0 1-.489.58.495.495 0 0 1-.488-.378c-.261-1.16.727-2.43 2.58-3.316a.508.508 0 0 1 .67.215.472.472 0 0 1-.224.644ZM14.5 1.446c-3.645 0-6.5 1.792-6.5 4.08 0 2.288 2.855 4.08 6.5 4.08S21 7.814 21 5.526c0-2.288-2.855-4.08-6.5-4.08Zm-1.211 1.927c-1.662.248-2.942 1.216-2.796 2.115a.483.483 0 0 1-.418.547.497.497 0 0 1-.57-.4C9.27 4.17 10.864 2.76 13.136 2.423a.498.498 0 0 1 .571.4.485.485 0 0 1-.418.55Z" clip-rule="evenodd"/>
</svg>
