<svg xmlns="http://www.w3.org/2000/svg" viewBox="0 0 24 24">
  <g clip-path="url(#a)">
    <path d="M8.22 6.964a.5.5 0 0 0 .277-.65c-.446-1.107-.237-1.884.006-2.785v-.002c.244-.897.517-1.914-.006-3.214a.501.501 0 0 0-.928.374c.397.99.199 1.726-.03 2.579l-.002.004c-.253.938-.539 2 .032 3.417a.5.5 0 0 0 .65.277Zm4.277-.65a.5.5 0 1 1-.928.373c-.571-1.416-.285-2.479-.032-3.417l.001-.004c.23-.853.428-1.59.03-2.58a.501.501 0 0 1 .929-.373c.523 1.3.25 2.317.007 3.214l-.001.002c-.243.901-.452 1.678-.006 2.785Zm4 0a.5.5 0 1 1-.928.373c-.571-1.416-.285-2.479-.032-3.417v-.002l.001-.002c.23-.853.428-1.59.03-2.58a.501.501 0 0 1 .929-.373c.523 1.3.25 2.317.007 3.214l-.001.002c-.243.901-.452 1.678-.006 2.785Z"/>
    <path fill-rule="evenodd" d="M6.664 10.519A3.002 3.002 0 0 0 4.041 13H3.5a.5.5 0 0 0-.5.5v8a.5.5 0 0 0 .5.5H6v1.5a.5.5 0 0 0 .5.5h11a.5.5 0 0 0 .5-.5V22h2.5a.5.5 0 0 0 .5-.5v-8a.5.5 0 0 0-.5-.5h-.541a3.002 3.002 0 0 0-2.623-2.481A3 3 0 0 0 12 9.84a3 3 0 0 0-5.336.677Zm1.056.068c.74.182 1.37.638 1.78 1.254a3.004 3.004 0 0 1 1.78-1.254 2 2 0 0 0-3.56 0Zm5 0c.74.182 1.37.638 1.78 1.254a3.004 3.004 0 0 1 1.78-1.254 2 2 0 0 0-3.56 0ZM13.937 13a2.001 2.001 0 0 0-3.874 0h3.874Zm-5 0a2 2 0 0 0-3.874 0h3.874Zm10 0a2 2 0 0 0-3.874 0h3.874ZM7.5 15a.5.5 0 0 1 .5.5v4a.5.5 0 0 1-1 0v-4a.5.5 0 0 1 .5-.5Zm3 0a.5.5 0 0 1 .5.5v4a.5.5 0 0 1-1 0v-4a.5.5 0 0 1 .5-.5Zm3.5.5a.5.5 0 0 0-1 0v4a.5.5 0 0 0 1 0v-4Zm3 0a.5.5 0 0 0-1 0v4a.5.5 0 0 0 1 0v-4Z" clip-rule="evenodd"/>
  </g>
  <defs>
    <clipPath id="a">
      <path d="M0 0h24v24H0z"/>
    </clipPath>
  </defs>
</svg>
