<svg xmlns="http://www.w3.org/2000/svg" viewBox="0 0 24 24">
  <path d="m23.797 8.598-11.5-8.5a.503.503 0 0 0-.595 0l-11.5 8.5A.5.5 0 0 0 0 9v3.5a.498.498 0 0 0 .5.5.499.499 0 0 0 .297-.098l11.232-8.281 11.173 8.281A.501.501 0 0 0 24 12.5V9a.498.498 0 0 0-.203-.402Z"/>
  <path fill-rule="evenodd" d="M23.5 23H22v-9.744l-9.973-7.391L2 13.258V14h4.649a.5.5 0 0 1 0 1H2v1h4.649a.5.5 0 0 1 0 1H2v1h4.649a.5.5 0 0 1 0 1H2v1h10.634a.5.5 0 0 1 0 1H2v1h10.634a.5.5 0 0 1 0 1H.5a.5.5 0 0 0 0 1h23a.5.5 0 0 0 0-1Zm-6.502-11.783a.5.5 0 0 0 .055.705c.68.582.725.952.68 1.186-.028.147-.104.31-.236.5a6.57 6.57 0 0 1-.491.602l-.02.022c-.178.203-.378.43-.545.667a2.377 2.377 0 0 0-.404.867c-.153.725.167 1.422.975 2.114a.5.5 0 0 0 .65-.76c-.66-.566-.695-.921-.647-1.148.03-.145.11-.307.244-.498.135-.192.303-.383.496-.601l.001-.002a7.64 7.64 0 0 0 .565-.695c.172-.25.33-.544.394-.879.14-.73-.191-1.433-1.012-2.135a.5.5 0 0 0-.705.055Zm-2.945.705a.5.5 0 1 1 .65-.76c.82.702 1.153 1.405 1.012 2.135a2.342 2.342 0 0 1-.394.88 7.64 7.64 0 0 1-.565.694l-.001.002c-.192.218-.36.41-.496.601-.134.191-.213.353-.244.498-.048.227-.014.582.647 1.148a.5.5 0 1 1-.65.76c-.808-.692-1.129-1.389-.975-2.114.07-.33.23-.62.404-.867a8.04 8.04 0 0 1 .546-.667l.019-.022c.191-.217.359-.409.491-.601.132-.191.208-.354.236-.5.045-.235 0-.605-.68-1.187Z" clip-rule="evenodd"/>
</svg>
