<svg xmlns="http://www.w3.org/2000/svg" viewBox="0 0 24 24">
  <path d="M17.5 11a6.508 6.508 0 0 0-6.5 6.5c0 3.584 2.916 6.5 6.5 6.5s6.5-2.916 6.5-6.5-2.916-6.5-6.5-6.5Zm.707 6.5 2.347 2.346a.5.5 0 0 1-.707.707L17.5 18.206l-2.347 2.347a.5.5 0 0 1-.707-.707l2.347-2.346-2.347-2.346a.5.5 0 0 1 .707-.707l2.347 2.347 2.347-2.347a.5.5 0 0 1 .707.707L18.207 17.5ZM10 17h.025a7.44 7.44 0 0 1 1.159-3.529C6.647 13.684 1.98 12.595 0 10.862V13.5C0 15.085 4.46 17 10 17Z"/>
  <path d="M11.998 12.42c1.883-2.039 4.742-2.922 7.544-2.131.175-.121.329-.244.458-.368V6.669C17.864 8.106 13.783 9 10 9 6.035 9 1.862 7.992 0 6.362V9c0 1.751 5.462 3.941 11.998 3.42Z"/>
  <path d="M10 8c4.579 0 8.625-1.262 10-2.578V4.5C20 1.977 15.607 0 10 0S0 1.977 0 4.5C0 6.085 4.461 8 10 8Zm0 10c-3.965 0-8.138-1.008-10-2.638V17.5c0 2.775 5.295 4.849 11.475 4.447A7.436 7.436 0 0 1 10.026 18H10Z"/>
</svg>
