<svg xmlns="http://www.w3.org/2000/svg" viewBox="0 0 24 24">
  <path d="M10 17a25.08 25.08 0 0 0 3.174-.202l1.903-3.808c-1.617.329-3.378.51-5.077.51-3.965 0-8.138-1.008-10-2.638V13.5C0 15.085 4.46 17 10 17Zm0-9c4.579 0 8.625-1.262 10-2.578V4.5C20 1.977 15.607 0 10 0S0 1.977 0 4.5C0 6.085 4.461 8 10 8Z"/>
  <path d="M10 18c-3.965 0-8.138-1.008-10-2.638V17.5c0 2.625 4.732 4.635 10.579 4.487l2.064-4.127c-.879.091-1.769.14-2.643.14Zm6.158-7.194c.518-1.028 2.037-1.094 2.633-.073.507-.261.92-.533 1.209-.811V6.669C17.864 8.106 13.783 9 10 9 6.035 9 1.862 7.992 0 6.362V9c0 1.585 4.46 3.5 10 3.5 2.05 0 3.992-.254 5.637-.651l.521-1.043Z"/>
  <path d="m23.947 23.253-6-12c-.17-.338-.725-.338-.895 0l-6 12a.5.5 0 0 0 .447.724h12a.5.5 0 0 0 .448-.724ZM17.5 21.977a.5.5 0 1 1 0-1 .5.5 0 0 1 0 1Zm.5-2a.5.5 0 0 1-1 0v-3.5a.5.5 0 0 1 1 0v3.5Z"/>
</svg>
