<svg xmlns="http://www.w3.org/2000/svg" viewBox="0 0 24 24">
  <path fill-rule="evenodd" d="M5.353 4.646a.5.5 0 1 1-.708.707.5.5 0 0 1 .708-.707Zm0 14a.5.5 0 1 1-.708.707.5.5 0 0 1 .708-.707Zm0-7a.5.5 0 1 1-.708.707.5.5 0 0 1 .708-.707ZM23 8V2.5c0-.827-.673-1.5-1.5-1.5h-19C1.673 1 1 1.673 1 2.5V8h22ZM9 4h10a.5.5 0 0 1 0 1H9a.5.5 0 0 1 0-1Zm0 2h10a.5.5 0 0 1 0 1H9a.5.5 0 0 1 0-1ZM5 3.5c.827 0 1.5.673 1.5 1.5S5.827 6.5 5 6.5 3.5 5.827 3.5 5 4.173 3.5 5 3.5ZM1 16v5.5c0 .827.673 1.5 1.5 1.5h19c.827 0 1.5-.673 1.5-1.5V16H1Zm4 4.5c-.827 0-1.5-.673-1.5-1.5s.673-1.5 1.5-1.5 1.5.673 1.5 1.5-.673 1.5-1.5 1.5Zm14 .5H9a.5.5 0 0 1 0-1h10a.5.5 0 0 1 0 1Zm0-2H9a.5.5 0 0 1 0-1h10a.5.5 0 0 1 0 1Zm4-10H1v6h22V9ZM5 13.5c-.827 0-1.5-.673-1.5-1.5s.673-1.5 1.5-1.5 1.5.673 1.5 1.5-.673 1.5-1.5 1.5Zm14 .5H9a.5.5 0 0 1 0-1h10a.5.5 0 0 1 0 1Zm0-2H9a.5.5 0 0 1 0-1h10a.5.5 0 0 1 0 1Z" clip-rule="evenodd"/>
</svg>
