<svg xmlns="http://www.w3.org/2000/svg" viewBox="0 0 24 24">
  <path d="M12 1C6.393 1 2 2.977 2 5.5 2 7.085 6.461 9 12 9c4.579 0 8.625-1.262 10-2.578V5.5C22 2.977 17.607 1 12 1Z"/>
  <path d="M2 7.362V10c0 1.585 4.46 3.5 10 3.5 4.578 0 8.625-1.262 10-2.579V7.669C19.864 9.106 15.783 10 12 10 8.035 10 3.862 8.992 2 7.362Z"/>
  <path d="M2 11.862V14.5C2 16.085 6.46 18 12 18c4.578 0 8.625-1.262 10-2.578v-3.253c-2.137 1.437-6.218 2.331-10 2.331-3.965 0-8.138-1.008-10-2.638Z"/>
  <path d="M2 16.362V18.5C2 21.023 6.393 23 12 23s10-1.977 10-4.5v-1.831C19.863 18.105 15.782 19 12 19c-3.965 0-8.138-1.008-10-2.638Z"/>
</svg>
