<svg xmlns="http://www.w3.org/2000/svg" viewBox="0 0 24 24">
  <path d="M10 0C4.393 0 0 1.977 0 4.5 0 6.085 4.461 8 10 8c4.579 0 8.625-1.262 10-2.578V4.5C20 1.977 15.607 0 10 0Zm.2 19.813a1.5 1.5 0 0 1 .268-1.833c-.156.004-.313.02-.468.02-3.965 0-8.138-1.008-10-2.638V17.5c0 2.722 5.11 4.826 11.424 4.433l-1.224-2.12Z"/>
  <path d="M10.052 16.286a1.491 1.491 0 0 1 .152-1.133l.975-1.687c-.395.02-.788.034-1.179.034-3.965 0-8.138-1.008-10-2.638V13.5c0 1.668 4.877 3.628 10.472 3.489a1.482 1.482 0 0 1-.42-.703Z"/>
  <path d="m13.885 11.779.365.211.131-.074V11.5c0-.827.673-1.5 1.5-1.5h3.265c.216 0 .42.048.605.13.088-.069.176-.139.249-.209V6.669C17.864 8.106 13.783 9 10 9 6.035 9 1.862 7.992 0 6.362V9c0 1.585 4.46 3.5 10 3.5.606 0 1.197-.029 1.778-.071.506-.869 1.449-1.028 2.107-.65Z"/>
  <path d="m23.75 18.631-.893-.516c.055-.439.05-.846 0-1.262l.891-.515a.501.501 0 0 0 .184-.683l-1.633-2.828a.5.5 0 0 0-.684-.183l-.887.516a5.67 5.67 0 0 0-1.083-.624V11.5a.5.5 0 0 0-.5-.5H15.88a.5.5 0 0 0-.5.5v1.036c-.33.144-.719.349-1.098.627l-.898-.518a.499.499 0 0 0-.682.183l-1.635 2.828a.501.501 0 0 0 .184.683l.891.515a5.028 5.028 0 0 0-.001 1.262l-.892.516a.502.502 0 0 0-.184.683l1.633 2.828a.503.503 0 0 0 .682.184l.902-.518a5.79 5.79 0 0 0 1.098.626v1.035a.5.5 0 0 0 .5.5h3.265a.5.5 0 0 0 .5-.5v-1.035c.39-.173.757-.385 1.083-.625l.891.515a.5.5 0 0 0 .684-.182l1.631-2.828a.502.502 0 0 0-.184-.684Zm-6.251 1.03a2.177 2.177 0 1 1 0-4.354 2.177 2.177 0 0 1 0 4.354Z"/>
</svg>
