<svg xmlns="http://www.w3.org/2000/svg" viewBox="0 0 24 24">
  <path d="M10 17h.025a7.44 7.44 0 0 1 1.159-3.529C6.647 13.684 1.98 12.595 0 10.862V13.5C0 15.085 4.46 17 10 17Z"/>
  <path d="M11.998 12.42c1.883-2.039 4.742-2.922 7.544-2.131.175-.121.329-.244.458-.368V6.669C17.864 8.106 13.783 9 10 9 6.035 9 1.862 7.992 0 6.362V9c0 1.751 5.462 3.941 11.998 3.42Z"/>
  <path d="M10 8c4.579 0 8.625-1.262 10-2.578V4.5C20 1.977 15.607 0 10 0S0 1.977 0 4.5C0 6.085 4.461 8 10 8Zm0 10c-3.965 0-8.138-1.008-10-2.638V17.5c0 2.775 5.295 4.849 11.475 4.447A7.436 7.436 0 0 1 10.026 18H10Zm7.5-7a6.508 6.508 0 0 0-6.5 6.5c0 3.584 2.916 6.5 6.5 6.5s6.5-2.916 6.5-6.5-2.916-6.5-6.5-6.5Zm-4.465 5.014a4.507 4.507 0 0 1 4.242-2.998c1.337 0 2.619.593 3.5 1.514v-.568a.5.5 0 1 1 1 0v2.221a.5.5 0 0 1-.5.5h-2.223a.5.5 0 0 1 0-1h1.379c-.653-.991-1.873-1.666-3.156-1.666a3.511 3.511 0 0 0-3.301 2.332.5.5 0 1 1-.941-.335Zm8.93 2.972a4.508 4.508 0 0 1-4.242 2.998c-1.336 0-2.619-.591-3.5-1.512v.567a.5.5 0 1 1-1 0v-2.222a.5.5 0 0 1 .5-.5h2.223a.5.5 0 0 1 0 1h-1.379c.653.992 1.873 1.666 3.156 1.666a3.51 3.51 0 0 0 3.301-2.333.5.5 0 1 1 .941.336Z"/>
</svg>
