<svg xmlns="http://www.w3.org/2000/svg" viewBox="0 0 24 24">
  <path d="M18.001 4A9.956 9.956 0 0 0 12 2c-2.252 0-4.33.744-6.001 2h12.002ZM3.338 7c.422-.73.934-1.402 1.52-2h14.283c.587.598 1.099 1.27 1.521 2H3.338ZM2.2 10a9.924 9.924 0 0 1 .632-2h18.336c.277.635.49 1.304.632 2H2.2Zm-.15 3a10.118 10.118 0 0 1 0-2h19.9a10.106 10.106 0 0 1 0 2H2.05Zm19.75 1a9.921 9.921 0 0 1-.632 2H2.832a9.924 9.924 0 0 1-.632-2h19.6ZM4.859 19a10.039 10.039 0 0 1-1.521-2h17.324c-.422.73-.934 1.402-1.52 2H4.858ZM12 22a9.956 9.956 0 0 1-6.001-2h12.002A9.956 9.956 0 0 1 12 22Z"/>
  <path fill-rule="evenodd" d="M24 12c0 6.627-5.373 12-12 12S0 18.627 0 12 5.373 0 12 0s12 5.373 12 12Zm-1 0c0 6.075-4.925 11-11 11S1 18.075 1 12 5.925 1 12 1s11 4.925 11 11Z" clip-rule="evenodd"/>
</svg>
