<svg xmlns="http://www.w3.org/2000/svg" viewBox="0 0 24 24">
  <path d="M12.344.141c2.037 2.036 7.733 3.798 9.332 4.264l.196.057.226.063.032.041c.21.05.37.25.37.48 0 8.558-.77 15.389-10.32 18.924-.06.02-.12.03-.18.03s-.12-.02-.18-.04C2.252 20.415 1.5 13.584 1.5 5.026c0-.23.15-.43.37-.49.07-.03 7.395-2.017 9.754-4.394.18-.19.53-.19.72 0Zm4.525 9.021a.5.5 0 0 0-.707-.03l-5.647 5.176-2.661-2.662-.07-.057a.5.5 0 0 0-.638.764l3 3 .076.063a.5.5 0 0 0 .616-.047l6-5.5.06-.067a.5.5 0 0 0-.03-.64Z"/>
</svg>
