<svg xmlns="http://www.w3.org/2000/svg" viewBox="0 0 24 24">
  <path d="M12.363.141c.326.327.747.647 1.23.956a7.5 7.5 0 1 0 8.209 12.548c-1.036 4.499-3.561 8.071-9.628 10.318a.5.5 0 0 1-.348 0C2.261 20.421 1.5 13.584 1.5 5.015c0-.227.151-.424.37-.483h.001C2.007 4.495 9.278 2.506 11.64.14a.534.534 0 0 1 .723 0Z"/>
  <path fill-rule="evenodd" d="M24 7.5a6.5 6.5 0 1 1-13 0 6.5 6.5 0 0 1 13 0Zm-7-3a.5.5 0 0 1 .5.5v3h2a.5.5 0 0 1 0 1H17a.5.5 0 0 1-.5-.5V5a.5.5 0 0 1 .5-.5Z" clip-rule="evenodd"/>
</svg>
