<svg xmlns="http://www.w3.org/2000/svg" viewBox="0 0 24 24">
  <path fill-rule="evenodd" d="M1.87 4.538h.001C2.007 4.5 9.278 2.512 11.64.148a.534.534 0 0 1 .723 0c2.357 2.363 9.632 4.353 9.766 4.39h.001a.5.5 0 0 1 .37.483c0 8.57-.761 15.406-10.326 18.948a.5.5 0 0 1-.348 0C2.261 20.427 1.5 13.59 1.5 5.021c0-.227.151-.424.37-.483Zm11.537 3.253a.5.5 0 0 0-.814-.582l-2.5 3.5a.5.5 0 0 0 .407.791h2.59l-2.344 3.682-.256-1.28a.5.5 0 0 0-.98.196l.5 2.5a.5.5 0 0 0 .588.392l2.5-.5a.5.5 0 0 0-.196-.98l-1.351.27 2.87-4.512A.5.5 0 0 0 14 10.5h-2.528l1.935-2.71Z" clip-rule="evenodd"/>
</svg>
