<svg xmlns="http://www.w3.org/2000/svg" viewBox="0 0 24 24">
  <g clip-path="url(#a)">
    <path fill-rule="evenodd" d="M1.871 4.538H1.87a.499.499 0 0 0-.37.483c0 8.57.761 15.406 10.326 18.948a.5.5 0 0 0 .348 0C21.739 20.427 22.5 13.59 22.5 5.021a.499.499 0 0 0-.37-.483h-.001c-.134-.036-7.409-2.027-9.766-4.39a.534.534 0 0 0-.723 0C9.278 2.511 2.007 4.5 1.871 4.537Zm7.483 4.608a.5.5 0 1 0-.708.708l2.647 2.646-2.647 2.646a.5.5 0 0 0 .708.708L12 13.207l2.646 2.647a.5.5 0 0 0 .708-.708L12.707 12.5l2.647-2.646a.5.5 0 0 0-.708-.708L12 11.793 9.354 9.146Z" clip-rule="evenodd"/>
  </g>
  <defs>
    <clipPath id="a">
      <path d="M0 0h24v24H0z"/>
    </clipPath>
  </defs>
</svg>
