<svg xmlns="http://www.w3.org/2000/svg" viewBox="0 0 24 24">
  <path d="M13.593 1.097a7.306 7.306 0 0 1-1.23-.956.534.534 0 0 0-.723 0c-2.362 2.365-9.633 4.354-9.769 4.39l-.001.001a.499.499 0 0 0-.37.483c0 8.569.761 15.406 10.326 18.948a.5.5 0 0 0 .348 0c6.067-2.247 8.592-5.819 9.627-10.318a7.5 7.5 0 1 1-8.209-12.548Z"/>
  <path fill-rule="evenodd" d="M17.5 14a6.5 6.5 0 1 0 0-13 6.5 6.5 0 0 0 0 13Zm2.825-8.38a.5.5 0 0 1 .055.705l-3 3.5a.5.5 0 0 1-.734.029l-2-2a.5.5 0 0 1 .708-.708l1.618 1.619 2.648-3.09a.5.5 0 0 1 .705-.055Z" clip-rule="evenodd"/>
</svg>
