<svg xmlns="http://www.w3.org/2000/svg" viewBox="0 0 24 24">
  <path fill-rule="evenodd" d="M1.871 4.538H1.87a.499.499 0 0 0-.37.483c0 8.57.761 15.406 10.326 18.948a.5.5 0 0 0 .348 0C21.739 20.427 22.5 13.59 22.5 5.021a.499.499 0 0 0-.37-.483h-.001C21.995 4.5 14.72 2.51 12.363.148a.534.534 0 0 0-.723 0C9.278 2.511 2.007 4.5 1.871 4.537Zm9.625 3.177L9.277 9.921a3.83 3.83 0 0 0 .006 5.415 3.84 3.84 0 0 0 5.422.003 3.829 3.829 0 0 0 .012-5.415L12.55 7.721a.737.737 0 0 0-.527-.22.686.686 0 0 0-.527.214Z" clip-rule="evenodd"/>
</svg>
