<svg xmlns="http://www.w3.org/2000/svg" viewBox="0 0 24 24">
  <path fill-rule="evenodd" d="M1.871 4.538H1.87a.499.499 0 0 0-.37.483c0 8.57.761 15.406 10.326 18.948a.5.5 0 0 0 .348 0C21.739 20.427 22.5 13.59 22.5 5.021a.499.499 0 0 0-.37-.483h-.001C21.995 4.5 14.72 2.51 12.363.148a.534.534 0 0 0-.723 0C9.278 2.511 2.007 4.5 1.871 4.537Zm9.095 1.982c-.175-.061-.36.029-.494.16-.134.13-.171.369-.115.548l.002.006c.327 1.065.843 2.743.347 4.2-.22-.297-.467-.637-.645-.884a.5.5 0 0 0-.406-.21h-.002a.5.5 0 0 0-.406.21C9.119 10.73 8 12.337 8 13.532a3.966 3.966 0 0 0 3.962 3.962 3.966 3.966 0 0 0 3.961-3.961c0-3.053-2.131-6.068-4.957-7.013Z" clip-rule="evenodd"/>
</svg>
