<svg xmlns="http://www.w3.org/2000/svg" viewBox="0 0 24 24">
  <path fill-rule="evenodd" d="M1.87 4.538h.001C2.007 4.5 9.278 2.512 11.64.148a.534.534 0 0 1 .723 0c2.357 2.363 9.632 4.353 9.766 4.39h.001a.5.5 0 0 1 .37.483c0 8.57-.761 15.406-10.326 18.948a.5.5 0 0 1-.348 0C2.261 20.427 1.5 13.59 1.5 5.021c0-.227.151-.424.37-.483ZM7.75 11.5a.5.5 0 0 0 0 1h7.36a1.917 1.917 0 1 0-1.86-1.913.5.5 0 0 0 1 0 .917.917 0 1 1 .959.915.518.518 0 0 0-.049-.002H7.75Zm.917-2.913a1.917 1.917 0 1 1 1.859 1.913H7.75a.5.5 0 0 1 0-1h2.833a.37.37 0 0 1 .047.002.917.917 0 1 0-.963-.915.5.5 0 0 1-1 0ZM7.25 14a.5.5 0 0 1 .5-.5h5.583a1.917 1.917 0 1 1-1.916 1.917.5.5 0 1 1 1 0 .917.917 0 1 0 .916-.917H7.75a.5.5 0 0 1-.5-.5Z" clip-rule="evenodd"/>
</svg>
