<svg xmlns="http://www.w3.org/2000/svg" viewBox="0 0 24 24">
  <path d="m19.188 3.609-1.926-.554-1.345-1.345C15.724 1.295 14.927 0 12.5 0c-2.427 0-3.224 1.295-3.418 1.711L7.737 3.056l-1.922.552A2.499 2.499 0 0 0 4 6.01V21.5C4 22.879 5.121 24 6.5 24H12V8a.5.5 0 0 1 1 0v16h5.5c1.379 0 2.5-1.121 2.5-2.5V6.01a2.498 2.498 0 0 0-1.812-2.401ZM11 5.793 8.707 3.5l.793-.793L11.793 5 11 5.793Zm1.5-1.5-2.381-2.381C10.375 1.568 11.023 1 12.5 1c1.477 0 2.125.568 2.381.912L12.5 4.293Zm.707.707L15.5 2.707l.793.793L14 5.793 13.207 5Zm5.293 8-2 1-2-1v-3h4v3Z"/>
</svg>
