<svg xmlns="http://www.w3.org/2000/svg" viewBox="0 0 24 24">
  <path fill-rule="evenodd" d="m22.87 8.164-5-5.5a.501.501 0 0 0-.37-.164h-1.294l-1.354-1.353-.055-.036-.054-.036A.481.481 0 0 0 14.5 1h-6a.497.497 0 0 0-.245.074L8.2 1.11l-.055.036L6.792 2.5H5.5a.501.501 0 0 0-.37.164l-5 5.5a.499.499 0 0 0-.014.656l2.5 3c.09.107.221.173.361.179.145.029.277-.046.376-.145L5 10.207V23.5a.5.5 0 0 0 .5.5h12a.5.5 0 0 0 .5-.5V10.207l1.646 1.647c.1.1.244.176.376.145a.496.496 0 0 0 .361-.179l2.5-3a.498.498 0 0 0-.013-.656ZM13.292 2 11.5 3.793 9.706 2h3.586ZM10 5.293 7.706 3l.793-.793L10.792 4.5 10 5.293ZM12 9.5a.5.5 0 0 1-1 0v-5a.5.5 0 0 1 1 0v5Zm1-4.207-.794-.793L14.5 2.207l.793.793L13 5.293Z" clip-rule="evenodd"/>
</svg>
