<svg xmlns="http://www.w3.org/2000/svg" viewBox="0 0 24 24">
  <path d="M6.983 8.5a.99.99 0 0 0-1 .984c0 .476.003 1.008.017 1.502.093 3.426.996 8.063 1.35 9.762a.32.32 0 0 0 .317.252.333.333 0 0 0 .333-.333V9.517C8 8.955 7.545 8.5 6.983 8.5Z"/>
  <path fill-rule="evenodd" d="M5.703.32C6.162.043 6.676 0 7.095 0c.282 0 .65.017 1 .184.496.236 1.232.763 1.839 1.898C10.537 3.21 11 4.916 11 7.5v13.187A3.313 3.313 0 0 1 7.686 24c-1.512 0-2.842-1.024-3.17-2.518C3.853 18.457 2.75 12.724 2.75 8 2.75 2.894 4.6.988 5.703.32ZM5 5a1.5 1.5 0 0 1 1.5-1.5h1a1.5 1.5 0 1 1 0 3h-1A1.5 1.5 0 0 1 5 5Zm1 0a.5.5 0 0 1 .5-.5h1a.5.5 0 0 1 0 1h-1A.5.5 0 0 1 6 5Zm.983 2.5a1.99 1.99 0 0 0-2 1.982c0 .482.003 1.024.017 1.532.096 3.526 1.018 8.243 1.371 9.938A1.319 1.319 0 0 0 7.667 22C8.403 22 9 21.403 9 20.667V9.517A2.017 2.017 0 0 0 6.983 7.5Z" clip-rule="evenodd"/>
  <path d="M17.017 8.5a.99.99 0 0 1 1 .984c0 .476-.003 1.008-.017 1.502-.093 3.426-.996 8.063-1.35 9.762a.319.319 0 0 1-.317.252.333.333 0 0 1-.333-.333V9.517c0-.562.455-1.017 1.017-1.017Z"/>
  <path fill-rule="evenodd" d="M18.297.32C17.838.043 17.324 0 16.905 0c-.282 0-.65.017-1 .184-.496.236-1.232.763-1.839 1.898C13.463 3.21 13 4.916 13 7.5v13.187A3.313 3.313 0 0 0 16.314 24c1.512 0 2.842-1.024 3.17-2.518.663-3.025 1.766-8.758 1.766-13.482 0-5.106-1.85-7.012-2.953-7.68ZM19 5a1.5 1.5 0 0 0-1.5-1.5h-1a1.5 1.5 0 0 0 0 3h1A1.5 1.5 0 0 0 19 5Zm-1 0a.5.5 0 0 0-.5-.5h-1a.5.5 0 0 0 0 1h1A.5.5 0 0 0 18 5Zm-.983 2.5a1.99 1.99 0 0 1 2 1.982c0 .482-.003 1.024-.017 1.532-.096 3.526-1.018 8.243-1.372 9.938A1.319 1.319 0 0 1 16.334 22 1.333 1.333 0 0 1 15 20.667V9.517c0-1.114.903-2.017 2.017-2.017Z" clip-rule="evenodd"/>
</svg>
