<svg xmlns="http://www.w3.org/2000/svg" viewBox="0 0 24 24">
  <path fill-rule="evenodd" d="M6.5 0C5.398 0 4.352.575 3.83 1.582c-.362.7-.798 1.61-1.154 2.558-.353.94-.64 1.951-.676 2.84-.174 4.281.318 10.117.671 13.59C2.871 22.538 4.535 24 6.5 24s3.63-1.465 3.829-3.431c.352-3.473.842-9.308.672-13.589-.036-.889-.322-1.9-.675-2.84A24.152 24.152 0 0 0 9.17 1.58C8.648.574 7.602 0 6.5 0ZM4.621 8.985c.929-.232 1.87-.234 2.587-.174a9.362 9.362 0 0 1 1.155.17l.014.004h.002a.5.5 0 0 0 .242-.97h-.003l-.006-.002-.021-.005a7.616 7.616 0 0 0-.347-.07c-.231-.042-.56-.091-.952-.124-.782-.065-1.842-.067-2.913.201a.5.5 0 1 0 .242.97Zm4 1.03-.12.48.12-.48Zm.364.606a.5.5 0 0 0-.364-.606h-.003l-.006-.002-.021-.005a5.255 5.255 0 0 0-.347-.07c-.231-.042-.56-.091-.952-.124-.782-.065-1.842-.067-2.913.201a.5.5 0 1 0 .242.97c.929-.232 1.87-.234 2.587-.174a9.382 9.382 0 0 1 1.096.157l.06.013.013.004h.002a.5.5 0 0 0 .606-.364ZM6.507 12.5c-.935 0-1.761.672-1.887 1.628-.048.366-.091.769-.106 1.111-.066 1.515.119 3.564.25 4.773A1.675 1.675 0 0 0 6.435 21.5c.817 0 1.528-.582 1.656-1.405.187-1.2.465-3.302.399-4.855a26.379 26.379 0 0 0-.065-.99 1.915 1.915 0 0 0-1.918-1.75Zm0 1a.887.887 0 0 0-.895.758c-.047.356-.086.725-.1 1.025-.061 1.43.115 3.412.247 4.62a.674.674 0 0 0 .676.597c.34 0 .618-.239.668-.558.187-1.202.45-3.216.388-4.66a25.44 25.44 0 0 0-.063-.95.915.915 0 0 0-.92-.832Zm8.871-3.485.12.48-.12-.48Zm.12-1.519-.12-.481.12.48Z" clip-rule="evenodd"/>
  <path fill-rule="evenodd" d="M17.498 0c1.103 0 2.148.575 2.67 1.582.362.7.8 1.61 1.155 2.558.352.94.64 1.951.675 2.84.175 4.281-.317 10.117-.67 13.59-.2 1.967-1.864 3.43-3.828 3.43-1.966 0-3.63-1.465-3.829-3.431-.352-3.473-.842-9.308-.672-13.589.035-.889.322-1.9.675-2.84a24.4 24.4 0 0 1 1.155-2.56C15.351.574 16.396 0 17.5 0Zm1.88 8.985c-.929-.232-1.87-.234-2.588-.174a9.363 9.363 0 0 0-1.154.17l-.014.004h-.002a.5.5 0 0 1-.242-.97l.12.48-.12-.48h.003l.006-.002.02-.005a7.64 7.64 0 0 1 .347-.07c.232-.042.56-.091.953-.124.782-.065 1.841-.067 2.913.201a.5.5 0 0 1-.243.97Zm-4 1.03.12.48-.12-.48Zm0 0a.5.5 0 0 0 .242.97h.002l.014-.004a5.606 5.606 0 0 1 .294-.06c.206-.036.503-.08.86-.11.718-.06 1.659-.058 2.587.174a.5.5 0 0 0 .243-.97c-1.072-.268-2.131-.266-2.913-.2a10.365 10.365 0 0 0-1.224.176 5.382 5.382 0 0 0-.075.017l-.021.005-.006.001h-.003Zm2.115 2.485c.935 0 1.761.672 1.887 1.628.047.366.091.769.106 1.111.066 1.515-.119 3.564-.25 4.773a1.674 1.674 0 0 1-1.672 1.488 1.666 1.666 0 0 1-1.655-1.405c-.187-1.2-.465-3.302-.399-4.855.013-.302.038-.655.065-.99a1.915 1.915 0 0 1 1.918-1.75Zm0 1c.462 0 .839.328.895.758.047.356.086.725.1 1.025.061 1.43-.115 3.412-.247 4.62a.674.674 0 0 1-.677.597.666.666 0 0 1-.667-.558c-.187-1.202-.45-3.216-.388-4.66.012-.282.036-.62.063-.95a.915.915 0 0 1 .92-.832Z" clip-rule="evenodd"/>
</svg>
