<svg xmlns="http://www.w3.org/2000/svg" viewBox="0 0 24 24">
  <path fill-rule="evenodd" d="M11.5 16.5a.5.5 0 0 1-.5-.5v-1.5a.5.5 0 0 1 1 0V16a.5.5 0 0 1-.5.5Zm0 3.5a.5.5 0 0 1-.5-.5V18a.5.5 0 0 1 1 0v1.5a.5.5 0 0 1-.5.5Zm0 3.5a.5.5 0 0 1-.5-.5v-1.5a.5.5 0 0 1 1 0V23a.5.5 0 0 1-.5.5Zm4.182-7.429-.634-1.36a.5.5 0 1 1 .906-.422l.634 1.359a.5.5 0 0 1-.906.423Zm1.479 3.172-.634-1.36a.5.5 0 0 1 .907-.423l.634 1.36a.5.5 0 0 1-.907.423Zm1.479 3.172-.634-1.359a.5.5 0 0 1 .906-.423l.634 1.359a.5.5 0 0 1-.906.423ZM6.656 16.313a.5.5 0 0 1-.242-.664l.634-1.359a.5.5 0 0 1 .907.422l-.634 1.36a.502.502 0 0 1-.665.241Zm-1.48 3.172a.501.501 0 0 1-.242-.665l.634-1.36a.5.5 0 0 1 .906.423l-.634 1.36a.5.5 0 0 1-.664.242Zm-1.48 3.172a.501.501 0 0 1-.241-.665l.634-1.359a.5.5 0 0 1 .907.423l-.634 1.359a.501.501 0 0 1-.665.242Zm9.425-6.56-.325-1.464a.5.5 0 1 1 .977-.217l.325 1.464a.5.5 0 0 1-.977.217Zm.757 3.417-.325-1.464a.5.5 0 0 1 .977-.217l.325 1.464a.5.5 0 1 1-.977.217Zm.758 3.417-.325-1.464a.5.5 0 0 1 .977-.217l.325 1.464a.5.5 0 1 1-.977.217Zm-5.352-6.454a.5.5 0 0 1-.38-.597l.325-1.464a.502.502 0 0 1 .977.217l-.325 1.464a.501.501 0 0 1-.597.38Zm-.757 3.417a.5.5 0 0 1-.38-.597l.325-1.464a.501.501 0 0 1 .977.217l-.325 1.464a.501.501 0 0 1-.597.38Zm-.758 3.416a.5.5 0 0 1-.38-.597l.325-1.464a.5.5 0 0 1 .977.217l-.325 1.464a.5.5 0 0 1-.597.38ZM11.5 5c.799 0 1.583.092 2.349.245l-.894-1.953A.5.5 0 0 0 12.5 3H12V1.5a.5.5 0 0 0-1 0V3h-.5a.5.5 0 0 0-.455.292l-.894 1.953A11.994 11.994 0 0 1 11.5 5Zm9.32 6.101C18.44 8.12 15.89 6 11.502 6 7.085 6 4.53 8.162 2.11 11.188A.5.5 0 0 0 2.5 12h18.02a.5.5 0 0 0 .302-.899Z" clip-rule="evenodd"/>
</svg>
