<svg xmlns="http://www.w3.org/2000/svg" viewBox="0 0 24 25">
  <path fill-rule="evenodd" d="M15 .954c-3.309 0-6 2.584-6 5.76v.05c-2.244.241-4 2.054-4 4.27v.96c0 .265.224.48.5.48h8a.49.49 0 0 0 .5-.48v-.96c0-2.216-1.756-4.029-4-4.27v-.05c0-2.647 2.243-4.8 5-4.8s5 2.154 5 4.8v18.28h1V6.714c0-3.176-2.691-5.76-6-5.76Zm-5.5 14.92a.49.49 0 0 0-.5.48v1.92c0 .265.224.48.5.48a.49.49 0 0 0 .5-.48v-1.92a.49.49 0 0 0-.5-.48Zm0 5.76a.49.49 0 0 0-.5.48v1.92c0 .265.224.48.5.48a.49.49 0 0 0 .5-.48v-1.92a.49.49 0 0 0-.5-.48Zm4.178-3.41-.315-1.898a.495.495 0 0 0-.573-.397.483.483 0 0 0-.415.55l.315 1.897c.04.236.252.404.494.404l.08-.006a.483.483 0 0 0 .414-.55Zm.059 3.394a.483.483 0 0 0-.415.549l.315 1.897a.494.494 0 0 0 .493.404l.079-.006a.483.483 0 0 0 .415-.549l-.315-1.898a.495.495 0 0 0-.572-.397ZM6.128 15.93a.495.495 0 0 0-.573.397l-.316 1.898a.483.483 0 0 0 .414.55l.079.005a.496.496 0 0 0 .494-.404l.316-1.897a.482.482 0 0 0-.414-.55Zm-.948 5.688a.5.5 0 0 0-.573.397l-.316 1.898a.484.484 0 0 0 .415.55l.079.005a.493.493 0 0 0 .493-.404l.316-1.897a.481.481 0 0 0-.414-.55Z" clip-rule="evenodd"/>
</svg>
