<svg xmlns="http://www.w3.org/2000/svg" viewBox="0 0 24 24">
  <path d="M14.928 11.021h.358l-.179-.646-.179.646ZM10.75 9H10v1.5h.75a.75.75 0 0 0 0-1.5Z"/>
  <path d="M23 0H2a1 1 0 1 0 0 2h3v2h-.5A2.502 2.502 0 0 0 2 6.5v8C2 15.878 3.121 17 4.5 17h13c1.379 0 2.5-1.122 2.5-2.5v-8C20 5.121 18.879 4 17.5 4H17V2h5v21a1 1 0 1 0 2 0V1a1 1 0 0 0-1-1ZM6 2h10v2H6V2Zm.437 11c-.758 0-1.389-.619-1.436-1.408a.5.5 0 1 1 .998-.059c.016.262.208.467.438.467.24 0 .437-.225.437-.501 0-.274-.136-.405-.517-.504C5.219 10.693 5 10.018 5 9.499 5 8.672 5.644 8 6.438 8c.758 0 1.388.617 1.435 1.405a.497.497 0 0 1-.469.528.492.492 0 0 1-.53-.468C6.858 9.204 6.667 9 6.438 9 6.196 9 6 9.224 6 9.499c0 .271.136.403.518.504 1.19.308 1.355 1.067 1.355 1.496 0 .827-.645 1.501-1.436 1.501Zm4.313-1.5H10v1a.5.5 0 0 1-1 0v-4a.5.5 0 0 1 .5-.5h1.25c.965 0 1.75.785 1.75 1.75s-.785 1.75-1.75 1.75Zm5.596 1.481a.5.5 0 0 1-.615-.348l-.169-.611h-.912l-.169.611a.5.5 0 1 1-.963-.266l1.107-4a.5.5 0 0 1 .963-.001l1.106 4a.498.498 0 0 1-.348.615Z"/>
</svg>
