<svg xmlns="http://www.w3.org/2000/svg" viewBox="0 0 24 24">
  <path d="m15.043 8.923 4.078 4.078c1.349 1.349 1.107 3.425-.442 4.487 1.236.289 2.33.717 3.108 1.309L19.997.451a.501.501 0 0 0-.381-.438.51.51 0 0 0-.538.219L14.665 7.19c.235.541.372 1.124.378 1.733ZM13 15.117l-1.691-1.694c-.21.038-.421.049-.632.057l-2.822 4.449c1.47-.553 3.33-.832 5.145-.905v-1.907Zm3 2.973V19a1.5 1.5 0 1 1 0 3h-3a1.5 1.5 0 1 1 0-3v-.976c-3.623.159-7 1.171-7 2.976 0 1.97 4.024 3 8 3s8-1.03 8-3c0-1.637-2.78-2.622-6-2.91ZM6.51 4.5c-1.395-.029-2.015-.645-2.01-1.998A.5.5 0 0 0 4.002 2H4a.5.5 0 0 0-.5.498v.001C3.495 3.863 2.876 4.481 1.493 4.5a.497.497 0 0 0-.49.504.502.502 0 0 0 .502.496c1.386 0 1.982.6 1.995 2.005A.5.5 0 0 0 3.99 8H4a.5.5 0 0 0 .499-.475c.07-1.401.683-2.025 1.999-2.025a.501.501 0 0 0 .013-1Zm9.5-2c-1.395-.029-2.015-.645-2.01-1.998A.5.5 0 0 0 13.502 0H13.5a.5.5 0 0 0-.5.498v.001c-.005 1.364-.624 1.981-2.007 2.001a.497.497 0 0 0-.49.504.502.502 0 0 0 .502.496c1.386 0 1.982.6 1.995 2.005a.5.5 0 0 0 .49.495h.01a.5.5 0 0 0 .5-.475c.07-1.401.682-2.025 1.998-2.025H16a.5.5 0 0 0 .01-1Zm-5.45 3c-1.93 0-3.5 1.57-3.5 3.5 0 .781.266 1.505.704 2.09l4.886-4.886a3.503 3.503 0 0 0-2.09-.704Z"/>
  <path d="m18.414 13.708-4.386-4.387a3.44 3.44 0 0 0-.678-2.404l-4.885 4.885a3.435 3.435 0 0 0 3.153.517L14 14.704V20h-1a.5.5 0 0 0 0 1h3a.5.5 0 0 0 0-1h-1v-4.293l.707.708c.784.784 1.922.783 2.707 0 .784-.784.784-1.923 0-2.707Z"/>
</svg>
