<svg xmlns="http://www.w3.org/2000/svg" viewBox="0 0 24 24">
  <path d="M12.5.5a.5.5 0 0 0-1 0v3.293L9.853 2.146a.5.5 0 1 0-.707.708L11.5 5.207V7h-1a.5.5 0 0 0 0 1h1v3.134L8.786 9.567l.5-.866a.5.5 0 1 0-.866-.5l-.5.866-1.553-.897-.861-3.215a.5.5 0 1 0-.966.26l.602 2.248-2.851-1.646a.5.5 0 1 0-.5.866l2.851 1.646-2.249.603a.5.5 0 0 0 .26.966l3.214-.861 1.553.896-.5.866a.5.5 0 0 0 .866.5l.5-.866L11 12l-2.714 1.567-.5-.866a.5.5 0 1 0-.866.5l.5.866-1.553.896-3.215-.861a.5.5 0 1 0-.259.966l2.25.603-2.852 1.646a.5.5 0 0 0 .5.866l2.851-1.646-.602 2.249a.5.5 0 0 0 .966.258l.861-3.215 1.553-.896.5.866a.5.5 0 0 0 .866-.5l-.5-.866 2.714-1.567V16h-1a.5.5 0 0 0 0 1h1v1.793l-2.354 2.354a.5.5 0 0 0 .707.707l1.647-1.647V23.5a.5.5 0 0 0 1 0v-3.293l1.646 1.647a.5.5 0 0 0 .707-.707L12.5 18.793V17h1a.5.5 0 0 0 0-1h-1v-3.134l2.714 1.567-.5.866a.5.5 0 1 0 .866.5l.5-.866 1.553.897.861 3.215a.5.5 0 1 0 .966-.26l-.602-2.248 2.851 1.646a.5.5 0 0 0 .5-.866l-2.851-1.646 2.249-.603a.5.5 0 0 0-.26-.966l-3.214.862-1.553-.897.5-.866a.5.5 0 1 0-.866-.5l-.5.866L13 12l2.714-1.567.5.866a.5.5 0 1 0 .866-.5l-.5-.866 1.553-.896 3.215.861a.5.5 0 0 0 .259-.966l-2.25-.602 2.852-1.647a.5.5 0 0 0-.5-.866l-2.851 1.647.602-2.25a.5.5 0 1 0-.966-.258l-.861 3.215-1.553.896-.5-.866a.5.5 0 1 0-.866.5l.5.866-2.714 1.567V8h1a.5.5 0 0 0 0-1h-1V5.207l2.354-2.353a.5.5 0 0 0-.708-.708L12.5 3.793V.5Z"/>
</svg>
