<svg xmlns="http://www.w3.org/2000/svg" viewBox="0 0 25 24">
  <path d="M4.8 10.5V12h6.7V4H6.24C4.187 4 2.466 5.502 2.03 7.506 3.567 7.567 4.8 8.885 4.8 10.5Zm15.284-2.122a2.807 2.807 0 0 1 1.927-.872C21.575 5.502 19.854 4 17.8 4h-5.3v8h6.74l.001-1.5a3.043 3.043 0 0 1 .843-2.122Zm1.659.161c-.37.076-.709.265-.98.548a2.02 2.02 0 0 0-.562 1.414v2a.49.49 0 0 1-.48.5H4.32a.49.49 0 0 1-.48-.5v-2a2.02 2.02 0 0 0-.848-1.657 1.85 1.85 0 0 0-1.459-.304C.66 8.728 0 9.535 0 10.501L.001 16.5c0 1.208.825 2.218 1.92 2.45v1.55a.49.49 0 0 0 .48.5.49.49 0 0 0 .48-.5V19h18.281v1.5c-.001.276.214.5.479.5a.49.49 0 0 0 .48-.5v-1.55c1.094-.233 1.92-.242 1.92-1.45v-7c0-1.102-.861-2-1.92-2-.129 0-.255.013-.378.039Z"/>
</svg>
