<svg xmlns="http://www.w3.org/2000/svg" viewBox="0 0 24 24">
  <path fill-rule="evenodd" d="M2 9a1 1 0 0 1 1 1v4h18v-4a1 1 0 0 1 1-1h1a1 1 0 0 1 1 1v8.5a.5.5 0 0 1-.5.5H.5a.5.5 0 0 1-.5-.5V10a1 1 0 0 1 1-1h1Zm18-6a3 3 0 0 1 3 3v2h-1a2 2 0 0 0-2 2v3H4v-3a2 2 0 0 0-2-2H1V6a3 3 0 0 1 3-3h16Zm-8 5.5c-.275 0-.5.225-.5.5s.225.5.5.5.5-.225.5-.5-.225-.5-.5-.5Zm4 0a.5.5 0 0 0 0 1 .5.5 0 0 0 0-1Zm-8 0a.5.5 0 1 0 .002 1.001.5.5 0 0 0-.003-1.001Zm0-3c-.275 0-.5.225-.5.5s.225.5.5.5.5-.225.5-.5c0-.274-.226-.5-.5-.5Zm8 0c-.275 0-.5.225-.5.5a.501.501 0 0 0 1 0c0-.275-.225-.5-.5-.5Zm-4 0c-.275 0-.5.225-.5.5s.225.5.5.5.5-.225.5-.5-.225-.5-.5-.5Z" clip-rule="evenodd"/>
  <path d="M18 20.5a.5.5 0 0 1 .5-.5h3a.5.5 0 0 1 0 1h-3a.5.5 0 0 1-.5-.5ZM2.5 20a.5.5 0 0 0 0 1h3a.5.5 0 0 0 0-1h-3Z"/>
</svg>
