<svg xmlns="http://www.w3.org/2000/svg" viewBox="0 0 24 24">
  <path fill-rule="evenodd" d="M9.5 2a.5.5 0 0 0 .5-.5v-1a.5.5 0 1 0-1 0v1a.5.5 0 0 0 .5.5ZM3.148 3.826a.497.497 0 0 0 .707 0 .5.5 0 0 0 0-.707l-1-1a.5.5 0 0 0-.707.707l1 1Zm12.353.147a.495.495 0 0 0 .353-.147l1-1a.5.5 0 0 0-.707-.707l-1 1a.5.5 0 0 0 .354.854ZM1.5 9h-1a.5.5 0 0 0 0 1h1a.5.5 0 1 0 0-1Zm2.44 3.819 2.249-4.048A1.5 1.5 0 0 1 7.5 8h8.326c-.669-2.877-3.248-5.029-6.325-5.029a6.508 6.508 0 0 0-6.5 6.5 6.45 6.45 0 0 0 .939 3.348ZM14.501 20h-3a.5.5 0 0 0-.5.5v3a.5.5 0 0 0 .5.5h3c.276 0 .5-.224.499-.5v-3a.499.499 0 0 0-.499-.5ZM11.61 9l-.663 3h4.08l-.666-3H11.61ZM21 13h-4.725l.449 1.971h5.387L21 13Zm-5.749 0h-4.526l-.447 1.971h5.421L15.251 13Zm-5.196 3-.676 3h7.224l-.679-3h-5.869ZM5 13l-1.11 1.971h5.364L9.7 13H5Zm18.857 5.15L22.667 16h-5.719l.679 3h5.894a.483.483 0 0 0 .479-.5.502.502 0 0 0-.143-.35Zm-21.794.108A.499.499 0 0 0 2.5 19h5.856l.676-3H3.334l-1.271 2.258ZM16.052 12h4.392l-1.507-2.742A.5.5 0 0 0 18.5 9h-3.114l.666 3ZM7.063 9.258 5.556 12h4.368l.663-3H7.5c-.181 0-.349.1-.437.258Z" clip-rule="evenodd"/>
</svg>
