<svg xmlns="http://www.w3.org/2000/svg" viewBox="0 0 24 24">
  <path d="M1.5 2h-1a.5.5 0 0 0-.5.5v19a.5.5 0 0 0 .5.5h1a.5.5 0 0 0 .5-.5v-19a.5.5 0 0 0-.5-.5Zm22 0h-1a.5.5 0 0 0-.5.5v19a.5.5 0 0 0 .5.5h1a.5.5 0 0 0 .5-.5v-19a.5.5 0 0 0-.5-.5Zm-3 1h-17a.5.5 0 0 0-.5.5v17a.5.5 0 0 0 .5.5h17a.5.5 0 0 0 .5-.5v-17a.5.5 0 0 0-.5-.5Zm-5 3h1a.5.5 0 0 1 0 1h-1a.5.5 0 0 1 0-1Zm-3 0h1a.5.5 0 0 1 0 1h-1a.5.5 0 0 1 0-1ZM4 5.5a.5.5 0 0 1 .5-.5h5a.5.5 0 0 1 .5.5v2a.5.5 0 0 1-.5.5h-5a.5.5 0 0 1-.5-.5v-2Zm5 11a.5.5 0 0 1-.5.5H7v1a.5.5 0 0 1-1 0v-1H4.5a.5.5 0 0 1-.5-.5v-1a.5.5 0 0 1 .5-.5H6v-5a.5.5 0 0 1 1 0v5h1.5a.5.5 0 0 1 .5.5v1Zm4.5-3.5H12v5a.5.5 0 0 1-1 0v-5H9.5a.5.5 0 0 1-.5-.5v-1a.5.5 0 0 1 .5-.5H11v-1a.5.5 0 0 1 1 0v1h1.5a.5.5 0 0 1 .5.5v1a.5.5 0 0 1-.5.5Zm5.5 3.5a.5.5 0 0 1-.5.5H17v1a.5.5 0 0 1-1 0v-1h-1.5a.5.5 0 0 1-.5-.5v-1a.5.5 0 0 1 .5-.5H16v-5a.5.5 0 0 1 1 0v5h1.5a.5.5 0 0 1 .5.5v1Zm.5-9.5h-1a.5.5 0 0 1 0-1h1a.5.5 0 0 1 0 1Z"/>
</svg>
