<svg xmlns="http://www.w3.org/2000/svg" viewBox="0 0 24 24">
  <path d="M18.518 13.143c-.5 1.399-1.367 2.09-2.518 2.746V20.5a1.5 1.5 0 0 1-1.5 1.5h-5A1.5 1.5 0 0 1 8 20.5v-4.611c-1.15-.656-2.018-1.346-2.518-2.746C2.752 14.225 1 15.979 1 18c0 3.363 4.832 6 11 6s11-2.637 11-6c0-2.021-1.752-3.775-4.482-4.857ZM12 0a4 4 0 1 0 0 8 4 4 0 0 0 0-8Z"/>
  <path d="M17.5 9h-11a.5.5 0 0 0-.5.5c0 4.003.974 4.709 3 5.799V20.5a.5.5 0 0 0 .5.5h5a.5.5 0 0 0 .5-.5v-5.202c2.026-1.089 3-1.795 3-5.798a.5.5 0 0 0-.5-.5ZM19 2.431c.022-.295.254-.634.692-1.009a.5.5 0 0 0-.65-.76c-.658.562-.998 1.119-1.038 1.698-.06.825.503 1.462.998 2.024.395.449.77.874.742 1.271-.02.282-.242.606-.661.964a.5.5 0 0 0 .65.76c.639-.546.969-1.087 1.009-1.653.057-.813-.5-1.445-.99-2.003-.401-.454-.78-.884-.751-1.292Zm3.752 1.292c-.401-.454-.78-.884-.751-1.292.02-.295.253-.634.69-1.009a.5.5 0 0 0-.65-.76c-.657.562-.997 1.119-1.037 1.698-.06.825.503 1.462.998 2.024.395.449.77.874.742 1.271-.02.282-.242.606-.661.964a.5.5 0 0 0 .65.76c.639-.546.969-1.087 1.009-1.653.057-.814-.5-1.446-.99-2.003ZM1.755 2.431c.02-.295.253-.634.69-1.009a.5.5 0 0 0-.65-.76C1.139 1.225.799 1.781.759 2.36c-.06.825.503 1.462.998 2.025.396.449.77.874.742 1.271-.02.282-.242.606-.661.964a.5.5 0 0 0 .65.759c.639-.546.969-1.087 1.009-1.653.057-.813-.5-1.445-.99-2.003-.401-.454-.78-.884-.751-1.292Zm3.751 1.292c-.402-.454-.78-.884-.751-1.292.02-.295.253-.634.69-1.009a.5.5 0 0 0-.65-.76c-.657.563-.997 1.119-1.037 1.698-.06.825.503 1.462.998 2.025.396.449.77.874.742 1.271-.02.282-.242.606-.661.964a.5.5 0 0 0 .65.759c.639-.546.969-1.087 1.009-1.653.057-.814-.5-1.446-.99-2.003Z"/>
</svg>
