<svg xmlns="http://www.w3.org/2000/svg" viewBox="0 0 24 24">
  <path d="M12 7.5a2.5 2.5 0 1 0 0 5 2.5 2.5 0 0 0 0-5Z"/>
  <path d="M18 0H6a2.503 2.503 0 0 0-2.5 2.5v12C3.5 15.879 4.622 17 6 17h5.5v2.775l-3.814 3.349a.501.501 0 0 0 .66.752l3.639-3.194 3.639 3.194a.5.5 0 1 0 .66-.752L12.5 19.803V17H18c1.378 0 2.5-1.121 2.5-2.5v-12C20.5 1.121 19.378 0 18 0ZM6.5 3c0-.551.449-1 1-1 .551 0 1 .449 1 1 0 .551-.449 1-1 1-.551 0-1-.449-1-1ZM12 15c-2.757 0-5-2.243-5-5s2.243-5 5-5 5 2.243 5 5-2.243 5-5 5Zm4.5-11c-.551 0-1-.449-1-1 0-.551.449-1 1-1 .551 0 1 .449 1 1 0 .551-.449 1-1 1Z"/>
</svg>
