<svg xmlns="http://www.w3.org/2000/svg" viewBox="0 0 24 24">
  <path fill-rule="evenodd" d="M18.5 0h-13A2.503 2.503 0 0 0 3 2.5v19C3 22.879 4.122 24 5.5 24h13c1.378 0 2.5-1.121 2.5-2.5v-19C21 1.122 19.878 0 18.5 0ZM12 3c1.378 0 2.5 1.122 2.5 2.5C14.5 6.879 13.378 8 12 8a2.503 2.503 0 0 1-2.5-2.5C9.5 4.122 10.622 3 12 3ZM6 2a1 1 0 1 1 0 2 1 1 0 0 1 0-2Zm0 20a1 1 0 1 1-.002-1.998A1 1 0 0 1 6 22Zm6-2c-2.757 0-5-2.243-5-5s2.243-5 5-5 5 2.243 5 5-2.243 5-5 5Zm6 2a1 1 0 1 1-.002-1.998A1 1 0 0 1 18 22Zm0-18a1 1 0 1 1-.002-1.998A1 1 0 0 1 18 4Zm-4.939.439a1.5 1.5 0 1 1-2.12 2.121 1.5 1.5 0 0 1 2.12-2.121Zm.707 8.793a2.501 2.501 0 1 1-3.538 3.536 2.501 2.501 0 0 1 3.538-3.536Z" clip-rule="evenodd"/>
</svg>
