<svg xmlns="http://www.w3.org/2000/svg" viewBox="0 0 24 24">
  <path d="M24 13V1.5a.5.5 0 0 0-.5-.5h-4a.5.5 0 0 0-.5.5V13h5Zm-5 1v8.5a.5.5 0 0 0 .5.5h4a.5.5 0 0 0 .5-.5V14h-5ZM5 13V1.5a.5.5 0 0 0-.5-.5h-4a.5.5 0 0 0-.5.5V13h5Zm-5 1v8.5a.5.5 0 0 0 .5.5h4a.5.5 0 0 0 .5-.5V14H0Zm12-2.5a.5.5 0 1 0 0 1 .5.5 0 0 0 0-1Zm0 4.5a2 2 0 1 0 0 4 2 2 0 0 0 0-4Z"/>
  <path d="M16.5 8h-9a.5.5 0 0 0-.5.5v14a.5.5 0 0 0 .5.5h9a.5.5 0 0 0 .5-.5v-14a.5.5 0 0 0-.5-.5ZM12 10.5c.827 0 1.5.673 1.5 1.5s-.673 1.5-1.5 1.5-1.5-.673-1.5-1.5.673-1.5 1.5-1.5ZM9.5 10a.5.5 0 1 1-.002 1.002A.5.5 0 0 1 9.5 10ZM12 21c-1.654 0-3-1.346-3-3s1.346-3 3-3 3 1.346 3 3-1.346 3-3 3Zm2.5-10a.5.5 0 1 1 0-1 .5.5 0 0 1 0 1Z"/>
</svg>
