<svg xmlns="http://www.w3.org/2000/svg" viewBox="0 0 24 24">
  <g clip-path="url(#a)">
    <path fill-rule="evenodd" d="M18.5 5c.182 0 .349.098.437.257L23.794 14H.205l4.857-8.743A.5.5 0 0 1 5.5 5H6V1.5C6 .016 7.922-.785 9.857 1.15 10.881.662 12 1.427 12 2.5c0 .827-.673 1.5-1.5 1.5-1.086 0-1.834-1.135-1.35-2.142C7.871.577 7 .951 7 1.5V5h11.5Zm1.01 8a.501.501 0 0 0 .42-.773l-1.966-4.913A.498.498 0 0 0 17.5 7h-8a.5.5 0 0 0-.49.402l-1 5A.5.5 0 0 0 8.5 13h11.01Z" clip-rule="evenodd"/>
    <path d="M0 16.5V15h24v1.5a.5.5 0 0 1-.5.5H13v6h1.5a.5.5 0 0 1 0 1h-4a.5.5 0 0 1 0-1H12v-6H.5a.5.5 0 0 1-.5-.5Z"/>
  </g>
  <defs>
    <clipPath id="a">
      <path d="M0 0h24v24H0z"/>
    </clipPath>
  </defs>
</svg>
