<svg xmlns="http://www.w3.org/2000/svg" viewBox="0 0 24 24">
  <path d="m21.112 2.5-3.937 1.469a.5.5 0 1 1-.351-.938l3.938-1.468a.501.501 0 0 1 .35.937ZM21.5 5h-4a.5.5 0 1 0 0 1h4a.5.5 0 0 0 0-1Zm-.287 4.283-3.969-2.219a.5.5 0 0 0-.489.871l3.969 2.22a.5.5 0 0 0 .489-.872ZM14.5 4H14v-.5a.5.5 0 0 0-.5-.5H3.25a.501.501 0 0 0-.456.294l-2.25 5A.503.503 0 0 0 1 9h9.586c-.026 1.451.546 3.592 2.957 3.993a.5.5 0 0 0 .164-.986C11.773 11.686 11.578 9.85 11.593 9h.532a.495.495 0 0 0 .368-.162l1.375-1.5A.498.498 0 0 0 14 7V6h.5a.5.5 0 0 0 .5-.5v-1a.5.5 0 0 0-.5-.5Z"/>
  <path d="M4.113 10h5.298l4.12 10.594A2.5 2.5 0 0 1 11.201 24h-7.65a2.501 2.501 0 0 1-2.454-2.978L4.113 10Z"/>
</svg>
