<svg xmlns="http://www.w3.org/2000/svg" viewBox="0 0 24 24">
  <path d="M12 2a.5.5 0 1 0 0-1 .5.5 0 0 0 0 1Zm.5 2.5a.5.5 0 1 1-1 0 .5.5 0 0 1 1 0ZM12 8a.5.5 0 1 0 0-1 .5.5 0 0 0 0 1Zm7.778-2.778a.5.5 0 1 0 .707-.707.5.5 0 0 0-.707.707Zm-2.121 2.121a.5.5 0 1 0 .707-.707.5.5 0 0 0-.707.707Zm-1.414 2.121a.5.5 0 1 1-.707-.707.5.5 0 0 1 .707.707ZM23.5 13.5a.5.5 0 1 1 0-1 .5.5 0 0 1 0 1Zm-3 0a.5.5 0 1 1 0-1 .5.5 0 0 1 0 1ZM17 13a.5.5 0 1 0 1 0 .5.5 0 0 0-1 0ZM1 13a.5.5 0 1 0-1 0 .5.5 0 0 0 1 0Zm3 0a.5.5 0 1 0-1 0 .5.5 0 0 0 1 0Zm2.5-.5a.5.5 0 1 1 0 1 .5.5 0 0 1 0-1ZM4.222 4.515a.5.5 0 1 1-.707.707.5.5 0 0 1 .707-.707Zm2.121 2.121a.5.5 0 1 1-.707.707.5.5 0 0 1 .707-.707Zm2.121 2.828a.5.5 0 1 0-.707-.707.5.5 0 0 0 .707.707Z"/>
  <path fill-rule="evenodd" d="M15 15a3 3 0 1 0-6 0h-.5a.5.5 0 0 0-.5.5v2a.5.5 0 0 0 .5.5H10v5H.5a.5.5 0 0 0 0 1h23a.5.5 0 0 0 0-1H14v-5h1.5a.5.5 0 0 0 .5-.5v-2a.5.5 0 0 0-.5-.5H15Zm-3-2a2 2 0 0 0-2 2h4a2 2 0 0 0-2-2Z" clip-rule="evenodd"/>
</svg>
