<svg xmlns="http://www.w3.org/2000/svg" viewBox="0 0 24 24">
  <path d="M8.5 0a2.5 2.5 0 1 0 0 5 2.5 2.5 0 0 0 0-5ZM12 13.882v-.707l1.18-1.475a2.509 2.509 0 0 0 .389-2.439l-.614-1.639A2.512 2.512 0 0 0 10.614 6H6.149c-.886 0-1.713.476-2.159 1.24L2.639 9.555l-1.343.72A1.502 1.502 0 0 0 .5 11.602a1.508 1.508 0 0 0 1.983 1.43l1.675-.558a.472.472 0 0 0 .195-.121L6 10.707v4.207l-2.471 6.918A.5.5 0 0 0 4 22.5h2a.499.499 0 0 0 .447-.276l2.638-5.276L10.1 18.3a.503.503 0 0 0 .585.165l2.5-1a.5.5 0 0 0 .262-.688L12 13.882Z"/>
  <path d="M23.5 11h-4a.5.5 0 0 0-.5.5V15h-3.5a.5.5 0 0 0-.5.5V19h-3.5a.5.5 0 0 0-.5.5v4a.5.5 0 0 0 .5.5h12a.5.5 0 0 0 .5-.5v-12a.5.5 0 0 0-.5-.5Zm-.646 5.854L17.707 22H19.5a.5.5 0 0 1 0 1h-3a.5.5 0 0 1-.5-.5v-3a.5.5 0 0 1 1 0v1.793l5.146-5.146a.5.5 0 0 1 .708.707Z"/>
</svg>
