<svg xmlns="http://www.w3.org/2000/svg" viewBox="0 0 24 24">
  <g clip-path="url(#a)">
    <path d="M.854 11.854a.502.502 0 0 1-.707-.001.5.5 0 0 1 0-.707L10.293 1H6.5a.5.5 0 0 1 0-1h5a.497.497 0 0 1 .5.5v5a.5.5 0 0 1-1 0V1.707L.854 11.854ZM16.5 7h7a.5.5 0 0 1 .5.5v16a.5.5 0 0 1-.5.5H.5a.5.5 0 0 1 0-1H4v-3.5a.5.5 0 0 1 .5-.5H8v-3.5a.5.5 0 0 1 .5-.5H12v-3.5a.5.5 0 0 1 .5-.5H16V7.5a.5.5 0 0 1 .5-.5Z"/>
  </g>
  <defs>
    <clipPath id="a">
      <path d="M0 0h24v24H0z"/>
    </clipPath>
  </defs>
</svg>
