<svg xmlns="http://www.w3.org/2000/svg" viewBox="0 0 24 24">
  <path d="M23.5 11h-4a.5.5 0 0 0-.5.5V15h-3.5a.5.5 0 0 0-.5.5V19h-3.5a.5.5 0 0 0-.5.5v4a.5.5 0 0 0 .5.5h12a.5.5 0 0 0 .5-.5v-12a.5.5 0 0 0-.5-.5Zm-.5 8.5a.5.5 0 0 1-1 0v-1.793l-5.146 5.146a.5.5 0 0 1-.707-.707L21.293 17H19.5a.5.5 0 0 1 0-1h3c.275 0 .5.226.5.5v3Z"/>
  <path d="M14.868 8.9a1.455 1.455 0 0 0-1.82-.483l-.877.439-1.161-1.743A2.497 2.497 0 0 0 8.93 6H4.329c-.668 0-1.296.261-1.769.732L.147 9.146A.5.5 0 0 0 0 9.5v3c0 .827.673 1.5 1.5 1.5S3 13.327 3 12.5v-1.675l1.002-.793.005 2.683-1.5 8.7A.5.5 0 0 0 3 22h2a.501.501 0 0 0 .481-.363l1.683-5.892L8 17.139V18.5a.5.5 0 0 0 .582.493l3-.5A.5.5 0 0 0 12 18v-2a.496.496 0 0 0-.084-.277L10 12.849v-1.642l1.146 1.147a.502.502 0 0 0 .602.081l2.643-1.509a1.426 1.426 0 0 0 .477-2.026ZM7 0a2.5 2.5 0 1 0 0 5 2.5 2.5 0 0 0 0-5Z"/>
</svg>
