<svg xmlns="http://www.w3.org/2000/svg" viewBox="0 0 24 24">
  <path d="m5.109 6 .998-4H2.5a.498.498 0 0 0-.447.276L.19 6h4.919ZM11 6l-.003-4H7.139L6.14 6H11Zm5.857-4H12l.003 4h5.856l-1.002-4Zm2.034 4h4.919l-1.862-3.724A.5.5 0 0 0 21.5 2h-3.611l1.002 4Zm-.892 1h-5.996L12 11.217c1 .676 3.776 1.51 5.995-.394L17.999 7Zm-13 0H0v.5c0 2.623 2.871 4.367 4.996 3.047L4.999 7ZM19 7v3.546c2.106 1.32 5-.404 5-3.046V7h-5Zm-8 0H6v3.816c1.497 1.29 3.194 1.62 5 .408V7Zm6.5 11a.5.5 0 1 0 0 1 .5.5 0 0 0 0-1Z"/>
  <path d="M18.711 11.54c-2.406 2.131-5.678 1.564-7.208.566-2.239 1.461-4.49.96-6.214-.566-.977.527-2.069.619-3.289.183V22.5a.5.5 0 0 0 .5.5h19a.5.5 0 0 0 .5-.5V11.723c-1.136.406-2.24.383-3.289-.183ZM12 18.5a.5.5 0 0 1-.5.5h-6a.5.5 0 0 1-.5-.5v-4a.5.5 0 0 1 .5-.5h6a.5.5 0 0 1 .5.5v4Zm7 3a.5.5 0 0 1-.5.5h-3a.5.5 0 0 1-.5-.5v-7a.5.5 0 0 1 .5-.5h3a.5.5 0 0 1 .5.5v7Z"/>
</svg>
