<svg xmlns="http://www.w3.org/2000/svg" viewBox="0 0 24 24">
  <path d="M9.5 4.5h-.764a2.99 2.99 0 0 1 .764 2 2.99 2.99 0 0 1-.764 2H9.5a2 2 0 1 0 0-4Zm-5 2a2 2 0 1 0 3.999.001A2 2 0 0 0 4.5 6.5Zm11 0a2 2 0 1 0 3.999.001A2 2 0 0 0 15.5 6.5Zm-11 8a2 2 0 1 0 3.999.001A2 2 0 0 0 4.5 14.5Zm11 0a2 2 0 1 0 3.999.001A2 2 0 0 0 15.5 14.5Z"/>
  <path fill-rule="evenodd" d="M2 1a1 1 0 0 0-1 1v20a1 1 0 0 0 1 1h20a1 1 0 0 0 1-1V2a1 1 0 0 0-1-1H2Zm7.5 8.5h-3a3 3 0 1 1 0-6h3a3 3 0 1 1 0 6Zm11-3a3 3 0 1 1-6 0 3 3 0 0 1 6 0Zm-11 8a3 3 0 1 1-6 0 3 3 0 0 1 6 0Zm11 0a3 3 0 1 1-6 0 3 3 0 0 1 6 0Zm-6 6a1 1 0 1 1-2 0 1 1 0 0 1 2 0Zm3 0a1 1 0 1 1-2 0 1 1 0 0 1 2 0Zm-6 0a1 1 0 1 1-2 0 1 1 0 0 1 2 0Zm-3 0a1 1 0 1 1-2 0 1 1 0 0 1 2 0Z" clip-rule="evenodd"/>
</svg>
