<svg xmlns="http://www.w3.org/2000/svg" viewBox="0 0 24 24">
  <path d="M20.987 3.894a.502.502 0 0 0-.293-.354c-.344-.146-3.188-1.341-4.49-1.517l-.97-.891a.497.497 0 0 0-.34-.132H9.063a.503.503 0 0 0-.343.136l-.935.879c-1.4.145-4.164 1.382-4.492 1.53a.494.494 0 0 0-.282.349l-2.5 12.5A.501.501 0 0 0 1 17h3a.5.5 0 0 0 .477-.35c.03-.095 2.34-8.63 2.438-8.63.143-.001-1.392 13.272-1.41 13.415A.5.5 0 0 0 6 22h4.562a.5.5 0 0 0 .466-.319c.005-.012.214-.464.472-1.181V7c-1.256-1.946-2.425-3.621-2.872-4.404L9.261 2h5.44l.633.583c-.48.745-1.642 2.414-2.835 4.417v13.5l.553 1.178a.5.5 0 0 0 .468.322H18a.501.501 0 0 0 .495-.563c-.035-.286-1.42-13.184-1.35-13.464.093.299 2.284 8.379 2.377 8.679A.502.502 0 0 0 20 17h3a.505.505 0 0 0 .39-.185.502.502 0 0 0 .1-.421l-2.502-12.5ZM10 14a.5.5 0 1 1-.001 1.002.5.5 0 0 1 0-1.002Zm0 2a.5.5 0 1 1-.001 1.002.5.5 0 0 1 0-1.002Zm4 1a.5.5 0 1 1 0-1 .5.5 0 0 1 0 1Zm0-2a.5.5 0 1 1 0-1 .5.5 0 0 1 0 1Z"/>
</svg>
