<svg xmlns="http://www.w3.org/2000/svg" viewBox="0 0 24 24">
  <path d="m16.477 19.563 6.81-6.096a2.52 2.52 0 0 0-.036-3.526 2.512 2.512 0 0 0-1.798-.75c-.701 0-1.377.295-1.818.773l-5.553 4.879a.51.51 0 0 1-.365.157H2.5A2.503 2.503 0 0 0 0 17.5C0 18.879 1.121 20 2.5 20h4l-2.4 3.201a.498.498 0 0 0 .399.799.494.494 0 0 0 .4-.199L7.75 20h5.458l2.85 3.801a.5.5 0 0 0 .8-.6L14.458 20h.962c.408 0 .803-.168 1.057-.437ZM6.5 2.5A.5.5 0 0 0 7 2V1a.5.5 0 0 0-1 0v1a.5.5 0 0 0 .5.5Zm3.155 1.32a.498.498 0 0 0 .353-.146l.707-.708a.5.5 0 0 0-.707-.707l-.706.708a.502.502 0 0 0 0 .708.497.497 0 0 0 .353.145ZM12 6h-1a.5.5 0 0 0 0 1h1a.5.5 0 0 0 0-1Zm-1.991 3.331a.5.5 0 0 0-.707.707l.707.707a.498.498 0 0 0 .708 0 .5.5 0 0 0 0-.707l-.708-.707ZM6.5 10.5a.5.5 0 0 0-.5.5v1a.5.5 0 0 0 1 0v-1a.5.5 0 0 0-.5-.5ZM2.938 9.331l-.708.707a.5.5 0 0 0 .707.707l.707-.707a.5.5 0 0 0-.706-.707ZM2.5 6.5A.5.5 0 0 0 2 6H1a.5.5 0 0 0 0 1h1a.5.5 0 0 0 .5-.5Zm.438-2.825a.502.502 0 0 0 .707-.001.502.502 0 0 0 0-.708l-.707-.706a.5.5 0 0 0-.707.707l.707.708ZM6.5 3.519a3 3 0 1 0 0 6 3 3 0 0 0 0-6Z"/>
</svg>
