<svg xmlns="http://www.w3.org/2000/svg" viewBox="0 0 24 24">
  <path fill-rule="evenodd" d="M12 4.5c-4.136 0-7.5 3.364-7.5 7.5s3.364 7.5 7.5 7.5 7.5-3.364 7.5-7.5-3.364-7.5-7.5-7.5Zm0 16a.5.5 0 0 0-.5.5v2a.5.5 0 0 0 1 0v-2a.5.5 0 0 0-.5-.5Zm6.854-2.354 1.5 1.5a.5.5 0 0 1-.707.707l-1.5-1.5a.5.5 0 0 1 .707-.707ZM23 11.5a.5.5 0 0 1 0 1h-2a.5.5 0 0 1 0-1h2Zm-4.146-5.647a.5.5 0 0 1-.707-.707l1.5-1.5a.5.5 0 0 1 .707.707l-1.5 1.5ZM12 3.5a.5.5 0 0 1-.5-.5V1a.5.5 0 0 1 1 0v2a.5.5 0 0 1-.5.5ZM5.147 5.853l-1.5-1.5a.5.5 0 0 1 .707-.707l1.5 1.5a.5.5 0 0 1-.707.707Zm0 12.293a.5.5 0 0 1 .707.707l-1.5 1.5a.5.5 0 0 1-.707-.707l1.5-1.5ZM3 11.5a.5.5 0 0 1 0 1H1a.5.5 0 0 1 0-1h2Z" clip-rule="evenodd"/>
</svg>
