<svg xmlns="http://www.w3.org/2000/svg" viewBox="0 0 24 24">
  <path d="M5.548 16.029c.082-.246.216-.476.419-.654l4.547-4.001a1.499 1.499 0 0 1 1.985.003l4.495 3.979c.222.196.369.449.445.722a7.46 7.46 0 0 0 1.572-4.578c0-4.136-3.364-7.5-7.5-7.5s-7.5 3.364-7.5 7.5a7.455 7.455 0 0 0 1.537 4.529ZM11.5 2.984a.5.5 0 0 0 .5-.5V.516a.5.5 0 0 0-1 0v1.969a.5.5 0 0 0 .5.499Zm6.736 2.493 1.392-1.392a.5.5 0 0 0-.707-.707L17.529 4.77a.5.5 0 0 0 .707.707Zm2.293 6.527h1.969a.5.5 0 0 0 0-1h-1.969a.5.5 0 0 0 0 1Zm-2.286 5.529a.5.5 0 0 0-.707.707l1.393 1.393a.5.5 0 0 0 .707-.707l-1.393-1.393Zm-13.47.007-1.392 1.393a.5.5 0 0 0 .707.707l1.392-1.392a.5.5 0 0 0-.707-.708ZM.512 12.014H2.48a.5.5 0 1 0 0-1H.512a.5.5 0 0 0 0 1Zm4.255-6.53a.5.5 0 0 0 .707-.707L4.082 3.385a.502.502 0 0 0-.707 0 .502.502 0 0 0 0 .708l1.392 1.391ZM22.5 23H.512a.5.5 0 0 0 0 1H22.5a.5.5 0 0 0 0-1Z"/>
  <path d="m16.332 16.126-4.5-4a.5.5 0 0 0-.664 0l-4.5 4A.5.5 0 0 0 7 17h2v4.5a.5.5 0 0 0 .5.5h4a.5.5 0 0 0 .5-.5V17h2a.5.5 0 0 0 .332-.874Z"/>
</svg>
