<svg xmlns="http://www.w3.org/2000/svg" viewBox="0 0 24 24">
  <path d="M12 4a.5.5 0 0 1-.5-.5v-2a.5.5 0 0 1 1 0v2a.5.5 0 0 1-.5.5Zm6.147 2.353a.499.499 0 0 0 .707 0l1.5-1.5a.5.5 0 0 0-.707-.707l-1.5 1.5a.5.5 0 0 0 0 .707ZM12 5c-4.136 0-7.5 3.364-7.5 7.5 0 .514.052 1.015.15 1.5h14.7c.098-.485.15-.986.15-1.5C19.5 8.364 16.136 5 12 5Zm11 7a.5.5 0 0 1 0 1h-2a.5.5 0 0 1 0-1h2ZM3.647 4.853l1.5 1.5a.5.5 0 0 0 .707-.707l-1.5-1.5a.5.5 0 0 0-.707.707ZM3 12a.5.5 0 0 1 0 1H1a.5.5 0 0 1 0-1h2ZM.5 16a.5.5 0 0 0 0 1h23a.5.5 0 0 0 0-1H.5Zm3 3a.5.5 0 0 0 0 1h17a.5.5 0 0 0 0-1h-17ZM6 22.5a.5.5 0 0 1 .5-.5h11a.5.5 0 0 1 0 1h-11a.5.5 0 0 1-.5-.5Z"/>
</svg>
