<svg xmlns="http://www.w3.org/2000/svg" viewBox="0 0 24 24">
  <path d="M5.897 16.469A1.483 1.483 0 0 1 6.965 16H8v-3.5c0-.828.678-1.5 1.507-1.5h4a1.5 1.5 0 0 1 1.5 1.5v3.512l1.012.009c.415.004.791.188 1.065.477a7.467 7.467 0 0 0 1.923-4.998c0-4.137-3.37-7.5-7.507-7.5A7.507 7.507 0 0 0 4 11.5c0 1.906.721 3.644 1.897 4.969ZM22.488 23H.5a.5.5 0 0 0 0 1h21.988a.5.5 0 0 0 0-1ZM11.5 3a.5.5 0 0 1-.5-.5v-2a.5.5 0 0 1 1 0v2a.5.5 0 0 1-.5.5ZM3 11.5a.5.5 0 0 1-.5.5h-2a.5.5 0 0 1 0-1h2a.5.5 0 0 1 .5.5Zm20 0a.5.5 0 0 1-.5.5h-2a.5.5 0 0 1 0-1h2a.5.5 0 0 1 .5.5Zm-3.368-8.132a.5.5 0 0 1 0 .707L18.218 5.49a.502.502 0 0 1-.708-.708l1.415-1.414a.5.5 0 0 1 .707 0Zm-16.264 0a.5.5 0 0 0 0 .707L4.782 5.49a.502.502 0 0 0 .707 0 .502.502 0 0 0 0-.708L4.075 3.368a.5.5 0 0 0-.707 0Zm16.264 16.264a.5.5 0 0 0 0-.707l-1.414-1.414a.5.5 0 1 0-.708.707l1.415 1.414a.5.5 0 0 0 .707 0Zm-16.264 0a.5.5 0 0 1 0-.707l1.414-1.414a.5.5 0 0 1 .707.707l-1.414 1.414a.5.5 0 0 1-.707 0Z"/>
  <path d="M16 17h-2v-4.5a.5.5 0 0 0-.5-.5h-4a.5.5 0 0 0-.5.5V17H7a.5.5 0 0 0-.332.874l4.5 4a.5.5 0 0 0 .664 0l4.5-4A.5.5 0 0 0 16 17Z"/>
</svg>
