<svg xmlns="http://www.w3.org/2000/svg" viewBox="0 0 24 24">
  <path d="M8.921 12.742c-.15.232-.46.3-.691.151A6.976 6.976 0 0 1 5 7c0-3.86 3.14-7 7-7s7 3.14 7 7a6.976 6.976 0 0 1-3.23 5.893.501.501 0 0 1-.54-.842A5.982 5.982 0 0 0 18 7c0-3.309-2.691-6-6-6S6 3.691 6 7a5.982 5.982 0 0 0 2.77 5.051.5.5 0 0 1 .151.691Z"/>
  <path fill-rule="evenodd" d="m14 13.641 4.096 1.385c1.288.416 1.582 1.891 1.307 3.086l-1.016 5.479a.5.5 0 0 1-.492.409H9.911a.502.502 0 0 1-.416-.221l-4.016-6c-.365-.559-.546-1.465-.19-2.124.228-.423.633-.655 1.139-.655 1.072 0 2.087.438 3.572 2.405V7.984C10 6.89 10.897 6 12 6s2 .897 2 2v5.641Z" clip-rule="evenodd"/>
</svg>
