<svg xmlns="http://www.w3.org/2000/svg" viewBox="0 0 24 25">
  <path d="M18 17.006a3.5 3.5 0 1 0 0 7 3.5 3.5 0 0 0 0-7Zm-12 0a3.5 3.5 0 1 0 0 7 3.5 3.5 0 0 0 0-7Zm6-11a1 1 0 1 0 0 2 1 1 0 0 0 0-2Z"/>
  <path d="M23.125 9.989a2.483 2.483 0 0 0-1.554-1.117 2.446 2.446 0 0 0-1.862.293l-4.133 2.231a8.618 8.618 0 0 0-.386-.318A5.993 5.993 0 0 0 18 6.006c0-.17-.012-.337-.025-.504.009 0 .017.004.025.004 1.379 0 2.5-1.121 2.5-2.5s-1.121-2.5-2.5-2.5a2.51 2.51 0 0 0-2.013 1.028A5.97 5.97 0 0 0 12 .006 5.97 5.97 0 0 0 8.018 1.53 2.502 2.502 0 0 0 3.5 3.006c0 1.379 1.121 2.5 2.5 2.5.009 0 .017-.004.025-.004A6.466 6.466 0 0 0 6 6.006a5.995 5.995 0 0 0 2.806 5.07c-.129.105-.258.208-.383.32L4.317 9.181a2.486 2.486 0 0 0-1.888-.309c-.65.152-1.202.55-1.554 1.117a2.505 2.505 0 0 0 .817 3.446l4.33 2.571a4.504 4.504 0 0 1 4.477 4.499 4.44 4.44 0 0 1-.543 2.097 5.57 5.57 0 0 0 2.043.403c.708 0 1.396-.146 2.044-.401a4.44 4.44 0 0 1-.544-2.099 4.503 4.503 0 0 1 4.479-4.498l4.338-2.577a2.483 2.483 0 0 0 1.117-1.553c.154-.65.045-1.32-.308-1.888ZM18 1.506c.827 0 1.5.673 1.5 1.5 0 .895-.831 1.586-1.704 1.475a5.963 5.963 0 0 0-1.095-2.191A1.497 1.497 0 0 1 18 1.506ZM6.204 4.478c-.067.01-.134.028-.204.028-.827 0-1.5-.673-1.5-1.5s.673-1.5 1.5-1.5c.554 0 1.038.313 1.299.783a5.985 5.985 0 0 0-1.095 2.189ZM14.5 3.006a.5.5 0 1 1 0 1 .5.5 0 0 1 0-1Zm-5 0a.5.5 0 1 1 0 1 .5.5 0 0 1 0-1Zm-1.25 5.25A3.755 3.755 0 0 1 12 4.506a3.755 3.755 0 0 1 3.75 3.75 3.755 3.755 0 0 1-3.75 3.75 3.755 3.755 0 0 1-3.75-3.75Zm7.065 7.692a.5.5 0 0 1-.675-.209c-.617-1.17-1.48-1.738-2.64-1.738-1.157 0-2.019.567-2.636 1.733a.5.5 0 0 1-.885-.467C9.263 13.785 10.48 13 12 13c1.521 0 2.74.785 3.524 2.271a.5.5 0 0 1-.209.677Z"/>
</svg>
