<svg xmlns="http://www.w3.org/2000/svg" viewBox="0 0 24 24">
  <g clip-path="url(#a)">
    <path fill-rule="evenodd" d="M12 0a2 2 0 0 0-2 2v14.535a4 4 0 1 0 4 0V2a2 2 0 0 0-2-2Zm1.5 20a1.5 1.5 0 1 1-3 0 1.5 1.5 0 0 1 3 0Z" clip-rule="evenodd"/>
    <path d="M20 3.5V6h-2.5a.5.5 0 0 0 0 1H20v2.5a.5.5 0 0 0 1 0V7h2.5a.5.5 0 0 0 0-1H21V3.5a.5.5 0 0 0-1 0Zm-20 3A.5.5 0 0 1 .5 6h6a.5.5 0 0 1 0 1h-6a.5.5 0 0 1-.5-.5Z"/>
  </g>
  <defs>
    <clipPath id="a">
      <path d="M0 0h24v24H0z"/>
    </clipPath>
  </defs>
</svg>
