<svg xmlns="http://www.w3.org/2000/svg" viewBox="0 0 24 24">
  <path fill-rule="evenodd" d="M4 2a2 2 0 1 1 4 0v14.535a4 4 0 1 1-4 0V2Zm2 19.5a1.5 1.5 0 1 0 0-3 1.5 1.5 0 0 0 0 3Z" clip-rule="evenodd"/>
  <path d="M9.5 4h2a.5.5 0 0 0 0-1h-2a.5.5 0 0 0 0 1Zm2 4h-2a.5.5 0 0 0 0 1h2a.5.5 0 0 0 0-1Zm0 5h-2a.5.5 0 0 0 0 1h2a.5.5 0 0 0 0-1Zm7.354 3.855 3-3A.502.502 0 0 0 21.5 13a.5.5 0 0 0-.354.147L19 15.294V3.5a.5.5 0 0 0-1 0v11.793l-2.147-2.146a.5.5 0 0 0-.707.707l3 3a.502.502 0 0 0 .545.107.497.497 0 0 0 .163-.107Z"/>
</svg>
