<svg xmlns="http://www.w3.org/2000/svg" viewBox="0 0 24 24">
  <path fill-rule="evenodd" d="M3 2a2 2 0 1 1 4 0v14.535a4 4 0 1 1-4 0V2Zm2 19.5a1.5 1.5 0 1 0 0-3 1.5 1.5 0 0 0 0 3Z" clip-rule="evenodd"/>
  <path d="M13 2.5a.5.5 0 0 1-1 0v-2a.5.5 0 0 1 1 0v2ZM23.5 11h-2a.5.5 0 0 0 0 1h2a.5.5 0 0 0 0-1Zm-4.283 6.51a.5.5 0 0 0-.707.707l1.414 1.414a.498.498 0 0 0 .708 0 .5.5 0 0 0 0-.707l-1.415-1.414Zm-.354-11.873a.502.502 0 0 0 .354-.146l1.414-1.414a.5.5 0 0 0-.707-.707L18.51 4.783a.5.5 0 0 0 .353.854ZM12.5 20a.5.5 0 0 0-.5.5v2a.5.5 0 0 0 1 0v-2a.5.5 0 0 0-.5-.5Zm0-1.5a7.01 7.01 0 0 1-1.75-.22A6.006 6.006 0 0 0 9 15.527V5.436A7 7 0 1 1 12.5 18.5Z"/>
</svg>
