<svg xmlns="http://www.w3.org/2000/svg" viewBox="0 0 24 24">
  <g clip-path="url(#a)">
    <path fill-rule="evenodd" d="M3 2a2 2 0 1 1 4 0v14.535a4 4 0 1 1-4 0V2Zm2 19.5a1.5 1.5 0 1 0 0-3 1.5 1.5 0 0 0 0 3Z" clip-rule="evenodd"/>
    <path d="M14 5.309v1.414l3.253 2.033 1.359-.784-.116-1.924a.5.5 0 0 1 .998-.06l.086 1.425 1.197-.691-.116-1.924a.5.5 0 1 1 .998-.06l.086 1.425 1.031-.596a.5.5 0 1 1 .5.866l-1.031.596 1.19.786a.5.5 0 0 1-.55.834l-1.608-1.061-1.197.69 1.19.787a.5.5 0 1 1-.55.834l-1.608-1.061L18 9.48a.46.46 0 0 1 0 .02v4.02l1.112.643L20.72 13.1a.5.5 0 0 1 .55.834l-1.19.787 1.197.69 1.608-1.061a.5.5 0 0 1 .55.834l-1.19.787 1.031.595a.5.5 0 1 1-.5.866l-1.031-.595-.086 1.424a.5.5 0 0 1-.998-.06l.116-1.923-1.197-.691-.086 1.424a.5.5 0 1 1-.998-.06l.116-1.923-1.36-.785L14 16.277v1.414l1.724.862a.5.5 0 1 1-.448.894L14 18.81v1.382l1.724.862a.5.5 0 1 1-.448.894L14 21.31v1.19a.5.5 0 0 1-1 0v-1.191l-1.276.638a.5.5 0 1 1-.448-.894L13 20.19v-1.382l-1.276.638a.5.5 0 1 1-.448-.894L13 17.69v-1.414l-3.765-2.353A.5.5 0 0 1 9 13.5v-4a.5.5 0 0 1 .235-.424L13 6.723V5.309l-1.724-.862a.5.5 0 1 1 .448-.894L13 4.19V2.809l-1.724-.862a.5.5 0 1 1 .448-.894L13 1.69V.5a.5.5 0 0 1 1 0v1.191l1.276-.638a.5.5 0 1 1 .448.894L14 2.81v1.382l1.276-.638a.5.5 0 1 1 .448.894L14 5.31Z"/>
  </g>
  <defs>
    <clipPath id="a">
      <path d="M0 0h24v24H0z"/>
    </clipPath>
  </defs>
</svg>
