<svg xmlns="http://www.w3.org/2000/svg" viewBox="0 0 24 24">
  <g clip-path="url(#a)">
    <path d="M10.635 2.092a1 1 0 0 0-.27-1.982C4.51.91 0 5.927 0 12c0 6.627 5.373 12 12 12 2.72 0 5.233-.907 7.246-2.434a1 1 0 0 0-1.209-1.594A9.951 9.951 0 0 1 12 22C6.477 22 2 17.523 2 12c0-5.06 3.758-9.243 8.635-9.908Zm3-1.982a1 1 0 0 0-.27 1.982 9.945 9.945 0 0 1 4.68 1.94 1 1 0 1 0 1.21-1.592 11.945 11.945 0 0 0-5.62-2.33Zm7.935 4.648a1 1 0 1 0-1.595 1.208 9.944 9.944 0 0 1 1.933 4.669 1 1 0 0 0 1.981-.27 11.944 11.944 0 0 0-2.32-5.607Zm2.32 8.877a1 1 0 0 0-1.982-.27 9.944 9.944 0 0 1-1.94 4.678 1 1 0 1 0 1.593 1.21 11.945 11.945 0 0 0 2.328-5.618Z"/>
    <path d="M12 4a.5.5 0 0 1 .5.5v5.563a2 2 0 0 1 1.223 2.953l3.63 3.63a.5.5 0 0 1-.707.708l-3.63-3.63a2 2 0 1 1-1.516-3.66V4.499A.5.5 0 0 1 12 4Z"/>
  </g>
  <defs>
    <clipPath id="a">
      <path d="M0 0h24v24H0z"/>
    </clipPath>
  </defs>
</svg>
