<svg xmlns="http://www.w3.org/2000/svg" viewBox="0 0 25 25">
  <path fill-rule="evenodd" d="M7.68 7.726c-3.431 0-6.27-.803-7.68-2.029v14.509c0 2.153 3.373 3.84 7.68 3.84 4.307 0 7.68-1.687 7.68-3.84V5.698c-1.41 1.225-4.249 2.028-7.68 2.028Zm0-6.72C3.154 1.006 0 2.525 0 3.886s3.154 2.88 7.68 2.88 7.68-1.519 7.68-2.88-3.154-2.88-7.68-2.88Zm0 3.84c-1.98 0-3.36-.663-3.36-1.26 0-.596 1.38-1.261 3.36-1.261s3.36.664 3.36 1.26c0 .598-1.38 1.26-3.36 1.26Zm15 12.955 1.29-2.131a.48.48 0 0 0 .02-.464l-1.332-2.665 1.331-2.644a.477.477 0 0 0-.015-.46l-1.295-2.194 1.293-1.675a.48.48 0 0 0-.412-.728h-7.24V20.2h7.24a.48.48 0 0 0 .41-.726l-1.29-1.673Z" clip-rule="evenodd"/>
</svg>
