<svg xmlns="http://www.w3.org/2000/svg" viewBox="0 0 24 24">
  <path d="M22.5 11h-21a.5.5 0 0 0-.5.5v12a.5.5 0 0 0 1 0V22h20v1.5a.5.5 0 0 0 1 0v-12a.5.5 0 0 0-.5-.5ZM22 21h-8v-9h8v9ZM8.5 13.5a1 1 0 1 1-2 0 1 1 0 0 1 2 0ZM2 16h11v5H2v-5Zm5.5-5.5h2a4 4 0 0 0 3.789-2.715c.215-.633-.294-1.285-.962-1.285H9V3a1.001 1.001 0 0 1 2 0 .5.5 0 0 0 1 0c0-1.103-.898-2-2-2-1.102 0-2 .897-2 2v3.5H4.673c-.668 0-1.177.652-.962 1.285A4 4 0 0 0 7.5 10.5Z"/>
  <path d="M15.5 13a.5.5 0 0 0-.5.5v2.793L18.293 13H15.5Zm0 7h.793L21 15.293V13.5a.5.5 0 0 0-.5-.5h-.793L15 17.706V19.5a.5.5 0 0 0 .5.5Zm5 0a.5.5 0 0 0 .5-.5v-2.794L17.707 20H20.5Z"/>
</svg>
