<svg xmlns="http://www.w3.org/2000/svg" viewBox="0 0 24 24">
  <path fill-rule="evenodd" d="M18.5 0h-13A2.503 2.503 0 0 0 3 2.5v1a.5.5 0 0 0 .5.5h17a.5.5 0 0 0 .5-.5v-1C21 1.122 19.879 0 18.5 0Zm-1 11h-11A2.503 2.503 0 0 0 4 13.5v1a.5.5 0 0 0 .5.5h15a.5.5 0 0 0 .5-.5v-1c0-1.378-1.121-2.5-2.5-2.5Zm1.773 5H4.727c.504 1.744 1.848 3.177 3.611 3.738l-.825 3.652A.5.5 0 0 0 8 24h8a.5.5 0 0 0 .487-.61l-.825-3.652c1.764-.561 3.108-1.994 3.611-3.738ZM4.93 10.389A3.45 3.45 0 0 1 6.5 10h11a3.45 3.45 0 0 1 1.57.389L19.407 5H4.593l.337 5.389Z" clip-rule="evenodd"/>
</svg>
