<svg xmlns="http://www.w3.org/2000/svg" viewBox="0 0 24 24">
  <path d="m4.842 13.411-3.394 3.395a2.496 2.496 0 0 0 0 3.535l2.927 2.927a2.501 2.501 0 0 0 3.802-.314l2.163-3.029c.173-.242.035-.728-.007-1.022l-5.491-5.492Zm2.691 6.48-1.06 1.768a.5.5 0 0 1-.858-.515l.859-1.433-1.844-1.844-1.061 1.06a.5.5 0 0 1-.707-.707l1.414-1.414a.5.5 0 0 1 .707 0l2.475 2.475a.499.499 0 0 1 .075.61ZM22.157 5.394l-.786-2.524a.49.49 0 0 0-.124-.206L18.771.189a.5.5 0 0 0-.707 0L5.549 12.704l4.955 4.955h1.904a.5.5 0 0 0 .5-.5v-3.088l2.737-.304a.5.5 0 0 0 .441-.552l-.299-2.685 2.686-.298a.5.5 0 0 0 .444-.497V6.608l2.86-.576a.5.5 0 0 0 .38-.638Z"/>
</svg>
