<svg xmlns="http://www.w3.org/2000/svg" viewBox="0 0 24 24">
  <path d="M6 13.5a1 1 0 0 0-1 1v8a1 1 0 1 0 2 0v-8a1 1 0 0 0-1-1Z"/>
  <path d="M5.664.13C2.285 3.201.5 7.628.5 12.933V15.5a.5.5 0 0 0 .5.5h3v-1.5c0-1.103.898-2 2-2 1.102 0 2 .897 2 2V16h3a.5.5 0 0 0 .5-.5V13c0-5.273-1.834-9.843-5.164-12.87a.5.5 0 0 0-.672 0ZM18 12.5a1 1 0 0 0 1-1v-10a1 1 0 1 0-2 0v10a1 1 0 0 0 1 1Z"/>
  <path d="M20 11.05v.45c0 1.102-.897 2-2 2s-2-.898-2-2v-.45a3.491 3.491 0 0 0-3 3.45v8a1 1 0 1 0 2 0v-7h2v7a1 1 0 1 0 2 0v-7h2v7a1 1 0 1 0 2 0v-8a3.49 3.49 0 0 0-3-3.45Z"/>
</svg>
