<svg xmlns="http://www.w3.org/2000/svg" viewBox="0 0 24 24">
  <path d="M20.5 5.006H17V4c0-1.654-1.346-3-3-3h-4C8.346 1 7 2.346 7 4v1.006H3.5c-1.93 0-3.5 1.571-3.5 3.5v10c0 1.929 1.57 3.5 3.5 3.494h17a3.496 3.496 0 0 0 3.5-3.494v-10c0-1.929-1.57-3.5-3.5-3.5ZM9 4c0-.551.448-1 1-1h4c.552 0 1 .449 1 1v1.006H9V4Zm8.5 10h2.316A2.99 2.99 0 0 1 17 16a2.99 2.99 0 0 1-2.816-2H9.816A2.99 2.99 0 0 1 7 16c-1.305 0-2.403-1-2.816-2H6.5l1.203-.969L6.5 12H4.184c.413-1 1.511-2 2.816-2s2.403.836 2.816 2h4.367a2.989 2.989 0 0 1 2.816-2c1.304 0 2.403.836 2.816 2H17.5l-1.203 1.031L17.5 14Z"/>
</svg>
