<svg xmlns="http://www.w3.org/2000/svg" viewBox="0 0 24 24">
  <path d="M16 7.266V7h5.5a.5.5 0 0 0 .32-.884l-6-5A.543.543 0 0 0 15.5 1h-6a.55.55 0 0 0-.32.116l-6 5A.5.5 0 0 0 3.5 7H9v.266l-5.82 4.85A.5.5 0 0 0 3.5 13h4.846l-3.809 9.31a.5.5 0 0 0 .925.379l.751-1.837 6.286-3.457 6.286 3.457.751 1.837a.5.5 0 0 0 .925-.379L16.654 13H21.5a.5.5 0 0 0 .32-.884L16 7.266Zm-1 2.429L13.083 6.5 15 3.305v6.39Zm-2.5-4.167L10.383 2h4.234L12.5 5.528Zm-.583.972L10 9.695v-6.39L11.917 6.5Zm.583.972L15.164 12H9.836L12.5 7.472ZM16 6V2.568L20.119 6H16ZM4.881 6 9 2.568V6H4.881Zm0 6L9 8.568v2.834L8.755 12H4.881Zm1.935 7.38 1.707-4.172 2.939 1.617-4.646 2.555Zm6.721-2.555 2.94-1.617 1.707 4.172-4.647-2.555Zm2.559-2.548L12.5 16.254l-3.595-1.977L9.427 13h6.146l.523 1.277ZM16.245 12 16 11.402V8.568L20.119 12h-3.874Z"/>
</svg>
