<svg xmlns="http://www.w3.org/2000/svg" viewBox="0 0 24 24">
  <path d="M12.494 15.358A3.5 3.5 0 0 0 14.5 16a3.503 3.503 0 0 0 3.458-2.955l.058-.301a3.25 3.25 0 0 0 .283-5.852L18 6.5A2.5 2.5 0 0 0 15.5 4l-.25-.25a3.25 3.25 0 1 0-6.5 0L8.5 4A2.5 2.5 0 0 0 6 6.5l-.048.27A3.249 3.249 0 0 0 4 9.751a3.25 3.25 0 0 0 2.003 3.002l.039.293A3.502 3.502 0 0 0 9.5 16.001c.747 0 1.432-.244 2-.645V23a.5.5 0 0 0 .5.5.495.495 0 0 0 .494-.5v-7.642Zm.006-2.165-.006 1.801h-1v-4.05a3.487 3.487 0 0 1-3-3.45.5.5 0 0 1 1 0c0 1.211.855 2.223 2 2.451V7.034c0-.275.24-.499.516-.499.275 0 .484.225.484.501v5.157c1.688-.249 3-1.693 3-3.449a.5.5 0 0 1 1 0c0 2.309-1.753 4.193-3.994 4.449Z"/>
</svg>
