<svg xmlns="http://www.w3.org/2000/svg" viewBox="0 0 24 24">
  <path d="M24 4.501a.5.5 0 0 0-.5-.5h-13a.5.5 0 0 0-.5.5v11a.5.5 0 1 1-1-.001v-9a.5.5 0 0 0-.5-.5H5a.5.5 0 0 0-.438.257l-2.466 4.439-1.95 1.95A.507.507 0 0 0 0 13v5.5a.5.5 0 0 0 .5.5h1.039C1.23 16.843 2.913 15 5 15c2.072 0 3.771 1.827 3.46 4h7.079c-.309-2.158 1.374-4 3.461-4 2.072 0 3.771 1.827 3.46 4h1.04a.5.5 0 0 0 .5-.5V4.501ZM7.5 9H6.309l-1.361 2.723a.5.5 0 1 1-.895-.446l1.5-3A.5.5 0 0 1 6 8h1.5a.5.5 0 0 1 0 1Z"/>
  <path d="M5 16a2.5 2.5 0 1 0 0 5 2.5 2.5 0 0 0 0-5Zm14 0a2.5 2.5 0 1 0 0 5 2.5 2.5 0 0 0 0-5Z"/>
</svg>
