<svg xmlns="http://www.w3.org/2000/svg" viewBox="0 0 24 24">
  <path d="M10 11a2 2 0 1 0 0 4 2 2 0 0 0 0-4Z"/>
  <path d="M22 3v-.5C22 1.122 20.878 0 19.5 0A2.503 2.503 0 0 0 17 2.5V3H.5a.5.5 0 0 0-.5.5v19a.5.5 0 0 0 .5.5h23a.5.5 0 0 0 .5-.5v-19a.5.5 0 0 0-.5-.5H22Zm-9.335 17.546C7.475 22.379 2 18.516 2 13c0-4.411 3.589-8 8-8a8.005 8.005 0 0 1 7.567 5.396.5.5 0 0 1-.946.325A7.004 7.004 0 0 0 10 6c-3.86 0-7 3.141-7 7 0 4.826 4.789 8.206 9.332 6.603a.5.5 0 0 1 .333.943ZM10 16c-1.654 0-3-1.346-3-3s1.346-3 3-3 3 1.346 3 3-1.346 3-3 3Zm10-4a.501.501 0 0 1-.115.319l-2.346 2.831.716.716a.5.5 0 0 1 0 .707l-1.741 1.741c-.817.816-2.129.898-2.929.1-.79-.79-.727-2.1.101-2.928l1.741-1.741a.5.5 0 0 1 .707 0l.694.694 2.057-2.481A.495.495 0 0 0 19 11.64V6.5a.5.5 0 0 1 1 0V12Zm1-7.5a.5.5 0 0 1-.5.5h-2a.5.5 0 0 1-.5-.5v-2c0-.827.673-1.5 1.5-1.5s1.5.673 1.5 1.5v2Z"/>
</svg>
