<svg xmlns="http://www.w3.org/2000/svg" viewBox="0 0 25 24">
  <path d="M13 2.025V.5a.5.5 0 0 0-1 0v1.525C5.273 2.306.713 8.018 1 14.523c.028.635 1.005.628 1-.025-.014-2.01 3.987-2.015 4.002.006.004.572.84.701.985.117.536-2.14 4.423-2.164 5.013-.045V22c0 1.066.88 1.625 1.75 1.625S15.5 23.066 15.5 22a.5.5 0 0 0-1 0c0 .607-.673.625-.75.625-.077 0-.75-.018-.75-.625v-7.414c.58-2.129 4.48-2.108 5.017.035.142.568.981.466.985-.117.015-2.018 4.015-2.019 4.002-.006-.005.658.973.65 1 .025C24.291 8.031 19.744 2.305 13 2.025Z"/>
</svg>
