<svg xmlns="http://www.w3.org/2000/svg" viewBox="0 0 24 24">
  <path d="M11 10H3.913a5.69 5.69 0 0 0-1.284 1.305c-.355.506-.628 1.084-.859 1.695H11v-3Zm-1 8c.35 0 .681.067 1 .164V14H1.456c-.614 2.458-.377 5.504.765 8.67.072.197.259.33.47.33h4.16a3.461 3.461 0 0 1-.351-1.5c0-1.929 1.57-3.5 3.5-3.5Z"/>
  <path d="m22.975 23.342-1-3A.5.5 0 0 0 21.5 20H19V6.5C19 3.467 16.532 1 13.5 1A5.507 5.507 0 0 0 8 6.5V7H6.5a.5.5 0 0 0-.5.5V9h5V7.5a.5.5 0 0 0-.5-.5H9v-.5C9 4.019 11.019 2 13.5 2S18 4.019 18 6.5V20h-2.5a.5.5 0 0 0-.475.342l-1 3A.499.499 0 0 0 14.5 24h8a.499.499 0 0 0 .475-.658Z"/>
  <path d="M10 19a2.5 2.5 0 1 0 0 5 2.5 2.5 0 0 0 0-5Z"/>
</svg>
