<svg xmlns="http://www.w3.org/2000/svg" viewBox="0 0 24 24">
  <path fill-rule="evenodd" d="M7 .5a.5.5 0 0 1 .5-.5h9a.5.5 0 0 1 .5.5v12a.5.5 0 0 1-.5.5h-.691l-.862 1.724A.5.5 0 0 1 14.5 15H14v3h6v4H4v-4h6v-3h-.5a.5.5 0 0 1-.447-.276L8.19 13H7.5a.5.5 0 0 1-.5-.5V.5ZM9.309 13l.5 1h4.382l.5-1H9.309ZM11 3.5a.5.5 0 0 0-1 0v5a.5.5 0 0 0 1 0v-5Zm3 0a.5.5 0 0 0-1 0v5a.5.5 0 0 0 1 0v-5Z" clip-rule="evenodd"/>
  <path d="M21 23.5a.5.5 0 0 0 .5.5h2a.5.5 0 0 0 .5-.5v-7a.5.5 0 0 0-.5-.5h-2a.5.5 0 0 0-.5.5v7Zm-18 0a.5.5 0 0 1-.5.5h-2a.5.5 0 0 1-.5-.5v-7a.5.5 0 0 1 .5-.5h2a.5.5 0 0 1 .5.5v7Z"/>
</svg>
