<svg xmlns="http://www.w3.org/2000/svg" viewBox="0 0 24 24">
  <path fill-rule="evenodd" d="M16.402 2H20.5a.5.5 0 0 1 0 1h-3.6c.065.242.1.493.1.75 0 1.6-1.332 2.958-3.192 3.496 2.866.795 4.692 3.508 4.692 7.254v3c0 1.834-1.254 3.468-3 4.152.018-.383.008-2.314.003-3.426L15.5 17.5c0-1.93-1.57-3.5-3.5-3.5s-3.5 1.57-3.5 3.5l-.005.767c-.008 1.135-.023 3.059.005 3.464a4.47 4.47 0 0 1-3-4.231v-3c0-3.773 1.852-6.496 4.752-7.269-1.828-.55-3.127-1.9-3.127-3.481 0-.257.035-.508.1-.75H3.5a.5.5 0 0 1 0-1h4.222c.832-1.184 2.454-2 4.34-2 1.886 0 3.509.816 4.34 2ZM13 13a.5.5 0 0 0 .5-.5v-4A.5.5 0 0 0 13 8h-2a.5.5 0 0 0-.5.5v4a.5.5 0 0 0 .5.5h2Zm-2.937-9a2 2 0 1 0 4.001-.001A2 2 0 0 0 10.063 4Z" clip-rule="evenodd"/>
  <path d="M9.5 17.5c0-1.378 1.122-2.5 2.5-2.5s2.5 1.122 2.5 2.5v4c0 1.379-1.122 2.5-2.5 2.5a2.503 2.503 0 0 1-2.5-2.5v-4Z"/>
</svg>
