<svg xmlns="http://www.w3.org/2000/svg" viewBox="0 0 24 24">
  <path fill-rule="evenodd" d="M1.5 1h21c.827 0 1.5.673 1.5 1.5v4a.5.5 0 0 1-.5.5H.5a.5.5 0 0 1-.5-.5v-4C0 1.673.673 1 1.5 1Zm17.793 5 3.672-3.672A.497.497 0 0 0 22.5 2h-1.793l-3.999 4h2.585Zm-8-4H8.707l-4 4h2.586l4-4ZM1.208 6h2.085l4-4H5.208l-4 4Zm14.085-4h-2.586l-4 4h2.586l4-4Zm4 0h-2.586l-4 4h2.587l3.999-4ZM3.794 2H1.5a.5.5 0 0 0-.5.5v2.294L3.794 2ZM23 3.707 20.707 6H23V3.707ZM.5 8h23a.5.5 0 0 1 .5.5v12.6c0 1.047-.869 1.9-1.937 1.9H1.938C.869 23 0 22.147 0 21.1V8.5A.5.5 0 0 1 .5 8Zm8 12a.505.505 0 0 0 .224-.053l8-4a.5.5 0 0 0 0-.894l-8-4A.5.5 0 0 0 8 11.5v8a.5.5 0 0 0 .5.5Z" clip-rule="evenodd"/>
</svg>
