<svg xmlns="http://www.w3.org/2000/svg" viewBox="0 0 24 24">
  <g clip-path="url(#a)">
    <path fill-rule="evenodd" d="M5.5 0h13C19.878 0 21 1.121 21 2.5v8c0 1.379-1.122 2.5-2.5 2.5h-13A2.503 2.503 0 0 1 3 10.5v-8C3 1.121 4.122 0 5.5 0Zm9.739 4.356C14.718 2.977 13.465 2 12 2c-1.423 0-2.646.924-3.192 2.241l.576.473c.564.398 1.913.456 2.763-.396a.5.5 0 0 1 .794.117c.227.423.649.543.881.577.53.085.79-.133 1.172-.454.076-.064.157-.132.245-.202Zm-7.416 5.889C7.081 10.457 6.5 11.229 6.5 12h11c0-.771-.581-1.543-1.326-1.755l-2.175-.622v-.765c.976-.736 1.587-1.955 1.47-3.413a54.6 54.6 0 0 0-.07.056c-.43.342-.661.526-1.362.526-.604 0-1.194-.218-1.619-.64-1.068.743-2.701.89-3.875-.072-.175 1.499.456 2.787 1.457 3.543v.765l-2.177.622Z" clip-rule="evenodd"/>
    <path d="M22.5 17.015a2.99 2.99 0 0 1-1.215 2.397C22.85 20.132 24 21.732 24 23.5a.5.5 0 0 1-.5.5H.5a.5.5 0 0 1-.5-.5c0-1.768 1.15-3.368 2.715-4.088A2.988 2.988 0 0 1 1.5 17.015c0-1.654 1.346-3 3-3s3 1.346 3 3a2.99 2.99 0 0 1-1.199 2.384 4.53 4.53 0 0 1 1.95 1.652 4.529 4.529 0 0 1 1.952-1.65A2.986 2.986 0 0 1 9 17.016c0-1.654 1.346-3 3-3s3 1.346 3 3a2.99 2.99 0 0 1-1.202 2.387 4.518 4.518 0 0 1 1.952 1.647 4.53 4.53 0 0 1 1.949-1.65 2.987 2.987 0 0 1-1.199-2.384c0-1.654 1.346-3 3-3s3 1.346 3 3Z"/>
  </g>
  <defs>
    <clipPath id="a">
      <path d="M0 0h24v24H0z"/>
    </clipPath>
  </defs>
</svg>
