<svg xmlns="http://www.w3.org/2000/svg" viewBox="0 0 24 24">
  <path d="M13 21.826a1 1 0 0 1-1.65.76L3.666 16H1a1 1 0 0 1-1-1V9a1 1 0 0 1 1-1h2.667l7.682-6.585a1 1 0 0 1 1.651.76v19.65Zm7.329-18.202a.5.5 0 1 0-.659.753c4.437 3.878 4.443 11.363 0 15.247a.5.5 0 0 0 .659.753c4.9-4.284 4.891-12.479 0-16.753Z"/>
  <path d="M17.818 5.614a.5.5 0 1 0-.637.771c3.717 3.067 3.73 8.14 0 11.23a.5.5 0 1 0 .638.77c4.22-3.492 4.189-9.313-.001-12.77Z"/>
  <path d="M15.794 8.096a.5.5 0 1 0-.588.808c2.428 1.768 2.373 4.467 0 6.191a.5.5 0 1 0 .588.808c2.94-2.134 2.949-5.663 0-7.807Z"/>
</svg>
