<svg xmlns="http://www.w3.org/2000/svg" viewBox="0 0 24 24">
  <g clip-path="url(#a)">
    <path fill-rule="evenodd" d="M18 9.5h4a.5.5 0 0 1 .447.724l-2 4c-.621.838-1.495 1.276-2.447 1.276l-3.432.153a6.114 6.114 0 0 1-1.568.305V17h-1v-2.537a8.525 8.525 0 0 1-2.055-.344l-3.462-.12a2.97 2.97 0 0 1-2.382-1.198L2.053 8.724A.5.5 0 0 1 2.5 8h4a2.98 2.98 0 0 1 2.399 1.199c.064.086 1.077 2.886 1.39 3.749l.089.248a7.419 7.419 0 0 0 1.622.267v-3.371L10.557 6.29a.537.537 0 0 1-.028-.108 2.976 2.976 0 0 1 .849-2.545l2.828-2.83a.499.499 0 0 1 .828.196l1.414 4.243c.155 1.033-.155 1.96-.828 2.632L13 10.225v4.734c.39-.034.764-.104 1.118-.216l.073-.204c.291-.812 1.345-3.754 1.41-3.84A2.98 2.98 0 0 1 18 9.499Zm-9.721 3.879a.499.499 0 1 0 .52-.853 6.09 6.09 0 0 1-1.885-1.806.499.499 0 1 0-.828.56 7.08 7.08 0 0 0 2.193 2.099Zm4.256-4.4a.499.499 0 0 0 .547-.447c.135-1.348.416-2.324.771-2.68a.5.5 0 0 0-.707-.706c-.538.538-.894 1.643-1.059 3.286a.5.5 0 0 0 .448.547Zm3.426 5.975c.778-.541 1.444-1.282 1.979-2.203a.5.5 0 1 0-.864-.502c-.46.793-1.027 1.427-1.685 1.883a.5.5 0 1 0 .57.822Z" clip-rule="evenodd"/>
    <path d="M6 20v-3H.5a.5.5 0 0 0-.5.5V20h6Zm6-3H7v3h5v-3Zm-3 4H4v3h5v-3Zm4-4h5v3h-5v-3Zm11 3h-5v-3h4.5a.5.5 0 0 1 .5.5V20Zm-3 1v3h2.5a.5.5 0 0 0 .5-.5V21h-3Zm-6 0h-5v3h5v-3ZM0 21h3v3H.5a.5.5 0 0 1-.5-.5V21Zm16 0h4v3h-4v-3Z"/>
  </g>
  <defs>
    <clipPath id="a">
      <path d="M0 0h24v24H0z"/>
    </clipPath>
  </defs>
</svg>
