<svg xmlns="http://www.w3.org/2000/svg" viewBox="0 0 24 24">
  <path fill-rule="evenodd" d="M22 6V2.5C22 1.122 20.879 0 19.5 0h-15A2.503 2.503 0 0 0 2 2.5V6h20Zm-3.5-4.5a.5.5 0 1 1-.002 1.002A.5.5 0 0 1 18.5 1.5Zm0 2a.5.5 0 1 1-.002 1.002A.5.5 0 0 1 18.5 3.5Zm-2-2a.5.5 0 1 1-.002 1.002A.5.5 0 0 1 16.5 1.5Zm0 2a.5.5 0 1 1-.002 1.002A.5.5 0 0 1 16.5 3.5Zm-2-2a.5.5 0 1 1-.002 1.002A.5.5 0 0 1 14.5 1.5Zm0 2a.5.5 0 1 1-.002 1.002A.5.5 0 0 1 14.5 3.5ZM4.574 1.237A.503.503 0 0 1 5 1h6a.498.498 0 0 1 .447.723l-1 2A.498.498 0 0 1 10 4H6a.498.498 0 0 1-.447-.277l-1-2a.5.5 0 0 1 .021-.486ZM2 7v14.5C2 22.878 3.121 24 4.5 24h15c1.379 0 2.5-1.122 2.5-2.5V7H2Zm16 8a5.955 5.955 0 0 1-.886 3.122l-2.848-2.082c.147-.317.234-.668.234-1.04 0-1.378-1.121-2.5-2.5-2.5V9c3.309 0 6 2.691 6 6Zm-7.5 0c0-.827.673-1.5 1.5-1.5s1.5.673 1.5 1.5-.673 1.5-1.5 1.5-1.5-.673-1.5-1.5Zm.5-5.91v3.622A2.5 2.5 0 0 0 9.5 15c0 .376.09.729.238 1.049l-2.803 2.154A5.964 5.964 0 0 1 6 15c0-2.967 2.167-5.431 5-5.91ZM12 21a5.983 5.983 0 0 1-4.46-2l2.796-2.148A2.48 2.48 0 0 0 12 17.5a2.48 2.48 0 0 0 1.673-.655l2.852 2.084A5.984 5.984 0 0 1 12 21Z" clip-rule="evenodd"/>
</svg>
