<svg xmlns="http://www.w3.org/2000/svg" viewBox="0 0 24 24">
  <path d="M21.443 18.325c-.181-.301-.677-.301-.858 0-.266.442-1.588 2.697-1.588 3.626a2.02 2.02 0 0 0 2.017 2.017 2.019 2.019 0 0 0 2.017-2.017c0-.929-1.323-3.183-1.588-3.626ZM2.5 7h-2a.5.5 0 0 0-.5.5v5a.5.5 0 0 0 .5.5h2a.5.5 0 0 0 .5-.5v-5a.5.5 0 0 0-.5-.5ZM2 2h5v1h4V1.98l4.998.02a.501.501 0 0 0 .502-.498.472.472 0 0 0-.498-.482L11 1V.5a.5.5 0 0 0-.5-.5h-3a.5.5 0 0 0-.5.5V1H2a.5.5 0 0 0 0 1Zm8.5 2h-3C5.57 4 4 5.57 4 7.501V12.5C4 14.43 5.57 16 7.5 16h3c1.93 0 3.5-1.569 3.5-3.499V7.5C14 5.57 12.43 4 10.5 4ZM23 16.5v-2c0-4.93-3.9-7.025-8-7.423V13h1.5c.827 0 1.5.673 1.5 1.5v2a.5.5 0 0 0 .5.5h4a.5.5 0 0 0 .5-.5Z"/>
</svg>
