<svg xmlns="http://www.w3.org/2000/svg" viewBox="0 0 25 24">
  <path d="M.824 15.033c1.475.316 2.956-1.472 2.97-1.489.609-.757 1.936-.683 2.451.142 1.216 1.887 3.724 1.672 4.662.045.568-.986 1.983-.999 2.577-.045 1.293 1.93 3.76 1.626 4.664.045.568-.986 1.983-.998 2.577-.044.037.058 1.052 1.603 2.48 1.304.272-.057.547-.027.802.062l.003-2.594a.501.501 0 0 0-.602-.49c-2.131.441-3.478-1.665-3.534-1.756-.186-.296-.685-.287-.861.016-1.203 2.176-4.706 2.603-6.379-.016-.188-.297-.687-.287-.861.016-1.358 2.346-4.888 2.447-6.378-.016-.173-.273-.618-.299-.82-.045-.018.025-1.851 2.293-3.959 1.843a.5.5 0 0 0-.604.488v2.598c.259-.094.535-.122.812-.064Z"/>
  <path d="M.831 19.055c1.216.257 2.592-1.02 2.97-1.489.609-.757 1.936-.684 2.451.144 1.256 1.906 3.697 1.654 4.671.027a1.504 1.504 0 0 1 2.568-.029c1.274 1.9 3.666 1.666 4.664.044.568-.986 1.983-.997 2.577-.042.003.003 1.082 1.586 2.481 1.302.269-.056.542-.028.795.062l.003-2.613a.499.499 0 0 0-.601-.491c-2.131.445-3.478-1.665-3.534-1.756-.186-.296-.685-.287-.861.016-1.203 2.176-4.706 2.604-6.379-.016-.188-.297-.687-.287-.861.016-1.358 2.346-4.888 2.447-6.378-.016-.173-.273-.618-.299-.82-.045-.018.025-1.851 2.293-3.959 1.843a.494.494 0 0 0-.599.489l-.004 2.622c.254-.096.538-.127.816-.068Z"/>
  <path d="M23.409 19.969c-1.488.307-2.868-.701-3.534-1.756-.186-.296-.685-.287-.861.016-1.203 2.176-4.706 2.604-6.379-.016-.187-.295-.684-.285-.86.015-1.431 2.413-4.93 2.382-6.379-.015-.173-.273-.618-.299-.82-.045-.775 1-2.43 2.174-3.959 1.843-.315-.063-.61.177-.597.488l-.007 2.979a.463.463 0 0 0 .139.354.5.5 0 0 0 .354.146h23a.5.5 0 0 0 .5-.498l.005-3.021a.5.5 0 0 0-.602-.49Zm-5.05-16.34-2.5-2.5a.502.502 0 0 0-.708 0l-2.499 2.5a.5.5 0 0 0 .707.707l1.653-1.646v6.793a.49.49 0 0 0 .493.5.5.5 0 0 0 .5-.5V2.69l1.646 1.646a.5.5 0 0 0 .708-.707Zm-9.5-2.5a.502.502 0 0 0-.708 0l-2.499 2.5a.5.5 0 0 0 .707.707L8.012 2.69v6.793a.49.49 0 0 0 .493.5.5.5 0 0 0 .5-.5V2.69l1.647 1.646a.5.5 0 0 0 .707-.707l-2.5-2.5Z"/>
</svg>
