<svg xmlns="http://www.w3.org/2000/svg" viewBox="0 0 25 24">
  <path d="M.818 19.055c1.221.258 2.592-1.02 2.97-1.489.61-.757 1.936-.684 2.451.142 1.212 1.881 3.66 1.689 4.671.029a1.504 1.504 0 0 1 2.568-.029c1.293 1.93 3.76 1.626 4.664.044.568-.986 1.983-.997 2.577-.042.003.003 1.082 1.588 2.48 1.302.271-.056.546-.027.802.063l.003-2.594a.5.5 0 0 0-.602-.49c-2.128.445-3.477-1.664-3.534-1.756-.186-.295-.685-.287-.86.016-1.204 2.176-4.707 2.604-6.38-.016-.188-.297-.687-.287-.86.016-1.359 2.346-4.889 2.447-6.379-.016-.173-.273-.618-.299-.82-.045-.018.025-1.849 2.293-3.959 1.843a.496.496 0 0 0-.6.488L.006 19.12c.256-.095.536-.122.812-.065Z"/>
  <path d="M23.403 19.99c-1.488.307-2.868-.701-3.534-1.756-.186-.295-.685-.287-.86.016-1.204 2.176-4.707 2.604-6.38-.016-.187-.295-.685-.286-.86.015-1.43 2.412-4.93 2.382-6.379-.015-.173-.274-.618-.299-.82-.045-.775 1-2.43 2.173-3.959 1.843-.315-.064-.61.177-.597.488l-.007 2.979a.464.464 0 0 0 .14.354A.5.5 0 0 0 .5 24h23a.5.5 0 0 0 .5-.499l.005-3.021a.5.5 0 0 0-.602-.49ZM18.354 5.65a.5.5 0 0 0-.707 0L16 7.297V.504a.5.5 0 0 0-.5-.5.49.49 0 0 0-.493.5v6.793l-1.653-1.646a.5.5 0 0 0-.707.707l2.5 2.5a.501.501 0 0 0 .708 0l2.5-2.5a.502.502 0 0 0 0-.708Zm-7.708 0L9 7.297V.504a.5.5 0 0 0-.5-.5.49.49 0 0 0-.493.5v6.793L6.353 5.65a.5.5 0 0 0-.707.707l2.5 2.5a.5.5 0 0 0 .707 0l2.5-2.5a.5.5 0 0 0-.707-.707Z"/>
</svg>
