<svg xmlns="http://www.w3.org/2000/svg" viewBox="0 0 24 24">
  <path fill-rule="evenodd" d="M18.5 14.175a.5.5 0 0 1-.5-.5v-1.5a.5.5 0 0 1 1 0v1.5a.5.5 0 0 1-.5.5Zm0 3.5a.5.5 0 0 1-.5-.5v-1.5a.5.5 0 0 1 1 0v1.5a.5.5 0 0 1-.5.5Zm2.19-4.106-.642-1.355a.5.5 0 0 1 .904-.429l.643 1.356a.5.5 0 0 1-.905.428Zm1.5 3.163-.642-1.355a.5.5 0 1 1 .904-.428l.643 1.355a.5.5 0 1 1-.905.428Zm-6.691-2.925a.499.499 0 0 1-.236-.665l.644-1.356a.5.5 0 0 1 .902.429l-.644 1.355a.5.5 0 0 1-.666.237Zm-1.5 3.162a.5.5 0 0 1-.237-.666l.644-1.355a.5.5 0 0 1 .904.428l-.644 1.355a.5.5 0 0 1-.667.238Zm-7.76 6.009a2.495 2.495 0 0 1-3.246-1.4 2.498 2.498 0 0 1 1.4-3.247l2.568-1.02A.496.496 0 0 0 6.5 17h-5a.5.5 0 0 0-.5.5v6a.5.5 0 0 0 .5.5h5a.5.5 0 0 0 .5-.5v-.825l-.761.303Zm4.655-4.538a1.525 1.525 0 0 0-1.948-.841l-4.182 1.662a1.496 1.496 0 0 0-.841 1.946 1.495 1.495 0 0 0 1.946.842l4.184-1.661a1.5 1.5 0 0 0 .841-1.948ZM11 0C6.037 0 2 4.038 2 9v7h4V9a5.002 5.002 0 0 1 5.492-4.977C14.021 4.265 16 6.555 16 9.236V9.5a.5.5 0 0 0 .5.5h3a.5.5 0 0 0 .5-.5V9c0-4.962-4.037-9-9-9Z" clip-rule="evenodd"/>
</svg>
