<svg xmlns="http://www.w3.org/2000/svg" viewBox="0 0 24 24">
  <path d="M10 2.5a.5.5 0 0 1 .5-.5h4a.5.5 0 0 1 0 1H13v2h3.5a.5.5 0 0 1 .5.5v5a.5.5 0 0 1-.5.5h-8a.5.5 0 0 1-.5-.5v-5a.5.5 0 0 1 .5-.5H12V3h-1.5a.5.5 0 0 1-.5-.5Zm8 7.5h.5a.5.5 0 0 1 .5.5v2a.5.5 0 0 0 .5.5h3a.5.5 0 0 0 .5-.5v-3A3.5 3.5 0 0 0 19.5 6H18v4ZM7 6v4H5.5a.5.5 0 0 0-.5.5v11a.5.5 0 0 1-.5.5h-3a.5.5 0 0 1-.5-.5v-12A3.5 3.5 0 0 1 4.5 6H7Zm14.42 9.232c-.18-.31-.67-.31-.85 0-.263.452-1.574 2.755-1.574 3.706 0 1.136.897 2.062 2 2.062s2-.925 2-2.062c-.001-.95-1.312-3.253-1.576-3.706Z"/>
</svg>
