<svg xmlns="http://www.w3.org/2000/svg" viewBox="0 0 24 24">
  <path d="m22.459 9.302-1.821-4.215A3.458 3.458 0 0 0 17.461 3 3.465 3.465 0 0 0 14 6.46C14 7.867 12.358 9 11 9 7.591 9 3.96 3.292 3.923 3.234A.499.499 0 0 0 3 3.5V8h2.5a.5.5 0 0 1 0 1H3v.484c0 .173.015.346.025.516h3.476a.5.5 0 0 1-.001 1H3.141c.062.342.142.674.243 1H7.5a.5.5 0 0 1 0 1H3.772c1.276 2.79 4.012 4.777 7.228 4.966v2.049l-2.947-.005-1.119-1.777A.5.5 0 0 0 6.511 18H2.5a.498.498 0 0 0-.447.723L2.692 20h-.691a.5.5 0 0 0-.002 1l.691.001-.638 1.275a.503.503 0 0 0 .021.486A.503.503 0 0 0 2.5 23h4.011a.5.5 0 0 0 .423-.233L8.04 21H11v2.521c0 .276.224.479.5.479s.5-.203.5-.479V21h6.065l-1.344 1.092a.5.5 0 0 0 .621.784l2.469-1.953c.007-.006.01-.015.017-.021a.513.513 0 0 0 .088-.109c.012-.019.028-.035.037-.056a.497.497 0 0 0 .044-.185c0-.006.004-.012.004-.017v-.003a.504.504 0 0 0-.046-.205c-.008-.018-.022-.032-.032-.049a.522.522 0 0 0-.092-.117c-.006-.005-.008-.014-.015-.019l-2.5-2.03a.5.5 0 1 0-.631.776l1.403 1.14-6.088-.01v-2.052c4.149-.268 7.716-3.82 7.983-7.966H22a.501.501 0 0 0 .459-.698ZM6.234 22H3.309l.498-1H6.86l-.626 1Zm-2.425-2-.5-1h2.926l.63 1H3.809ZM17.5 8.25c-.827 0-1.5-.673-1.5-1.5s.673-1.5 1.5-1.5 1.5.673 1.5 1.5-.673 1.5-1.5 1.5Z"/>
  <path d="M14.244 3.861a4.44 4.44 0 0 1 3.217-1.386c1.196 0 2.308.485 3.127 1.293l1.355-1.979a.502.502 0 0 0-.503-.775l-1.866.346L17.789.098a.501.501 0 0 0-.573-.004l-1.831 1.268-1.798-.317a.494.494 0 0 0-.495.205.496.496 0 0 0-.026.534l1.178 2.077Z"/>
</svg>
