<svg xmlns="http://www.w3.org/2000/svg" viewBox="0 0 24 24">
  <path d="M8.5 1.5A.5.5 0 0 0 8 1H5a.5.5 0 0 0-.5.5V4h4V1.5Zm2 10c0-.374.143-.713.37-.976-.292-.252-.59-.481-.87-.695C9.07 9.12 8.5 8.652 8.5 8V5h-4v3c0 .646-.692 1.157-1.495 1.748C1.889 10.572.5 11.596.5 13.5c0 3.003.732 7.897.772 8.15C1.461 22.407 2.22 23 3 23h7c.416 0 .818-.177 1.141-.456-.39-.484-.641-1.06-.641-1.697V11.5Zm-1.505 9.071A.5.5 0 0 1 8.5 21h-4a.5.5 0 0 1-.495-.429l-1-7A.5.5 0 0 1 3.5 13h6a.501.501 0 0 1 .495.571l-1 7ZM23 11H12a.5.5 0 0 0-.5.5v9.347C11.5 22.04 12.966 23 14.18 23h6.691c1.191 0 2.629-.96 2.629-2.153V11.5a.5.5 0 0 0-.5-.5Zm-9 7a.5.5 0 1 1 0-1 .5.5 0 0 1 0 1Zm1 2a.5.5 0 1 1 0-1 .5.5 0 0 1 0 1Zm2 1a.5.5 0 1 1 0-1 .5.5 0 0 1 0 1Zm0-2a.5.5 0 1 1 0-1 .5.5 0 0 1 0 1Zm2 0a.5.5 0 1 1 0-1 .5.5 0 0 1 0 1Zm1 2a.5.5 0 1 1 0-1 .5.5 0 0 1 0 1Zm1-3a.5.5 0 1 1 0-1 .5.5 0 0 1 0 1Zm1.5-3h-10v-3h10v3Z"/>
</svg>
