<svg xmlns="http://www.w3.org/2000/svg" viewBox="0 0 24 24">
  <path d="M22.938 3.316c-2.637-1.758-6.238-1.758-8.875 0a.5.5 0 1 1-.554-.832c2.967-1.978 7.018-1.978 9.984 0a.5.5 0 0 1-.555.832Z"/>
  <path d="M21.828 4.98c-1.975-1.319-4.682-1.319-6.656 0a.5.5 0 1 1-.554-.832c2.303-1.539 5.463-1.539 7.766 0a.5.5 0 1 1-.556.832Z"/>
  <path d="M15.588 6.505a.5.5 0 0 1 .139-.694c1.646-1.1 3.898-1.1 5.547 0a.5.5 0 0 1-.554.832c-1.316-.878-3.119-.88-4.438 0a.5.5 0 0 1-.694-.138Zm-5.65-3.189c-2.637-1.758-6.238-1.758-8.875 0a.5.5 0 1 1-.555-.832c2.967-1.978 7.018-1.978 9.984 0a.5.5 0 0 1-.554.832Z"/>
  <path d="M8.828 4.98c-1.975-1.319-4.682-1.319-6.656 0a.5.5 0 1 1-.554-.832c2.303-1.539 5.463-1.539 7.766 0a.5.5 0 1 1-.556.832Z"/>
  <path d="M2.588 6.505a.5.5 0 0 1 .139-.694c1.646-1.098 3.898-1.098 5.547 0a.5.5 0 0 1-.555.833c-1.316-.878-3.119-.88-4.438 0a.5.5 0 0 1-.693-.14ZM21.5 14.47H19v-6a.5.5 0 0 0-1 0v6H6v-6a.5.5 0 0 0-1 0v6H2.5a2.503 2.503 0 0 0-2.5 2.5v2c0 1.38 1.121 2.5 2.5 2.5H3v1a.5.5 0 0 0 1 0v-1h16v1a.5.5 0 0 0 1 0v-1h.5c1.379 0 2.5-1.12 2.5-2.5v-2c0-1.377-1.121-2.5-2.5-2.5ZM4 18.97a.5.5 0 0 1-1 0v-2a.5.5 0 0 1 1 0v2Zm3 0a.5.5 0 0 1-1 0v-2a.5.5 0 0 1 1 0v2Zm3 0a.5.5 0 0 1-1 0v-2a.5.5 0 0 1 1 0v2Zm11 0a.5.5 0 0 1-.5.5H13a.5.5 0 0 1-.5-.5v-2a.5.5 0 0 1 .5-.5h7.5a.5.5 0 0 1 .5.5v2Z"/>
</svg>
