<svg xmlns="http://www.w3.org/2000/svg" viewBox="0 0 25 24">
  <path d="M22 15h-9.5V5.5a.5.5 0 0 0-1 0V15h-9A2.503 2.503 0 0 0 0 17.5v2c0 1.207.86 2.218 2 2.449v.551a.5.5 0 0 0 1 0V22h18.5v.5a.5.5 0 0 0 1 0v-.551c1.14-.231 2-1.241 2-2.449v-2c0-1.378-1.121-2.5-2.5-2.5ZM8.5 19h-6a.5.5 0 0 1 0-1h6a.5.5 0 0 1 0 1Zm6 .5a1 1 0 1 1 0-2 1 1 0 0 1 0 2Zm3 0a1 1 0 1 1 0-2 1 1 0 0 1 0 2Zm3 0a1 1 0 1 1 0-2 1 1 0 0 1 0 2Z"/>
  <path d="M10 7a.5.5 0 0 0 .5-.5v-2a.5.5 0 0 0-1 0v2a.5.5 0 0 0 .5.5ZM7 8a.5.5 0 0 0 .5-.5v-4a.5.5 0 0 0-1 0v4A.5.5 0 0 0 7 8ZM4 9a.5.5 0 0 0 .5-.5v-6a.5.5 0 0 0-1 0v6A.5.5 0 0 0 4 9Zm-3 1a.5.5 0 0 0 .5-.5v-8a.5.5 0 0 0-1 0v8a.5.5 0 0 0 .5.5Zm13-3a.5.5 0 0 0 .5-.5v-2a.5.5 0 0 0-1 0v2a.5.5 0 0 0 .5.5Zm3 1a.5.5 0 0 0 .5-.5v-4a.5.5 0 0 0-1 0v4a.5.5 0 0 0 .5.5Zm3 1a.5.5 0 0 0 .5-.5v-6a.5.5 0 0 0-1 0v6a.5.5 0 0 0 .5.5Zm3 1a.5.5 0 0 0 .5-.5v-8a.5.5 0 0 0-1 0v8a.5.5 0 0 0 .5.5Z"/>
</svg>
