<svg xmlns="http://www.w3.org/2000/svg" viewBox="0 0 24 24">
  <path d="M22.712 14.511 15 10.95v5.481c1.011.796 2.287 1.479 3.71 1.535.063.002.128.002.192.002 1.406 0 2.73-.617 3.995-1.889.133-.122.357-.326.369-.682a.942.942 0 0 0-.554-.886ZM11.979 7.566c1.175 0 2.184.686 2.676 1.67.669-1.591 1.271-3.85.514-5.854C14.61 1.901 13.403.831 11.506.173c-.17-.07-.454-.184-.775-.039-.265.118-.762.468-.731.932v7.279a2.894 2.894 0 0 1 1.979-.779Zm-3 3c0-.133.023-.259.039-.387-2.205-.35-4.728-.197-6.471 1.117C1.193 12.318.506 13.878.503 16.022c-.009.182-.024.485.219.744a.945.945 0 0 0 1.018.239l7.238-2.674v-3.765h.001Z"/>
  <path d="M23.5 23H14V10.566c0-1.103-.898-2.066-2-2.066-1.103 0-2 .963-2 2.066V23H.5a.5.5 0 0 0-.5.5c0 .276.224.5.5.494h23c.276.006.5-.218.5-.494a.5.5 0 0 0-.5-.5Z"/>
</svg>
