<svg xmlns="http://www.w3.org/2000/svg" viewBox="0 0 24 24">
  <path d="M2 2c1.563 0 3.057.668 4.1 1.832a.5.5 0 1 0 .744-.667A6.509 6.509 0 0 0 2 1a.5.5 0 0 0 0 1Zm-.524 6.654A5.508 5.508 0 0 1 4.48 5.317a.5.5 0 0 0-.406-.914 6.515 6.515 0 0 0-3.55 3.944.5.5 0 1 0 .952.307Zm12.439 7.421a.5.5 0 0 0-.65.76 5.51 5.51 0 0 1 1.922 4.059.5.5 0 0 0 .5.488h.012a.5.5 0 0 0 .488-.511 6.516 6.516 0 0 0-2.272-4.796Zm1.76-12.449a.499.499 0 0 0-.278-.615L9.877.651a.503.503 0 0 0-.64.223L3.79 11.093c-.873 2.042-.161 4.485 1.925 5.666l-2.18 5.102-1.84-.786a.5.5 0 0 0-.391.92C1.462 22.063 5.926 24 6.098 24a.499.499 0 0 0 .196-.96l-1.84-.786 2.182-5.104c2.347.706 4.576-.544 5.439-2.564l3.6-10.96ZM6.703 14.527a.5.5 0 1 1-.92-.393.5.5 0 0 1 .92.393Zm.235-3.173a.5.5 0 1 1-.919-.393.5.5 0 0 1 .919.393Zm1.178-2.759a.5.5 0 1 1 .92.394.5.5 0 0 1-.92-.394Zm1.188 4.856a.5.5 0 1 1-.92-.391.5.5 0 0 1 .92.391Zm2.097-2.365a.5.5 0 1 1-.919-.393.5.5 0 0 1 .919.393ZM7.778 5.734 9.905 1.75l4.677 2-1.406 4.286-5.398-2.302Z"/>
  <path d="m22.41 21.74-1.967.357-.99-5.459a4.435 4.435 0 0 0 2.408-1.728c.684-.988.942-2.184.72-3.41L19.55.369a.498.498 0 0 0-.57-.361l-5.57 1.008c-.024.004-.045.019-.07.028l1.647.703 3.72-.673 1.187 4.353-3.996.727-2.186 6.657.03.335a4.47 4.47 0 0 0 4.728 3.675l.989 5.455-1.968.356a.501.501 0 0 0 .178.984l4.92-.892a.5.5 0 1 0-.18-.984Zm-6.3-9.529a.5.5 0 1 1-.18-.983.5.5 0 0 1 .18.983Zm.449-3.13a.5.5 0 1 1-.178-.984.5.5 0 0 1 .178.984Zm1.103 5.909a.499.499 0 1 1-.18-.984.5.5 0 1 1 .18.984Zm1.849-6.444a.5.5 0 1 1 .179.984.5.5 0 0 1-.18-.984Zm-.852 3.711a.5.5 0 1 1 .581.402.498.498 0 0 1-.581-.402Z"/>
</svg>
