<svg xmlns="http://www.w3.org/2000/svg" viewBox="0 0 24 24">
  <path d="M19.162 11h-15c-1.654 0-3 1.346-3 3s1.346 3 3 3h.859l1.655 6.621a.502.502 0 0 0 .486.379h9a.5.5 0 0 0 .485-.379L18.303 17h.859c1.654 0 3-1.346 3-3s-1.346-3-3-3Zm-15 5c-1.102 0-2-.896-2-2a2 2 0 0 1 1.619-1.961L4.772 16h-.61Zm15 0h-.609l.99-3.961A2 2 0 0 1 21.162 14c0 1.104-.897 2-2 2Zm2.424-11.949 1.768-1.768a.505.505 0 0 0 0-.707L21.94.163a.499.499 0 0 0-.707 0L19.465 1.93l2.121 2.121ZM11.995 10l-2.43-2.413L7.136 10h4.859Zm1.414 0h5.017c.111-.655.125-1.243.125-1.707 0-.999 0-1.207.914-2.12l1.414-1.414-2.121-2.122-1.414 1.414c-.914.914-1.122.914-2.122.914-1.061 0-3.035 0-4.596 1.562l-.353.353L13.409 10Z"/>
</svg>
