<svg xmlns="http://www.w3.org/2000/svg" viewBox="0 0 24 24">
  <path d="M9 8a1 1 0 1 0 0 2 1 1 0 0 0 0-2Z"/>
  <path d="M12.449 9.53C11.487 7.762 11 5.742 11 4V.5a.5.5 0 0 0-.5-.5h-3a.5.5 0 0 0-.5.5V4c0 1.96-.494 3.775-1.43 5.492C4.409 11.627 4 13.5 4 15.5v6C4 22.878 5.121 24 6.5 24h5c1.379 0 2.5-1.122 2.5-2.5v-1.262a4.55 4.55 0 0 1-1-.944V20H5v-4h7.056l.799-5.59c-.131-.295-.251-.597-.406-.88ZM8 4V3h2v1c0 1.819.479 3.905 1.423 5.731l-.37.52a2.454 2.454 0 0 1-2.043 1.051 2.47 2.47 0 0 1-2.039-1.067l-.376-.54C7.515 7.899 8 6.023 8 4Z"/>
  <path d="M19 23h-2v-3.05c1.691-.246 3-1.691 3-3.45a.565.565 0 0 0-.005-.071l-1-7A.5.5 0 0 0 18.5 9h-4a.5.5 0 0 0-.495.429L13 16.5c0 1.759 1.309 3.204 3 3.45V23h-2a.5.5 0 0 0 0 1h5a.5.5 0 0 0 0-1Zm-1.5-7a.5.5 0 1 1 0-1 .5.5 0 0 1 0 1Zm-2.566-6h3.133l.428 3h-3.988l.427-3Zm.566 7a.5.5 0 1 1 1 0 .5.5 0 0 1-1 0Z"/>
</svg>
