<svg xmlns="http://www.w3.org/2000/svg" viewBox="0 0 24 24">
  <path fill-rule="evenodd" d="m6.16 8.796 3.455 3.591 2.72-2.832-3.46-3.605a4.611 4.611 0 0 0-1.04-4.618C6.606.05 4.754-.327 3.168.371a.512.512 0 0 0-.173.792L4.67 3.13v1.31H3.417L1.573 2.659a.474.474 0 0 0-.427-.122.493.493 0 0 0-.342.295 4.587 4.587 0 0 0 .922 4.9A4.24 4.24 0 0 0 6.16 8.796Zm11.504 6.31-3.294-3.431-2.717 2.832 3.296 3.427c-.524 1.617-.133 3.398 1.04 4.619a4.204 4.204 0 0 0 4.74.958.495.495 0 0 0 .284-.36.518.518 0 0 0-.125-.447l-1.82-1.964v-1.3h1.254l1.93 1.856a.466.466 0 0 0 .426.122.482.482 0 0 0 .341-.294c.69-1.697.328-3.635-.922-4.936-1.15-1.198-2.905-1.618-4.433-1.082Zm5.732-13.453-1.44-1.5a.466.466 0 0 0-.613-.057l-3.4 2.459a.513.513 0 0 0-.065.765l.9.936-9.571 9.971-1.698-1.767a.465.465 0 0 0-.678 0 .515.515 0 0 0 0 .707l.677.706-5.969 6.22c-.363.378-.562.88-.562 1.413 0 .535.2 1.038.561 1.413a1.863 1.863 0 0 0 2.716.001l5.968-6.218.68.707a.468.468 0 0 0 .678 0 .515.515 0 0 0 0-.707l-1.696-1.767 9.573-9.972.796.83a.47.47 0 0 0 .34.148l.035-.002a.467.467 0 0 0 .35-.199l2.463-3.434a.516.516 0 0 0-.044-.653Z" clip-rule="evenodd"/>
</svg>
